<svg id="Layer_1" data-name="Layer 1" xmlns="http://www.w3.org/2000/svg" viewBox="0 0 100 100"><defs><style>.cls-1{fill:#5cc3af;}.cls-2{fill:#004865;}</style></defs><g id="g5447"><polygon id="polygon5427" class="cls-1" points="50.06 47.4 60.88 28.61 39.12 28.61 50.06 47.4"/><polygon id="polygon5429" class="cls-1" points="47.92 48.59 36.98 29.8 26.04 48.59 47.92 48.59"/><polygon id="polygon5431" class="cls-1" points="36.98 69.99 47.92 51.09 26.04 51.09 36.98 69.99"/><polygon id="polygon5433" class="cls-1" points="34.84 71.18 24.02 52.28 12.96 71.18 34.84 71.18"/><polygon id="polygon5435" class="cls-1" points="73.96 48.59 63.02 29.8 52.08 48.59 73.96 48.59"/><polygon id="polygon5437" class="cls-1" points="63.02 69.99 73.96 51.09 52.08 51.09 63.02 69.99"/><polygon id="polygon5439" class="cls-1" points="60.88 26.12 50.06 7.21 39.12 26.12 60.88 26.12"/><polygon id="polygon5441" class="cls-1" points="24.02 92.58 34.84 73.56 12.96 73.56 24.02 92.58"/><polygon id="polygon5443" class="cls-1" points="86.92 71.18 76.1 52.28 65.16 71.18 86.92 71.18"/><polygon id="polygon5445" class="cls-1" points="76.1 92.58 86.92 73.56 65.16 73.56 76.1 92.58"/></g><g id="g5477"><polygon id="polygon5449" class="cls-2" points="60.88 71.18 50.06 52.28 39.12 71.18 60.88 71.18"/><polygon id="polygon5451" class="cls-2" points="24.02 47.4 34.84 28.61 12.96 28.61 24.02 47.4"/><polygon id="polygon5453" class="cls-2" points="21.88 48.59 10.94 29.8 0 48.59 21.88 48.59"/><polygon id="polygon5455" class="cls-2" points="10.94 69.99 21.88 51.09 0 51.09 10.94 69.99"/><polygon id="polygon5457" class="cls-2" points="100 48.59 89.06 29.8 78.24 48.59 100 48.59"/><polygon id="polygon5459" class="cls-2" points="89.06 69.99 100 51.09 78.24 51.09 89.06 69.99"/><polygon id="polygon5461" class="cls-2" points="63.02 24.81 73.96 6.02 52.08 6.02 63.02 24.81"/><polygon id="polygon5463" class="cls-2" points="50.06 92.58 60.88 73.56 39.12 73.56 50.06 92.58"/><polygon id="polygon5465" class="cls-2" points="73.96 93.89 63.02 74.87 52.08 93.89 73.96 93.89"/><polygon id="polygon5467" class="cls-2" points="36.98 24.81 47.92 6.02 26.04 6.02 36.98 24.81"/><polygon id="polygon5469" class="cls-2" points="34.84 26.12 24.02 7.21 12.96 26.12 34.84 26.12"/><polygon id="polygon5471" class="cls-2" points="86.92 26.12 76.1 7.21 65.16 26.12 86.92 26.12"/><polygon id="polygon5473" class="cls-2" points="76.1 47.4 86.92 28.61 65.16 28.61 76.1 47.4"/><polygon id="polygon5475" class="cls-2" points="47.92 93.89 36.98 74.87 26.04 93.89 47.92 93.89"/></g></svg>