<svg id="Layer_1" data-name="Layer 1" xmlns="http://www.w3.org/2000/svg" viewBox="0 0 100 100"><defs><style>.cls-1{fill:#d1a41a;}.cls-2{fill:#ffdc76;}</style></defs><g id="cvfa"><path class="cls-1" d="M16.91,60.71q1.72,2.11,3.83,4.31a17.27,17.27,0,0,0-8.46,5.55,15.93,15.93,0,0,0-3.73,11H1.48C2.9,78.53,8.55,69.68,16.86,60.71Z"/><path class="cls-1" d="M98.58,83.62H90C70.35,73.37,53.06,66.14,34.85,64.55a35.32,35.32,0,0,1,1.37-8.66l-1.69-.45a37,37,0,0,0-1.42,9c-1.91-.13-3.84-.19-5.79-.19a24,24,0,0,0-4.5.41,60.71,60.71,0,0,1-4.59-5.09C26.7,50.73,40.6,42.77,52.76,39.78c3.41,11.34,10.75,19.1,19.65,24.35.65-.38,1.29-.76,1.92-1.18l15.53,16.7.68-.06a8.76,8.76,0,0,1,7.3,2.65,5,5,0,0,1,.91,1.38Z"/><path class="cls-2" d="M90.81,27.62c.32,15.42-7.53,27.69-18.56,34C53.57,52.28,50,28.71,53.22,16.16c.88,4.86,2.5,7.89,6,9.36a52.16,52.16,0,0,1,25.71-.22c3.2-2.33,4.46-5.9,5.12-9,.85,3.62.75,11.46.76,11.46Z"/></g><polygon points="38.38 44.86 43.82 42.22 46.93 50.61 38.38 44.86"/><polygon points="32.29 47.93 35.67 45.91 38.77 51.39 32.29 47.93"/><polygon points="25.73 52.16 28.68 50.22 30.15 55.27 25.73 52.16"/><polygon points="78 66.14 76.05 64.2 73.33 68.47 78 66.14"/><polygon points="81.88 70.8 80.33 69.25 75.67 72.36 81.88 70.8"/><polygon points="74.89 23.11 69.45 23.23 72.56 30.42 74.89 23.11"/><polygon points="53.53 36.75 52.75 33.68 58.19 36.44 53.53 36.75"/><polygon points="54.7 41.29 54.31 39.27 57.41 40.55 54.7 41.29"/><polygon points="90.42 38.03 91.2 35.7 86.93 37.48 90.42 38.03"/><polygon points="88.87 42.77 89.26 40.86 86.15 41.79 88.87 42.77"/><rect x="51.2" y="48.78" width="10.17" height="1.26"/><rect x="51.2" y="45.76" width="10.17" height="1.26"/><rect x="82.27" y="48.78" width="10.17" height="1.26"/><rect x="82.27" y="45.76" width="10.17" height="1.26"/><path d="M78.77,38.3H62.15V37.17h5.17c.63-2.73.76-5.33,0-6.65a1.52,1.52,0,0,0-1.42-.82c-3,0-4.2,3.13-4.24,3.26h0l-1.06-.4c.06-.16,1.54-4,5.28-4A2.66,2.66,0,0,1,68.28,30c.93,1.61.83,4.39.19,7.22h9.09c1.2-3.54,3.72-5.2,7.92-5.2V33.1c-4.54,0-5.83,1.93-6.76,4.08h4.93v1.13Z"/><path d="M79.55,43.89h0c-1.35-2-1.77-3.67-1.21-5.59H77.19a6.31,6.31,0,0,0,.75,4.86H66.41a27.93,27.93,0,0,0,1.83-4.86H67.06A24.47,24.47,0,0,1,65,43.47l-.27.47L71.2,48l-3.65,2.4.63.94,4.08-2.68,4.38,2.87.61-1-4.08-2.52,6.41-4.16h0Zm-7.34,3.42-4.78-3h9.36Z"/><path d="M92.25,26.48c0-2-.62-10.25-1.73-12.54-3,1.16-8.54,4.92-9.77,8.75a60.49,60.49,0,0,0-18.61.23c-1-4.14-5.92-7.27-9.65-9.05-1.57,2.67-2.27,8.86-2.09,13.27h0c.69,18.45,9.69,29.94,21.45,36.9C84,57.09,92.6,43.51,92.25,26.49h0ZM82.17,22.92l.14,0Zm-.75-.13.32.05Zm9,5C90.69,43.17,82.92,55.39,72,61.66,53.51,52.38,50,28.9,53.16,16.41c.88,4.83,2.47,7.85,5.92,9.32a51.16,51.16,0,0,1,25.46-.22c3.17-2.32,4.42-5.88,5.07-9,.84,3.61.74,11.41.75,11.41Z"/><path d="M98.4,80.9c-1.9-2.14-5.61-3.15-8.73-3.08-2.21-2.64-15-16.2-15-16.2l-.89,1.12L89.24,79.45l.67-.06A8.62,8.62,0,0,1,97.14,82,5.1,5.1,0,0,1,98,83.4h-8.5C70.09,73.18,53,66,35,64.4a35.89,35.89,0,0,1,1.35-8.62l-1.67-.46a37.77,37.77,0,0,0-1.4,8.94c-1.9-.13-3.8-.19-5.73-.19a23.43,23.43,0,0,0-4.46.41,59.46,59.46,0,0,1-4.54-5.06c8.42-8.82,22.34-16.83,34.41-19.77L52.52,38c-13,3.15-27.22,11.72-35.14,20C13.7,53,12.23,48.9,11.8,45.8a13.35,13.35,0,0,1,2.7-10.4c3.61-4.53,8.72-4.84,14-3.95a3.27,3.27,0,0,0,.34,2.14c1.39,2.07,8.88,2.8,13.38.79-3.31-4.64-10-6.92-11.84-6a3.15,3.15,0,0,0-1.4,1.5,29.45,29.45,0,0,0-5-.56,13.2,13.2,0,0,0-10.88,5A15,15,0,0,0,10.11,46c.59,4.17,2.64,8.62,6.08,13.22-.57.62-1.13,1.23-1.66,1.83C6.15,70.49,0,80.66,0,82.32v.87H11.07l-.19-1c-.63-3.33.62-7.5,3.18-10.6a15.62,15.62,0,0,1,8.46-5.22A116.73,116.73,0,0,0,36.24,77.6h8.23v-.87a2.85,2.85,0,0,0-1.36-2.43A6.13,6.13,0,0,0,38,74a12.65,12.65,0,0,1-3-7.85c17.88,1.6,35,8.86,54.21,19H99.82l.14-.7a4.56,4.56,0,0,0-1.44-3.57ZM12.67,70.53A15.87,15.87,0,0,0,9,81.52H2c1.4-3.06,7-11.88,15.22-20.81Q18.91,62.83,21,65a17.09,17.09,0,0,0-8.38,5.53Z"/></svg>