<svg id="Layer_1" data-name="Layer 1" xmlns="http://www.w3.org/2000/svg" xmlns:xlink="http://www.w3.org/1999/xlink" viewBox="0 0 100 100"><defs><style>.cls-1{fill:url(#linear-gradient);}.cls-2{fill:url(#linear-gradient-2);}.cls-3{fill:url(#linear-gradient-3);}.cls-4{fill:url(#linear-gradient-4);}.cls-5{fill:url(#linear-gradient-5);}.cls-6{fill:url(#linear-gradient-6);}.cls-7{fill:url(#linear-gradient-7);}</style><linearGradient id="linear-gradient" x1="532.18" y1="648.8" x2="532.46" y2="648.88" gradientTransform="matrix(74.79, 0, 0, -68.35, -39737.61, 44355.34)" gradientUnits="userSpaceOnUse"><stop offset="0" stop-color="#f69923"/><stop offset="0.31" stop-color="#f79a23"/><stop offset="0.84" stop-color="#e97826"/></linearGradient><linearGradient id="linear-gradient-2" x1="532.32" y1="644.91" x2="532.9" y2="645.65" gradientTransform="matrix(74.41, 0, 0, -122.52, -39593.42, 79117.56)" gradientUnits="userSpaceOnUse"><stop offset="0.32" stop-color="#9e2064"/><stop offset="0.63" stop-color="#c92037"/><stop offset="0.75" stop-color="#cd2335"/><stop offset="1" stop-color="#e97826"/></linearGradient><linearGradient id="linear-gradient-3" x1="535.1" y1="643.62" x2="535.55" y2="644.04" gradientTransform="matrix(96.12, 0, 0, -217.25, -51418.43, 139924.42)" xlink:href="#linear-gradient-2"/><linearGradient id="linear-gradient-4" x1="532.67" y1="644.66" x2="533.03" y2="644.89" gradientTransform="matrix(62.36, 0, 0, -206.39, -33193.23, 133144.23)" gradientUnits="userSpaceOnUse"><stop offset="0" stop-color="#282662"/><stop offset="0.1" stop-color="#662e8d"/><stop offset="0.79" stop-color="#9f2064"/><stop offset="0.95" stop-color="#cd2032"/></linearGradient><linearGradient id="linear-gradient-5" x1="535.05" y1="645.74" x2="535.43" y2="646.62" gradientTransform="matrix(110.87, 0, 0, -104.49, -59294.77, 67581.72)" xlink:href="#linear-gradient-2"/><linearGradient id="linear-gradient-6" x1="537.12" y1="644.02" x2="537.4" y2="644.49" gradientTransform="matrix(149.62, 0, 0, -195.66, -80333.54, 126108.19)" xlink:href="#linear-gradient-2"/><linearGradient id="linear-gradient-7" x1="534.69" y1="650.15" x2="534.98" y2="650.79" gradientTransform="matrix(88.85, 0, 0, -84.37, -47477.92, 54949.28)" xlink:href="#linear-gradient-4"/></defs><path class="cls-1" d="M67.24.6c-1.56.92-4.18,3.55-7.3,7.36v.23l2.73,5.05.14.1a70,70,0,0,1,6.1-7.66l.24-.26-.24.26a63.7,63.7,0,0,0-5.73,7.76l.35.08s7.12-.71,10.55-1.29l.2-.18c1.09-6.12-1.08-8.93-1.08-8.93S70.47-1.29,67.24.6Z"/><path class="cls-2" d="M54.38,27.29c.88-1.62,1.76-3.22,2.64-4.76s1.85-3.16,2.8-4.66a1.28,1.28,0,0,0,.16-.28c.94-1.48,1.87-2.88,2.83-4.25l-2.87-5.4c-.21.25-.43.52-.64.8-.82,1-1.68,2.12-2.56,3.29-1,1.33-2,2.73-3,4.22s-1.93,2.8-2.89,4.27c-.82,1.27-1.65,2.55-2.47,3.9l-.1.15v.22l3.57,7.08.15.06C52.76,30.37,53.56,28.81,54.38,27.29Z"/><path class="cls-3" d="M38.84,61.94c.64-1.67,1.32-3.37,2-5.09s1.32-3.29,2-5,1.4-3.32,2.12-5,1.48-3.4,2.24-5.07,1.53-3.32,2.31-5c.27-.58.56-1.19.85-1.77.49-1,1-2,1.49-3a.69.69,0,0,0,.07-.15l-3.72-7.36-.18.3c-.85,1.42-1.73,2.86-2.57,4.35s-1.7,3-2.52,4.56c-.7,1.31-1.36,2.61-2,3.94-.13.27-.25.53-.39.8-.81,1.68-1.54,3.28-2.2,4.84q-1.11,2.63-2,5c-.39,1-.72,2-1,3s-.51,1.66-.74,2.48c-.57,2-1,3.88-1.43,5.83l.06.23,3.57,7.1.12.06c.49-1.32,1-2.65,1.52-4C38.55,62.7,38.7,62.33,38.84,61.94Z"/><path class="cls-4" d="M33.1,60a59.54,59.54,0,0,0-1,7.06c0,.08,0,.16,0,.26-1.17-1.87-4.29-3.69-4.29-3.69,2.24,3.24,3.94,6.46,4.19,9.62a9.64,9.64,0,0,1-4.74-.8,9.39,9.39,0,0,0,4,2.45c-1.81.12-3.71,1.37-5.62,2.79,2.79-1.13,5-1.58,6.65-1.22-2.55,7.23-5.11,15.23-7.68,23.69a2.25,2.25,0,0,0,1.52-1.48c.45-1.54,3.49-11.6,8.23-24.85.14-.37.27-.76.41-1.13l.12-.31c.5-1.39,1-2.81,1.56-4.25l.37-1v0l-3.73-7.37A.87.87,0,0,1,33.1,60Z"/><path class="cls-5" d="M63.18,13.46q-1.26,1.92-2.75,4.41c-.06.07-.1.17-.16.25-.85,1.44-1.75,3-2.71,4.74-.82,1.48-1.68,3.08-2.57,4.82-.78,1.5-1.58,3.08-2.4,4.77l.17.08,9.07-1,.22-.16a11.46,11.46,0,0,0,5.17-4.08c.31-.44.64-.93,1-1.42a54.29,54.29,0,0,0,2.77-4.84c.82-1.6,1.54-3.19,2.11-4.62a26.26,26.26,0,0,0,.84-2.5c.17-.66.31-1.28.41-1.87A100.55,100.55,0,0,1,63.18,13.46Z"/><path class="cls-6" d="M52.24,33.21c-.31.67-.65,1.35-1,2s-.72,1.52-1.07,2.3l-.55,1.19c-.56,1.21-1.11,2.46-1.69,3.75-.71,1.58-1.43,3.24-2.15,4.93s-1.4,3.32-2.11,5.07-1.36,3.38-2,5.13c-.63,1.58-1.25,3.18-1.88,4.86a1.57,1.57,0,0,1-.09.23c-.63,1.66-1.24,3.35-1.88,5.08,0,0,0,.15-.07.18l.13,0,2.71-.29.16-.06c-.06,0-.1-.1-.16-.12,3.59-.45,8.37-3.14,11.47-6.45A29.1,29.1,0,0,0,56,55.62a46.59,46.59,0,0,0,2.52-5.24c.7-1.68,1.36-3.51,2-5.48a10.7,10.7,0,0,1-2.81,1l-.57.12-.56.1a13.14,13.14,0,0,0,7-6.83,12,12,0,0,1-4,1.78l-.72.13-.17,0a13.57,13.57,0,0,0,3-1.68l.53-.42.74-.71.45-.48a10.65,10.65,0,0,0,.93-1.29c.1-.14.18-.29.27-.43s.22-.43.32-.64c.46-.94.84-1.78,1.13-2.52.15-.37.27-.7.39-1,0-.12.08-.26.13-.37.12-.36.22-.67.3-1a10,10,0,0,0,.21-1,3.29,3.29,0,0,1-.39.28,14.07,14.07,0,0,1-4.15,1.4l2.77-.31-2.77.31-.49.1-9.38,1A7.91,7.91,0,0,0,52.24,33.21Z"/><path class="cls-7" d="M37.43,68.69C37,70,36.44,71.42,36,72.83c0,0,0,0,0,.06-.08.19-.13.39-.21.6-.33,1-.63,1.79-1.29,3.74a7.67,7.67,0,0,1,2.81,3.32,5.87,5.87,0,0,0-2-4.11c5.4.23,10.06-1.14,12.46-5.08a9.75,9.75,0,0,0,.59-1.11c-1.1,1.39-2.46,2-5,1.84h0c3.77-1.68,5.64-3.3,7.32-6,.39-.65.78-1.33,1.17-2.09a11.82,11.82,0,0,1-11.1,3.61l-3,.33C37.63,68.19,37.53,68.44,37.43,68.69Z"/></svg>