<svg id="Layer_1" data-name="Layer 1" xmlns="http://www.w3.org/2000/svg" xmlns:xlink="http://www.w3.org/1999/xlink" viewBox="0 0 100 100"><defs><style>.cls-1{fill:none;}.cls-2{clip-path:url(#clip-path);}.cls-3{fill:url(#linear-gradient);}.cls-4{clip-path:url(#clip-path-2);}.cls-5{fill:url(#linear-gradient-2);}</style><clipPath id="clip-path"><path class="cls-1" d="M168,120.68l-39.2,22.62a4.73,4.73,0,0,0-2.37,4.1v45.28a4.7,4.7,0,0,0,2.37,4.09L168,219.41a4.71,4.71,0,0,0,4.73,0l39.19-22.64a4.73,4.73,0,0,0,2.37-4.09V147.4a4.74,4.74,0,0,0-2.38-4.1l-39.18-22.62a4.77,4.77,0,0,0-4.74,0"/></clipPath><linearGradient id="linear-gradient" x1="59.09" y1="399.07" x2="60.2" y2="399.07" gradientTransform="matrix(-50.75, 103.54, 103.54, 50.75, -38120.43, -26259.22)" gradientUnits="userSpaceOnUse"><stop offset="0.3" stop-color="#3e863d"/><stop offset="0.5" stop-color="#55934f"/><stop offset="0.8" stop-color="#5aad45"/></linearGradient><clipPath id="clip-path-2"><path class="cls-1" d="M127.43,195.55a4.54,4.54,0,0,0,1.39,1.22l33.62,19.42,5.6,3.22a4.7,4.7,0,0,0,2.73.62,4.23,4.23,0,0,0,.93-.17L213,144.17a4.91,4.91,0,0,0-1.1-.87l-25.67-14.82-13.56-7.81a5,5,0,0,0-1.23-.49Z"/></clipPath><linearGradient id="linear-gradient-2" x1="61.17" y1="402.66" x2="61.89" y2="402.66" gradientTransform="matrix(142.41, -105.22, -105.22, -142.41, 33777.4, 63986.74)" gradientUnits="userSpaceOnUse"><stop offset="0.57" stop-color="#3e863d"/><stop offset="0.72" stop-color="#619857"/><stop offset="1" stop-color="#76ac64"/></linearGradient></defs><path d="M68.28,55.4a13.06,13.06,0,0,0-9.79,4.46l-6.13-4.33a16.47,16.47,0,0,0,0-11.33l6.13-4.3a13,13,0,0,0,22.8-8.6,13,13,0,1,0-26.09-.08,14,14,0,0,0,.53,3.71l-6.13,4.31a16.85,16.85,0,0,0-10.43-6.06V25.8a13,13,0,1,0-5.58-.05v7.46a16.82,16.82,0,0,0,.11,33.16v7.88a13,13,0,1,0,5.57,0V66.37a16.75,16.75,0,0,0,10.25-6l6.16,4.38a12.72,12.72,0,0,0-.53,3.67,13,13,0,1,0,13.08-13Zm0-30.5A6.33,6.33,0,1,1,62,31.25a6.33,6.33,0,0,1,6.31-6.35ZM30.24,13a6.32,6.32,0,1,1,6.32,6.32A6.33,6.33,0,0,1,30.24,13ZM42.88,87a6.32,6.32,0,1,1-6.32-6.32A6.33,6.33,0,0,1,42.88,87Zm-6.32-28.4a8.82,8.82,0,1,1,8.81-8.82,8.81,8.81,0,0,1-8.81,8.82ZM68.28,74.75a6.32,6.32,0,1,1,6.32-6.31,6.33,6.33,0,0,1-6.32,6.31Z"/><g class="cls-2"><path class="cls-3" d="M253.91,139.46,143.47,85.33,86.85,200.84,197.28,255Z"/></g><g class="cls-4"><path class="cls-5" d="M79.68,155.47l78,105.55,103.13-76.2-78-105.54Z"/></g></svg>