<svg id="Layer_1" data-name="Layer 1" xmlns="http://www.w3.org/2000/svg" viewBox="0 0 100 100"><defs><style>.cls-1{fill:#e21836;fill-rule:evenodd;}</style></defs><g id="LOGOS"><g id="Group-5"><polyline id="Fill-1" class="cls-1" points="16.93 62.8 13.57 56.82 25.7 56.82 19.61 43.92 10.68 62.8 0 62.8 13.98 37.31 25.23 37.31 39.11 62.8 16.93 62.8"/><g id="Group-7"><path id="Fill-2" class="cls-1" d="M39.17,48H52.48c3.36,0,4.7-.21,4.7-2.59s-1.09-2.52-4.55-2.52H39.11l-3-5.58H54.9c8.88,0,12.18,3.87,12.18,8,0,4-3,8.36-12.79,8.36H49.85V62.8H39.11V48h.06"/><path id="Fill-4" class="cls-1" d="M94.9,60.9a27.4,27.4,0,0,1-11.41,2.22c-12.79,0-17.18-7.13-17.18-13C66.31,42.68,72.81,37,84,37a29.84,29.84,0,0,1,10.63,1.76v7.38a18,18,0,0,0-8.93-2.38C80.35,43.71,76,46.14,76,50s4.49,6.29,9.86,6.29a19.94,19.94,0,0,0,9.08-2.22V60.9"/><path id="Fill-5" class="cls-1" d="M96,39c-.11,0-.16,0-.16-.15h0c0-.09,0-.14.16-.14h1.51c.1,0,.15,0,.15.14h0a.13.13,0,0,1-.15.15h-.59v1.69a.14.14,0,0,1-.15.16h0a.14.14,0,0,1-.15-.16V39H96"/><path id="Fill-6" class="cls-1" d="M98,40.73V38.91a.18.18,0,0,1,.19-.19h.09c.14,0,.17.05.22.17L99,40l.51-1.14c0-.12.09-.17.21-.17h.09a.19.19,0,0,1,.2.19v1.82c0,.1,0,.16-.14.16h0c-.1,0-.13-.06-.13-.16V39.16l-.48,1.07a.19.19,0,0,1-.21.14.2.2,0,0,1-.22-.14l-.47-1.06v1.56c0,.1,0,.16-.14.16h0c-.09,0-.13-.06-.13-.16"/></g></g></g></svg>