<svg id="Layer_1" data-name="Layer 1" xmlns="http://www.w3.org/2000/svg" viewBox="0 0 100 100"><defs><style>.cls-1{fill:#1e5f90;}.cls-2{fill:#fff;}</style></defs><rect class="cls-1" x="22.82" y="38.47" width="54.7" height="23.06" rx="3"/><path class="cls-2" d="M35.17,47.11a2.19,2.19,0,0,0-1.89.92,4.22,4.22,0,0,0-.67,2.55c0,2.27.85,3.41,2.56,3.41a8.08,8.08,0,0,0,2.6-.54v1.82a7.4,7.4,0,0,1-2.81.52,4.28,4.28,0,0,1-3.4-1.35,5.74,5.74,0,0,1-1.18-3.87A6.44,6.44,0,0,1,31,47.78,4.18,4.18,0,0,1,32.63,46a4.87,4.87,0,0,1,2.54-.64,6.83,6.83,0,0,1,3,.72l-.7,1.76a10.36,10.36,0,0,0-1.15-.48A3.5,3.5,0,0,0,35.17,47.11Z"/><path class="cls-2" d="M46.89,55.65l-.74-2.43H42.43l-.73,2.43H39.37L43,45.42h2.65l3.61,10.23Zm-1.26-4.24-1.15-3.73A5.93,5.93,0,0,1,44.3,47q-.24.89-1.32,4.41Z"/><path class="cls-2" d="M60.46,50.54a6.48,6.48,0,0,1-.63,3A3.89,3.89,0,0,1,58,55.34l2.46,2.74H57.64l-1.87-2.29h-.16A4.65,4.65,0,0,1,52,54.43a5.59,5.59,0,0,1-1.25-3.9A5.47,5.47,0,0,1,52,46.64a4.69,4.69,0,0,1,3.61-1.34,4.65,4.65,0,0,1,3.59,1.35A5.54,5.54,0,0,1,60.46,50.54Zm-7.43,0a4.25,4.25,0,0,0,.64,2.57,2.28,2.28,0,0,0,1.94.87q2.6,0,2.59-3.44c0-2.3-.86-3.44-2.57-3.44a2.31,2.31,0,0,0-2,.86A4.23,4.23,0,0,0,53,50.54Z"/><path class="cls-2" d="M63.29,55.65V45.46h2.16v8.4h4.14v1.79Z"/></svg>