<svg id="Layer_1" data-name="Layer 1" xmlns="http://www.w3.org/2000/svg" viewBox="0 0 100 100"><defs><style>.cls-1{fill:#f0424d;}</style></defs><path class="cls-1" d="M81.56,89.6c-3.54-1.9-5.59-4-6-6.35s.57-4.73,3.06-7.62A37.7,37.7,0,0,0,50.13,13.2h-.34A37.7,37.7,0,0,0,21.34,75.63c2.52,2.91,3.49,5.31,3.1,7.52S22,87.63,18.38,89.59A52.6,52.6,0,0,1,5,72.74,49.82,49.82,0,0,1,49.82,1.06h.33A49.8,49.8,0,0,1,100,50.89a50.25,50.25,0,0,1-5,21.85A53.25,53.25,0,0,1,81.56,89.59M63.15,98.92a18.14,18.14,0,0,1-4.49-4.51A20.44,20.44,0,0,1,54.75,82a27.69,27.69,0,0,1,2-9.88,28.22,28.22,0,0,1,5.42-8.47l0,0,.51-.6a22.73,22.73,0,0,0,2.51-3.3A16.87,16.87,0,0,0,67.17,55a17.51,17.51,0,0,0-2.76-14.22,17.52,17.52,0,0,0-5-4.74,17.33,17.33,0,0,0-6.78-2.47,17.14,17.14,0,0,0-2.48-.18h-.36a17.24,17.24,0,0,0-2.48.18A17.59,17.59,0,0,0,40.49,36a18,18,0,0,0-5,4.75A17.56,17.56,0,0,0,32.7,55a16.87,16.87,0,0,0,1.92,4.73A23.29,23.29,0,0,0,37.13,63l.51.6v0a28,28,0,0,1,5.43,8.47,27.69,27.69,0,0,1,2,9.88A20.43,20.43,0,0,1,41.2,94.41a19.19,19.19,0,0,1-4.48,4.51l-2.89-.87a51.17,51.17,0,0,1-8.3-3.66A14.15,14.15,0,0,0,33,81.94a15,15,0,0,0-4-9.84L28.88,72l-.79-.87L26,68.63a29.59,29.59,0,0,1-5.09-10.86,29.69,29.69,0,0,1,24.7-36.26,29.28,29.28,0,0,1,4.18-.3h.38a29.17,29.17,0,0,1,4.18.3,29.65,29.65,0,0,1,20,12.2A29.57,29.57,0,0,1,79,57.79a29.86,29.86,0,0,1-5.08,10.87c-.67.88-1.37,1.65-2.13,2.48l-.76.85-.14.14c-2.68,3.21-4,6.43-4,9.83a14.17,14.17,0,0,0,7.46,12.45,49.23,49.23,0,0,1-8.31,3.66l-2.87.87M50,61.21a9.84,9.84,0,1,1,9.84-9.84A9.86,9.86,0,0,1,50,61.21"/></svg>