<svg id="Layer_1" data-name="Layer 1" xmlns="http://www.w3.org/2000/svg" viewBox="0 0 100 100"><defs><style>.cls-1{fill:#80c056;}.cls-1,.cls-2{fill-rule:evenodd;}.cls-2{fill:#04789a;}.cls-3{fill:none;}.cls-4{fill:#fff;}</style></defs><path class="cls-1" d="M39.93,48.51l3-2.91V41.75c0-1,.19-1.18,1.2-1.18h4c.79,0,1,.27,1.08,1.06,0,1.13,0,2.28,0,3.4a1.29,1.29,0,0,0,.42,1.06c.68.66,1.37,1.35,2,2a.94.94,0,0,0,.74.37h3.45c.93-.93,1.84-1.81,2.72-2.7a.94.94,0,0,0,.22-.73V41.58c0-.79.25-1,1-1H64c.76,0,1,.27,1,1,0,1.43,0,2.85,0,4.27,0,.73-.29,1-1,1H60.49a1.25,1.25,0,0,0-1,.4q-1,1-2,2a1.28,1.28,0,0,0-.42,1c0,1.16,0,2.33,0,3.48,0,.76-.3,1-1,1H51.89c-.78,0-1-.24-1-1,0-1.15,0-2.33,0-3.48a1.16,1.16,0,0,0-.42-1c-.73-.69-1.44-1.42-2.13-2.13a1,1,0,0,0-.81-.35H47c-1,0-2.11-.34-2.92.13a15.56,15.56,0,0,0-2.65,2.5,1,1,0,0,0-.22.78v3.41c0,.83-.27,1.07-1.1,1.1H36c-.78,0-1-.25-1-1V49.45c0-.74.27-1,1-1,1.3,0,2.65,0,3.92,0Z"/><path class="cls-2" d="M35,35.94c0-.71,0-1.39,0-2.1a.89.89,0,0,1,1-1c1.42,0,2.84,0,4.27,0a.89.89,0,0,1,1,1c0,1.4,0,2.79,0,4.19a.92.92,0,0,1-1,1.05c-1.4,0-2.8,0-4.19,0-.67,0-1-.36-1-1S35,36.65,35,35.94Zm0,23.63V57.48a.92.92,0,0,1,1-1c1.39,0,2.79,0,4.19,0,.71,0,1,.35,1,1.06,0,1.39,0,2.79,0,4.19a.91.91,0,0,1-1,1q-2.13,0-4.26,0a.86.86,0,0,1-1-1C35,61,35,60.3,35,59.57Zm7.94-23.85c0-.68,0-1.35,0-2s.32-1.06,1-1.06c1.4,0,2.79,0,4.19,0,.69,0,1,.32,1,1q0,2.13,0,4.26a.92.92,0,0,1-1,1c-1.4,0-2.79,0-4.19,0-.71,0-1-.35-1-1.08s0-1.4,0-2.11Zm7.92,0c0-.71,0-1.4,0-2.11a.89.89,0,0,1,1-1q2.13,0,4.26,0a.93.93,0,0,1,1,1q0,2.13,0,4.26a.92.92,0,0,1-.83,1h-.15c-1.45,0-2.89,0-4.31,0a.92.92,0,0,1-1-.83V37.9c0-.71,0-1.44,0-2.2ZM45.93,54.79c-.68,0-1.34,0-2,0a.9.9,0,0,1-1-1c0-1.42,0-2.84,0-4.27a.88.88,0,0,1,1-1q2.13,0,4.26,0a.89.89,0,0,1,1,1c0,1.45,0,2.89,0,4.31a.92.92,0,0,1-1,1c-.71.05-1.44,0-2.16,0ZM46,62.73H43.9c-.71,0-1-.32-1-1,0-1.39,0-2.79,0-4.19A.92.92,0,0,1,44,56.48c1.4,0,2.79,0,4.19,0a1,1,0,0,1,1,1c0,1.39,0,2.79,0,4.19a.94.94,0,0,1-1.05,1c-.69,0-1.43,0-2.11,0Zm7.89,0h-2c-.72,0-1-.32-1-1.06,0-1.39,0-2.79,0-4.19a.92.92,0,0,1,1-1c1.4,0,2.79,0,4.19,0a.94.94,0,0,1,1,1.06c0,1.39,0,2.79,0,4.19a.9.9,0,0,1-1,1c-.72,0-1.43,0-2.16,0Zm-3.06-19V41.63c0-.71.31-1.06,1-1.08q2.1,0,4.2,0a.9.9,0,0,1,1,1c0,1.43,0,2.85,0,4.27a.9.9,0,0,1-1,1q-2.1,0-4.2,0c-.71,0-1-.34-1-1.08s0-1.34,0-2Zm11,18.77c-.71,0-1.4,0-2.11,0s-1-.32-1-1q0-2.13,0-4.26a.88.88,0,0,1,1-1q2.13,0,4.26,0a.88.88,0,0,1,1,1c0,1.47,0,2.92,0,4.39a.88.88,0,0,1-1,.93Zm0-14c.71,0,1.39,0,2.08,0s1,.35,1,1q0,2.13,0,4.26a.92.92,0,0,1-1,1c-1.4,0-2.79,0-4.19,0a.92.92,0,0,1-1-1q0-2.13,0-4.26c0-.66.34-1,1-1s1.42,0,2.11,0Zm0-15.88c.71,0,1.39,0,2.08,0s1,.32,1,1q0,2.13,0,4.26a.92.92,0,0,1-1,1c-1.4,0-2.79,0-4.19,0a.92.92,0,0,1-1-1q0-2.13,0-4.26c0-.69.34-1,1-1s1.42,0,2.11,0ZM38.14,40.57c.69,0,1.35,0,2,0s1,.35,1,1q0,2.13,0,4.26a.92.92,0,0,1-1,1c-1.4,0-2.79,0-4.19,0-.69,0-1-.35-1-1,0-1.4,0-2.8,0-4.19,0-.71.34-1,1.07-1s1.35,0,2.06,0Z"/><path class="cls-3" d="M50,32.75h0A14.92,14.92,0,0,0,35.08,47.67v0A14.93,14.93,0,0,0,50,62.61h0a14.93,14.93,0,0,0,0-29.86Z"/><polygon class="cls-3" points="68.74 8.76 68.69 8.88 68.69 8.88 68.74 8.76"/><path class="cls-4" d="M70.68,42l.51-.12A22,22,0,0,0,60.36,28.31l-.22.47L58.45,28l.22-.47A21.73,21.73,0,0,0,50,25.71h0a21.79,21.79,0,0,0-8.67,1.79l.22.47-1.69.81-.22-.47A22.06,22.06,0,0,0,28.85,41.88l.52.13L29,43.84l-.51-.12a22.32,22.32,0,0,0-.37,4v0a21.88,21.88,0,0,0,4.24,13l.41-.32L33.9,61.8l-.42.32a22,22,0,0,0,15.63,7.52v-.51H51v.51a21.91,21.91,0,0,0,14.58-6.41c.37-.37.71-.76,1-1.13l-.41-.32,1.17-1.47.42.32A22.06,22.06,0,0,0,71.66,43.7l-.52.12ZM60.58,58.23A14.86,14.86,0,0,1,50,62.59h0A14.93,14.93,0,0,1,35.1,47.67v0A14.93,14.93,0,0,1,50,32.72h0A15,15,0,0,1,60.58,58.23Z"/><path class="cls-4" d="M49.09,90.72v-.35a4.32,4.32,0,0,0-3.36,4.19A4.27,4.27,0,0,0,50,98.85h0a4.3,4.3,0,0,0,3-7.33A4,4,0,0,0,51,90.4v.32Zm4.63,3.84a3.7,3.7,0,0,1-3.67,3.7h0a3.69,3.69,0,1,1,0-7.37h0A3.67,3.67,0,0,1,53.72,94.56Z"/><path class="cls-4" d="M50,90.86a3.69,3.69,0,0,0,0,7.38h0a3.69,3.69,0,1,0,0-7.38Zm0,.59a3.11,3.11,0,1,1,0,6.22h0a3.09,3.09,0,0,1-3.12-3.11A3.12,3.12,0,0,1,50,91.45Z"/><path class="cls-4" d="M83.1,75.23l-.27-.2A4.3,4.3,0,0,0,84,80.28a4.19,4.19,0,0,0,2.68.93A4.25,4.25,0,0,0,90,79.62l0,0a4.27,4.27,0,0,0-6-6l.27.2ZM89,74a3.7,3.7,0,0,1,.59,5.19h0a3.7,3.7,0,0,1-5.79-4.6h0A3.71,3.71,0,0,1,89,74Z"/><path class="cls-4" d="M83.78,74.62h0a3.7,3.7,0,0,0,5.79,4.6h0a3.7,3.7,0,0,0-5.79-4.6Zm.47.37a3.11,3.11,0,0,1,4.88,3.87l0,0A3.1,3.1,0,1,1,84.23,75Z"/><path class="cls-4" d="M15.77,73.81l.27-.2a4.39,4.39,0,0,0-2.23-.93,4.35,4.35,0,0,0-3.16.91,4.27,4.27,0,0,0-1.57,2.87A4.37,4.37,0,0,0,10,79.62a4.26,4.26,0,0,0,2.86,1.56,2.69,2.69,0,0,0,.49,0,4.25,4.25,0,0,0,4.24-3.8,4.28,4.28,0,0,0-.42-2.33l-.26.2Zm-.12,6a3.71,3.71,0,0,1-5.2-.59h0a3.7,3.7,0,0,1,5.78-4.61h0A3.7,3.7,0,0,1,15.65,79.79Z"/><path class="cls-4" d="M16.23,74.59a3.7,3.7,0,0,0-5.78,4.61h0a3.7,3.7,0,1,0,5.78-4.61Zm.2,2.67a3.14,3.14,0,0,1-1.15,2.09A3.06,3.06,0,0,1,13,80a3.16,3.16,0,0,1-2.08-1.15,3,3,0,0,1-.66-2.28,3.08,3.08,0,0,1,1.15-2.08,3,3,0,0,1,1.93-.69,1.94,1.94,0,0,1,.35,0A3.1,3.1,0,0,1,15.74,75l0,0A2.83,2.83,0,0,1,16.43,77.26Z"/><path class="cls-4" d="M99.88,36.3A4.33,4.33,0,0,0,98,33.63a4.15,4.15,0,0,0-3.23-.54,4.27,4.27,0,0,0-3.31,4.16l.32-.07L92.16,39l-.31.07a4.1,4.1,0,0,0,1.59,1.79,4.31,4.31,0,0,0,2.25.64,6.79,6.79,0,0,0,1-.1,4.33,4.33,0,0,0,2.67-1.91A4.09,4.09,0,0,0,99.88,36.3Zm-3.33,4.53a3.7,3.7,0,0,1-4.44-2.77h0a3.7,3.7,0,0,1,7.21-1.66h0A3.68,3.68,0,0,1,96.55,40.83Z"/><path class="cls-4" d="M99.32,36.42a3.7,3.7,0,0,0-7.21,1.67h0a3.7,3.7,0,1,0,7.21-1.67Zm-1,2.48a3,3,0,0,1-1.94,1.37,3.15,3.15,0,0,1-3.72-2.33l0,0A3.13,3.13,0,0,1,95,34.19a3.06,3.06,0,0,1,2.35.42,3.13,3.13,0,0,1,1,4.29Z"/><path class="cls-4" d="M8.25,37.2l.31.08a4.28,4.28,0,1,0-5.24,4.14,4.47,4.47,0,0,0,1,.1,4.28,4.28,0,0,0,3.84-2.43L7.83,39ZM3.47,40.83A3.69,3.69,0,0,1,.68,36.4h0A3.7,3.7,0,1,1,7.9,38h0A3.67,3.67,0,0,1,3.47,40.83Z"/><path class="cls-4" d="M7.9,38A3.7,3.7,0,1,0,.68,36.4h0A3.7,3.7,0,1,0,7.9,38Zm-.56-.15,0,0A3.1,3.1,0,1,1,5,34.19,3.13,3.13,0,0,1,7.32,37.94Z"/><path class="cls-4" d="M32.16,8.49l.15.29a4.29,4.29,0,1,0-4.07.69,4,4,0,0,0,1.42.24,7.79,7.79,0,0,0,1-.09l-.15-.3ZM26.33,7A3.73,3.73,0,0,1,28,2.07h0a3.7,3.7,0,1,1,3.24,6.66h0A3.67,3.67,0,0,1,26.33,7Z"/><path class="cls-4" d="M31.28,8.76A3.71,3.71,0,0,0,28,2.09h0a3.71,3.71,0,0,0,3.24,6.67ZM31,8.22a3.08,3.08,0,0,1-2.38.15A3.29,3.29,0,0,1,26.84,6.8a3.09,3.09,0,0,1,2.8-4.44,3,3,0,0,1,1,.17A3.23,3.23,0,0,1,32.45,4.1,3,3,0,0,1,31,8.22Z"/><path class="cls-4" d="M68.69,8.88l0-.12A3.68,3.68,0,0,1,67,3.81,3.67,3.67,0,0,1,72,2.09h0a3.71,3.71,0,0,1-3.23,6.67h0l0,.12.83.42-.14.29a4.46,4.46,0,0,0,1,.12,4.27,4.27,0,1,0-1.42-8.3,4.34,4.34,0,0,0-2.45,2.18,4.11,4.11,0,0,0-.18,3.28,4.28,4.28,0,0,0,1.35,1.91l.15-.29Z"/><path class="cls-4" d="M68.74,8.76h0A3.71,3.71,0,0,0,72,2.09h0A3.74,3.74,0,0,0,67,3.81a3.7,3.7,0,0,0,1.71,4.95Zm-1.32-2.3a3,3,0,0,1,.14-2.38,3.13,3.13,0,0,1,2.82-1.77,3.3,3.3,0,0,1,1.35.3,3.11,3.11,0,0,1,1.45,4.14,2.93,2.93,0,0,1-1.79,1.57A3.08,3.08,0,0,1,69,8.19h0A3,3,0,0,1,67.42,6.46Z"/><path class="cls-4" d="M51,90.39V69.62c-.29,0-.61,0-1,0l-.91,0v21.1H51V90.4Z"/><path class="cls-4" d="M51,69.6v-.52H49.09v.52c.29,0,.61,0,.91,0S50.63,69.62,51,69.6Z"/><path class="cls-4" d="M84,73.54h0L67.76,60.6c-.37.52-.76,1-1.18,1.47L82.83,75l.27.2,1.17-1.47Zm-.79.87.11-.16,0,0Z"/><path class="cls-4" d="M67.34,60.28l-1.17,1.47.41.32c.42-.49.81-1,1.18-1.47Z"/><path class="cls-4" d="M32.26,60.63,16,73.59l-.27.2,1.17,1.47.27-.2h0L33.43,62.1C33,61.63,32.63,61.12,32.26,60.63ZM16.37,73.89a3.17,3.17,0,0,1,.3.34A2.43,2.43,0,0,0,16.37,73.89Z"/><path class="cls-4" d="M32.7,60.31l-.42.32c.37.51.76,1,1.18,1.47l.41-.32Z"/><path class="cls-4" d="M92.16,39l-.39-1.86-.32.07v0L71.19,41.86c.17.61.29,1.22.42,1.84l20.26-4.61h0Zm-.63-1a3.87,3.87,0,0,1-.07-.77A5.24,5.24,0,0,0,91.53,38.05Z"/><path class="cls-4" d="M70.68,42l.41,1.84.52-.12c-.13-.64-.27-1.23-.42-1.84Z"/><path class="cls-4" d="M8.56,37.28l-.31-.08L7.83,39l.29.05,20.27,4.63c.12-.64.24-1.22.41-1.84Z"/><path class="cls-4" d="M28.8,41.88c-.17.62-.29,1.23-.41,1.84l.51.12L29.32,42Z"/><path class="cls-4" d="M32.31,8.78c-.25.17-.52.35-.76.49h0a4.31,4.31,0,0,1-.91.32l9,18.72c.54-.29,1.11-.56,1.69-.83Zm8,18.75L31.74,9.74Z"/><path class="cls-4" d="M30.44,9.3l.15.29a2.93,2.93,0,0,0,.93-.32,2.92,2.92,0,0,0,.76-.49l-.14-.29Z"/><path class="cls-4" d="M41.32,27.5a16.54,16.54,0,0,0-1.69.83l.22.47L41.54,28Z"/><path class="cls-4" d="M58.43,28l1.69.81.22-.47c-.54-.29-1.11-.56-1.69-.81Z"/><path class="cls-4" d="M69.55,9.3l-.86-.42-.17.42.32.14L68.5,9.3l-.25-.15a1.92,1.92,0,0,0,.25.12l.19-.39-.88-.42-.15.3.22.15-.22-.13-9,18.7a16.41,16.41,0,0,1,1.69.81l9-18.7a1.55,1.55,0,0,1-.23-.06,1.83,1.83,0,0,0,.25.06Z"/></svg>