<svg id="Layer_1" data-name="Layer 1" xmlns="http://www.w3.org/2000/svg" viewBox="0 0 100 100"><defs><style>.cls-1{fill:none;}</style></defs><path class="cls-1" d="M50,32.75h0A14.92,14.92,0,0,0,35.08,47.67v0A14.93,14.93,0,0,0,50,62.61h0a14.93,14.93,0,0,0,0-29.86Z"/><polygon class="cls-1" points="68.74 8.76 68.69 8.88 68.69 8.88 68.74 8.76"/><path d="M70.68,42l.51-.12A22,22,0,0,0,60.36,28.31l-.22.47L58.45,28l.22-.47A21.73,21.73,0,0,0,50,25.71h0a21.79,21.79,0,0,0-8.67,1.79l.22.47-1.69.81-.22-.47A22.06,22.06,0,0,0,28.85,41.88l.52.13L29,43.84l-.51-.12a22.32,22.32,0,0,0-.37,4v0a21.88,21.88,0,0,0,4.24,13l.41-.32L33.9,61.8l-.42.32a22,22,0,0,0,15.63,7.52v-.51H51v.51a21.91,21.91,0,0,0,14.58-6.41c.37-.37.71-.76,1-1.13l-.41-.32,1.17-1.47.42.32A22.06,22.06,0,0,0,71.66,43.7l-.52.12ZM60.58,58.23A14.86,14.86,0,0,1,50,62.59h0A14.93,14.93,0,0,1,35.1,47.67v0A14.93,14.93,0,0,1,50,32.72h0A15,15,0,0,1,60.58,58.23Z"/><path d="M49.09,90.72v-.35a4.32,4.32,0,0,0-3.36,4.19A4.27,4.27,0,0,0,50,98.85h0a4.3,4.3,0,0,0,3-7.33A4,4,0,0,0,51,90.4v.32Zm4.63,3.84a3.7,3.7,0,0,1-3.67,3.7h0a3.69,3.69,0,1,1,0-7.37h0A3.67,3.67,0,0,1,53.72,94.56Z"/><path d="M50,90.86a3.69,3.69,0,0,0,0,7.38h0a3.69,3.69,0,1,0,0-7.38Zm0,.59a3.11,3.11,0,1,1,0,6.22h0a3.09,3.09,0,0,1-3.12-3.11A3.12,3.12,0,0,1,50,91.45Z"/><path d="M50,69.64l-.91,0V90.37a5.51,5.51,0,0,1,.91-.1h0a3.88,3.88,0,0,1,1,.13V69.62c-.29,0-.61,0-1,0Zm0,.4v0Z"/><path d="M49.09,69.08v.52c.29,0,.61,0,.91,0h0c.32,0,.63,0,1,0v-.52Z"/><path d="M50,90.27h0a5.07,5.07,0,0,0-.91.1v.35H51V90.4a4,4,0,0,0-1-.13Z"/><path d="M83.1,75.23l-.27-.2A4.3,4.3,0,0,0,84,80.28a4.19,4.19,0,0,0,2.68.93A4.25,4.25,0,0,0,90,79.62l0,0a4.27,4.27,0,0,0-6-6l.27.2ZM89,74a3.7,3.7,0,0,1,.59,5.19h0a3.7,3.7,0,0,1-5.79-4.6h0A3.71,3.71,0,0,1,89,74Z"/><path d="M83.78,74.62h0a3.7,3.7,0,0,0,5.79,4.6h0a3.7,3.7,0,0,0-5.79-4.6Zm.47.37a3.11,3.11,0,0,1,4.88,3.87l0,0A3.1,3.1,0,1,1,84.23,75Z"/><path d="M82.83,75a5.17,5.17,0,0,1,.49-.76h0l0,0h0a4.65,4.65,0,0,1,.66-.67l-16.24-13c-.37.52-.76,1-1.18,1.47ZM67.52,61.61,83,73.91Z"/><path d="M66.17,61.75l.41.32c.42-.49.81-1,1.18-1.47l-.42-.32Z"/><path d="M83.34,74.23h0a3.47,3.47,0,0,0-.51.78l.27.2,1.17-1.47-.27-.2A4,4,0,0,0,83.34,74.23Z"/><path d="M15.77,73.81l.27-.2a4.39,4.39,0,0,0-2.23-.93,4.35,4.35,0,0,0-3.16.91,4.27,4.27,0,0,0-1.57,2.87A4.37,4.37,0,0,0,10,79.62a4.26,4.26,0,0,0,2.86,1.56,2.69,2.69,0,0,0,.49,0,4.25,4.25,0,0,0,4.24-3.8,4.28,4.28,0,0,0-.42-2.33l-.26.2Zm-.12,6a3.71,3.71,0,0,1-5.2-.59h0a3.7,3.7,0,0,1,5.78-4.61h0A3.7,3.7,0,0,1,15.65,79.79Z"/><path d="M16.23,74.59a3.7,3.7,0,0,0-5.78,4.61h0a3.7,3.7,0,1,0,5.78-4.61Zm.2,2.67a3.14,3.14,0,0,1-1.15,2.09A3.06,3.06,0,0,1,13,80a3.16,3.16,0,0,1-2.08-1.15,3,3,0,0,1-.66-2.28,3.08,3.08,0,0,1,1.15-2.08,3,3,0,0,1,1.93-.69,1.94,1.94,0,0,1,.35,0A3.1,3.1,0,0,1,15.74,75l0,0A2.83,2.83,0,0,1,16.43,77.26Z"/><path d="M16,73.59a3.82,3.82,0,0,1,.63.64h0a4.65,4.65,0,0,1,.52.83l16.24-13c-.41-.47-.8-1-1.17-1.47Zm1.08.37,15.43-12.3Z"/><path d="M32.7,60.31l-.42.32c.37.51.76,1,1.18,1.47l.41-.32Z"/><path d="M16.67,74.23a3.48,3.48,0,0,0-.63-.64l-.27.2,1.17,1.47.27-.2a3.8,3.8,0,0,0-.54-.83Z"/><path d="M99.88,36.3A4.33,4.33,0,0,0,98,33.63a4.15,4.15,0,0,0-3.23-.54,4.27,4.27,0,0,0-3.31,4.16l.32-.07L92.16,39l-.31.07a4.1,4.1,0,0,0,1.59,1.79,4.31,4.31,0,0,0,2.25.64,6.79,6.79,0,0,0,1-.1,4.33,4.33,0,0,0,2.67-1.91A4.09,4.09,0,0,0,99.88,36.3Zm-3.33,4.53a3.7,3.7,0,0,1-4.44-2.77h0a3.7,3.7,0,0,1,7.21-1.66h0A3.68,3.68,0,0,1,96.55,40.83Z"/><path d="M99.32,36.42a3.7,3.7,0,0,0-7.21,1.67h0a3.7,3.7,0,1,0,7.21-1.67Zm-1,2.48a3,3,0,0,1-1.94,1.37,3.15,3.15,0,0,1-3.72-2.33l0,0A3.13,3.13,0,0,1,95,34.19a3.06,3.06,0,0,1,2.35.42,3.13,3.13,0,0,1,1,4.29Z"/><path d="M91.55,38.18a4.4,4.4,0,0,1-.1-1L71.19,41.86c.17.61.29,1.22.42,1.84l20.26-4.61a3.65,3.65,0,0,1-.32-.91ZM71.8,42.69,91,38.31Z"/><path d="M70.68,42l.41,1.84.52-.12c-.13-.64-.27-1.23-.42-1.84Z"/><path d="M91.77,37.16l-.32.07a6.79,6.79,0,0,0,.1,1h0a3.82,3.82,0,0,0,.3.88l.31-.07Z"/><path d="M8.25,37.2l.31.08a4.28,4.28,0,1,0-5.24,4.14,4.47,4.47,0,0,0,1,.1,4.28,4.28,0,0,0,3.84-2.43L7.83,39ZM3.47,40.83A3.69,3.69,0,0,1,.68,36.4h0A3.7,3.7,0,1,1,7.9,38h0A3.67,3.67,0,0,1,3.47,40.83Z"/><path d="M7.9,38A3.7,3.7,0,1,0,.68,36.4h0A3.7,3.7,0,1,0,7.9,38Zm-.56-.15,0,0A3.1,3.1,0,1,1,5,34.19,3.13,3.13,0,0,1,7.32,37.94Z"/><path d="M8.56,37.28a5.49,5.49,0,0,1-.09.9h0a3.82,3.82,0,0,1-.35.91l20.27,4.63c.12-.64.24-1.22.41-1.84Zm19.63,5.44L9,38.33Z"/><path d="M29.32,42l-.52-.13c-.17.62-.29,1.23-.41,1.84l.51.12Z"/><path d="M8.47,38.18a5.49,5.49,0,0,0,.09-.9l-.31-.08L7.83,39l.29.05a3.82,3.82,0,0,0,.35-.91Z"/><path d="M32.16,8.49l.15.29a4.29,4.29,0,1,0-4.07.69,4,4,0,0,0,1.42.24,7.79,7.79,0,0,0,1-.09l-.15-.3ZM26.33,7A3.73,3.73,0,0,1,28,2.07h0a3.7,3.7,0,1,1,3.24,6.66h0A3.67,3.67,0,0,1,26.33,7Z"/><path d="M31.28,8.76A3.71,3.71,0,0,0,28,2.09h0a3.71,3.71,0,0,0,3.24,6.67ZM31,8.22a3.08,3.08,0,0,1-2.38.15A3.29,3.29,0,0,1,26.84,6.8a3.09,3.09,0,0,1,2.8-4.44,3,3,0,0,1,1,.17A3.23,3.23,0,0,1,32.45,4.1,3,3,0,0,1,31,8.22Z"/><path d="M32.31,8.78c-.25.17-.52.35-.76.49h0a4.31,4.31,0,0,1-.91.32l9,18.72c.54-.29,1.11-.56,1.69-.83Zm8,18.75L31.74,9.74Z"/><path d="M41.54,28l-.22-.47a16.54,16.54,0,0,0-1.69.83l.22.47Z"/><path d="M31.52,9.27a2.92,2.92,0,0,0,.76-.49l-.14-.29-1.7.81.15.29a2.93,2.93,0,0,0,.93-.32Z"/><path d="M68.69,8.88l0-.12A3.68,3.68,0,0,1,67,3.81,3.67,3.67,0,0,1,72,2.09h0a3.71,3.71,0,0,1-3.23,6.67h0l0,.12.83.42-.14.29a4.46,4.46,0,0,0,1,.12,4.27,4.27,0,1,0-1.42-8.3,4.34,4.34,0,0,0-2.45,2.18,4.11,4.11,0,0,0-.18,3.28,4.28,4.28,0,0,0,1.35,1.91l.15-.29Z"/><path d="M68.74,8.76h0A3.71,3.71,0,0,0,72,2.09h0A3.74,3.74,0,0,0,67,3.81a3.7,3.7,0,0,0,1.71,4.95Zm-1.32-2.3a3,3,0,0,1,.14-2.38,3.13,3.13,0,0,1,2.82-1.77,3.3,3.3,0,0,1,1.35.3,3.11,3.11,0,0,1,1.45,4.14,2.93,2.93,0,0,1-1.79,1.57A3.08,3.08,0,0,1,69,8.19h0A3,3,0,0,1,67.42,6.46Z"/><path d="M69.38,9.59a4.12,4.12,0,0,1-.88-.29l.17-.42h0l-.17.42a5.59,5.59,0,0,1-.84-.52l-9,18.7a16.41,16.41,0,0,1,1.69.81Zm-1.13.12L59.7,27.5Z"/><path d="M60.12,28.78l.22-.47c-.54-.29-1.11-.56-1.69-.81l-.22.47Z"/><path d="M68.69,8.88l-.88-.42-.15.3a3.36,3.36,0,0,0,.84.51Z"/><path d="M68.69,8.88l-.17.42a3,3,0,0,0,.88.29l.15-.29Z"/></svg>