<svg id="Layer_1" data-name="Layer 1" xmlns="http://www.w3.org/2000/svg" viewBox="0 0 100 100"><defs><style>.cls-1{fill:#e42528;}</style></defs><path id="path35" class="cls-1" d="M81.32,60.45c0,4.14-2.19,6.19-6.23,6.23h-50c-4.07-.07-6.23-2.09-6.23-6.23s2.19-6.19,6.23-6.23h50c4,0,6.26,2.09,6.26,6.23M75,69.84H25c-4.07.07-6.24,2.09-6.24,6.23S21,82.26,25,82.3H75c4.07-.07,6.23-2.09,6.23-6.23S79.11,69.91,75,69.84M90.68,35.47h0c-4.07.07-6.23,2.09-6.23,6.23V76.09c0,4.14,2.19,6.19,6.23,6.24h0c6.1-.22,9.37-6.31,9.37-18.75V47.93c0-8.25-3.27-12.32-9.37-12.46m-81.27,0h0C3.32,35.61.05,39.68.05,48V63.6c0,12.45,3.27,18.51,9.36,18.75h0c4.07-.07,6.23-2.09,6.23-6.23V41.7c0-4.14-2.16-6.16-6.23-6.23m81.27-3.13C90.68,22,85.23,16.88,75,16.72h-50C14.89,16.91,9.41,22,9.41,32.34h0c6.09.09,9.36,3.15,9.36,9.36S22,51,28.13,51.06H71.89C78,51,81.25,47.91,81.25,41.7s3.34-9.27,9.43-9.36Z"/></svg>