<svg id="Layer_1" data-name="Layer 1" xmlns="http://www.w3.org/2000/svg" viewBox="0 0 100 100"><defs><style>.cls-1{fill:#1e5f90;}.cls-2{fill:#fff;}</style></defs><rect class="cls-1" x="22.8" y="38.47" width="54.76" height="23.06" rx="3"/><path class="cls-2" d="M38.72,50.46a5,5,0,0,1-1.43,3.85,5.87,5.87,0,0,1-4.14,1.34H30.26V45.46h3.2a5.42,5.42,0,0,1,3.88,1.31A4.86,4.86,0,0,1,38.72,50.46Zm-2.25,0c0-2.19-1-3.28-2.9-3.28H32.42v6.63h.93C35.43,53.86,36.47,52.75,36.47,50.51Z"/><path class="cls-2" d="M49.9,55.65H47.74v-4.4h-4v4.4H41.55V45.46h2.16v4h4v-4H49.9Z"/><path class="cls-2" d="M57.51,47.11a2.22,2.22,0,0,0-1.89.92A4.29,4.29,0,0,0,55,50.58c0,2.27.86,3.41,2.56,3.41a8,8,0,0,0,2.6-.54v1.82a7.35,7.35,0,0,1-2.8.52,4.26,4.26,0,0,1-3.4-1.35,5.69,5.69,0,0,1-1.18-3.87,6.29,6.29,0,0,1,.58-2.79A4.16,4.16,0,0,1,55,46a4.87,4.87,0,0,1,2.54-.64,6.87,6.87,0,0,1,3,.72l-.7,1.76a11.23,11.23,0,0,0-1.15-.48A3.6,3.6,0,0,0,57.51,47.11Z"/><path class="cls-2" d="M70,48.64a3.13,3.13,0,0,1-1,2.51,4.42,4.42,0,0,1-2.93.87h-.92v3.63H63V45.46h3.26a4.27,4.27,0,0,1,2.82.8A2.91,2.91,0,0,1,70,48.64Zm-4.88,1.61h.71a2.39,2.39,0,0,0,1.49-.39,1.38,1.38,0,0,0,.49-1.15,1.4,1.4,0,0,0-.41-1.12,2,2,0,0,0-1.3-.36h-1Z"/></svg>