<svg id="Layer_1" data-name="Layer 1" xmlns="http://www.w3.org/2000/svg" viewBox="0 0 100 100"><defs><style>.cls-1{fill:#1e5f90;}.cls-2{fill:#fff;}</style></defs><rect class="cls-1" x="28.12" y="38.47" width="44.12" height="23.06" rx="3"/><path class="cls-2" d="M43.83,50.46a5,5,0,0,1-1.43,3.85,5.84,5.84,0,0,1-4.14,1.34H35.38V45.46h3.2a5.41,5.41,0,0,1,3.87,1.31A4.86,4.86,0,0,1,43.83,50.46Zm-2.24,0q0-3.28-2.9-3.28H37.54v6.63h.93C40.55,53.86,41.59,52.75,41.59,50.51Z"/><path class="cls-2" d="M55.7,55.65H53l-4.43-7.71h-.06c.09,1.36.13,2.33.13,2.91v4.8H46.66V45.46h2.73l4.42,7.63h0c-.07-1.32-.1-2.26-.1-2.81V45.46H55.7Z"/><path class="cls-2" d="M65,52.82A2.61,2.61,0,0,1,64,55a4.3,4.3,0,0,1-2.76.8,6.64,6.64,0,0,1-2.89-.61v-2a13.34,13.34,0,0,0,1.75.65,5.4,5.4,0,0,0,1.31.18,1.89,1.89,0,0,0,1.09-.27.94.94,0,0,0,.38-.81.9.9,0,0,0-.17-.53,1.8,1.8,0,0,0-.49-.45q-.33-.21-1.32-.69a6.17,6.17,0,0,1-1.4-.84,3.38,3.38,0,0,1-.75-.94,2.94,2.94,0,0,1,.64-3.39,3.82,3.82,0,0,1,2.53-.77,5.81,5.81,0,0,1,1.52.19A9.79,9.79,0,0,1,65,46l-.7,1.68a10.59,10.59,0,0,0-1.35-.47,4.19,4.19,0,0,0-1-.13,1.39,1.39,0,0,0-.94.29,1,1,0,0,0-.19,1.24,1.37,1.37,0,0,0,.42.41,14.24,14.24,0,0,0,1.37.72,5.45,5.45,0,0,1,2,1.37A2.66,2.66,0,0,1,65,52.82Z"/></svg>