<svg id="Layer_1" data-name="Layer 1" xmlns="http://www.w3.org/2000/svg" viewBox="0 0 100 100"><defs><style>.cls-1{fill:#0091e2;}</style></defs><path class="cls-1" d="M99.18,41.26C98.9,41,96.4,39.12,91,39.12a25.2,25.2,0,0,0-4.23.38c-1-7.1-6.91-10.53-7.14-10.72L78.21,28l-.92,1.34a19.81,19.81,0,0,0-2.55,5.94,14,14,0,0,0,1.67,11.08C74,47.7,70,48,69.12,48.08H3.27a3.1,3.1,0,0,0-3.11,3.1A47.1,47.1,0,0,0,3,68.11c2.28,5.94,5.66,10.34,10,13,4.92,3,12.94,4.73,22,4.73a67.49,67.49,0,0,0,12.19-1.11,50.43,50.43,0,0,0,16-5.8A43.7,43.7,0,0,0,74,70.06,59.05,59.05,0,0,0,84.66,51.74h.93c5.7,0,9.23-2.27,11.18-4.22a12.41,12.41,0,0,0,3-4.36l.42-1.21Z"/><path class="cls-1" d="M9.39,46.17H18.2a.78.78,0,0,0,.79-.78h0V37.5a.79.79,0,0,0-.79-.79H9.39a.79.79,0,0,0-.79.79h0v7.89a.81.81,0,0,0,.79.78h0"/><path class="cls-1" d="M21.54,46.17h8.81a.78.78,0,0,0,.79-.78h0V37.5a.79.79,0,0,0-.79-.79H21.54a.79.79,0,0,0-.79.79v7.89a.81.81,0,0,0,.79.78"/><path class="cls-1" d="M33.92,46.17h8.81a.78.78,0,0,0,.79-.78h0V37.5a.78.78,0,0,0-.79-.79H33.92a.79.79,0,0,0-.79.79h0v7.89a.75.75,0,0,0,.79.78h0"/><path class="cls-1" d="M46.12,46.17h8.81a.78.78,0,0,0,.79-.78V37.5a.78.78,0,0,0-.79-.79H46.12a.79.79,0,0,0-.79.79h0v7.89a.78.78,0,0,0,.79.78h0"/><path class="cls-1" d="M21.54,34.9h8.81a.81.81,0,0,0,.79-.78V26.23a.79.79,0,0,0-.79-.79H21.54a.79.79,0,0,0-.79.79v7.89a.85.85,0,0,0,.79.78"/><path class="cls-1" d="M33.92,34.9h8.81a.81.81,0,0,0,.79-.78V26.23a.78.78,0,0,0-.79-.79H33.92a.79.79,0,0,0-.79.79h0v7.89a.78.78,0,0,0,.79.78"/><path class="cls-1" d="M46.12,34.9h8.81a.81.81,0,0,0,.79-.78V26.23a.81.81,0,0,0-.79-.79H46.12a.79.79,0,0,0-.79.79h0v7.89a.81.81,0,0,0,.79.78"/><path class="cls-1" d="M46.12,23.59h8.81a.79.79,0,0,0,.79-.79V14.91a.81.81,0,0,0-.79-.78H46.12a.78.78,0,0,0-.79.78h0V22.8a.81.81,0,0,0,.79.79"/><path class="cls-1" d="M58.41,46.17h8.81a.78.78,0,0,0,.79-.78V37.5a.78.78,0,0,0-.79-.79H58.41a.79.79,0,0,0-.79.79h0v7.89a.81.81,0,0,0,.79.78"/></svg>