<svg id="Layer_1" data-name="Layer 1" xmlns="http://www.w3.org/2000/svg" viewBox="0 0 100 100"><defs><style>.cls-1{fill:#4b9bd7;}</style></defs><path class="cls-1" d="M77.75,35.81l21.59,16.5a1.8,1.8,0,0,1,0,2.87l-12,9.22a2.58,2.58,0,0,1-3.12,0L65.32,50a2.61,2.61,0,0,0-3.12,0L42.88,64.73a1.82,1.82,0,0,1-2.19,0l-1.4-1.06a1.29,1.29,0,0,1,0-2L73.05,35.81A3.87,3.87,0,0,1,77.75,35.81Z"/><path class="cls-1" d="M52.85,46.4,39,35.81a3.87,3.87,0,0,0-4.7,0L.56,61.61a1.27,1.27,0,0,0,0,2L2,64.71a1.82,1.82,0,0,0,2.19,0L20.88,52A2.58,2.58,0,0,1,24,52l11.08,8.47a2.6,2.6,0,0,0,3.13,0L52.85,49.24A1.76,1.76,0,0,0,52.85,46.4Z"/></svg>