<?xml version="1.0" encoding="UTF-8"?><svg id="a" xmlns="http://www.w3.org/2000/svg" viewBox="0 0 100 100"><defs><style>.b{fill:#fff;}.c{fill:#1e5f90;}</style></defs><rect class="c" x="24.81" y="38.47" width="50.65" height="23.06" rx="3" ry="3"/><g><path class="b" d="M38.56,55.65h-5.87v-10.19h5.87v1.77h-3.71v2.24h3.45v1.77h-3.45v2.63h3.71v1.78Z"/><path class="b" d="M49.64,55.65h-2.47l-2.37-3.85-2.37,3.85h-2.31l3.38-5.26-3.16-4.94h2.38l2.2,3.67,2.15-3.67h2.33l-3.2,5.05,3.44,5.14Z"/><path class="b" d="M57.5,55.65h-5.87v-10.19h5.87v1.77h-3.71v2.24h3.45v1.77h-3.45v2.63h3.71v1.78Z"/><path class="b" d="M64.67,47.11c-.81,0-1.44,.31-1.89,.92s-.67,1.46-.67,2.56c0,2.27,.85,3.41,2.56,3.41,.72,0,1.58-.18,2.6-.54v1.81c-.84,.35-1.77,.52-2.8,.52-1.48,0-2.62-.45-3.4-1.35-.79-.9-1.18-2.19-1.18-3.87,0-1.06,.19-1.99,.58-2.78,.39-.8,.94-1.41,1.66-1.83,.72-.42,1.57-.64,2.54-.64s1.98,.24,2.98,.72l-.7,1.76c-.38-.18-.76-.34-1.15-.47s-.76-.2-1.14-.2Z"/></g></svg>