<svg id="Layer_1" data-name="Layer 1" xmlns="http://www.w3.org/2000/svg" viewBox="0 0 100 100"><defs><style>.cls-1{fill:#1e5f90;}.cls-2{fill:#fff;}</style></defs><rect class="cls-1" x="5.1" y="38.47" width="89.99" height="23.06" rx="3"/><path class="cls-2" d="M18,55.65H12.16V45.46H18v1.77H14.32v2.24h3.45v1.77H14.32v2.62H18Z"/><path class="cls-2" d="M29.11,55.65H26.64l-2.37-3.86L21.9,55.65H19.59L23,50.39,19.8,45.46h2.39l2.19,3.66,2.16-3.66h2.33l-3.2,5Z"/><path class="cls-2" d="M35,55.65H32.88V47.26H30.11v-1.8h7.7v1.8H35Z"/><path class="cls-2" d="M46,55.65H40.09V45.46H46v1.77H42.25v2.24H45.7v1.77H42.25v2.62H46Z"/><path class="cls-2" d="M51,51.74v3.91H48.8V45.46h3a5.1,5.1,0,0,1,3.07.75,3,3,0,0,1,.5,3.9,3.26,3.26,0,0,1-1.4,1.1q2.31,3.43,3,4.44h-2.4l-2.43-3.91ZM51,50h.7a2.66,2.66,0,0,0,1.51-.34,1.24,1.24,0,0,0,.49-1.07,1.13,1.13,0,0,0-.5-1,3.09,3.09,0,0,0-1.55-.3H51Z"/><path class="cls-2" d="M68,55.65H65.23L60.8,47.94h-.06c.08,1.36.13,2.33.13,2.91v4.8H58.94V45.46h2.72l4.43,7.63h0c-.07-1.32-.11-2.26-.11-2.81V45.46h2Z"/><path class="cls-2" d="M77.5,55.65l-.74-2.43H73l-.74,2.43H70l3.59-10.23h2.64l3.62,10.23Zm-1.26-4.24c-.68-2.2-1.07-3.44-1.15-3.73s-.15-.51-.19-.68c-.15.59-.59,2.06-1.31,4.41Z"/><path class="cls-2" d="M81.82,55.65V45.46H84v8.4h4.14v1.79Z"/></svg>