<svg id="Layer_1" data-name="Layer 1" xmlns="http://www.w3.org/2000/svg" xmlns:xlink="http://www.w3.org/1999/xlink" viewBox="0 0 100 100"><defs><style>.cls-1{fill:url(#linear-gradient);}.cls-2{fill:url(#linear-gradient-2);}.cls-3{fill:url(#linear-gradient-3);}.cls-4{fill:url(#linear-gradient-4);}.cls-5{fill:url(#linear-gradient-5);}.cls-6{fill:url(#linear-gradient-6);}.cls-7{fill:url(#linear-gradient-7);}.cls-8{fill:url(#linear-gradient-8);}.cls-9{fill:#fff;}</style><linearGradient id="linear-gradient" x1="0.8" y1="-1027.53" x2="100.8" y2="-1027.53" gradientTransform="matrix(1, 0, 0, -1, 0, -978)" gradientUnits="userSpaceOnUse"><stop offset="0" stop-color="#2a59a2"/><stop offset="1" stop-color="#2a59a2"/></linearGradient><linearGradient id="linear-gradient-2" x1="-3.24" y1="-1010.46" x2="102.53" y2="-1010.46" gradientTransform="matrix(1, 0, 0, -1, 0, -978)" gradientUnits="userSpaceOnUse"><stop offset="0" stop-color="#91d3f2"/><stop offset="0.27" stop-color="#6fb2de"/><stop offset="0.52" stop-color="#5598ce"/><stop offset="0.67" stop-color="#4b8fc8"/></linearGradient><linearGradient id="linear-gradient-3" x1="0.81" y1="-1050.81" x2="101.54" y2="-1050.81" gradientTransform="matrix(1, 0, 0, -1, 0, -978)" gradientUnits="userSpaceOnUse"><stop offset="0" stop-color="#2c9ec7"/><stop offset="0.4" stop-color="#2c63a5"/><stop offset="1" stop-color="#395da1"/></linearGradient><linearGradient id="linear-gradient-4" x1="0.81" y1="-1029.68" x2="101.54" y2="-1029.68" gradientTransform="matrix(1, 0, 0, -1, 0, -978)" gradientUnits="userSpaceOnUse"><stop offset="0" stop-color="#4faac4"/><stop offset="0" stop-color="#2f75b1"/><stop offset="1" stop-color="#356eac"/></linearGradient><linearGradient id="linear-gradient-5" x1="36.92" y1="-1014.09" x2="102.12" y2="-1014.09" gradientTransform="matrix(1, 0, 0, -1, 0, -978)" gradientUnits="userSpaceOnUse"><stop offset="0" stop-color="#4faac4"/><stop offset="0" stop-color="#2f81b6"/><stop offset="1" stop-color="#3b5ea9"/></linearGradient><linearGradient id="linear-gradient-6" x1="36.92" y1="-1039.05" x2="102.12" y2="-1039.05" gradientTransform="matrix(1, 0, 0, -1, 0, -978)" gradientUnits="userSpaceOnUse"><stop offset="0" stop-color="#4faac4"/><stop offset="0" stop-color="#1e3773"/><stop offset="1" stop-color="#203370"/></linearGradient><linearGradient id="linear-gradient-7" x1="79.11" y1="-1044.49" x2="79.11" y2="-1008.74" gradientTransform="matrix(1, 0, 0, -1, 0, -978)" gradientUnits="userSpaceOnUse"><stop offset="0" stop-color="#4faac4"/><stop offset="0" stop-color="#2c5a9a"/><stop offset="1" stop-color="#374580"/></linearGradient><linearGradient id="linear-gradient-8" x1="-10.06" y1="-1040.15" x2="64.13" y2="-1040.15" gradientTransform="matrix(1, 0, 0, -1, 0, -978)" gradientUnits="userSpaceOnUse"><stop offset="0.11" stop-color="#38b1da"/><stop offset="1" stop-color="#326fb5"/></linearGradient></defs><path class="cls-1" d="M100.27,43.52H98.48A22,22,0,0,0,83.36,48.7C69.87,60.38,66.8,77.56,43.72,86.84,24.5,94.56.8,87.25.8,87.25s21.15-1.47,24-17.6c2.19-12.62-9.29-21.59-16.5-33C.92,25.09-1,15.46,2.57,11.3c10-11.83,37.58,20.13,51.27,24.44C67.23,40,76.27,30.17,87.37,31.61c3.53.45,5.26,2,6.41,3.92A19.63,19.63,0,0,0,96,39.24a15,15,0,0,0,3,2C100.26,42,101.56,43.52,100.27,43.52Z"/><path class="cls-2" d="M36.92,25c-3.31-2.52-6.73-5.16-10.09-7.57h0l-2.27-1.59h0c-9-6.17-17.37-10-22-4.57C-1,15.46.92,25.09,8.26,36.68c.07.12.15.24.23.36C12.31,43,23.39,56.81,49.67,56.22c1.73-1.84,4.35-5.3,7.75-9.08C51.91,38.25,43.62,30.49,36.92,25Z"/><path class="cls-3" d="M63.4,66.83a31.14,31.14,0,0,0-2-11.58,94.63,94.63,0,0,1-11.75,1C46.45,59.63,39.11,68.76,26.94,77,10.74,88,.81,87.25.81,87.25s23.71,7.31,42.92-.41A51.43,51.43,0,0,0,59.87,76.76C60.55,76.12,63.26,72.74,63.4,66.83Z"/><path class="cls-4" d="M57.42,47.14c-3.39,3.77-6,7.24-7.74,9.08a94.46,94.46,0,0,0,11.75-1A34.26,34.26,0,0,0,60,51.93,49.65,49.65,0,0,0,57.42,47.14Z"/><path class="cls-5" d="M77.12,32.85C70,35,62.94,38.6,53.84,35.74,49.33,34.32,43.31,29.9,36.92,25c6.7,5.46,15,13.21,20.5,22.11C62.45,41.58,69.15,35.36,77.12,32.85Z"/><path class="cls-6" d="M61.43,55.25a31.14,31.14,0,0,1,2,11.58c-.15,5.9-2.86,9.28-3.54,9.93,9.71-9,14-19.87,23.5-28.06a20.86,20.86,0,0,1,5.34-3.37h0C82.5,47.94,75.78,53.08,61.43,55.25Z"/><path class="cls-7" d="M100.27,43.52c1.29,0,0-1.49-1.32-2.26a16,16,0,0,1-3-2,18.9,18.9,0,0,1-2.19-3.71c-1.16-1.95-2.88-3.47-6.42-3.92a24,24,0,0,0-10.24,1.24c-8,2.5-14.68,8.73-19.71,14.29A49.49,49.49,0,0,1,60,51.93c.52,1.1,1,2.2,1.39,3.32,14.36-2.17,21.07-7.31,27.27-9.92h0a23.36,23.36,0,0,1,9.78-1.81Z"/><path class="cls-8" d="M26.94,77c12.17-8.23,19.51-17.36,22.73-20.77C23.39,56.81,12.31,43,8.49,37,15.7,48.26,26.92,57.16,24.76,69.65,22,85.78.81,87.25.81,87.25S10.74,88,26.94,77Z"/><ellipse class="cls-9" cx="86.64" cy="37.63" rx="2.1" ry="2.08"/></svg>