<svg id="Layer_1" data-name="Layer 1" xmlns="http://www.w3.org/2000/svg" viewBox="0 0 100 100"><defs><style>.cls-1{fill:#007cd0;}.cls-2{fill:#fff;}</style></defs><rect class="cls-1" x="-0.04" y="34.51" width="100" height="31.13" rx="2.12"/><path class="cls-2" d="M10.37,56.35a7.61,7.61,0,0,1-3.24-3.26A11.2,11.2,0,0,1,6,47.8,11.17,11.17,0,0,1,6.57,44,9,9,0,0,1,8.3,41a7.7,7.7,0,0,1,3-2.08,10.87,10.87,0,0,1,4.18-.76A12.66,12.66,0,0,1,21,39.28a1.56,1.56,0,0,1,.6.54,1.32,1.32,0,0,1,.2.7,1.64,1.64,0,0,1-.35,1,1.12,1.12,0,0,1-.92.45.92.92,0,0,1-.44-.1,15.55,15.55,0,0,0-4.46-.82,6.65,6.65,0,0,0-2.64.48,4.24,4.24,0,0,0-1.8,1.38,5.9,5.9,0,0,0-1,2.1,11.06,11.06,0,0,0-.32,2.75q0,6.7,5.63,6.71a14.94,14.94,0,0,0,3.33-.4V49.74H16.14a1.11,1.11,0,0,1-.9-.38,1.34,1.34,0,0,1-.34-.92,1.5,1.5,0,0,1,.29-.92,1.08,1.08,0,0,1,.88-.41H21c.93,0,1.39.58,1.39,1.73V54.2A2.76,2.76,0,0,1,22,55.9a2.28,2.28,0,0,1-1.36.77,26.69,26.69,0,0,1-5.35.75A10.43,10.43,0,0,1,10.37,56.35Z"/><path class="cls-2" d="M25.88,56.28a3.21,3.21,0,0,1-1.25-2.69,5.6,5.6,0,0,1,.16-1.35,3.46,3.46,0,0,1,.45-1,2.25,2.25,0,0,1,.82-.71,5.73,5.73,0,0,1,1.11-.48,8.53,8.53,0,0,1,1.49-.29c.6-.07,1.21-.11,1.82-.13s1.35,0,2.22,0v-1a2.41,2.41,0,0,0-.56-1.76,2.35,2.35,0,0,0-1.7-.55,4.1,4.1,0,0,0-.49,0,4.43,4.43,0,0,0-.51.06l-.44.08a3.43,3.43,0,0,0-.46.11l-.41.11-.41.14-.35.12-.34.13-.28.11a.76.76,0,0,1-.36.06,1,1,0,0,1-.76-.37,1.27,1.27,0,0,1-.31-.85.92.92,0,0,1,.56-.9,10.78,10.78,0,0,1,4.71-1,7.92,7.92,0,0,1,2.11.26,4.75,4.75,0,0,1,1.63.83,3.61,3.61,0,0,1,1.11,1.53A5.93,5.93,0,0,1,35.83,49v6.49a1.49,1.49,0,0,1-1.52,1.61,1.51,1.51,0,0,1-1.54-1.46.76.76,0,0,1,0-.15v-.42a3.65,3.65,0,0,1-1.33,1.58,4.17,4.17,0,0,1-2.39.61A5.13,5.13,0,0,1,25.88,56.28Zm5.82-2a3.54,3.54,0,0,0,1-2.56v-.37c-.85,0-1.53,0-2,0a13.38,13.38,0,0,0-1.42.14,2.35,2.35,0,0,0-1,.35,1.51,1.51,0,0,0-.5.62,2.25,2.25,0,0,0-.18,1,1.71,1.71,0,0,0,.52,1.36,2,2,0,0,0,1.37.47,3.09,3.09,0,0,0,2.24-1Z"/><path class="cls-2" d="M39.65,56.63a1.76,1.76,0,0,1-.45-1.3V45.89a1.5,1.5,0,0,1,.46-1.18,1.66,1.66,0,0,1,1.16-.43,1.64,1.64,0,0,1,1.14.41,1.51,1.51,0,0,1,.44,1.17v.45A3.79,3.79,0,0,1,44,44.66a5.61,5.61,0,0,1,2.58-.56,5.12,5.12,0,0,1,1.73.3,4.59,4.59,0,0,1,1.45.88,4,4,0,0,1,1,1.54A6,6,0,0,1,51.18,49v6.33a1.78,1.78,0,0,1-.46,1.3,1.57,1.57,0,0,1-1.18.46,1.52,1.52,0,0,1-1.12-.46,1.79,1.79,0,0,1-.45-1.3V49a2.76,2.76,0,0,0-.68-2,2.34,2.34,0,0,0-1.75-.7,3,3,0,0,0-2.21,1,3.72,3.72,0,0,0-.93,2.63v5.4a1.76,1.76,0,0,1-.45,1.3,1.56,1.56,0,0,1-1.16.47A1.48,1.48,0,0,1,39.65,56.63Z"/><path class="cls-2" d="M63.65,55.05a3.92,3.92,0,0,1-3.8,2.05,5.92,5.92,0,0,1-4.43-1.7,6.39,6.39,0,0,1-1.66-4.63A7,7,0,0,1,55.38,46a5.5,5.5,0,0,1,4.39-1.84,4.66,4.66,0,0,1,2.43.53,4.82,4.82,0,0,1,1.52,1.56v-.59a1.4,1.4,0,0,1,.48-1,1.51,1.51,0,0,1,1-.35,1.42,1.42,0,0,1,1.09.47,1.91,1.91,0,0,1,.43,1.32V56.55A5.88,5.88,0,0,1,65,61.16a6.83,6.83,0,0,1-4.77,1.58,11.4,11.4,0,0,1-2.61-.28,7,7,0,0,1-1.94-.71,1.1,1.1,0,0,1-.59-1,1.14,1.14,0,0,1,.3-.77.91.91,0,0,1,.74-.33,1.15,1.15,0,0,1,.41.08l.69.23c.38.14.66.23.84.28a7.55,7.55,0,0,0,.8.16,6.09,6.09,0,0,0,1,.09,4,4,0,0,0,2.79-.89,3.44,3.44,0,0,0,1-2.7Zm-.88-1.13a4.83,4.83,0,0,0,.88-3.21q0-4.43-3.24-4.43a3.31,3.31,0,0,0-1.29.23,2.74,2.74,0,0,0-1,.64,3.4,3.4,0,0,0-.64,1,5.2,5.2,0,0,0-.37,1.2A7.81,7.81,0,0,0,57,50.68a4.61,4.61,0,0,0,1,3.19A3.18,3.18,0,0,0,60.42,55,3,3,0,0,0,62.77,53.92Z"/><path class="cls-2" d="M77,41.24A1.73,1.73,0,0,1,76.48,40,1.67,1.67,0,0,1,77,38.67a1.94,1.94,0,0,1,1.36-.48,1.88,1.88,0,0,1,1.36.48A1.7,1.7,0,0,1,80.22,40a1.67,1.67,0,0,1-.52,1.28,2.09,2.09,0,0,1-2.7,0Zm.21,15.39a1.82,1.82,0,0,1-.45-1.32V46.09a1.86,1.86,0,0,1,.45-1.33,1.64,1.64,0,0,1,2.3,0A1.83,1.83,0,0,1,80,46.09v9.22a1.84,1.84,0,0,1-.46,1.32,1.65,1.65,0,0,1-2.3,0Z"/><path class="cls-2" d="M70.05,56.63a1.77,1.77,0,0,1-.44-1.32V40.48a1.86,1.86,0,0,1,.44-1.32,1.52,1.52,0,0,1,1.15-.47,1.6,1.6,0,0,1,1.17.47,1.86,1.86,0,0,1,.46,1.32V55.31a1.84,1.84,0,0,1-.47,1.32,1.62,1.62,0,0,1-1.18.47A1.5,1.5,0,0,1,70.05,56.63Z"/><path class="cls-2" d="M83.69,56.28a3.2,3.2,0,0,1-1.24-2.69,4.75,4.75,0,0,1,.16-1.35,3.43,3.43,0,0,1,.44-1,2.43,2.43,0,0,1,.82-.71A5.81,5.81,0,0,1,85,50.05a8.24,8.24,0,0,1,1.48-.29c.6-.07,1.21-.11,1.82-.13s1.36,0,2.23,0v-1A2.37,2.37,0,0,0,90,46.85a2.34,2.34,0,0,0-1.69-.55,4.18,4.18,0,0,0-.5,0,4.26,4.26,0,0,0-.5.06l-.45.08a2.56,2.56,0,0,0-.46.11l-.41.11-.41.14-.34.12-.35.13-.28.11a.72.72,0,0,1-.36.06,1,1,0,0,1-.76-.37,1.33,1.33,0,0,1-.31-.85.92.92,0,0,1,.56-.9,10.81,10.81,0,0,1,4.71-1,7.92,7.92,0,0,1,2.11.26,4.8,4.8,0,0,1,1.64.83,3.61,3.61,0,0,1,1.11,1.53A5.92,5.92,0,0,1,93.64,49v6.49a1.48,1.48,0,0,1-1.52,1.61,1.5,1.5,0,0,1-1.53-1.46v-.57a3.56,3.56,0,0,1-1.32,1.58,4.23,4.23,0,0,1-2.4.61A5.13,5.13,0,0,1,83.69,56.28Zm5.82-2a3.54,3.54,0,0,0,1-2.56v-.37c-.86,0-1.53,0-2,0a13.65,13.65,0,0,0-1.42.14,2.35,2.35,0,0,0-1,.35,1.69,1.69,0,0,0-.5.62,2.25,2.25,0,0,0-.18,1,1.75,1.75,0,0,0,.52,1.36,2,2,0,0,0,1.37.47,3.05,3.05,0,0,0,2.24-1Z"/></svg>