<svg id="Layer_1" data-name="Layer 1" xmlns="http://www.w3.org/2000/svg" viewBox="0 0 100 100"><defs><style>.cls-1{fill:#4285f4;}.cls-2{fill:#669df6;}.cls-3{fill:#aecbfa;}</style></defs><path class="cls-1" d="M72.45,50,50,72.45,27.55,50,50,27.55ZM50,64.55,64.55,50,50,35.45,35.45,50Z"/><polygon class="cls-2" points="71.65 65.1 84.9 65.1 100 50 86.75 50 71.65 65.1"/><polygon class="cls-3" points="71.65 34.9 86.75 50 100 50 84.9 34.9 71.65 34.9"/><polygon class="cls-3" points="28.35 34.9 15.1 34.9 0 50 13.25 50 28.35 34.9"/><polygon class="cls-2" points="0 50 15.1 65.1 28.35 65.1 13.25 50 0 50"/><polygon class="cls-3" points="34.9 15.1 34.9 28.35 50 13.25 50 0 34.9 15.1"/><polygon class="cls-2" points="50 0 50 13.25 65.1 28.35 65.1 15.1 50 0"/><polygon class="cls-3" points="34.9 71.65 34.9 84.9 50 100 50 86.75 34.9 71.65"/><polygon class="cls-2" points="50 86.75 50 100 65.1 84.9 65.1 71.65 50 86.75"/></svg>