<svg id="Layer_1" data-name="Layer 1" xmlns="http://www.w3.org/2000/svg" viewBox="0 0 100 100"><defs><style>.cls-1{fill:#aecbfa;}.cls-2{fill:#669df6;}.cls-3{fill:#4285f4;}</style></defs><rect class="cls-1" x="35" y="35" width="30" height="30"/><rect class="cls-2" x="45" width="10" height="20"/><rect class="cls-2" x="25" width="10" height="20"/><rect class="cls-2" x="65" width="10" height="20"/><rect class="cls-3" x="45" y="80" width="10" height="20"/><rect class="cls-3" x="25" y="80" width="10" height="20"/><rect class="cls-3" x="65" y="80" width="10" height="20"/><rect class="cls-3" x="80" y="45" width="20" height="10"/><rect class="cls-3" x="80" y="65" width="20" height="10"/><rect class="cls-3" x="80" y="25" width="20" height="10"/><rect class="cls-2" y="45" width="20" height="10"/><rect class="cls-2" y="65" width="20" height="10"/><rect class="cls-2" y="25" width="20" height="10"/><path class="cls-1" d="M15,15V85H85V15ZM75,75H25V25H75Z"/><polygon class="cls-2" points="35 65 65 65 50 50 35 65"/><polygon class="cls-3" points="50 50 65 65 65 35 50 50"/></svg>