<svg id="Layer_1" data-name="Layer 1" xmlns="http://www.w3.org/2000/svg" viewBox="0 0 100 100"><defs><style>.cls-1{fill:#aecbfa;}.cls-1,.cls-2,.cls-3{fill-rule:evenodd;}.cls-2{fill:#669df6;}.cls-3{fill:#4285f4;}</style></defs><g id="Shape"><path class="cls-1" d="M23.65,44.15V57.3A24.57,24.57,0,0,0,32.2,66V44.15Z"/><path class="cls-2" d="M39.45,32.05V69.7A39.55,39.55,0,0,0,45,70a41.7,41.7,0,0,0,5,0V32.05Z"/><path class="cls-1" d="M58.2,49.3V65.75a25.07,25.07,0,0,0,8.5-9.1V49.3Z"/><path class="cls-3" d="M78.7,71.6l-7.1,7.1a2.09,2.09,0,0,0,0,3l0,0L89.3,99.39a2.09,2.09,0,0,0,3,0l7.14-7.14a2.09,2.09,0,0,0,0-3L81.7,71.6a2.09,2.09,0,0,0-3,0l0,0"/><path class="cls-2" d="M45,0A45,45,0,1,0,90,45,45,45,0,0,0,45,0m0,78.45a33.4,33.4,0,1,1,.1,0H45"/></g></svg>