<svg id="Layer_1" data-name="Layer 1" xmlns="http://www.w3.org/2000/svg" xmlns:xlink="http://www.w3.org/1999/xlink" viewBox="0 0 100 100"><defs><style>.cls-1{fill:none;}.cls-2{fill:#fff;}.cls-3{clip-path:url(#clip-path);}.cls-4{fill:#75caca;}.cls-5{fill:#74cbca;}.cls-6{fill:#73cbca;}.cls-7{fill:#72c9c9;}.cls-8{fill:#70caca;}.cls-9{fill:#6fcac8;}.cls-10{fill:#6ec8c8;}.cls-11{fill:#6cc9c9;}.cls-12{fill:#6dc9c8;}.cls-13{fill:#69c7c8;}.cls-14{fill:#69c8c7;}.cls-15{fill:#68c8c7;}.cls-16{fill:#67c7c7;}.cls-17{fill:#65c7c7;}.cls-18{fill:#64c7c7;}.cls-19{fill:#63c6c6;}.cls-20{fill:#60c6c6;}.cls-21{fill:#60c6c5;}.cls-22{fill:#5fc6c5;}.cls-23{fill:#5cc5c4;}.cls-24{fill:#5ac5c4;}.cls-25{fill:#57c4c4;}.cls-26{fill:#58c4c3;}.cls-27{fill:#55c4c3;}.cls-28{fill:#53c3c2;}.cls-29{fill:#52c3c2;}.cls-30{fill:#50c3c2;}.cls-31{fill:#50c1c0;}.cls-32{fill:#4bc2c0;}.cls-33{fill:#4cc1c0;}.cls-34{fill:#47c1be;}.cls-35{fill:#46c0be;}.cls-36{fill:#43c0be;}.cls-37{fill:#40bfbd;}.cls-38{fill:#3bbfbd;}.cls-39{fill:#39bfbc;}.cls-40{fill:#34bebd;}.cls-41{fill:#32bebb;}.cls-42{fill:#2dbdbb;}.cls-43{fill:#24bcbb;}.cls-44{fill:#21bcb9;}.cls-45{fill:#18bbb9;}.cls-46{fill:#0fbab9;}.cls-47{fill:#03bbb8;}.cls-48{fill:#06b8b6;}.cls-49{fill:#03b7b5;}.cls-50{fill:#04b7b4;}.cls-51{fill:#00b6b5;}.cls-52{fill:#03b6b4;}.cls-53{fill:#05b6b2;}.cls-54{fill:#01b5b1;}.cls-55{fill:#00b4b1;}.cls-56{fill:#00b3b0;}.cls-57{fill:#00b2af;}.cls-58{fill:#00b2ae;}.cls-59{fill:#00b1ae;}.cls-60{fill:#00b1ad;}.cls-61{fill:#00b0ac;}.cls-62{fill:#00afac;}.cls-63{clip-path:url(#clip-path-2);}.cls-64{fill:#4dc2c1;}.cls-65{fill:#4cc2c0;}.cls-66{fill:#4bc0bf;}.cls-67{fill:#41c0be;}.cls-68{fill:#3cbfbc;}.cls-69{fill:#2fbebc;}.cls-70{fill:#2bbdba;}.cls-71{fill:#16bab9;}.cls-72{fill:#11bab7;}.cls-73{fill:#00b7b6;}</style><clipPath id="clip-path"><rect class="cls-1" x="2.41" y="31.74" width="9.8" height="9.8" transform="translate(-23.85 16.01) rotate(-45.21)"/></clipPath><clipPath id="clip-path-2"><rect class="cls-1" x="23.37" y="33.68" width="5.75" height="5.75" transform="translate(-18.19 29.43) rotate(-45.21)"/></clipPath></defs><path class="cls-2" d="M11.45,64.84a7.73,7.73,0,0,0,2.81,2.33,8.34,8.34,0,0,0,3.86.88,8.36,8.36,0,0,0,3.17-.54A5.56,5.56,0,0,0,23.4,66a5.72,5.72,0,0,0,1.16-2.19,9.58,9.58,0,0,0,.35-2.66V58.05h-.07a6.76,6.76,0,0,1-2.91,2.54,8.85,8.85,0,0,1-3.62.74,9.23,9.23,0,0,1-3.56-.67,8.85,8.85,0,0,1-2.89-1.84A8.28,8.28,0,0,1,9.92,56a8.82,8.82,0,0,1-.71-3.54,9.37,9.37,0,0,1,.67-3.55A9,9,0,0,1,11.73,46a8.25,8.25,0,0,1,2.79-1.92,9.08,9.08,0,0,1,3.57-.69,9.32,9.32,0,0,1,1.66.15,7.66,7.66,0,0,1,1.75.52,8.12,8.12,0,0,1,3.34,2.69h.07V43.88h2.46V61.19a13.39,13.39,0,0,1-.35,3,7.44,7.44,0,0,1-1.38,2.94,7.79,7.79,0,0,1-2.85,2.24,10.86,10.86,0,0,1-4.78.9,12.16,12.16,0,0,1-4.66-.86,10.82,10.82,0,0,1-3.73-2.65Zm.44-12.46a6.85,6.85,0,0,0,1.89,4.72,6.62,6.62,0,0,0,2.05,1.46,6.21,6.21,0,0,0,2.55.54,6.87,6.87,0,0,0,4.7-1.85,5.88,5.88,0,0,0,1.44-2.11A6.86,6.86,0,0,0,25,52.38a7.63,7.63,0,0,0-.45-2.59,6.26,6.26,0,0,0-1.31-2.13,6.33,6.33,0,0,0-2.09-1.45,6.7,6.7,0,0,0-2.76-.54,5.9,5.9,0,0,0-2.55.54,6.59,6.59,0,0,0-2.05,1.45,6.85,6.85,0,0,0-1.89,4.72Zm25.52,8.95H34.72V34.92h8.13a10.33,10.33,0,0,1,6.36,1.76A6.18,6.18,0,0,1,51.55,42a6.65,6.65,0,0,1-1.74,4.65,7.47,7.47,0,0,1-5,2.18L52.4,61.33H49.12L41.89,49.06H37.41Zm0-14.73h4.77a10.74,10.74,0,0,0,3-.37,5.68,5.68,0,0,0,2-1,3.63,3.63,0,0,0,1.08-1.46A4.85,4.85,0,0,0,48.64,42a4.72,4.72,0,0,0-.34-1.77,3.66,3.66,0,0,0-1.08-1.47,5.22,5.22,0,0,0-2-1,11.09,11.09,0,0,0-3-.35H37.41ZM57,34.92h7.68a10.33,10.33,0,0,1,6.36,1.76A6.18,6.18,0,0,1,73.41,42a6.24,6.24,0,0,1-2.34,5.32,10.27,10.27,0,0,1-6.36,1.77h-5V61.33H57ZM59.72,46.6H64a10.74,10.74,0,0,0,3-.37,5.68,5.68,0,0,0,2-1,3.63,3.63,0,0,0,1.08-1.46A4.85,4.85,0,0,0,70.5,42a4.72,4.72,0,0,0-.34-1.77,3.66,3.66,0,0,0-1.08-1.47,5.22,5.22,0,0,0-2-1,11.09,11.09,0,0,0-3-.35H59.72Zm40.66,10.56a10.39,10.39,0,0,1-1.66,1.9,10.92,10.92,0,0,1-2.26,1.55A12.93,12.93,0,0,1,90.6,62a14.19,14.19,0,0,1-5.46-1,13.09,13.09,0,0,1-7.26-7.27,15.38,15.38,0,0,1,0-11.12,13.09,13.09,0,0,1,7.26-7.27,14,14,0,0,1,5.46-1,13.44,13.44,0,0,1,4.93,1,10,10,0,0,1,4.21,3.21l-2.35,1.75a6.1,6.1,0,0,0-1.12-1.26,7.8,7.8,0,0,0-1.62-1.12,10.44,10.44,0,0,0-2-.79,8.18,8.18,0,0,0-2.09-.3,10.82,10.82,0,0,0-4.55.94,10.28,10.28,0,0,0-3.41,2.5,11,11,0,0,0-2.15,3.63,13.08,13.08,0,0,0,0,8.69,11,11,0,0,0,2.15,3.64,10.28,10.28,0,0,0,3.41,2.5,10.66,10.66,0,0,0,4.55.93,11.89,11.89,0,0,0,2.07-.18,8.48,8.48,0,0,0,2-.64,7.82,7.82,0,0,0,1.86-1.21,8.74,8.74,0,0,0,1.62-1.92Z"/><g class="cls-3"><path class="cls-4" d="M.5,29.71.38,30.8V29.71Z"/><path class="cls-5" d="M.66,29.71.38,32.23V30.8L.5,29.71Z"/><path class="cls-5" d="M.82,29.71.38,33.66V32.23l.28-2.52Z"/><path class="cls-6" d="M1,29.71.38,35.1V33.66l.44-3.95Z"/><path class="cls-6" d="M1.15,29.71.38,36.53V35.1L1,29.71Z"/><path class="cls-7" d="M1.31,29.71.38,38V36.53l.77-6.82Zm.16,0L.38,39.4V38l.93-8.26Z"/><path class="cls-8" d="M1.63,29.71.38,40.83V39.4l1.09-9.69Z"/><path class="cls-8" d="M1.79,29.71.38,42.27V40.83L1.63,29.71Z"/><path class="cls-9" d="M2,29.71.39,43.56h0V42.27L1.79,29.71Z"/><path class="cls-10" d="M2.12,29.71.55,43.57H.39L2,29.71Z"/><path class="cls-10" d="M2.28,29.71.71,43.57H.55L2.12,29.71Z"/><path class="cls-11" d="M2.44,29.71.88,43.57H.71L2.28,29.71Z"/><path class="cls-12" d="M2.6,29.71,1,43.57H.88L2.44,29.71Z"/><path class="cls-13" d="M2.77,29.71,1.2,43.57H1L2.6,29.71Z"/><path class="cls-13" d="M2.93,29.71,1.36,43.57H1.2L2.77,29.71Z"/><path class="cls-14" d="M3.09,29.71,1.52,43.57H1.36L2.93,29.71Z"/><path class="cls-15" d="M3.25,29.71,1.69,43.57H1.52L3.09,29.71Z"/><path class="cls-16" d="M3.41,29.71,1.85,43.57H1.69L3.25,29.71Z"/><path class="cls-17" d="M3.58,29.71,2,43.57H1.85L3.41,29.71Z"/><path class="cls-18" d="M3.74,29.71,2.17,43.57H2L3.58,29.71Z"/><path class="cls-19" d="M3.9,29.71,2.33,43.57H2.17L3.74,29.71Z"/><path class="cls-20" d="M4.06,29.71,2.5,43.57H2.33L3.9,29.71Z"/><path class="cls-21" d="M4.22,29.71,2.66,43.57H2.5L4.06,29.71Z"/><path class="cls-22" d="M4.39,29.71,2.82,43.57H2.66L4.22,29.71Z"/><path class="cls-23" d="M4.55,29.71,3,43.57H2.82L4.39,29.71Z"/><path class="cls-24" d="M4.71,29.71,3.14,43.57H3L4.55,29.71Z"/><path class="cls-24" d="M4.87,29.71,3.31,43.57H3.14L4.71,29.71Z"/><path class="cls-25" d="M5,29.71,3.47,43.57H3.31L4.87,29.71Z"/><path class="cls-26" d="M5.2,29.71,3.63,43.57H3.47L5,29.71Z"/><path class="cls-27" d="M5.36,29.71,3.79,43.57H3.63L5.2,29.71Z"/><path class="cls-28" d="M5.52,29.71,4,43.57H3.79L5.36,29.71Z"/><path class="cls-29" d="M5.68,29.71,4.12,43.57H4L5.52,29.71Z"/><path class="cls-30" d="M5.84,29.71,4.28,43.57H4.12L5.68,29.71Z"/><path class="cls-31" d="M6,29.71,4.44,43.57H4.28L5.84,29.71Z"/><path class="cls-32" d="M6.17,29.71,4.6,43.57H4.44L6,29.71Z"/><path class="cls-33" d="M6.33,29.71,4.76,43.57H4.6L6.17,29.71Z"/><path class="cls-34" d="M6.49,29.71,4.93,43.57H4.76L6.33,29.71Z"/><path class="cls-35" d="M6.66,29.71,5.09,43.57H4.93L6.49,29.71Z"/><path class="cls-36" d="M6.82,29.71,5.25,43.57H5.09L6.66,29.71Z"/><path class="cls-37" d="M7,29.71,5.41,43.57H5.25L6.82,29.71Z"/><path class="cls-38" d="M7.14,29.71,5.58,43.57H5.41L7,29.71Z"/><path class="cls-39" d="M7.3,29.71,5.74,43.57H5.58L7.14,29.71Z"/><path class="cls-40" d="M7.47,29.71,5.9,43.57H5.74L7.3,29.71Z"/><path class="cls-41" d="M7.63,29.71,6.06,43.57H5.9L7.47,29.71Z"/><path class="cls-42" d="M7.79,29.71,6.22,43.57H6.06L7.63,29.71Z"/><path class="cls-43" d="M8,29.71,6.39,43.57H6.22L7.79,29.71Z"/><path class="cls-44" d="M8.11,29.71,6.55,43.57H6.39L8,29.71Z"/><path class="cls-45" d="M8.28,29.71,6.71,43.57H6.55L8.11,29.71Z"/><path class="cls-46" d="M8.44,29.71,6.87,43.57H6.71L8.28,29.71Z"/><path class="cls-47" d="M8.6,29.71,7,43.57H6.87L8.44,29.71Z"/><path class="cls-48" d="M8.76,29.71,7.2,43.57H7L8.6,29.71Z"/><path class="cls-48" d="M8.92,29.71,7.36,43.57H7.2L8.76,29.71Z"/><path class="cls-49" d="M9.09,29.71,7.52,43.57H7.36L8.92,29.71Z"/><path class="cls-50" d="M9.25,29.71,7.68,43.57H7.52L9.09,29.71Z"/><path class="cls-51" d="M9.41,29.71,7.84,43.57H7.68L9.25,29.71Z"/><path class="cls-52" d="M9.57,29.71,8,43.57H7.84L9.41,29.71Z"/><path class="cls-53" d="M9.73,29.71,8.17,43.57H8L9.57,29.71Z"/><path class="cls-54" d="M9.9,29.71,8.33,43.57H8.17L9.73,29.71Z"/><path class="cls-54" d="M10.06,29.71,8.49,43.57H8.33L9.9,29.71Z"/><path class="cls-55" d="M10.22,29.71,8.65,43.57H8.49l1.57-13.86Z"/><path class="cls-56" d="M10.38,29.71,8.82,43.57H8.65l1.57-13.86Z"/><path class="cls-56" d="M10.54,29.71,9,43.57H8.82l1.56-13.86Z"/><path class="cls-57" d="M10.71,29.71,9.14,43.57H9l1.56-13.86Z"/><path class="cls-58" d="M10.87,29.71,9.3,43.57H9.14l1.57-13.86Z"/><path class="cls-59" d="M11,29.71,9.46,43.57H9.3l1.57-13.86Z"/><path class="cls-60" d="M11.19,29.71,9.63,43.57H9.46L11,29.71Z"/><path class="cls-61" d="M11.35,29.71,9.79,43.57H9.63l1.56-13.86Z"/><path class="cls-62" d="M11.52,29.71,10,43.57H9.79l1.56-13.86Z"/><path class="cls-62" d="M14.14,29.71h.1V43.57H10l1.57-13.86Z"/></g><g class="cls-63"><path class="cls-4" d="M30.31,34.87l-.11-2.38h.11Z"/><path class="cls-5" d="M30.31,37.36l-.23-4.87h.12l.11,2.38Z"/><path class="cls-5" d="M30.31,39.86,30,32.49h.11l.23,4.87Z"/><path class="cls-6" d="M30.23,40.62l-.38-8.13H30l.34,7.37v.76Z"/><path class="cls-7" d="M30.11,40.62l-.38-8.13h.12l.38,8.13Zm-.11,0-.38-8.13h.11l.38,8.13Z"/><path class="cls-8" d="M29.88,40.62l-.38-8.13h.12L30,40.62Z"/><path class="cls-9" d="M29.76,40.62l-.38-8.13h.12l.38,8.13Z"/><path class="cls-10" d="M29.65,40.62l-.38-8.13h.11l.38,8.13Z"/><path class="cls-10" d="M29.53,40.62l-.38-8.13h.12l.38,8.13Z"/><path class="cls-11" d="M29.41,40.62,29,32.49h.11l.38,8.13Z"/><path class="cls-12" d="M29.3,40.62l-.38-8.13H29l.37,8.13Z"/><path class="cls-13" d="M29.18,40.62l-.38-8.13h.12l.38,8.13Z"/><path class="cls-13" d="M29.07,40.62l-.38-8.13h.11l.38,8.13Z"/><path class="cls-14" d="M29,40.62l-.38-8.13h.12l.38,8.13Z"/><path class="cls-15" d="M28.83,40.62l-.38-8.13h.12L29,40.62Z"/><path class="cls-16" d="M28.72,40.62l-.38-8.13h.11l.38,8.13Z"/><path class="cls-17" d="M28.6,40.62l-.38-8.13h.12l.38,8.13Z"/><path class="cls-18" d="M28.48,40.62l-.37-8.13h.11l.38,8.13Z"/><path class="cls-19" d="M28.37,40.62,28,32.49h.12l.37,8.13Z"/><path class="cls-20" d="M28.25,40.62l-.38-8.13H28l.38,8.13Z"/><path class="cls-21" d="M28.14,40.62l-.38-8.13h.11l.38,8.13Z"/><path class="cls-22" d="M28,40.62l-.38-8.13h.12l.38,8.13Z"/><path class="cls-22" d="M27.9,40.62l-.37-8.13h.11L28,40.62Z"/><path class="cls-23" d="M27.79,40.62l-.38-8.13h.12l.37,8.13Z"/><path class="cls-24" d="M27.67,40.62l-.38-8.13h.12l.38,8.13Z"/><path class="cls-24" d="M27.56,40.62l-.38-8.13h.11l.38,8.13Z"/><path class="cls-25" d="M27.44,40.62l-.38-8.13h.12l.38,8.13Z"/><path class="cls-26" d="M27.32,40.62l-.38-8.13h.12l.38,8.13Z"/><path class="cls-27" d="M27.21,40.62l-.38-8.13h.11l.38,8.13Z"/><path class="cls-28" d="M27.09,40.62l-.38-8.13h.12l.38,8.13Zm-.12,0-.37-8.13h.11l.38,8.13Z"/><path class="cls-29" d="M26.86,40.62l-.38-8.13h.12L27,40.62Z"/><path class="cls-30" d="M26.74,40.62l-.38-8.13h.12l.38,8.13Z"/><path class="cls-31" d="M26.63,40.62l-.38-8.13h.11l.38,8.13Z"/><path class="cls-64" d="M26.51,40.62l-.38-8.13h.12l.38,8.13Z"/><path class="cls-65" d="M26.39,40.62,26,32.49h.12l.38,8.13Z"/><path class="cls-66" d="M26.28,40.62l-.38-8.13H26l.38,8.13Z"/><path class="cls-34" d="M26.16,40.62l-.38-8.13h.12l.38,8.13Z"/><path class="cls-35" d="M26,40.62l-.37-8.13h.11l.38,8.13Z"/><path class="cls-36" d="M25.93,40.62l-.38-8.13h.12L26,40.62Z"/><path class="cls-67" d="M25.81,40.62l-.38-8.13h.12l.38,8.13Z"/><path class="cls-37" d="M25.7,40.62l-.38-8.13h.11l.38,8.13Z"/><path class="cls-38" d="M25.58,40.62l-.38-8.13h.12l.38,8.13Z"/><path class="cls-68" d="M25.46,40.62l-.38-8.13h.12l.38,8.13Z"/><path class="cls-39" d="M25.35,40.62,25,32.49h.11l.38,8.13Z"/><path class="cls-40" d="M25.23,40.62l-.38-8.13H25l.38,8.13Z"/><path class="cls-41" d="M25.11,40.62l-.37-8.13h.11l.38,8.13Z"/><path class="cls-69" d="M25,40.62l-.38-8.13h.12l.37,8.13Z"/><path class="cls-42" d="M24.88,40.62l-.38-8.13h.12L25,40.62Z"/><path class="cls-70" d="M24.77,40.62l-.38-8.13h.11l.38,8.13Z"/><path class="cls-43" d="M24.65,40.62l-.38-8.13h.12l.38,8.13Z"/><path class="cls-44" d="M24.53,40.62l-.38-8.13h.12l.38,8.13Z"/><path class="cls-45" d="M24.42,40.62,24,32.49h.11l.38,8.13Z"/><path class="cls-71" d="M24.3,40.62l-.38-8.13H24l.38,8.13Z"/><path class="cls-72" d="M24.18,40.62l-.37-8.13h.11l.38,8.13Z"/><path class="cls-47" d="M24.07,40.62l-.38-8.13h.12l.37,8.13Z"/><path class="cls-48" d="M24,40.62l-.38-8.13h.12l.38,8.13Z"/><path class="cls-48" d="M23.84,40.62l-.38-8.13h.11L24,40.62Z"/><path class="cls-48" d="M23.72,40.62l-.38-8.13h.12l.38,8.13Z"/><path class="cls-73" d="M23.6,40.62l-.37-8.13h.11l.38,8.13Z"/><path class="cls-49" d="M23.49,40.62l-.38-8.13h.12l.37,8.13Z"/><path class="cls-50" d="M23.37,40.62,23,32.49h.12l.38,8.13Z"/><path class="cls-51" d="M23.26,40.62l-.38-8.13H23l.38,8.13Z"/><path class="cls-51" d="M23.14,40.62l-.38-8.13h.12l.38,8.13Z"/><path class="cls-51" d="M23,40.62l-.38-8.13h.12l.38,8.13Z"/><path class="cls-52" d="M22.91,40.62l-.38-8.13h.11L23,40.62Zm-.12,0-.38-8.13h.12l.38,8.13Z"/><path class="cls-53" d="M22.67,40.62l-.37-8.13h.11l.38,8.13Z"/><path class="cls-54" d="M22.56,40.62l-.38-8.13h.12l.37,8.13Z"/><path class="cls-54" d="M22.44,40.62,22.18,35V32.49h0l.38,8.13Zm-.11,0-.15-3.15V35l.26,5.64Z"/><path class="cls-55" d="M22.21,40.62l0-.65v-2.5l.15,3.15Z"/><path class="cls-55" d="M22.18,40l0,.65h0Z"/></g><path class="cls-2" d="M7.58,32.45,3.4,36.66l4.22,4.18h3.56L7.44,37.12l18.45-.06-1.61,1.62h1.78l2.09-2.11L26,34.48H24.26l1.63,1.61-18.45.07,3.71-3.73Z"/></svg>