<svg id="Layer_1" data-name="Layer 1" xmlns="http://www.w3.org/2000/svg" viewBox="0 0 100 100"><defs><style>.cls-1{fill:#1e5f90;}.cls-2{fill:#fff;}</style></defs><rect class="cls-1" x="24.81" y="38.47" width="50.65" height="23.06" rx="3"/><path class="cls-2" d="M31.49,55.65V45.46h2.16V55.65Z"/><path class="cls-2" d="M41.25,55.65l-2.46-8h-.06c.09,1.63.13,2.72.13,3.26v4.74H36.93V45.46h2.94l2.42,7.79h0l2.56-7.79h2.94V55.65h-2V50.83c0-.23,0-.5,0-.79s0-1.09.1-2.37h-.07l-2.62,8Z"/><path class="cls-2" d="M57.35,55.65l-.74-2.43H52.89l-.74,2.43H49.82l3.6-10.23h2.64l3.61,10.23Zm-1.26-4.24c-.68-2.2-1.07-3.44-1.15-3.73s-.15-.51-.19-.68c-.15.59-.59,2.06-1.31,4.41Z"/><path class="cls-2" d="M68.71,48.64a3.1,3.1,0,0,1-1,2.51,4.39,4.39,0,0,1-2.92.87h-.93v3.63H61.67V45.46h3.26a4.31,4.31,0,0,1,2.82.8A2.91,2.91,0,0,1,68.71,48.64Zm-4.88,1.61h.71A2.35,2.35,0,0,0,66,49.86a1.39,1.39,0,0,0,.5-1.15,1.44,1.44,0,0,0-.41-1.12,2,2,0,0,0-1.31-.36h-1Z"/></svg>