<svg id="Layer_1" data-name="Layer 1" xmlns="http://www.w3.org/2000/svg" viewBox="0 0 100 100"><defs><style>.cls-1{fill:#5382a1;}.cls-2{fill:#e76f00;}</style></defs><path class="cls-1" d="M36.88,77.37s-3.82,2.22,2.72,3c7.92.9,12,.77,20.7-.88a36.3,36.3,0,0,0,5.51,2.69c-19.58,8.39-44.31-.49-28.93-4.78"/><path class="cls-1" d="M34.48,66.42s-4.28,3.17,2.26,3.85c8.47.87,15.15.94,26.72-1.29a11.73,11.73,0,0,0,4.12,2.51c-23.67,6.92-50,.55-33.1-5.07"/><path class="cls-2" d="M54.65,47.85c4.82,5.55-1.27,10.55-1.27,10.55S65.63,52.07,60,44.16c-5.26-7.39-9.29-11.06,12.52-23.71,0,0-34.23,8.56-17.88,27.4"/><path class="cls-1" d="M80.54,85.46s2.83,2.33-3.11,4.14c-11.3,3.42-47,4.45-57,.13-3.57-1.55,3.12-3.7,5.23-4.16a13.63,13.63,0,0,1,3.45-.38c-4-2.8-25.65,5.49-11,7.86,39.91,6.47,72.75-2.92,62.4-7.59"/><path class="cls-1" d="M38.71,55.07S20.54,59.39,32.28,61c4.95.66,14.83.51,24-.26,7.52-.63,15.07-2,15.07-2a31.67,31.67,0,0,0-4.57,2.44C48.37,66,12.71,63.76,23,58.79a34.46,34.46,0,0,1,15.73-3.72"/><path class="cls-1" d="M71.32,73.3c18.76-9.75,10.09-19.12,4-17.86A14.25,14.25,0,0,0,73.2,56a3.51,3.51,0,0,1,1.61-1.24c12-4.21,21.19,12.42-3.87,19a1.7,1.7,0,0,0,.38-.49"/><path class="cls-2" d="M60,0S70.4,10.42,50.15,26.41c-16.23,12.82-3.7,20.13,0,28.48-9.47-8.55-16.43-16.08-11.76-23.08C45.23,21.53,64.2,16.54,60,0"/><path class="cls-1" d="M40.56,99.72c18,1.15,45.66-.64,46.32-9.16,0,0-1.26,3.23-14.89,5.79-15.37,2.89-34.33,2.56-45.57.7,0,0,2.3,1.91,14.14,2.67"/></svg>