<svg id="Layer_1" data-name="Layer 1" xmlns="http://www.w3.org/2000/svg" viewBox="0 0 100 100"><defs><style>.cls-1{fill:#d33833;}.cls-1,.cls-10,.cls-11,.cls-14,.cls-15,.cls-16,.cls-17,.cls-4,.cls-5,.cls-6,.cls-7,.cls-8{fill-rule:evenodd;}.cls-14,.cls-2{fill:#ef3d3a;}.cls-15,.cls-3{fill:#231f20;}.cls-4{fill:#f0d6b7;}.cls-5{fill:#335061;}.cls-6{fill:#6d6b6d;}.cls-7{fill:#dcd9d8;}.cls-8,.cls-9{fill:#f7e4cd;}.cls-10{fill:#49728b;}.cls-11,.cls-12{fill:#fff;}.cls-13{fill:none;stroke:#d33833;stroke-miterlimit:5;stroke-width:0.8px;}.cls-16{fill:#81b0c4;}.cls-17{fill:#1d1919;}</style></defs><g id="g10"><g id="g3393"><path id="path22" class="cls-1" d="M82,48.19C82,68,66.26,84.06,46.89,84.06S11.82,68,11.82,48.19s15.7-35.88,35.07-35.88S82,28.37,82,48.19"/><path id="path24" class="cls-2" d="M13.25,57.07S10.71,19.66,45.18,18.59l-2.4-4L24.07,20.86,18.73,27l-4.68,9L11.38,46.38l.8,6.95"/><path id="path26" class="cls-3" d="M22.87,23.71a35.11,35.11,0,0,0-10,24.61h0a35.11,35.11,0,0,0,10,24.61h0a33.5,33.5,0,0,0,24,10.18h0a33.49,33.49,0,0,0,24-10.18h0a35.11,35.11,0,0,0,10-24.61h0a35.11,35.11,0,0,0-10-24.61h0a33.48,33.48,0,0,0-24-10.17h0a33.5,33.5,0,0,0-24,10.17ZM21.31,74.45A37.27,37.27,0,0,1,10.73,48.32h0A37.27,37.27,0,0,1,21.31,22.19h0A35.67,35.67,0,0,1,46.89,11.36h0A35.67,35.67,0,0,1,72.47,22.19h0A37.27,37.27,0,0,1,83.05,48.32h0A37.27,37.27,0,0,1,72.47,74.45h0A35.67,35.67,0,0,1,46.89,85.28h0A35.67,35.67,0,0,1,21.31,74.45h0"/><path id="path28" class="cls-4" d="M61.65,48.39l-5.34.8L49.1,50l-4.68.13L39.88,50,36.4,48.92l-3.07-3.34-2.41-6.81-.53-1.47-3.21-1.07-1.87-3.08L24,28.75l1.47-3.88,3.47-1.2L31.73,25l1.33,2.94,1.61-.26L35.2,27l-.53-3.07-.14-3.88.8-5.34,0-3.06,2.44-3.89L42,4.7,49.5,1.49l8.28,1.2L65,7.9l3.34,5.35,2.14,3.87L71,26.74,69.4,35l-2.94,7.34-2.8,3.88"/><path id="path30" class="cls-5" d="M57.11,71.5,38,72.3v3.21l1.6,11.22-.8.94L25.45,83.12l-.94-1.6-1.34-15.1L20.1,57.34l-.67-2.14,10.69-7.35,3.34-1.33,2.94,3.6,2.54,2.27,2.94.94,1.34.4,1.6,7L46,62.15l3.08-1.07L47,65.22,58.58,70.7l-1.47.8"/><path id="path32" class="cls-6" d="M25.45,24.87l3.47-1.2L31.73,25l1.33,2.94,1.61-.26.4-1.61L34.26,23l.81-7.35-.67-4,2.4-2.8L42,4.7l-1.47-2L33.2,6.3,30.12,8.7l-1.73,3.75-2.68,3.6-.8,4.28.54,4.54"/><path id="path34" class="cls-7" d="M30.92,12.31s2-4.94,10-7.35.41-1.73.41-1.73L32.66,6.57,29.32,9.91l-1.47,2.67,3.07-.27"/><path id="path36" class="cls-7" d="M26.92,23.94s-2.81-9.36,7.88-10.69l-.4-1.61-7.35,1.74-2.14,6.95.54,4.54,1.47-.93"/><path id="path38" class="cls-8" d="M31.19,36.36l1.75-1.69a1.12,1.12,0,0,1,.92,1c.14.94.54,9.36,6.28,13.9.53.41-4.27-.67-4.27-.67l-4.28-6.68"/><path id="path40" class="cls-8" d="M55.78,33.82s.31-4.05,1.4-3.74a1.51,1.51,0,0,1,1.09,1.41s-2.65,1.71-2.49,2.33"/><path id="path42" class="cls-9" d="M66.86,19s-2.2.47-2.4,2.41,2.4.4,2.81.26"/><path id="path44" class="cls-9" d="M50.7,19.13s-2.94.4-2.94,2.27,3.34,1.73,4.27.93"/><path id="path46" class="cls-8" d="M32.53,27.81s-5.08-3.07-5.61-.13-1.74,5.07.8,8.15L26,35.29l-1.6-4.14-.54-4,3.08-3.2,3.47.26,2,1.61.14,2"/><path id="path48" class="cls-8" d="M34.93,19.39s2.27-11.75,13.76-14C58.15,3.49,63.12,5.77,65,7.9c0,0-8.41-10-16.43-6.94S34.67,9.64,34.8,13.25a55,55,0,0,1,.13,6.14"/><path id="path50" class="cls-8" d="M65.93,9.24s-3.87-.13-4,3.34a2.66,2.66,0,0,0,.27,1.07s3.07-3.48,4.94-1.61"/><path id="path52" class="cls-8" d="M49,14s-.66-5.33-5.21-2.23c-2.94,2-2.67,4.81-2.14,5.34s.39,1.61.8.87.27-3.14,1.74-3.81S48,12.77,49,14"/><path id="path54" class="cls-10" d="M36.4,50.12,23.84,55.73s5.21,20.71,2.54,27.13l-1.87-.67-.13-7.88-3.48-15L19.43,55.2l13.1-8.82,3.87,3.74"/><path id="path56" class="cls-10" d="M37.69,61.58l1.79,2.17v8H37.34s-.27-5.61-.27-6.28.27-3.07.27-3.07"/><path id="path58" class="cls-10" d="M37.74,73l-6,.27,1.73,1.2,4.28.67"/><path id="path60" class="cls-5" d="M58.31,71.63l4.95-.13,1.2,12.29-5.08.67L58.31,71.63"/><path id="path62" class="cls-5" d="M59.65,71.63l7.48-.4s3.08-7.75,3.08-8.15,2.67-11.22,2.67-11.22l-6-6.28-1.2-1.07-3.2,3.21V60.14L59.65,71.63"/><path id="path64" class="cls-10" d="M63,70.7l-4.68.93L59,75.38c1.74.8,4.68-1.34,4.68-1.34"/><path id="path66" class="cls-10" d="M63.12,47.32l9.36,7,.26-3.21-7.08-6.55-2.54,2.81"/><path id="path68" class="cls-11" d="M42.37,98,39.61,86.73l-1.38-8.28L38,72.3l12.51-.66h7.79l-.7,14,1.2,10.83-.14,2-10.15.8L42.37,98"/><path id="path70" class="cls-7" d="M56.58,71.5s-.67,13.9,1.33,23.78A25.46,25.46,0,0,1,48,98.49l11.22-.4,1.34-.8L59,75.38l-.4-4.68"/><path id="path72" class="cls-11" d="M64.69,82.73l5.21-1.47,9.89-.54,1.47-4.54L78.58,68.3l-3.07-.41-4.28,1.34-4.1,2L65,70.83l-1.69.67"/><path id="path74" class="cls-7" d="M64.59,80.05s3.48-1.6,4-1.47l-1.47-7.35,1.74-.66s1.2,6.94,1.2,7.74c0,0,7.48.41,8.15.41a12.18,12.18,0,0,0,1.2-6.28l1.47,4.27L81,79.12l-2.14,3.2-2.41.54-4-.14L71.14,81l-4.68.66L65,82.19"/><path id="path76" class="cls-12" d="M59.34,70.57,56.4,63.08l-3.07-4.4s.67-1.88,1.6-1.88H58L61,57.87l-.27,5-1.34,7.75"/><path id="path78" class="cls-7" d="M59.92,68s-3.74-7.22-3.74-8.29c0,0,.66-1.6,1.6-1.2S60.72,60,60.72,60V57.47l-4.54-.93-3.08.4,5.21,12.29,1.07.13"/><path id="path80" class="cls-12" d="M43.58,50.39l-3.7-.4L36.4,48.92v1.2L38.1,52l5.34,2.41"/><path id="path82" class="cls-7" d="M37.6,50.79s4.15,1.74,5.48,1.34l.14,1.6-3.74-.8-2.28-1.6.4-.54"/><path id="path84" class="cls-1" d="M64.67,57.26a26,26,0,0,1-6.11-.84c.13-.74-.1-1.46.08-2A4.85,4.85,0,0,1,60.73,54a3.6,3.6,0,0,0-2.32-.26A3.78,3.78,0,0,0,58,52.5c1.28-.45,4.29-3.43,6-2.45.81.47,1.15,3.16,1.21,4.46a4.58,4.58,0,0,1-.54,2.75"/><path id="path86" class="cls-13" d="M64.67,57.26a26,26,0,0,1-6.11-.84c.13-.74-.1-1.46.08-2A4.85,4.85,0,0,1,60.73,54a3.6,3.6,0,0,0-2.32-.26A3.78,3.78,0,0,0,58,52.5c1.28-.45,4.29-3.43,6-2.45.81.47,1.15,3.16,1.21,4.46A4.58,4.58,0,0,1,64.67,57.26Z"/><path id="path88" class="cls-1" d="M53.83,53.55c0,.18,0,.35,0,.52-.71.47-1.85.46-2.63.85a6.8,6.8,0,0,1,2.83.72c0,.43,0,.86,0,1.29a47.27,47.27,0,0,1-4,3c-.72.39-3.26,1.4-4,1.22-.43-.1-.47-.64-.64-1.14A16.36,16.36,0,0,1,44,55.59c-.09-2.07-.3-5.54,1.93-5.11a20,20,0,0,1,5.29,1.93,5.4,5.4,0,0,0,2.63,1.14"/><path id="path90" class="cls-13" d="M53.83,53.55c0,.18,0,.35,0,.52-.71.47-1.85.46-2.63.85a6.8,6.8,0,0,1,2.83.72c0,.43,0,.86,0,1.29a47.27,47.27,0,0,1-4,3c-.72.39-3.26,1.4-4,1.22-.43-.1-.47-.64-.64-1.14A16.36,16.36,0,0,1,44,55.59c-.09-2.07-.3-5.54,1.93-5.11a20,20,0,0,1,5.29,1.93A5.4,5.4,0,0,0,53.83,53.55Z"/><path id="path92" class="cls-1" d="M55.12,56a7.52,7.52,0,0,1-.34-2.43c3-2,3.58,3.45.34,2.43"/><path id="path94" class="cls-13" d="M55.12,56a7.52,7.52,0,0,1-.34-2.43C57.79,51.58,58.36,57,55.12,56Z"/><path id="path96" class="cls-14" d="M59.48,56.94s-.94-1.34-.27-1.74,1.34,0,1.74-.67,0-1.07.13-1.87.8-.93,1.47-1.07,2.54-.4,2.81.27l-.81-2.4L63,48.92l-5.08,2.94-.26,1.47v2.94"/><path id="path98" class="cls-14" d="M45.45,61.35q-.24-3.14-.52-6.25c-.28-3.11.75-2.57,3.44-2.57a7.13,7.13,0,0,1,2.69.8c.73,1.49-1.22,1.16.84,2.28,1.74,1,4.8-.57,4.1-2.68-.39-.47-2-.15-2.64-.45l-3.13-1.63c-1.33-.69-4.4-1.69-5.81-.73-3.59,2.44.22,8.54,1.5,11.08"/><path id="path100" class="cls-15" d="M49,14c-3.64-.85-5.45,1.52-6.55,4-1-.23-.59-1.58-.35-2.26.66-1.79,3.28-4.18,5.43-3.85.92.14,2.17,1,1.47,2.13"/><path id="path102" class="cls-15" d="M66.71,18.16h.17a37.12,37.12,0,0,0,2.57,5c-.69,1.62-5.26,3.06-5.19.15,1-.43,2.69-.09,3.57-.64-.51-1.39-1.24-2.58-1.12-4.54"/><path id="path104" class="cls-15" d="M50.83,18.2c.78,1.43,1,2.94,2.14,4,.5.49,1.47,1.08,1,2.43a3,3,0,0,1-1.41,1.17c-1.73.52-5.78.11-4.41-2.05,1.44.06,3.37.93,4.44-.11-.82-1.32-2.29-3.92-1.75-5.46"/><path id="path106" class="cls-15" d="M66.06,32.75c-2.62,1.68-5.53,3.5-9.81,3.08a2.9,2.9,0,0,1-.38-3.73c.47.79.18,2.25,1.46,2.47,2.43.42,5.26-1.48,7-2.15,1.08-1.82-.1-2.5-1.07-3.67-2-2.41-4.68-5.4-4.58-9,.81-.59.88.89,1,1.16,1,2.44,3.67,5.57,5.59,7.66.47.51,1.24,1,1.33,1.35.25,1-.65,2.17-.54,2.83"/><path id="path108" class="cls-15" d="M31.61,31c-.82-.47-1-2.52-2-2.58-1.38-.09-1.13,2.67-1.12,4.28-.95-.86-1.11-3.5-.42-4.86-.79-.39-1.14.43-1.58.72.56-4.1,6-1.91,5.09,2.44"/><path id="path110" class="cls-15" d="M67.72,34.46c-1.22,2.31-2.94,4.86-6.51,4.93a9,9,0,0,1,0-2.33c2.73-.26,4.41-1.65,6.5-2.6"/><path id="path112" class="cls-15" d="M50.62,36c2.28,1.19,6.46,1.32,9.55,1.23a10.23,10.23,0,0,1,.17,2.34c-4,.2-8.68-.78-9.72-3.57"/><path id="path114" class="cls-15" d="M50.19,38.19c1.57,4,7,3.5,11.54,3.39a2.39,2.39,0,0,1-1.17,1.33c-1.46.6-5.5,1.05-7.53,0-1.28-.68-2.11-2.23-2.81-3.13-.35-.44-2-1.56,0-1.56"/><path id="path116" class="cls-16" d="M65.87,60a81.45,81.45,0,0,1-5.81,9.2c.92-2.7,1.31-7.22,1.45-10.67A3.36,3.36,0,0,1,65.87,60"/><path id="path118" class="cls-15" d="M75.8,71.36c-2.06.41-3.52,2.42-5.53,2.29,1.1-1.56,3-2.22,5.53-2.29"/><path id="path120" class="cls-15" d="M76.72,74.59a30.25,30.25,0,0,1-5.38.31c.81-1.23,3.93-.81,5.38-.31"/><path id="path122" class="cls-15" d="M77.3,77.38c-1.89,0-4.25,0-6-.14,1.07-1.15,4.82-.43,6,.14"/><path id="path124" class="cls-7" d="M62.3,85c.27,2.38,1.22,4.79,1.1,7.39a7.5,7.5,0,0,1-3,.66c-.1-2.21-.4-5.6-.31-7.71.69,0,1.71-.49,2.26-.34"/><path id="path126" class="cls-4" d="M59.25,50c-1,.62-1.76,1.39-2.68,2.06A5.88,5.88,0,0,1,52,50.71c0-.09.18-.05.18-.16,2.17,1,4.93-.4,7.12-.59"/><path id="path128" class="cls-16" d="M47.86,64.74c.6-2.58,2.93-3.92,5-5.34,2.19,2.78,3.52,6.35,5,9.79a50.91,50.91,0,0,1-10-4.45"/><path id="path130" class="cls-15" d="M60,85.36c-.09,2.11.21,5.5.31,7.71a7.5,7.5,0,0,0,3-.66c.12-2.6-.83-5-1.1-7.39C61.75,84.87,60.73,85.41,60,85.36Zm-21.85-12a109.8,109.8,0,0,0,4.72,23.19,30.77,30.77,0,0,0,16.86.31c-.89-4.26-.5-9.43-1-14-.39-3.41-.19-6.84-.72-10.32C52.18,71.35,43.92,72.29,38.19,73.36Zm21.22-.74c0,3.66.16,7.26.44,10.92,1.4-.21,2.35-.35,3.66-.64-.43-3.52-.37-7.48-1.24-10.6A8.74,8.74,0,0,0,59.41,72.62ZM66.52,72a8.43,8.43,0,0,0-2.07,0c.3,3,1,6.27,1.28,9.39a8.78,8.78,0,0,0,2.36-.6c0-2.74-.24-6.52-1.57-8.79ZM77.3,81.88c2.09-.51,3.4-3.06,2.81-5.69C79.72,74.43,79,71.11,78.28,70c-.55-.83-2-1.93-3.24-1.16-2,1.24-5.37,1.6-6.78,3.11a49.82,49.82,0,0,1,1.22,8.61c2.43.15,5.41-.67,7.43.2-1.41.46-3.24.46-4.45,1.13,1,.48,3.32.38,4.84,0ZM57.9,69.19c-1.47-3.44-2.8-7-5-9.79-2.12,1.42-4.45,2.76-5,5.34A50.91,50.91,0,0,0,57.9,69.19Zm3.61-10.67c-.14,3.45-.53,8-1.45,10.67A81.45,81.45,0,0,0,65.87,60,3.36,3.36,0,0,0,61.51,58.52Zm-4.09-1.45c-.83-.09-1.54,1-2.62.5-.25.27-.47.57-.72.84,2.38,2.87,3.46,6.94,5.31,10.32,1-3.24.87-6.8,1.09-10.34C59.12,58.48,58.37,57.17,57.42,57.07Zm-2.64-3.48A7.52,7.52,0,0,0,55.12,56C58.36,57,57.79,51.58,54.78,53.59ZM51.2,52.41a20,20,0,0,0-5.29-1.93c-2.23-.43-2,3-1.93,5.11a16.36,16.36,0,0,0,1.3,4.47c.17.5.21,1,.64,1.14.77.18,3.31-.83,4-1.22a47.27,47.27,0,0,0,4-3c0-.43,0-.86,0-1.29a6.8,6.8,0,0,0-2.83-.72c.78-.39,1.92-.38,2.63-.85,0-.17,0-.34,0-.52A5.4,5.4,0,0,1,51.2,52.41ZM37.88,50c-1.15,1.18,3.25,2.78,4.65,2.87,0-.75.42-1.45.33-2C41.2,50.59,39,50.78,37.88,50Zm14.25.56c0,.11-.15.07-.18.16A5.88,5.88,0,0,0,56.57,52c.92-.67,1.73-1.44,2.68-2.06C57.06,50.15,54.3,51.51,52.13,50.55Zm13.08,4c-.06-1.3-.4-4-1.21-4.46-1.69-1-4.7,2-6,2.45a3.78,3.78,0,0,1,.39,1.23,3.6,3.6,0,0,1,2.32.26,4.85,4.85,0,0,0-2.09.44c-.18.53,0,1.25-.08,2a26,26,0,0,0,6.11.84A4.58,4.58,0,0,0,65.21,54.51ZM35.94,51.13c-.37-.26-2.83-3.46-3.16-3.32-4.45,1.75-8.61,4.78-12.32,7.65,3.54,7.6,5,16.91,5.22,25.89,4.06,1.9,7.63,4.64,13.13,4.92-.64-4.51-1.22-8.53-1.58-12.77-1.38-.59-3.37,0-4.66-.19,0-1.56,2-.68,2.14-1.73.13-.79-1.09-.85-.7-2.1,1,.37,1.55,1.18,2.63,1.48,1-2.15,0-6,.13-7.78,0-.33.16-1.87.92-1.6s0,4.09,0,5.79-.19,3.1.45,4.09a148.5,148.5,0,0,1,16.48-1.35,40.9,40.9,0,0,1-4.42-2c-.89-.51-3.71-1.56-4-2.4-.41-1.36,1.08-2.08,1.33-3.24C44.92,64,44.39,61.08,43.76,59a27.31,27.31,0,0,1-1-4.27,46.46,46.46,0,0,1-6.77-3.64Zm26.92-2.94c3.71-1.79,4.37,6.72,2.92,9.46.23.82,1,1.13,1.31,1.87-2.06,3.7-4.36,7.16-6.47,10.82,1.57-1,3.81-.18,5.66-.91.67-.27,1.16-1.81,1.67-3.05a66.33,66.33,0,0,0,3.54-10.93,13.76,13.76,0,0,0,.46-3c-.16-1.18-1.76-2-2.57-2.78-1.5-1.35-2.44-2.53-4-3.79-.63.93-2,1.56-2.51,2.32ZM27.46,15.34c-1.76,1.94-1.39,5.58-1.18,8.17,3.19-2,7.43.16,7.39,3.57,1.52,0,.57-1.9.29-3.1-.9-3.92,1.52-8.17.11-11.76a9.73,9.73,0,0,0-6.61,3.12ZM40.09,4.07c-4,1.13-9.11,4-10.76,7.62,1.27-.18,2.16-.82,3.41-.9a8,8,0,0,0,1.64.06c1.09-.27,2-2.7,2.82-3.61S39,6,39.62,5.17c.42-.2,1-.19,1.07-.82C40.51,4.15,40.31,4,40.09,4.07ZM60.9,5.13C56.75,2.79,49.73,1,45.32,3.23c-3.56,1.77-8.38,4.71-10,8.43,1.53,3.6-.45,6.89-.58,10.53-.07,1.94.91,3.64,1,5.75-.52.87-2.13,1-3.24.91-.37-1.87-1-4-2.95-4.18A4.48,4.48,0,0,0,24.68,29c-.14,2.77,2.13,7.36,5.35,7,1.25-.12,1.55-1.37,2.91-1.35.74,1.46-1.13,1.92-1.33,3a8.51,8.51,0,0,0,.28,1.83,24.87,24.87,0,0,0,3.17,7.39c1.63,2.33,4.84,2.69,8.28,2.91.62-1.32,2.88-1.21,4.36-.87A14.59,14.59,0,0,1,42.92,45c-1.57-1.73-3.15-3.58-3.23-5.83,3,4.1,5.4,7.69,10.79,9.5,4.07,1.36,8.83-.63,12-2.83a13.72,13.72,0,0,0,3-3.69c3.46-5,5.07-12.06,4.71-18.93-.14-2.84-.14-5.66-1.09-7.57s-4.35-3.78-6.32-2c-.37-1.94,1.63-3.14,4-2.44C65,9.07,63.28,6.48,60.9,5.13Zm7.73,64c3.24-1.61,9.29-4.34,11.33,0a35.73,35.73,0,0,1,2,6c.55,2.33-.59,7.23-3,8a14.23,14.23,0,0,1-7.13.14A3.89,3.89,0,0,1,71,82.07a9.92,9.92,0,0,0-5,.84c.13,1.35-.78,1.57-1.63,1.84-.64,2.51,1.26,5.79.81,8.08-.33,1.63-2.33,1.88-3.81,2.19a13.13,13.13,0,0,0,.17,2.42c-.34,1.25-1.85,2-3.28,2.13-4.72.56-11.87.82-16.41-.81-1.26-3.1-2.26-6.88-3.31-10.42-4.42.47-8-1.91-11.37-3.47C26,84.33,24.41,84,24,83.1s-.25-2.62-.35-4.25A64.74,64.74,0,0,0,22,66.42c-.49-1.91-1.35-3.6-1.95-5.44a39.26,39.26,0,0,1-1.77-5.52c-.38-2.52,2-2.66,3.52-3.75C24.16,50,26,49.08,28.55,47.56c.75-.45,3-1.6,3.28-2.13.51-1-.88-2.51-1.25-3.33a10.11,10.11,0,0,1-1-3.67,7.08,7.08,0,0,1-4.72-3c-1.62-2.37-2.74-6.75-1.34-10.08.11-.27.66-.78.74-1.19a13.44,13.44,0,0,0-.33-2.69c-.15-4.33.73-8.07,3.65-9.37C28.77,7.34,33,5.77,37,3.43a29.1,29.1,0,0,1,4.84-2.06c6.1-2.25,15.45-1.83,20.51,2,2.14,1.62,5.57,5.05,6.8,7.53,3.24,6.55,3,17.49.74,25.46a24.55,24.55,0,0,1-1.36,3.92c-.43.9-1.77,2.7-1.6,3.49s3,3,3.66,3.6c1.11,1.07,3.23,2.5,3.4,3.85s-.64,3.41-1,4.8C71.55,60.66,70.2,65,68.63,69.09"/><path id="path132" class="cls-8" d="M47,37c.18-.24,1.14-.59,2.5.06,0,0-1.61.27-1.47,2.94l-.67-.13S46.67,37.41,47,37"/><path id="path134" class="cls-17" d="M58.71,59.94a.73.73,0,1,1-.73-.73.73.73,0,0,1,.73.73"/><path id="path136" class="cls-17" d="M59.45,63.35a.74.74,0,1,1-.74-.73.74.74,0,0,1,.74.73"/></g></g></svg>