<svg id="Layer_1" data-name="Layer 1" xmlns="http://www.w3.org/2000/svg" xmlns:xlink="http://www.w3.org/1999/xlink" viewBox="0 0 100 100"><defs><style>.cls-1{fill:url(#linear-gradient);}.cls-2{fill:url(#linear-gradient-2);}</style><linearGradient id="linear-gradient" x1="-674.98" y1="-198.18" x2="-604.46" y2="-268.71" gradientTransform="matrix(1, 0, 0, -1, 688.06, -182.24)" gradientUnits="userSpaceOnUse"><stop offset="0"/><stop offset="1" stop-color="#fff"/></linearGradient><linearGradient id="linear-gradient-2" x1="-601.26" y1="-265.52" x2="-671.77" y2="-194.99" xlink:href="#linear-gradient"/></defs><path id="path7508" class="cls-1" d="M49.92,74.4C72,104.56,93.68,66,93.65,42.8,93.6,15.36,65.8.06,49.89.06,24.32.06,0,21.18,0,50.09,0,82.19,27.91,100,49.89,100c-5-.72-21.56-4.28-21.79-42.49C28,31.67,36.53,21.35,49.86,25.88c.31.11,14.69,5.79,14.69,24.35S49.92,74.4,49.92,74.4Z"/><path id="path7510" class="cls-2" d="M49.89,25.85c-14.61-5-32.53,7-32.53,31.14,0,39.39,29.19,43,32.75,43C75.68,100,100,78.85,100,50,100,17.84,72.06.06,50.08.06c6.1-.83,32.83,6.59,32.83,43.13,0,23.81-20,36.81-33,31.27-.3-.11-14.69-5.79-14.69-24.35S49.89,25.85,49.89,25.85Z"/></svg>