<svg id="Layer_1" data-name="Layer 1" xmlns="http://www.w3.org/2000/svg" viewBox="0 0 100 100"><defs><style>.cls-1{fill:#80b13e;}.cls-2{fill:#231f20;}</style></defs><path class="cls-1" d="M52.82,58.26v4.37l-3.17-4.37H49v5.29h.54V59.06l3.27,4.49h.51V58.26h-.54"/><path class="cls-1" d="M54.71,58.26v5.29h3.53V63h-3v-2h2.87v-.53H55.27V58.8h2.94v-.54h-3.5"/><path class="cls-1" d="M59.07,58.26v.54h2v4.75h.57V58.8h2v-.54H59.07"/><path class="cls-1" d="M71,58.26l-1.4,4.38-1.41-4.38h-.49l-1.42,4.38-1.39-4.38h-.58L66,63.59h.49l1.42-4.41,1.43,4.41h.49l1.7-5.33H71"/><path class="cls-1" d="M76.81,60.93c0-1.43-.66-2.2-2.11-2.2s-2.09.77-2.09,2.2.66,2.21,2.09,2.21,2.11-.77,2.11-2.21m-4.76,0c0-1.88,1-2.73,2.65-2.73a2.4,2.4,0,0,1,2.68,2.73,2.4,2.4,0,0,1-2.68,2.74c-1.69,0-2.65-.84-2.65-2.74"/><path class="cls-1" d="M80.82,60.9c.75,0,1.21-.23,1.21-1.07s-.45-1-1.24-1H79.07v2.1Zm-.16.51H79.07v2.16h-.55V58.28h2.29c1.23,0,1.78.49,1.78,1.54a1.41,1.41,0,0,1-1.35,1.57l1.28,2.18h-.61l-1.25-2.16"/><path class="cls-1" d="M85.41,60.77l-1.06,1.15v1.65H83.8V58.28h.55V61.2L87,58.28h.65l-1.9,2.08,2.15,3.21H87.3l-1.9-2.8"/><path class="cls-1" d="M88.4,63.05l.29-.43a3.38,3.38,0,0,0,1.89.53c1.09,0,1.58-.3,1.58-1s-.63-.86-1.58-1c-1.14-.2-1.92-.39-1.92-1.47s.66-1.42,1.92-1.42a3.24,3.24,0,0,1,1.84.47l-.3.46a2.88,2.88,0,0,0-1.54-.41c-1,0-1.36.26-1.36.89s.55.8,1.5,1c1.15.21,2,.38,2,1.51s-.67,1.56-2.12,1.56A3.77,3.77,0,0,1,88.4,63"/><path class="cls-2" d="M98.23,36.38c-7.44,0-7.76,3.34-7.76,8V56h1.76V44.42c0-3.55-.14-6.39,6-6.39a13.54,13.54,0,0,1,1.77.1V36.45c-.54,0-1.13-.07-1.77-.07"/><path class="cls-2" d="M11.44,48.46V36.77h1.79V48.49c0,3.37,0,6.22,6.15,6.22s6-2.85,6-6.39V36.77h1.75V48.32c0,4.7-.31,8-7.75,8s-7.93-3.34-7.93-7.9"/><path class="cls-2" d="M45.79,44.29V56H44V44.26C44,40.89,44,38,37.85,38s-6,2.85-6,6.39V56H30.1V44.43c0-4.7.31-8,7.75-8s7.93,3.33,7.93,7.9"/><path class="cls-2" d="M49,56h1.72V36.82H49Z"/><path class="cls-2" d="M63,47.62c3.1,0,4.64-1.51,4.64-4.57s-1.67-4.5-4.72-4.5H55.7v9.07ZM54,36.84h9c4.45,0,6.46,2.21,6.46,6.14s-2,6.36-6.49,6.36H55.69V56H54V36.83"/><path class="cls-2" d="M73.16,45H86.23c-.18-3.82-.42-7.09-6-7.09-5.37,0-6.84,2.92-7,7.09m-1.76,1.3c0-5.65,1.62-10,8.85-10,7.48,0,7.72,5,7.69,10.32H73.14c0,4.67,1.19,8.14,7.27,8.14a9.15,9.15,0,0,0,6.28-2l1,1.3a11.23,11.23,0,0,1-7.26,2.31c-7.59,0-9-4.39-9-10"/><path class="cls-2" d="M.67,60.15c7.44,0,7.76-3.34,7.76-8V36.79H6.67V52.11c0,3.54.14,6.39-6,6.39l-.67,0v1.66H.67"/><path class="cls-2" d="M96.08,53.8a1.06,1.06,0,1,0,1.06,1.06,1.05,1.05,0,0,0-1.06-1.06m0,2.27a1.22,1.22,0,1,1,1.21-1.22,1.22,1.22,0,0,1-1.21,1.22"/><path class="cls-2" d="M96.21,54.84c.19,0,.3-.05.3-.26s-.1-.24-.3-.24h-.43v.5Zm0,.18h-.39v.53H95.6V54.16h.62c.35,0,.48.14.48.42a.37.37,0,0,1-.33.42l.31.55h-.2L96.17,55"/></svg>