<svg id="Layer_1" data-name="Layer 1" xmlns="http://www.w3.org/2000/svg" viewBox="0 0 100 100"><defs><style>.cls-1{fill:#fff;}</style></defs><path class="cls-1" d="M23.87,51.81a8.82,8.82,0,0,0-2.13.15c-5.07,1-7.94,5.34-7.37,10.94C14.88,68,20,72.25,24.76,72.38a7.91,7.91,0,0,0,1.46-.1c5.14-.88,6.48-6.46,5.64-11.94C30.9,54.15,26.71,52,23.87,51.81Zm5,14.66a2.13,2.13,0,0,1-2,1,2.78,2.78,0,0,1-2.49-2.87,7.41,7.41,0,0,1,.52-2.81,2.62,2.62,0,0,0-1-3.15,2.7,2.7,0,0,0-2.05-.38,2.65,2.65,0,0,0-1.67,1.15,5.82,5.82,0,0,0-.61,1.45l-.07.2c-.23.63-.6.81-.86.77s-.28-.09-.38-.38a5.48,5.48,0,0,1,1.42-4.63,4.48,4.48,0,0,1,3.83-1.38A4.55,4.55,0,0,1,27,58c1,1.92.11,3.93-.43,5.13-.06.13-.11.25-.15.35a2.11,2.11,0,0,0-.05,2,1.36,1.36,0,0,0,1.14.57,2.33,2.33,0,0,0,.62-.08c.26-.06.54-.13.7.08A.43.43,0,0,1,28.91,66.47Z"/><path class="cls-1" d="M95.34,61.51a6.78,6.78,0,0,0-2.09-1.74L93,59.09c-.08-.27-.17-.52-.25-.76a10.17,10.17,0,0,0,.91-6,9.82,9.82,0,0,0-2.8-5.49c-1.93-2-5.15-3.34-7.71-4.11,0-1.22-.07-2.6-.11-3.46a23.6,23.6,0,0,0-.9-5.91A19,19,0,0,0,79.81,28c3.88-4.66,6-9.47,6-13.77,0-7-5.43-11.46-13.8-11.46A35.07,35.07,0,0,0,58.87,5.72L58.26,6C56.86,4.6,55,2.79,54.89,2.69A11.47,11.47,0,0,0,47.11-.08c-3.63,0-7.81,1.34-12.41,4a67.31,67.31,0,0,0-12.33,9.47c-8.36,8-15.1,17.5-18,25.51a22.74,22.74,0,0,0-1.6,9.28,11.22,11.22,0,0,0,3.86,8L8,57.39a19.21,19.21,0,0,0-.36,6.19,17,17,0,0,0,5.84,11A18.17,18.17,0,0,0,22.84,79,36.71,36.71,0,0,0,36.13,93.56a42.37,42.37,0,0,0,21.42,6.33l1.5,0h0a42.28,42.28,0,0,0,21.88-5.75A34.7,34.7,0,0,0,95.15,77.7l0-.07a30.7,30.7,0,0,0,2.12-10A9.34,9.34,0,0,0,95.34,61.51ZM92.11,76.44C86.58,89.69,73.38,97.07,57.65,96.61,43,96.17,30.48,88.43,25,75.82a14.47,14.47,0,0,1-9.32-3.75A13.7,13.7,0,0,1,11,63.25a15,15,0,0,1,.85-7l-3.07-2.6c-14.07-11.88,29.92-60.78,44-48.5.07.06,4.79,4.68,4.8,4.7l2.62-1.11C72.48,3.65,82.49,6.11,82.5,14.27c0,4.24-2.69,9.18-7,13.67A13.75,13.75,0,0,1,79,34.27a19.89,19.89,0,0,1,.76,5.12c.08,1.73.16,5.75.17,5.82l1.74.49c3.31.93,5.67,2.16,6.82,3.37a6.67,6.67,0,0,1,1.93,3.76,7.18,7.18,0,0,1-1.29,5.25,17.39,17.39,0,0,1,.74,2c.36,1.17.63,2.14.67,2.28,1.34,0,3.44,1.54,3.44,5.26A27.69,27.69,0,0,1,92.11,76.44Z"/><path class="cls-1" d="M89.9,65.38a2.4,2.4,0,0,0-1.55-.28A21.68,21.68,0,0,0,86.87,60a32.32,32.32,0,0,1-10.62,5.28,42.57,42.57,0,0,1-14.19,1.53c-3.08-.24-5.12-1.14-5.88,1.35a33.31,33.31,0,0,0,14.47,1.47.26.26,0,0,1,.29.23.28.28,0,0,1-.16.28S65.06,72.84,56,70c.25,2.13,2.33,3.08,3.32,3.47a15.63,15.63,0,0,0,2.61.71c11.25,1.93,21.77-4.5,24.14-6.12.18-.12.29,0,.15.21a2.13,2.13,0,0,1-.23.33c-2.9,3.74-10.69,8.07-20.83,8.07-4.42,0-8.83-1.56-10.46-4-2.51-3.72-.12-9.14,4.07-8.57l1.84.21a38.53,38.53,0,0,0,19.09-3.06c5.72-2.65,7.88-5.58,7.56-7.94a3.45,3.45,0,0,0-1-1.94c-1-1-2.66-1.79-5.41-2.56-.91-.26-1.53-.42-2.19-.64-1.18-.39-1.77-.7-1.9-2.92-.06-1-.23-4.36-.29-5.76-.1-2.45-.4-5.79-2.48-7.18a3.53,3.53,0,0,0-1.77-.57,3.73,3.73,0,0,0-1.06.11,5.57,5.57,0,0,0-2.76,1.56,9.54,9.54,0,0,1-7.21,2.41c-1.46-.06-3-.29-4.77-.39l-1-.06c-4.08-.21-8.45,3.31-9.17,8.31-1,7,4,10.55,5.48,12.66a1.84,1.84,0,0,1,.4.95,1.53,1.53,0,0,1-.52,1h0c-4.16,4.27-5.49,11.07-3.92,16.73a12.58,12.58,0,0,0,.74,2c3.67,8.59,15.08,12.59,26.22,9a27.21,27.21,0,0,0,4.24-1.78,22.29,22.29,0,0,0,6.48-4.85,19.25,19.25,0,0,0,5.4-10.59C91.07,66.65,90.57,65.79,89.9,65.38Zm-15-14.22c0,.91-.57,1.64-1.24,1.63s-1.19-.76-1.18-1.68.57-1.64,1.24-1.63S74.92,50.24,74.9,51.16ZM71.84,40.33c1.3-.21,1.93,1.13,2.39,3.36a6.7,6.7,0,0,1-.09,3.66,7.86,7.86,0,0,0-1.94,0,7.45,7.45,0,0,1-1.24-3C70.49,42.15,70.54,40.54,71.84,40.33Zm-4.36,12a1.49,1.49,0,0,1,2-.36c.82.41,1.25,1.22,1,1.82a1.49,1.49,0,0,1-2,.35C67.61,53.69,67.18,52.88,67.48,52.28Zm-5.09-.67c-.14.2-.43.17-1,.1a7.68,7.68,0,0,0-3.9.4,3.6,3.6,0,0,1-.89.25.3.3,0,0,1-.2-.08.27.27,0,0,1-.09-.22,1.46,1.46,0,0,1,.59-.92,4.4,4.4,0,0,1,2.31-1,3.52,3.52,0,0,1,3.17,1A.38.38,0,0,1,62.39,51.61Zm-9.3-2.3c-.22,0-.32-.12-.34-.25-.09-.38.5-1,1.12-1.47a6.58,6.58,0,0,1,6.38-.76,5.41,5.41,0,0,1,2.4,1.93c.22.36.27.65.12.79s-.79,0-1.72-.44a7.59,7.59,0,0,0-3.6-.77C55.39,48.46,53.6,49.37,53.09,49.31Z"/><path class="cls-1" d="M67.25,24.09c.17,0,.29-.27.13-.36a20.06,20.06,0,0,0-8.53-2.24.16.16,0,0,1-.13-.25,9.09,9.09,0,0,1,1.61-1.61.16.16,0,0,0-.11-.28A22.57,22.57,0,0,0,50,23a.16.16,0,0,1-.24-.17,10.8,10.8,0,0,1,1.08-2.63.16.16,0,0,0-.21-.21A41.43,41.43,0,0,0,39,29.44a.16.16,0,0,0,.21.23,35.52,35.52,0,0,1,12.55-5.54A34.67,34.67,0,0,1,67.25,24.09Z"/><path class="cls-1" d="M54.23,11.6s-3.83-4.44-5-4.77C42.13,4.91,26.77,15.5,17,29.5,13,35.16,7.31,45.19,10,50.35a21,21,0,0,0,3.25,3.13,12.06,12.06,0,0,1,7.64-4.87c4-10.79,10.73-20.73,19.61-27.57A100.11,100.11,0,0,1,54.23,11.6Z"/></svg>