<svg id="Layer_1" data-name="Layer 1" xmlns="http://www.w3.org/2000/svg" viewBox="0 0 100 100"><defs><style>.cls-1{fill:#262c36;}.cls-2{fill:#00d2ff;}</style></defs><circle class="cls-1" cx="50" cy="49.85" r="50"/><path class="cls-2" d="M75.11,74.85c-6.83,0-10.51-5.62-10.51-10.93V32.41c0-2.15-1.31-2.52-2.1-2.52s-2.1.31-2.1,2.52V63.92c0,5.31-3.68,10.93-10.51,10.93s-10.5-5.62-10.5-10.93V32.41c0-2.15-1.31-2.52-2.1-2.52s-2.1.31-2.1,2.52V63.92c0,5.31-3.68,10.93-10.51,10.93s-10.5-5.62-10.5-10.93V46.06a4.2,4.2,0,0,1,8.4,0V63.92c0,2.16,1.32,2.52,2.1,2.52s2.11-.31,2.11-2.52V32.41c0-5.31,3.67-10.93,10.5-10.93s10.5,5.62,10.5,10.93V63.92c0,2.16,1.32,2.52,2.1,2.52S52,66.13,52,63.92V32.41c0-5.31,3.67-10.93,10.5-10.93S73,27.1,73,32.41V63.92c0,2.16,1.32,2.52,2.11,2.52s2.1-.31,2.1-2.52V46.06a4.2,4.2,0,0,1,8.4,0V63.92C85.61,69.23,81.93,74.85,75.11,74.85Z"/></svg>