<svg id="Layer_1" data-name="Layer 1" xmlns="http://www.w3.org/2000/svg" xmlns:xlink="http://www.w3.org/1999/xlink" viewBox="0 0 100 100"><defs><style>.cls-1{fill:url(#linear-gradient);}.cls-2{fill:url(#linear-gradient-2);}.cls-3{fill:url(#radial-gradient);}</style><linearGradient id="linear-gradient" x1="-8064.82" y1="-12759.76" x2="-8003.83" y2="-12795.79" gradientTransform="translate(976.98 1605.17) scale(0.12)" gradientUnits="userSpaceOnUse"><stop offset="0" stop-color="#909ca9"/><stop offset="1" stop-color="#ededee"/></linearGradient><linearGradient id="linear-gradient-2" x1="-8063.45" y1="-13438.95" x2="-8014.38" y2="-13438.95" gradientTransform="translate(976.98 1605.17) scale(0.12)" gradientUnits="userSpaceOnUse"><stop offset="0" stop-color="#939fab"/><stop offset="1" stop-color="#dcdee1"/></linearGradient><radialGradient id="radial-gradient" cx="-5813.26" cy="-4201.11" r="65.15" gradientTransform="matrix(-0.11, -0.02, 0.03, -0.23, -468.36, -1021.44)" gradientUnits="userSpaceOnUse"><stop offset="0" stop-color="#ee352c"/><stop offset="1" stop-color="#a91d22"/></radialGradient></defs><path class="cls-1" d="M62,46.68,42,53.22,24.55,60.91,19.68,62.2c-1.24,1.18-2.54,2.38-3.95,3.59s-3,2.54-4.09,3.42a30.66,30.66,0,0,0-4,3.93,17.87,17.87,0,0,0-2.94,5A8.35,8.35,0,0,0,5.92,85.6c2.06,3,6.16,6.12,10.94,8.22A68.71,68.71,0,0,0,26.49,97,127.39,127.39,0,0,0,47,100c1.1,0,2.58,0,2.65,0a39.29,39.29,0,0,0,1.95-3.71,94,94,0,0,0,7.1-18.79,90.2,90.2,0,0,0,1.81-13c.11-1.46.15-6.38.06-8.05a55.35,55.35,0,0,0-.75-7.1,1.71,1.71,0,0,1-.05-.62c.06,0,.24-.1,2.71-.82L62,46.68Zm-4.57,2.68A49,49,0,0,1,58.22,57a3.94,3.94,0,0,1,0,1c-.12,0-2.56-1.44-4.3-2.53-1.51-1-4.39-2.86-4.84-3.23-.15-.1-.14-.12,1.11-.54C52.27,51,57.26,49.36,57.43,49.36Zm-10.2,3.36a5.42,5.42,0,0,1,1.32.71,91.92,91.92,0,0,0,9.17,5.11c.56.24.62.15-.67,1a66.11,66.11,0,0,1-10.4,5.58c-.74.33-1.36.59-1.37.59a3.89,3.89,0,0,1,.18-.83,44.87,44.87,0,0,0,1.62-10.64c0-1.52,0-1.52.15-1.56,0,0,0,0,0,0Zm-2.11.81a32.82,32.82,0,0,1-.09,4.4,38,38,0,0,1-1.39,6.59c-.17.55-.32,1-.35,1a26,26,0,0,1-2.81-2.74,20.45,20.45,0,0,1-2.79-4,13.36,13.36,0,0,1-.85-2.06c.25-.17,8.22-3.26,8.28-3.19Zm-9.9,3.89h.05a2.6,2.6,0,0,1,.23.55A20.31,20.31,0,0,0,38,62.47a25.61,25.61,0,0,0,3.5,3.77c.36.3.69.59.74.64s.12.07-2.35,1c-2.86,1.09-6,2.18-9.55,3.33l-2.56.83c-.13,0-.09,0,.31-.65a84.56,84.56,0,0,0,6-12.05c.26-.66.52-1.33.56-1.48a.56.56,0,0,1,.34-.39l.25-.06Zm-3,1.25s-.73,1.65-1.49,3.14c-1.46,2.86-3.07,5.67-5.22,9.09-.36.59-.71,1.14-.76,1.2s-.1.07-.34-.39a12.2,12.2,0,0,1-1.09-8c.19-.94.18-.92.63-1.15,1.94-1,8.21-3.92,8.27-3.86Zm26.11,1.06v.64a82.42,82.42,0,0,1-.89,11.38c-.1.59-.17,1.07-.19,1.09l-.95-.27a39.2,39.2,0,0,1-7-3,30.92,30.92,0,0,1-3.54-2.18s.65-.35,1.39-.75a89.59,89.59,0,0,0,8.28-4.85c.92-.63,2.31-1.62,2.62-1.9l.24-.18ZM20.77,64.21c.06,0,0,.12-.05.67-.06.39-.13,1.12-.16,1.62a11.19,11.19,0,0,0,1.33,6.08c.3.62.54,1.14.53,1.15s-10.13,3-13.28,3.89l-1.81.5c-.11,0-.12,0-.08-.24.35-2.22,2.05-5.13,4.41-7.58a19.47,19.47,0,0,1,5-3.82c1.54-.88,3.92-2.19,4.1-2.25,0,0,0,0,0,0Zm23.61,4.23a5.44,5.44,0,0,1,.82.43,45.82,45.82,0,0,0,11.59,4.52l.35.07-.48.27c-2,1.12-8.63,3.88-15.4,6.41-1,.36-1.95.72-2.13.8a1,1,0,0,1-.35.1s.27-.54.62-1.19A75.31,75.31,0,0,0,44.17,69c.12-.29.2-.55.21-.56Zm-2.4.78a5.06,5.06,0,0,1-.26.7A97.11,97.11,0,0,1,36.47,80.5c-.56,1-1,1.8-1,1.8l-1-.6A31.08,31.08,0,0,1,26.49,75l-.27-.33,1.38-.38a99.27,99.27,0,0,0,13.29-4.59Zm15,5.22h0c0,.35-.76,3.47-1.39,5.73-.53,1.89-1,3.37-1.82,6-.36,1.15-.68,2.1-.69,2.1a.82.82,0,0,1-.2,0,63,63,0,0,1-12.31-3.47c-1.06-.42-2.57-1.1-2.66-1.18a18.46,18.46,0,0,1,2-.95c6.88-3,14-6.43,16.48-7.9a2.32,2.32,0,0,1,.56-.28ZM22.4,75.63s-1.89,2.8-4.58,6.56l-2.44,3.44c-.41.58-1,1.48-1.38,2l-.63,1-.68-.57a24.69,24.69,0,0,1-2.82-2.88A12.48,12.48,0,0,1,7.34,80.3c-.16-.72-.16-1.09,0-1.13s4.27-1,8.05-1.89c2.1-.49,4.54-1.06,5.42-1.28l1.6-.37Zm1.94.74.49.54a28.3,28.3,0,0,0,7.09,5.81,4.59,4.59,0,0,1,.82.53c-.1.08-9.35,3.36-13.64,4.85-2.4.85-4.39,1.53-4.4,1.53a2,2,0,0,1-.3-.2l-.28-.2.44-.63c1.43-2.06,3.21-4.32,7.1-9l2.68-3.22ZM36.42,85s.68.23,1.5.53a49.36,49.36,0,0,0,5.61,1.74A62.24,62.24,0,0,0,52,88.75c.33,0,.51.06.45.11s-2.33.8-4,1.31c-2.61.82-10.56,3.17-17,5l-2.29.65a1.21,1.21,0,0,1-.65-.17,10.13,10.13,0,0,1,.8-1A89.83,89.83,0,0,0,35.5,86.4c.5-.75.92-1.37.92-1.39Zm-2.66.08s-1.06,1.74-2.94,4.7l-2,3.18c-.31.49-.76,1.24-1,1.67l-.44.77-.22-.06c-.55-.15-4.38-1.5-5.39-1.91a36.08,36.08,0,0,1-3.53-1.62,14.66,14.66,0,0,1-2.6-1.65l4.6-1.25c6.63-1.81,10.31-2.85,12.71-3.61a5.55,5.55,0,0,1,.84-.22ZM52.6,89.51h0c.06.15-2.39,7-3.29,9.11-.19.48-.27.6-.38.59s-3.81-.52-6-.83c-3.76-.58-10.09-1.68-11.68-2l-.36-.07,2.25-.52c4.85-1.09,7.18-1.68,9.54-2.4a68,68,0,0,0,8.91-3.44,7,7,0,0,1,1-.39Z"/><path class="cls-2" d="M41.36,0a96.59,96.59,0,0,0-9.18,3.3A56.93,56.93,0,0,0,21.63,8.6a7.88,7.88,0,0,0-2,2,1.46,1.46,0,0,0-.09.52l2,1.92,4.82,1.54,11.49,2.06L51,18.94l.14-1.14H51l-1.73-.28-.35-.62c-1.78-3.14-3.75-7-4.9-9.68a51.43,51.43,0,0,1-2.21-6.1C41.55.08,41.52,0,41.36,0Zm-.25.77h0s.07.44.13.94a31.9,31.9,0,0,0,1.47,6.37c.56,1.67.56,1.58-.09,1.38C41.1,9,34.18,7.84,29.17,7.15c-.8-.11-1.48-.22-1.48-.23s3.61-2,5.23-2.74C35,3.23,40.69.85,41.11.77ZM26.52,7.55l.59.2a90.92,90.92,0,0,0,15.73,3l.94.09a8.68,8.68,0,0,1-1,.5c-2.15,1.07-4.51,2.39-6.14,3.4a6.06,6.06,0,0,1-1,.55L35,15.18l-.6-.09-1.52-1.48C30.2,11,28.11,9,27.31,8.27Zm-.6.47,2.13,2.67c1.17,1.47,2.35,2.9,2.6,3.22a7,7,0,0,1,.46.59c-.06.05-3.09-.54-4.69-.91s-2.34-.56-3.35-.87l-.83-.28v-.21c0-1,1.3-2.53,3.48-4.07l.2-.14Zm18.13,3.64c.06,0,.14.13.32.54.51,1.14,2.12,4.19,2.51,4.78.12.2.33.22-1.8-.13C40,16,38.3,15.74,38.3,15.71a1.6,1.6,0,0,1,.35-.22,29.24,29.24,0,0,0,4.61-3.2l.73-.6s0,0,.06,0Z"/><path class="cls-3" d="M19.69,10.43a1.52,1.52,0,0,0,0,1.32,6.15,6.15,0,0,0,1.42,1.68s6.74,6.57,7.56,7.51a21,21,0,0,1,5.49,14.38A23.3,23.3,0,0,1,31.76,46.2c-3.15,6.87-9.8,14.46-20,22.87l1.5-.5a45.75,45.75,0,0,1,5.37-3.19,190.45,190.45,0,0,1,25-11.19C57.75,48.86,81,42.63,94.3,40.6l1.38-.21-.21-.34a47.1,47.1,0,0,0-3-4.28,36.66,36.66,0,0,0-10.75-9c-5.93-3.31-13.61-5.9-23.33-7.82-1.83-.37-5.85-1.06-9.12-1.56-6.94-1.08-11.42-1.82-16.35-2.67-1.77-.3-4.42-.75-6.18-1.13a39.71,39.71,0,0,1-4-1.08c-1.09-.42-2.66-.84-3-2.13Zm3.91,3.78a5.32,5.32,0,0,1,.57.19c.58.19,1.32.42,2.2.66.66.19,1.33.36,2,.53l1.68.44c.1.11,1.63,5,2.15,6.87.19.71.35,1.32.33,1.32a3.26,3.26,0,0,1-.38-.59,31.57,31.57,0,0,0-7.81-8.83,5.87,5.87,0,0,1-.74-.59Zm7.45,2.06a6.27,6.27,0,0,1,.81.14c2.58.57,7.19,1.45,10.15,1.95a3.81,3.81,0,0,1,.89.2,1.44,1.44,0,0,1-.41.26c-.5.25-2.51,1.45-3.18,1.9A29,29,0,0,0,35,24.14l-.82.81s-.09-.26-.17-.58A48.88,48.88,0,0,0,31.33,17a7.18,7.18,0,0,1-.3-.69s0,0,0,0Zm13.11,2.5a5.94,5.94,0,0,1,.54,1.68,24.84,24.84,0,0,1,.73,6.93c0,.64-.06,1.23-.09,1.31l-.05.15-.79-.26c-1.62-.52-4.25-1.29-6.51-1.92-1.28-.35-2.33-.67-2.33-.7a36.16,36.16,0,0,1,2.68-2.68,70.24,70.24,0,0,1,5.82-4.51Zm1,.15s6.27,1,9.1,1.58c2.1.4,5.16,1,5.34,1.12s-.23.21-1.24.66a65.7,65.7,0,0,0-9.92,5.39c-.77.52-1.42.94-1.43.94a7.2,7.2,0,0,1,0-1,21.13,21.13,0,0,0-1.64-8.23A2.36,2.36,0,0,1,45.2,18.92ZM61.29,22.1a11,11,0,0,1-.33,2,38.41,38.41,0,0,1-3.82,8.75,9.73,9.73,0,0,1-.63,1,6.53,6.53,0,0,1-.91-.49,49.68,49.68,0,0,0-5.93-2.9c-.61-.26-1.14-.47-1.15-.5a87.33,87.33,0,0,1,7.34-4.86c2-1.24,5.37-3.09,5.43-3Zm1.15.18c.14,0,2.89.76,4.33,1.18a89.79,89.79,0,0,1,10.31,3.77l1.1.5-.77.18A112.75,112.75,0,0,0,60,33.32c-.44.18-.83.33-.86.33a4,4,0,0,1,.31-.77A30.54,30.54,0,0,0,62.33,22.8c0-.29.07-.52.11-.52ZM35,28.58a31.84,31.84,0,0,1,3.29.77c1.72.49,5.39,1.71,5.39,1.8s-.41.37-.9.79c-2,1.65-3.89,3.39-6.17,5.6-.68.65-1.26,1.18-1.29,1.18s0-.09,0-.21a34.25,34.25,0,0,0-.21-9.13C35,29,35,28.59,35,28.58Zm44.22.05a28.34,28.34,0,0,1-1.61,2.49c-.9,1.3-2.24,3-5.25,6.81-1.59,2-3.37,4.26-4,5s-1.11,1.4-1.13,1.4a6.92,6.92,0,0,1-.42-.61A30.91,30.91,0,0,0,60.73,37c-.45-.38-.95-.79-1.12-.91a1.6,1.6,0,0,1-.3-.26s2.57-1.15,4.52-1.94c3.42-1.39,8.09-3.06,11.58-4.13,1.83-.58,3.79-1.14,3.82-1.1Zm1.16.3a3.13,3.13,0,0,1,.87.42A51.81,51.81,0,0,1,91.38,37c.81.79,2.79,2.85,2.76,2.86l-1.52.12a149,149,0,0,0-22.37,3.73l-1,.22s.56-.59,1.3-1.3c4.61-4.43,6.71-7.23,9.19-12.23.35-.74.65-1.38.68-1.42ZM46.68,32.38c.22,0,2.18,1,3.67,1.71s3.4,1.77,3.51,1.86-.71.39-1.61.83c-2.84,1.43-5.28,2.77-7.82,4.32-.73.44-1.33.8-1.35.8s0-.06.36-.8a31.31,31.31,0,0,0,3.08-8.34c.06-.23.12-.38.16-.38Zm-2,.36a29.51,29.51,0,0,1-.79,2.92,37.44,37.44,0,0,1-2.68,6.15c-.24.42-.61,1-.8,1.39l-.38.61L39.22,43a11.26,11.26,0,0,0-2.81-2.07,4.55,4.55,0,0,1-.73-.43c0-.12,2.59-2.46,4.57-4.16,1.42-1.23,4.42-3.63,4.47-3.59Zm12,4.95.74.49A55.39,55.39,0,0,1,62.71,42c.87.71,2.53,2.21,2.86,2.57l.19.2-1.23.34C57.6,47.08,52.24,48.79,46,51.09c-.7.26-1.29.47-1.34.47s-.16.07,1.4-1.37A66.25,66.25,0,0,0,56.22,38.51l.53-.82Zm-3.16.79s-2.05,3-3.29,4.6c-1.48,2-4.12,5.27-5.93,7.42-.76.89-1.41,1.63-1.44,1.65s-.06-.21-.06-.56a12.65,12.65,0,0,0-1.29-5.45c-.35-.7-.41-.86-.33-.94.29-.26,4.69-2.77,7.48-4.27,1.87-1,4.81-2.48,4.86-2.45ZM34.45,43.17a5.42,5.42,0,0,1,.79.4,16.16,16.16,0,0,1,2.6,1.75,4.5,4.5,0,0,1-.87.73c-1.44,1-3.62,2.68-4.89,3.69s-1.38,1.09-1.23.86a27.54,27.54,0,0,0,2-3.49,27.57,27.57,0,0,0,1.27-3.17,2.54,2.54,0,0,1,.3-.77Zm5.1,4c.08,0,.17.12.58.72a10.91,10.91,0,0,1,1.69,4.41l0,.3-2.07.8c-3.71,1.44-7.13,2.87-9.44,3.92-.66.31-1.79.85-2.53,1.22s-1.35.66-1.35.65.47-.37,1-.79A61.35,61.35,0,0,0,38.89,47.91c.32-.38.6-.73.63-.74Zm-2.34.57A31.79,31.79,0,0,1,34.36,51,50.17,50.17,0,0,1,25,58.54l-.91.57c-.1.06,0-.09,1.61-1.8,1-1.08,1.75-2,2.62-3.1a5.09,5.09,0,0,1,1.51-1.44C32,51.16,37.15,47.68,37.21,47.74Z"/></svg>