<svg id="Layer_1" data-name="Layer 1" xmlns="http://www.w3.org/2000/svg" viewBox="0 0 100 100"><defs><style>.cls-1{fill:#3f0;}.cls-2{fill:#fff;}</style></defs><g id="g1491"><g id="path1493"><path class="cls-1" d="M47.77,91.29a.38.38,0,0,1-.22-.07.4.4,0,0,1-.18-.33v-.52H47a.4.4,0,0,1-.4-.4v-.25a.4.4,0,0,1-.37-.4v-.47h-.35a.4.4,0,0,1-.4-.4V88a.4.4,0,0,1-.37-.4v-1h-.22a.4.4,0,0,1-.22-.06v.64a.4.4,0,0,1-.4.4H44v.9a.4.4,0,0,1-.24.37l-.26.11V90.3a.4.4,0,0,1-.37.4v.17a.4.4,0,0,1-.4.4h-.49a.4.4,0,0,1-.41-.4v-3l-.13-.06a.39.39,0,0,1-.24-.37V84.56h-.22a.4.4,0,0,1-.4-.4V81a.4.4,0,0,1-.37-.4V79.45a.43.43,0,0,1-.2.06v5.36a.4.4,0,0,1-.4.4l-.09,0a.4.4,0,0,1-.4.4h-.1v2a.4.4,0,0,1-.4.4h-.34v2.78a.4.4,0,0,1-.4.4h-.62a.4.4,0,0,1-.4-.4v-.12h-.23a.4.4,0,0,1-.4-.4v0H36.3a.4.4,0,0,1-.4-.4v-.69h-.46a.4.4,0,0,1-.41-.4v-5h-.22a.4.4,0,0,1-.4-.4v-.83a.4.4,0,0,1-.34.2h-.5a.4.4,0,0,1-.4-.41v-.57H33a.4.4,0,0,1-.4-.4V76.77l-.07,0v.85a.4.4,0,0,1-.4.4h-.22v4.6a.4.4,0,0,1-.4.4h-.09v3.13a.4.4,0,0,1-.4.4h-.1v2.75a.4.4,0,0,1-.4.4h-.25a.39.39,0,0,1-.34-.2v.18a.4.4,0,0,1-.41.4h-.86a.38.38,0,0,1-.22-.07v.54a.4.4,0,0,1-.4.4h-.75a.4.4,0,0,1-.4-.4V90a.4.4,0,0,1-.34.2h-.22v.36a.4.4,0,0,1-.4.4h-.23a.4.4,0,0,1-.4.35h-.74a.4.4,0,0,1-.4-.4v-.55H24v.55a.4.4,0,0,1-.4.4H22.52a.42.42,0,0,1-.31-.15.39.39,0,0,1-.31.15H20.79a.4.4,0,0,1-.4-.4v-.06h-.1a.4.4,0,0,1-.4-.4V90.1h-.22a.4.4,0,0,1-.4-.4v-.17a.42.42,0,0,1-.35.19.4.4,0,0,1-.4-.4v-.65a.4.4,0,0,1,.4-.4h.75a.4.4,0,0,1,.4.4v.63h.22a.4.4,0,0,1,.4.4V90h.1a.4.4,0,0,1,.4.41v.06h.31a.4.4,0,0,1,.4-.4h.62a.4.4,0,0,1,.41.4h.31v-.55a.4.4,0,0,1,.4-.4h.87a.4.4,0,0,1,.4.4v.39a.4.4,0,0,1,.34-.2h.22v-.36a.4.4,0,0,1,.41-.4h.22v-.08a.4.4,0,0,1,.4-.41h.74a.39.39,0,0,1,.34.2v-.39a.4.4,0,0,1,.41-.4h.62a.4.4,0,0,1,.4.4v.58h.06V88a.4.4,0,0,1,.4-.4h.6v-1.5a.4.4,0,0,1,.4-.4h.09V82.59a.4.4,0,0,1,.41-.4h.09v-4.6a.4.4,0,0,1,.4-.4h.22v-4a.4.4,0,0,1,.4-.4h.56a.4.4,0,0,1,.4.4v2.9l.07,0a.39.39,0,0,1,.24.37v4.54h.32V76.72a.4.4,0,0,1,.4-.4h.74a.4.4,0,0,1,.4.4v6.33h.23a.4.4,0,0,1,.4.41v5h.46a.4.4,0,0,1,.4.4v.69h.22a.4.4,0,0,1,.41.4v0h.22a.38.38,0,0,1,.21.07V87.69a.4.4,0,0,1,.41-.4h.34v-2a.4.4,0,0,1,.4-.4l.1,0a.4.4,0,0,1,.4-.4h.09V79.11a.41.41,0,0,1,.38-.4V71.53a.4.4,0,0,1,.4-.4h.62a.4.4,0,0,1,.4.4v8.7a.4.4,0,0,1,.37.4v3.13h.22a.4.4,0,0,1,.4.4v3l.14.06a.41.41,0,0,1,.24.37v2.27h.06V88.67A.41.41,0,0,1,43,88.3l.26-.11v-1a.4.4,0,0,1,.4-.4h.22V83a.4.4,0,0,1,.4-.4h.62a.4.4,0,0,1,.4.4v2.75h.22a.4.4,0,0,1,.4.4v1a.4.4,0,0,1,.37.4v.47h.35a.4.4,0,0,1,.4.4v.47a.4.4,0,0,1,.37.4v.25h.39a.39.39,0,0,1,.33.18.5.5,0,0,1,.12-.08l.28-.12V89a.42.42,0,0,1,.19-.34h0v-.07a.4.4,0,0,1,.4-.4h.62a.4.4,0,0,1,.4.4v.53h.1a.48.48,0,0,1,.24.07l.13,0,.1,0a.4.4,0,0,1,.4-.4h.84V86.23a.4.4,0,0,1,.4-.41h.22V79.71a.4.4,0,0,1,.4-.4h.37a.4.4,0,0,1,.4.4v7.74a.41.41,0,0,1,.37.34l.07,0,.25-.11v-.94a.41.41,0,0,1,.37-.4v-6a.4.4,0,0,1,.41-.4h.53V76.81a.38.38,0,0,1,.18-.34.39.39,0,0,1,.38,0l.31.13a.42.42,0,0,1,.24.37v5.19h.34a.4.4,0,0,1,.4.4v5.9h.32V86.28a.4.4,0,0,1,.37-.4v-.09a.4.4,0,0,1,.37-.4v-9.1a.4.4,0,0,1,.4-.4h.1V71.73a.4.4,0,0,1,.4-.4h.37a.4.4,0,0,1,.4.4v5a.41.41,0,0,1,.38.4V87.3l.19-.09v-2a.4.4,0,0,1,.4-.4h.93a.4.4,0,0,1,.4.4v2.42l.07,0a.4.4,0,0,1,.24.37v1.37a.39.39,0,0,1,.34-.19h.47v-.53a.4.4,0,0,1,.4-.4h.62a.42.42,0,0,1,.41.39h.06V87.47a.4.4,0,0,1,.4-.4h.5a.4.4,0,0,1,.4.4v.47h.22a.4.4,0,0,1,.4.4v1l.06,0a.47.47,0,0,1,.12-.09l.14,0V78.84a.4.4,0,0,1,.4-.4h.09V73.58a.4.4,0,0,1,.4-.4H69a.4.4,0,0,1,.4.4v3.48a.4.4,0,0,1,.24.37v7.85a.41.41,0,0,1,.38.4v2.21a.4.4,0,0,1,.37.4v1.82h.1a.42.42,0,0,1,.31.15.39.39,0,0,1,.31-.15h.09V86.28a.4.4,0,0,1,.4-.4h.1V82.1a.4.4,0,0,1,.4-.4h.56a.4.4,0,0,1,.4.4v1.5l.07,0a.39.39,0,0,1,.24.37v2.26h.09a.4.4,0,0,1,.41.4v3.51h.09a.39.39,0,0,1,.39.3h.33v-.06A.4.4,0,0,1,75,90h.09v-.3a.4.4,0,0,1,.41-.4h.21v-.63a.4.4,0,0,1,.4-.4h.75a.4.4,0,0,1,.4.4v.25H78a.45.45,0,0,1,.16,0l.54.24h.58l.61-.26a.29.29,0,0,1,.16,0h.28V86.44a.4.4,0,0,1,.24-.37l.13,0V83.83a.4.4,0,0,1,.4-.4h.75a.4.4,0,0,1,.4.4v2h.34a.4.4,0,0,1,.4.4v.14h.35a.4.4,0,0,1,.4.4v2.7H84v-.47a.4.4,0,0,1,.4-.4h.41l1.1-.49a.4.4,0,0,1,.38,0,.39.39,0,0,1,.19.33v.17h.13V87.26a.4.4,0,0,1,.4-.4h.46v-2a.4.4,0,0,1,.41-.4h.62a.4.4,0,0,1,.4.38.4.4,0,0,1,.37.4v1.5h.22a.4.4,0,0,1,.4.4v1.66h.34a.47.47,0,0,1,.17,0l.21-.16a.38.38,0,0,1,.25-.09h.74a.4.4,0,0,1,.4.4v.38a.4.4,0,0,1-.4.4.4.4,0,0,1-.4-.37h-.21l-.51.4a.4.4,0,0,1-.42,0,.35.35,0,0,1-.2-.23h-.37a.4.4,0,0,1-.4-.4V87.55h-.22a.4.4,0,0,1-.4-.4v-1.5a.4.4,0,0,1-.19-.07v1.68a.4.4,0,0,1-.4.4h-.47V89.1a.4.4,0,0,1-.4.4H86a.39.39,0,0,1-.4-.36l-.62.28a.45.45,0,0,1-.16,0h-.1v.47a.4.4,0,0,1-.4.4h-1a.4.4,0,0,1-.4-.4v-2.7h-.35a.4.4,0,0,1-.4-.4v-.14h-.34a.3.3,0,0,0-.59,0l-.13,0v2.59a.4.4,0,0,1-.4.4h-.6l-.6.27a.51.51,0,0,1-.17,0h-.74a.41.41,0,0,1-.16,0l-.55-.24h-1a.4.4,0,0,1-.34-.19v.17a.4.4,0,0,1-.41.4h-.21v.31a.4.4,0,0,1-.4.4h-.1v.06a.4.4,0,0,1-.4.4H74a.57.57,0,0,1-.18,0,.43.43,0,0,1-.24-.27h-.11a.4.4,0,0,1-.4-.4V87.06h-.09a.4.4,0,0,1-.4-.4v-2.4l-.07,0v2a.4.4,0,0,1-.4.4H72v3.84a.4.4,0,0,1-.4.4h-.1a.4.4,0,0,1-.39.35h-.62a.4.4,0,0,1-.4-.35H70a.4.4,0,0,1-.4-.4V88.69a.41.41,0,0,1-.38-.4V86.08a.4.4,0,0,1-.37-.4V77.8l-.06,0v1.07a.4.4,0,0,1-.41.4h-.09v10.3a.38.38,0,0,1-.24.36l-.13.06v.56a.4.4,0,0,1-.4.4H67a.4.4,0,0,1-.4-.4v-.39a.41.41,0,0,1-.25-.38v-1H66v.37a.39.39,0,0,1-.37.4v0a.4.4,0,0,1-.4.4h-.5a.4.4,0,0,1-.26-.1.42.42,0,0,1-.36.21h-.46v.52a.4.4,0,0,1-.41.4H62.5a.4.4,0,0,1-.4-.4V88.33l-.07,0a.38.38,0,0,1-.24-.36V85.65h-.13v1.82a.39.39,0,0,1-.24.37L61,88v2.86a.4.4,0,0,1-.4.4h-.37a.4.4,0,0,1-.4-.4V77.5a.4.4,0,0,1-.38-.4v-.41h-.07v9.1a.4.4,0,0,1-.37.4v.09a.4.4,0,0,1-.37.4v3.51a.4.4,0,0,1-.4.4h-.5a.4.4,0,0,1-.4-.4v-1h-.22a.4.4,0,0,1-.4-.4v-5.9h-.34a.39.39,0,0,1-.4-.4V80.76h-.44v5.95a.4.4,0,0,1-.38.4v.8a.4.4,0,0,1-.24.37l-.25.11v2.48a.4.4,0,0,1-.4.4h-.62a.4.4,0,0,1-.4-.4V88.25a.4.4,0,0,1-.38-.4V86.63h-.19V89.7a.4.4,0,0,1-.24.37l-.37.16a.4.4,0,0,1-.38,0,.4.4,0,0,1-.18-.34v-.3l-.07,0a.4.4,0,0,1-.4.4H51v.58a.4.4,0,0,1-.4.4h-.37a.4.4,0,0,1-.4-.4v-.63h-.1a.4.4,0,0,1-.4-.4v-.1h0v.37a.42.42,0,0,1-.24.37l-.29.12v.32a.41.41,0,0,1-.24.37l-.61.27A.41.41,0,0,1,47.77,91.29Z"/></g><g id="path1505"><path class="cls-2" d="M92,100h0l-73.4-.18a.4.4,0,0,1-.4-.4V73.2a.4.4,0,0,1,.4-.4.39.39,0,0,1,.4.4V99l72.6.18V.8H19v45a.39.39,0,0,1-.4.4.4.4,0,0,1-.4-.4V.4a.4.4,0,0,1,.4-.4H92a.4.4,0,0,1,.4.4V99.6a.41.41,0,0,1-.4.4Z"/></g><g id="path1509"><path class="cls-2" d="M92.23,3.36c-1.3,1.95-4.56,2-4.56,2l.84-2.12c-4.28,1.07-8.66,5.61-8.66,5.61V6.15l-5.78,4.39,1.17-3.26L72.93,8.82a22.38,22.38,0,0,1-6,2.33c-4.81.3-11.69,6.11-11.69,6.11.84-2.16.24-6.59.24-6.59A28.78,28.78,0,0,1,42,23.15a48.31,48.31,0,0,0-12.76,8.3C23.76,36.5,22,44.93,22,44.93c-.45,1.59-4.56,4.24-6.45,6.72-.87,1.14-5.73,7.21-7.43,14.64a27.29,27.29,0,0,0,.38,12.39s.32,2.3,2.07-1.81l.73-.15s-.89,1.92-.34,1.73,3.68-3.57,6.25-6.43,11.33-9.9,19.22-10.41c0,0,5.36-2,9.33,1.09a8.19,8.19,0,0,0,6.66,2.83s.47-.13,1.76.75l-.07-1.69s4.64,2.72,9.51.79l-.85-1.21s.87-1.29,3.45.46l.16-1.15s4.59,2.45,6.94,2.37l-.64-2.08s4.86-.68,9.67-1c0,0,6-1.29,10,3.08L92.23,3.36"/></g></g></svg>