<svg id="Layer_1" data-name="Layer 1" xmlns="http://www.w3.org/2000/svg" viewBox="0 0 100 100"><defs><style>.cls-1{fill:#8dc63f;}.cls-2{fill:#fff;}.cls-3{fill:#27aae1;}.cls-4{fill:#34a574;}.cls-5{fill:#375c93;}</style></defs><path class="cls-1" d="M1.81,78.4H43l23.63,21.87V78.4H98.19V.27H1.81ZM17.33,18.54H35.4L70.17,51V18.54H81.69V60.43H64.21l-35.35-33v33H17.34Z"/><path class="cls-2" d="M28.86,27.42l35.35,33H81.69V18.54H70.17V51L35.4,18.54H17.33V60.43H28.86Z"/><path class="cls-3" d="M1.81.27H98.19V78.4H1.81Z"/><path class="cls-4" d="M50,.27H98.19V39.34H50Z"/><path class="cls-1" d="M50,39.34H98.19V78.4H50Z"/><path class="cls-3" d="M1.81.27H50V39.34H1.81Z"/><path class="cls-5" d="M1.81,39.34H50V78.4H1.81Z"/><path class="cls-5" d="M50,78.4l.24,6.72L43,78.4Z"/><path class="cls-2" d="M25.57,25l41.81,39H88.05V14.5H74.43V52.84L33.31,14.5H11.94V64H25.57Z"/></svg>