<svg id="Layer_1" data-name="Layer 1" xmlns="http://www.w3.org/2000/svg" xmlns:xlink="http://www.w3.org/1999/xlink" viewBox="0 0 100 100"><defs><style>.cls-1{fill:#273d8d;}.cls-2,.cls-4{fill-rule:evenodd;}.cls-2{fill:url(#linear-gradient);}.cls-3{fill:#1196b3;}.cls-4{fill:url(#linear-gradient-2);}.cls-5{fill:#26c0d2;}</style><linearGradient id="linear-gradient" x1="-578.08" y1="310.55" x2="-577.47" y2="310.55" gradientTransform="matrix(0, -162.5, -162.5, 0, 50480.8, -93838.03)" gradientUnits="userSpaceOnUse"><stop offset="0" stop-color="#1b2356"/><stop offset="1" stop-color="#020021"/></linearGradient><linearGradient id="linear-gradient-2" x1="-565.53" y1="317.19" x2="-564.92" y2="317.19" gradientTransform="matrix(0, 162.5, 162.5, 0, -51460.16, 91898.17)" gradientUnits="userSpaceOnUse"><stop offset="0" stop-color="#1196b3"/><stop offset="0.3" stop-color="#1587a2"/><stop offset="1" stop-color="#101234"/></linearGradient></defs><g id="Layer_1-2" data-name="Layer 1"><path class="cls-1" d="M3,16.18A6.66,6.66,0,0,0-.35,21.94V97.07a2.68,2.68,0,0,0,5.12,1.12L33.41,35.87,29.18,1.05Z"/><path class="cls-2" d="M2.33,99.75a2.76,2.76,0,0,1-.57-.06A2.69,2.69,0,0,1-.35,97.07V21.94A6.66,6.66,0,0,1,3,16.18L29.18,1.05l4.23,34.82L4.77,98.19A2.69,2.69,0,0,1,2.33,99.75Z"/><path class="cls-3" d="M96.32,83.83a6.64,6.64,0,0,0,3.33-5.75V2.94a2.68,2.68,0,0,0-5.12-1.12L65.88,64.14,70.11,99Z"/><path class="cls-4" d="M70.11,99,65.88,64.14,94.53,1.82A2.69,2.69,0,0,1,97,.26a2.76,2.76,0,0,1,.57.06,2.69,2.69,0,0,1,2.11,2.62V78.08a6.64,6.64,0,0,1-3.33,5.75Z"/><path class="cls-1" d="M37.68,2.6a6.67,6.67,0,0,0-8.5-1.55L3,16.18A6.66,6.66,0,0,0-.35,21.94v-.17a2.2,2.2,0,0,1,1.07-1.9,2.23,2.23,0,0,1,2.18-.06L83.71,62.34a1.11,1.11,0,0,0,1.37-1.69Z"/><path class="cls-5" d="M61.62,97.41A6.65,6.65,0,0,0,70.11,99L96.32,83.83a6.64,6.64,0,0,0,3.33-5.75v.16a2.21,2.21,0,0,1-3.25,2L15.59,37.68a1.11,1.11,0,0,0-1.38,1.68Z"/></g></svg>