<svg id="Layer_1" data-name="Layer 1" xmlns="http://www.w3.org/2000/svg" viewBox="0 0 100 100"><defs><style>.cls-1{fill:#77b900;}</style></defs><path id="path21" class="cls-1" d="M9.85,45.68A37.78,37.78,0,0,1,37,31V26.12C17,27.72-.36,44.66-.36,44.66S9.44,73,37,75.6V70.46C16.76,67.92,9.85,45.68,9.85,45.68ZM37,60.23v4.71C21.69,62.22,17.46,46.36,17.46,46.36A33,33,0,0,1,37,36.93V42.1h0c-6.38-.77-11.37,5.2-11.37,5.2s2.8,10,11.4,12.93m0-43v8.93c.58-.05,1.17-.09,1.76-.11,22.73-.76,37.55,18.65,37.55,18.65s-17,20.68-34.74,20.68a26.35,26.35,0,0,1-4.57-.4v5.52a31,31,0,0,0,3.81.25c16.49,0,28.42-8.43,40-18.4,1.91,1.54,9.75,5.27,11.36,6.9-11,9.2-36.57,16.61-51.08,16.61-1.4,0-2.74-.09-4.06-.22v7.76H99.64V17.19Zm0,19.74V31c.58,0,1.16-.08,1.76-.09,16.35-.52,27.07,14,27.07,14S54.2,61,41.78,61A15.14,15.14,0,0,1,37,60.23V42.1c6.36.77,7.64,3.58,11.47,10l8.51-7.17s-6.22-8.15-16.69-8.15a32,32,0,0,0-3.29.19"/></svg>