<svg id="Layer_1" data-name="Layer 1" xmlns="http://www.w3.org/2000/svg" viewBox="0 0 100 100"><defs><style>.cls-1{fill:#c42227;}</style></defs><path class="cls-1" d="M99.71,47.43c-.77-29-29-52.12-57.47-47C13.37,5.67-4.45,31.89,1.36,60.62c5.46,27,34.8,44.8,61.23,37.44,1.87-.61,3.31-1.24,3.31-1.24l-1.83-9.08s-2.31.88-3.51,1.28a36.74,36.74,0,0,1-16.35,1C21.44,86.56,5.56,64.58,9.89,42.84,14.63,19,37,4.6,60.28,10.4c28.79,7.19,40.19,44.69,20.09,65.95-.35-1.3-.59-1.89-.78-2.75C76.76,61,73.92,48.35,71.17,35.71c-.71-3.25-1.4-6.5-5.41-6.93S60.24,31.17,59,34.36c-2.83,7.29-5.88,15.14-9,22.15-1.11-2-1.25-2.23-1.85-3.23-2.75-4.56-5.25-9.28-7.9-13.9-1.23-2.13-3-3.52-5.59-3.25a5.21,5.21,0,0,0-4.73,3.77c-2.73,9-5.15,18-7.94,27.43l9.56-.41s.68-2.59,1.07-4.56c.85-4.35,2.17-8.59,3.53-13.78l7.82,14.94c1.44,2.75,3.49,4.77,6.78,4.56s4.56-3.15,5.69-5.72c.8-1.81,5.23-13.42,7.6-20,.3,1.55.5,2.13.68,3,3,14.62,6.24,29.2,9,43.87.29,1.54.85,3.92.85,3.92A31.19,31.19,0,0,0,78.1,91c14.75-10.78,22.1-25.16,21.61-43.56Z"/></svg>