<svg id="Layer_1" data-name="Layer 1" xmlns="http://www.w3.org/2000/svg" xmlns:xlink="http://www.w3.org/1999/xlink" viewBox="0 0 100 100"><defs><style>.cls-1{fill:none;}.cls-2{clip-path:url(#clip-path);}.cls-3{fill:url(#linear-gradient);}.cls-4{clip-path:url(#clip-path-2);}.cls-5{fill:url(#linear-gradient-2);}.cls-6{fill:#80c056;}.cls-6,.cls-7{fill-rule:evenodd;}.cls-7{fill:#04789a;}</style><clipPath id="clip-path"><path class="cls-1" d="M-72,.68l-39.2,22.62a4.73,4.73,0,0,0-2.37,4.1V72.68a4.7,4.7,0,0,0,2.37,4.09L-72,99.41a4.71,4.71,0,0,0,4.73,0l39.19-22.64a4.73,4.73,0,0,0,2.37-4.09V27.4a4.74,4.74,0,0,0-2.38-4.1L-67.25.68A4.75,4.75,0,0,0-69.62.05,4.75,4.75,0,0,0-72,.68"/></clipPath><linearGradient id="linear-gradient" x1="-180.91" y1="279.07" x2="-179.8" y2="279.07" gradientTransform="matrix(-50.75, 103.54, 103.54, 50.75, -38116.87, 4559.8)" gradientUnits="userSpaceOnUse"><stop offset="0.3" stop-color="#3e863d"/><stop offset="0.5" stop-color="#55934f"/><stop offset="0.8" stop-color="#5aad45"/></linearGradient><clipPath id="clip-path-2"><path class="cls-1" d="M-112.57,75.55a4.54,4.54,0,0,0,1.39,1.22l33.62,19.42,5.6,3.22a4.7,4.7,0,0,0,2.73.62,4.23,4.23,0,0,0,.93-.17L-27,24.17a4.91,4.91,0,0,0-1.1-.87L-53.73,8.48-67.29.67A5,5,0,0,0-68.52.18Z"/></clipPath><linearGradient id="linear-gradient-2" x1="-178.83" y1="282.66" x2="-178.11" y2="282.66" gradientTransform="matrix(142.41, -105.22, -105.22, -142.41, 55088.51, 21524.55)" gradientUnits="userSpaceOnUse"><stop offset="0.57" stop-color="#3e863d"/><stop offset="0.72" stop-color="#619857"/><stop offset="1" stop-color="#76ac64"/></linearGradient></defs><g class="cls-2"><path class="cls-3" d="M13.91,19.46-96.53-34.67-153.15,80.84-42.72,135Z"/></g><g class="cls-4"><path class="cls-5" d="M-160.32,35.47l78,105.55L20.79,64.82l-78-105.54Z"/></g><path class="cls-6" d="M16.38,52.79l9.86-9.7c0-4.2,0-8.49,0-12.77,0-3.28.65-3.9,4-3.91,4.43,0,8.87,0,13.3,0,2.64,0,3.52.88,3.54,3.53,0,3.78.06,7.56,0,11.34a4.32,4.32,0,0,0,1.41,3.47C50.8,47,53,49.24,55.28,51.51a3.27,3.27,0,0,0,2.43,1.26c3.85,0,7.69,0,11.47,0,3.08-3.06,6.06-6,9.06-9a3.06,3.06,0,0,0,.7-2.42c0-3.85,0-7.7,0-11.55,0-2.61.79-3.38,3.4-3.4q7,0,14,0c2.53,0,3.47.89,3.5,3.36q.06,7.08,0,14.17c0,2.44-1,3.35-3.51,3.37-3.85,0-7.7,0-11.56,0a4.1,4.1,0,0,0-3.28,1.32Q78.22,52,74.81,55.25a4.37,4.37,0,0,0-1.39,3.49c.07,3.84,0,7.7,0,11.55,0,2.49-.94,3.38-3.45,3.4q-7,0-13.95,0c-2.62,0-3.41-.79-3.43-3.37,0-3.85-.06-7.7,0-11.55a4.07,4.07,0,0,0-1.36-3.27c-2.42-2.3-4.76-4.68-7.09-7.08a3.16,3.16,0,0,0-2.7-1.1c-.5,0-1,0-1.52,0-3.25.12-7-1.12-9.66.42-3.39,2-5.9,5.51-8.8,8.35a3.25,3.25,0,0,0-.74,2.63c0,3.78,0,7.56,0,11.34,0,2.77-.88,3.61-3.68,3.62q-6.87,0-13.74,0c-2.6,0-3.38-.8-3.39-3.41q0-7.09,0-14.17c0-2.41.87-3.25,3.32-3.28,4.43,0,8.86,0,13.13,0Z"/><path class="cls-7" d="M-.07,11c0-2.32,0-4.64,0-7C0,1.91,1,.83,3.2.8Q10.27.71,17.33.8c2.21,0,3.34,1.13,3.37,3.37q.11,7,0,13.92c0,2.35-1.17,3.48-3.49,3.5q-7,.09-13.92,0C1.07,21.55,0,20.4,0,18.17-.1,15.79-.07,13.39-.07,11Zm0,78.52c0-2.32,0-4.64,0-7s1.12-3.35,3.36-3.38q6.94-.11,13.91,0c2.33,0,3.45,1.17,3.5,3.52q.09,7,0,13.92c0,2.22-1.19,3.32-3.4,3.34q-7.07.08-14.13,0C1,99.94,0,98.86,0,96.71-.12,94.31-.07,91.91-.07,89.52ZM26.26,10.31c0-2.25,0-4.5,0-6.74,0-2.46,1-3.5,3.41-3.53q7-.08,13.93,0c2.25,0,3.41,1.09,3.45,3.31q.11,7.07,0,14.14c0,2.18-1.23,3.32-3.45,3.35q-7,.09-13.92,0c-2.34,0-3.37-1.16-3.42-3.56S26.26,12.63,26.26,10.31Zm26.36-.06c0-2.32-.06-4.64,0-7C52.68,1.14,53.73.07,55.86,0Q62.94,0,70,0c2.21,0,3.36,1.12,3.4,3.36q.11,7.06,0,14.14a3,3,0,0,1-3.28,3.3q-7.17.11-14.36,0a3,3,0,0,1-3.14-3.18C52.57,15.18,52.62,12.72,52.62,10.25ZM36.36,73.62c-2.25,0-4.5,0-6.75,0s-3.31-1.14-3.33-3.4q-.08-7.08,0-14.14a3,3,0,0,1,3.25-3.27q7.06-.1,14.14,0c2.11,0,3.32,1.14,3.36,3.2q.13,7.18,0,14.36c0,2.17-1.25,3.22-3.5,3.27S38.75,73.62,36.36,73.62ZM36.57,100c-2.31,0-4.63,0-6.95,0s-3.32-1.09-3.34-3.37q-.08-7,0-13.92c0-2.36,1.11-3.47,3.47-3.5q7-.11,13.93,0c2.19,0,3.35,1.19,3.38,3.41q.11,7,0,13.92c0,2.36-1.19,3.42-3.53,3.47S38.9,100,36.57,100Zm26.25,0c-2.25,0-4.5,0-6.74,0s-3.44-1.08-3.46-3.49q-.07-7,0-13.92c0-2.22,1.15-3.37,3.36-3.4q7-.11,13.93,0c2.32,0,3.47,1.19,3.5,3.53q.09,7,0,13.92c0,2.23-1.2,3.31-3.41,3.36-2.39,0-4.78,0-7.18,0ZM52.6,36.9c0-2.32,0-4.65,0-7s1.08-3.51,3.43-3.53q7-.09,13.93,0c2.23,0,3.39,1.13,3.43,3.35q.11,7.06,0,14.15c0,2.18-1.23,3.3-3.46,3.33q-7,.09-13.93,0c-2.33,0-3.36-1.18-3.41-3.58S52.6,39.15,52.6,36.9ZM89.28,99.23c-2.32,0-4.64,0-7,0S79,98.14,79,95.85q-.09-7.08,0-14.15a3,3,0,0,1,3.24-3.29c4.72-.07,9.43,0,14.15,0a3,3,0,0,1,3.37,3.19c.08,4.86.08,9.73,0,14.58a2.92,2.92,0,0,1-3.25,3.06Zm.07-46.47c2.32,0,4.64,0,7,0s3.39,1.15,3.43,3.37q.12,7.08,0,14.15c0,2.23-1.21,3.31-3.43,3.34q-7,.08-13.93,0c-2.27,0-3.37-1.1-3.39-3.34q-.09-7.08,0-14.15c0-2.19,1.16-3.29,3.4-3.35s4.64,0,7,0ZM89.35,0c2.31,0,4.64,0,7,0s3.38,1.09,3.42,3.33q.12,7.08,0,14.14c0,2.21-1.22,3.32-3.45,3.35q-7,.09-13.92,0c-2.25,0-3.36-1.15-3.39-3.37q-.07-7.07,0-14.14C79,1.09,80.09.09,82.39,0s4.64,0,7,0ZM10.46,26.39c2.25,0,4.5-.05,6.75,0s3.43,1.1,3.47,3.31q.12,7.06,0,14.15c0,2.18-1.23,3.31-3.46,3.34q-7,.09-13.93,0C1,47.16,0,46-.06,43.77q-.08-7,0-13.93c0-2.35,1.14-3.39,3.54-3.44S8.15,26.39,10.46,26.39Z"/></svg>