<svg id="Layer_1" data-name="Layer 1" xmlns="http://www.w3.org/2000/svg" xmlns:xlink="http://www.w3.org/1999/xlink" viewBox="0 0 100 100"><defs><style>.cls-1{fill:none;}.cls-2{clip-path:url(#clip-path);}.cls-3{fill:url(#radial-gradient);}.cls-4{fill:#777bb3;}.cls-5{fill:#fff;}</style><clipPath id="clip-path"><path class="cls-1" d="M0,50.5C0,65,22.35,76.8,50,76.8h0c27.62,0,50-11.77,50-26.3h0C100,36,77.58,24.2,50,24.2h0C22.35,24.2,0,36,0,50.5"/></clipPath><radialGradient id="radial-gradient" cx="-451.42" cy="432.04" r="0.14" gradientTransform="matrix(453.82, 0, 0, -453.82, 204893.21, 196100.82)" gradientUnits="userSpaceOnUse"><stop offset="0" stop-color="#aeb2d5"/><stop offset="0.3" stop-color="#aeb2d5"/><stop offset="0.75" stop-color="#484c89"/><stop offset="1" stop-color="#484c89"/></radialGradient></defs><g id="g3438"><g id="g3440"><g class="cls-2"><g id="g3442"><g id="g3448"><g id="g3450"><path id="path3462" class="cls-3" d="M0,50.5C0,65,22.35,76.8,50,76.8h0c27.62,0,50-11.77,50-26.3h0C100,36,77.58,24.2,50,24.2h0C22.35,24.2,0,36,0,50.5"/></g></g></g></g></g><g id="g3464"><g id="g3466"><g id="g3472"><path id="path3474" class="cls-4" d="M50,74.85C76.5,74.85,98,64,98,50.5S76.5,26.15,50,26.15s-48,10.9-48,24.35S23.43,74.85,50,74.85"/></g></g></g><g id="g3476"><g id="g3478"><g id="g3484"><path id="path3486" d="M27.13,53.52A7.92,7.92,0,0,0,32,52.32a6.4,6.4,0,0,0,2.09-4c.35-1.77.22-3-.39-3.68s-1.94-1-4-1H26.23l-1.93,10ZM15.73,65.77a.55.55,0,0,1-.54-.64l5.13-26.36a.54.54,0,0,1,.53-.44h11c3.47,0,6,.94,7.68,2.8s2.13,4.48,1.49,7.76a11.87,11.87,0,0,1-3.77,6.75,10.57,10.57,0,0,1-4,2.41,18.24,18.24,0,0,1-5.52.71H23.28L22,65.33a.54.54,0,0,1-.53.44Z"/></g><g id="g3488"><path id="path3490" class="cls-5" d="M26.68,44.12h3c2.42,0,3.27.53,3.55.85.48.52.57,1.63.26,3.21a5.94,5.94,0,0,1-1.89,3.71A7.46,7.46,0,0,1,27.13,53H25Zm5.21-6.33h-11a1.08,1.08,0,0,0-1.07.87L14.66,65a1.08,1.08,0,0,0,.23.9,1.07,1.07,0,0,0,.84.39h5.74a1.07,1.07,0,0,0,1.06-.87l1.19-6.13h4a18.71,18.71,0,0,0,5.69-.74A11.15,11.15,0,0,0,37.66,56a12.51,12.51,0,0,0,3.94-7c.67-3.45.12-6.22-1.63-8.22s-4.45-3-8.08-3M23.64,54.06h3.49a8.38,8.38,0,0,0,5.17-1.31,6.9,6.9,0,0,0,2.3-4.37c.38-2,.2-3.34-.52-4.14S31.9,43,29.72,43H25.78l-2.14,11m8.25-15.19q5,0,7.27,2.62t1.37,7.3a11.79,11.79,0,0,1-1.27,3.53,11.66,11.66,0,0,1-2.33,2.92,10.12,10.12,0,0,1-3.83,2.3,17.77,17.77,0,0,1-5.35.68H22.83l-1.36,7H15.73l5.12-26.36h11"/></g><g id="g3492"><path id="path3494" d="M54.23,58.76a.55.55,0,0,1-.42-.19.56.56,0,0,1-.11-.45L56,46.46c.22-1.11.17-1.91-.15-2.25s-.76-.55-2.46-.55h-4.1L46.4,58.32a.54.54,0,0,1-.53.44h-5.7a.55.55,0,0,1-.42-.19.53.53,0,0,1-.11-.45l5.12-26.36a.54.54,0,0,1,.53-.44H51a.55.55,0,0,1,.42.2.55.55,0,0,1,.11.45l-1.24,6.36H54.7c3.37,0,5.65.59,7,1.81s1.77,3.24,1.25,5.92L60.55,58.32a.54.54,0,0,1-.53.44Z"/></g><g id="g3496"><path id="path3498" class="cls-5" d="M51,30.78h-5.7a1.08,1.08,0,0,0-1.06.88L39.1,58a1.12,1.12,0,0,0,.23.9,1.09,1.09,0,0,0,.84.4h5.7a1.09,1.09,0,0,0,1.06-.88l2.76-14.22h3.66c1.7,0,2,.36,2.07.37s.23.63,0,1.77L53.16,58a1.1,1.1,0,0,0,1.07,1.3H60a1.08,1.08,0,0,0,1.06-.88l2.38-12.27c.56-2.88.09-5-1.42-6.42s-3.83-2-7.34-2H50.94l1.11-5.72a1.11,1.11,0,0,0-.22-.9,1.1,1.1,0,0,0-.84-.39m0,1.08-1.36,7H54.7c3.19,0,5.4.56,6.61,1.67S62.88,43.46,62.4,46L60,58.22H54.23L56.5,46.56c.25-1.33.16-2.23-.29-2.72s-1.4-.72-2.86-.72H48.8l-2.93,15.1h-5.7l5.12-26.36H51"/></g><g id="g3500"><path id="path3502" d="M72,53.52a7.92,7.92,0,0,0,4.84-1.2,6.44,6.44,0,0,0,2.09-4c.34-1.77.21-3-.39-3.68s-1.95-1-4-1H71l-1.93,10ZM60.54,65.77a.55.55,0,0,1-.42-.2.54.54,0,0,1-.11-.44l5.12-26.36a.54.54,0,0,1,.53-.44h11c3.47,0,6.05.94,7.67,2.8s2.14,4.48,1.5,7.76a12.38,12.38,0,0,1-1.33,3.69,12,12,0,0,1-2.44,3.06,10.64,10.64,0,0,1-4,2.41,18.31,18.31,0,0,1-5.53.71H68.09l-1.27,6.57a.55.55,0,0,1-.54.44Z"/></g><g id="g3504"><path id="path3506" class="cls-5" d="M71.49,44.12h3c2.43,0,3.27.53,3.56.85.47.52.56,1.63.26,3.21a6,6,0,0,1-1.89,3.71A7.48,7.48,0,0,1,72,53H69.77Zm5.22-6.33h-11a1.08,1.08,0,0,0-1.06.87L59.48,65a1.08,1.08,0,0,0,.22.9,1.1,1.1,0,0,0,.84.39h5.74a1.08,1.08,0,0,0,1.07-.87l1.19-6.13h4a18.78,18.78,0,0,0,5.7-.74A11.23,11.23,0,0,0,82.48,56a12.42,12.42,0,0,0,3.93-7c.67-3.45.13-6.22-1.62-8.22s-4.45-3-8.08-3M68.45,54.06H72a8.38,8.38,0,0,0,5.17-1.31,6.9,6.9,0,0,0,2.29-4.37c.38-2,.21-3.34-.52-4.14S76.71,43,74.53,43H70.6l-2.15,11m8.26-15.19q5,0,7.26,2.62t1.38,7.3a12.07,12.07,0,0,1-1.27,3.53,11.93,11.93,0,0,1-2.34,2.92,10.08,10.08,0,0,1-3.82,2.3,17.84,17.84,0,0,1-5.36.68H67.65l-1.37,7H60.54l5.12-26.36h11"/></g></g></g></g></svg>