<svg id="Layer_1" data-name="Layer 1" xmlns="http://www.w3.org/2000/svg" xmlns:xlink="http://www.w3.org/1999/xlink" viewBox="0 0 100 100"><defs><style>.cls-1,.cls-2,.cls-3{fill-rule:evenodd;}.cls-1{fill:url(#linear-gradient);}.cls-2{fill:#0e121b;}.cls-3{fill:#fefefe;}</style><linearGradient id="linear-gradient" x1="-326.02" y1="416.49" x2="-326.02" y2="414.93" gradientTransform="matrix(63.93, 0, 0, -53.67, 20893.11, 22361.65)" gradientUnits="userSpaceOnUse"><stop offset="0" stop-color="#448ff6"/><stop offset="1" stop-color="#04129f"/></linearGradient></defs><path id="b" class="cls-1" d="M52.83,91.56H47.17A1.3,1.3,0,0,1,46.11,91l-5-7a1.28,1.28,0,0,1-.22-.49L40.76,83l-.16-.13a2.21,2.21,0,0,1-1.7,1.26c-.52,0-2.8,0-3.76,0a1.29,1.29,0,0,1-.84-.32l-8.18-7.16a1.31,1.31,0,0,1-.44-.86L25,69.18l-3.08-2.83a1.87,1.87,0,0,1-.78-1.66c0-.4-.11-4.13-.19-6.46L19.22,57a1.31,1.31,0,0,1-.57-1.08V49.57a1.77,1.77,0,0,1,1.29-1.67c.15,0,1.32-.54,3-1.26-.18-.6-.62-1.84-1.19-3.3a3.06,3.06,0,0,0-.36-.36C21,42.82,19.11,41.61.81,29.14a1.39,1.39,0,0,1-.45-.54,4,4,0,0,1-.34-2c.07-.71.62-3.27.85-4.34a1.33,1.33,0,0,1,.3-.59,2.31,2.31,0,0,1,2.51-.7c.65.23,22.05,7.38,25.13,8.41a1,1,0,0,0,.1-.17c.67-1.25,3.2-3.4,3.95-4a1.3,1.3,0,0,1,.78-.3l.51,0a16.58,16.58,0,0,1,7.54-4.17h0c.17-.42,1.32-5.26,2.61-11a1.26,1.26,0,0,1,.2-.46,3.27,3.27,0,0,1,1.56-1.34,15.19,15.19,0,0,1,3.36-.21v0H50l0,.53,0-.53h.53v0a15.51,15.51,0,0,1,3.39.21A3.27,3.27,0,0,1,55.5,9.18a1.57,1.57,0,0,1,.2.46c1.29,5.75,2.44,10.59,2.6,11a16.57,16.57,0,0,1,7.55,4.17l.51,0a1.3,1.3,0,0,1,.77.3c.76.63,3.29,2.78,4,4a.62.62,0,0,0,.1.16c3.15-1.05,24.49-8.18,25.13-8.41a2.32,2.32,0,0,1,2.51.7,1.33,1.33,0,0,1,.3.59c.18.83.77,3.59.85,4.34a4,4,0,0,1-.35,2,1.29,1.29,0,0,1-.44.54C80.47,41.9,78.89,42.87,78.61,43a3.37,3.37,0,0,0-.35.35c-.42,1.09-.82,2.19-1.19,3.29,1.67.73,2.84,1.22,3,1.27a1.77,1.77,0,0,1,1.28,1.67v6.36A1.33,1.33,0,0,1,80.78,57L79,58.23c-.08,2.33-.19,6.06-.19,6.47a1.86,1.86,0,0,1-.78,1.65L75,69.18l-.66,6.62a1.31,1.31,0,0,1-.44.86L65.7,83.82a1.28,1.28,0,0,1-.85.32c-.95,0-3.23,0-3.75,0a2.21,2.21,0,0,1-1.7-1.26l-.16.13-.11.53a1.45,1.45,0,0,1-.22.49l-5,7a1.31,1.31,0,0,1-1.06.54"/><path id="b-2" data-name="b" class="cls-2" d="M52.83,91.56H47.17A1.3,1.3,0,0,1,46.11,91l-5-7a1.28,1.28,0,0,1-.22-.49L40.76,83l-.16-.13a2.21,2.21,0,0,1-1.7,1.26c-.52,0-2.8,0-3.76,0a1.29,1.29,0,0,1-.84-.32l-8.18-7.16a1.31,1.31,0,0,1-.44-.86L25,69.18l-3.08-2.83a1.87,1.87,0,0,1-.78-1.66c0-.4-.11-4.13-.19-6.46L19.22,57a1.31,1.31,0,0,1-.57-1.08V49.57a1.77,1.77,0,0,1,1.29-1.67c.15,0,1.32-.54,3-1.26-.18-.6-.62-1.84-1.19-3.3a3.06,3.06,0,0,0-.36-.36C21,42.82,19.11,41.61.81,29.14a1.39,1.39,0,0,1-.45-.54,4,4,0,0,1-.34-2c.07-.71.62-3.27.85-4.34a1.33,1.33,0,0,1,.3-.59,2.31,2.31,0,0,1,2.51-.7c.65.23,22.05,7.38,25.13,8.41a1,1,0,0,0,.1-.17c.67-1.25,3.2-3.4,3.95-4a1.3,1.3,0,0,1,.78-.3l.51,0a16.58,16.58,0,0,1,7.54-4.17h0c.17-.42,1.32-5.26,2.61-11a1.26,1.26,0,0,1,.2-.46,3.27,3.27,0,0,1,1.56-1.34,15.19,15.19,0,0,1,3.36-.21v0H50l0,.53,0-.53h.53v0a15.51,15.51,0,0,1,3.39.21A3.27,3.27,0,0,1,55.5,9.18a1.57,1.57,0,0,1,.2.46c1.29,5.75,2.44,10.59,2.6,11a16.57,16.57,0,0,1,7.55,4.17l.51,0a1.3,1.3,0,0,1,.77.3c.76.63,3.29,2.78,4,4a.62.62,0,0,0,.1.16c3.15-1.05,24.49-8.18,25.13-8.41a2.32,2.32,0,0,1,2.51.7,1.33,1.33,0,0,1,.3.59c.18.83.77,3.59.85,4.34a4,4,0,0,1-.35,2,1.29,1.29,0,0,1-.44.54C80.47,41.9,78.89,42.87,78.61,43a3.37,3.37,0,0,0-.35.35c-.42,1.09-.82,2.19-1.19,3.29,1.67.73,2.84,1.22,3,1.27a1.77,1.77,0,0,1,1.28,1.67v6.36A1.33,1.33,0,0,1,80.78,57L79,58.23c-.08,2.33-.19,6.06-.19,6.47a1.86,1.86,0,0,1-.78,1.65L75,69.18l-.66,6.62a1.31,1.31,0,0,1-.44.86L65.7,83.82a1.28,1.28,0,0,1-.85.32c-.95,0-3.23,0-3.75,0a2.21,2.21,0,0,1-1.7-1.26l-.16.13-.11.53a1.45,1.45,0,0,1-.22.49l-5,7a1.31,1.31,0,0,1-1.06.54"/><path class="cls-3" d="M64.88,61.82s-.62,11.47-1.13,17.25c0,0-.15,1.16-.75,1.32s-.41-2.17-.41-2.17L63.44,62s.22-1,.85-1,.59.85.59.85M61.57,55.7a4.42,4.42,0,0,1-.39,4.42c-1.5,2.57-5,.64-5,.64s-2-1.11.14-2.51,4.28-2.55,4.28-2.55.81-.47,1,0M65,56.93c.16.47.58,0,.58,0l2.85-3.32.24-.58a10.9,10.9,0,0,0,0-1.24.41.41,0,0,1,.09-.38s4.55-5.54,4.7-6.06-.15-.4-.15-.4a64.47,64.47,0,0,0-5.94,3.63s-3.8,2.91-4.08,3.21a.55.55,0,0,0,0,.68m8.74,6-1.63,15a1.38,1.38,0,0,1-.25.84c-.29.42-5.06,4.9-5.06,4.9s-.27.34-.26-.79.72-6.46.77-17.22l.08-.76a1.62,1.62,0,0,1,.46-1c.42-.38,4.6-5.12,4.6-5.12a.9.9,0,0,0,.33-.67V51.46s-.08-.47.59-1a12.94,12.94,0,0,1,1.63-1l4.64,1s.37.13.37.84v2.47a1.2,1.2,0,0,1-.54.84l-5.73,3.8m16.05-26L60.86,48.94s-1.52,1-1-.58c.46-1.85,1.68-5.75,1.68-5.75a1.55,1.55,0,0,1,.48-.79c.77-.38,15.45-7.55,16-7.84a2.83,2.83,0,0,0,.83-1.09L80,30.61a1.19,1.19,0,0,1,.49-.33L89.2,27s.58-.34.37.33-.83,4.28-.83,4.28a1.21,1.21,0,0,1-.59.79"/><path class="cls-3" d="M78.52,31.52,78,32.62a2.43,2.43,0,0,1-.88.94c-.6.35-15.43,7.23-15.43,7.23s-.23.16-.41-.44a8.86,8.86,0,0,0-1.51-2.2s-.4-.49.42-.75l18.37-6.6s.42-.1,0,.72M42.29,25.9A21.12,21.12,0,0,0,36,30.08c-.07.06-.11,0-.11,0l-1.19-1.33c-.3-.37-.86.11-.86.11a11.72,11.72,0,0,0-2.8,3.06.3.3,0,0,0,.17.48s8.08,2.87,8.42,2.93c.63.19.69.17.79-.21.06-.2,1.93-8.4,2-8.84s-.13-.35-.13-.35m26.64,6a12.08,12.08,0,0,0-2.8-3.06s-.57-.48-.86-.11l-1.19,1.33s0,.09-.11,0A21.24,21.24,0,0,0,57.7,25.9s-.21-.13-.12.35,1.91,8.63,2,8.84c.11.38.16.4.8.21.33-.06,8.42-2.93,8.42-2.93a.3.3,0,0,0,.17-.48m-15.65-.81H46.71s-.5,0-.5-.29,1.51-14.95,1.51-14.95.28-.16.31.12-.15,9.89-.15,9.89,0,.28.34.3h3.56c.36,0,.34-.3.34-.3S51.93,16.25,52,16s.31-.12.31-.12,1.51,14.67,1.51,15-.51.29-.51.29m-.65-19.71a.49.49,0,0,0-.48-.4L50,10.87h0l-2.14.1a.48.48,0,0,0-.47.4C47.31,11.78,43,34.51,43,34.51s-.12.59.44.4A18,18,0,0,1,50,33.47a18,18,0,0,1,6.57,1.44c.57.19.44-.4.44-.4s-4.32-22.73-4.38-23.14M43.72,58.25c-1.4-.9-2.82-1.75-4.28-2.55,0,0-.82-.47-1,0a4.45,4.45,0,0,0,.39,4.42c1.51,2.58,5,.64,5,.64s2-1.11-.14-2.51M32.56,48.59A61.78,61.78,0,0,0,26.62,45s-.31-.13-.16.39,4.7,6.06,4.7,6.06a.43.43,0,0,1,.1.38,9,9,0,0,0,0,1.24l.23.58,2.86,3.32s.42.47.58,0l1.67-4.46a.54.54,0,0,0,0-.68c-.28-.3-4.07-3.21-4.07-3.21M37.4,78.22,36.56,62s-.22-1-.85-1-.59.85-.59.85.62,11.47,1.12,17.25c0,0,.16,1.16.76,1.32s.4-2.17.4-2.17m-3.07-17-.08-.76a1.68,1.68,0,0,0-.46-1c-.42-.38-4.6-5.12-4.6-5.12a.9.9,0,0,1-.33-.67V51.46s.08-.47-.59-1a13.7,13.7,0,0,0-1.63-1l-4.64,1s-.38.13-.38.84v2.47a1.24,1.24,0,0,0,.55.84l5.72,3.8,1.63,15a1.38,1.38,0,0,0,.25.84c.3.42,5.06,4.9,5.06,4.9s.28.34.26-.79-.72-6.46-.76-17.22m5.85-12.83c-.46-1.84-1.67-5.74-1.67-5.74a1.63,1.63,0,0,0-.48-.79c-.77-.38-15.45-7.55-16-7.84a2.73,2.73,0,0,1-.83-1.09l-1.16-2.28a1.37,1.37,0,0,0-.49-.34L10.8,27s-.59-.34-.38.33.84,4.28.84,4.28a1.22,1.22,0,0,0,.58.79l27.3,16.51s1.51,1,1-.59"/><path class="cls-3" d="M22,32.62a2.34,2.34,0,0,0,.88.94c.59.35,15.42,7.23,15.42,7.23s.23.16.41-.44a9.11,9.11,0,0,1,1.52-2.2s.39-.49-.42-.75L21.48,30.8s-.43-.1,0,.72ZM50,50.07a5.41,5.41,0,1,1,5.42-5.4A5.51,5.51,0,0,1,50,50.07m9.86-8.78A10.87,10.87,0,0,0,50,35.67a10.86,10.86,0,0,0-9.86,5.62A2.25,2.25,0,0,0,40,42c0,.31,3.22,12,3.22,12a5,5,0,0,0,.34.55C43.8,55,47,57.32,47,57.32s.23.31,1,.36,1.68,0,1.94,0,1.23,0,1.93,0,1-.36,1-.36S56.2,55,56.47,54.58A3.65,3.65,0,0,0,56.8,54S60,42.32,60,42a2.36,2.36,0,0,0-.16-.72m1,34.68V73.08c0-.38-.4,0-.4,0l-1.9,1.38a.84.84,0,0,1-1.05.13s-2-2.1-2.34-2.52a.78.78,0,0,0-.68-.38h-9a.8.8,0,0,0-.69.38c-.29.42-2.34,2.52-2.34,2.52a.82.82,0,0,1-1-.13L39.53,73.1s-.39-.4-.39,0V76a1.18,1.18,0,0,0,.43.9c.47.35,3.71,2.55,3.71,2.55s.62.36,1.06-.54l2-3.63s.12-.29.9-.31,4.79,0,5.5,0,.9.31.9.31l2,3.63c.45.9,1.07.54,1.07.54s3.24-2.2,3.7-2.55a1.17,1.17,0,0,0,.44-.9"/><path class="cls-3" d="M60.7,62.67,58,63.86h0a1.56,1.56,0,0,1-1.67-.17s-5.4-3.27-6.16-3.27h-.31l-.07,0a55.06,55.06,0,0,0-6,3.25,1.55,1.55,0,0,1-1.66.17h0l-2.75-1.18s-1-.57-.95.29c0,.06.55,7,.55,7,0,1.22.48,1.57.54,1.61h0l1.46.79s.79.49,1.14.2l0,0a6.63,6.63,0,0,0,1.12-1.35,1.67,1.67,0,0,1,1.21-.8H55.62a1.71,1.71,0,0,1,1.21.8,7.1,7.1,0,0,0,1.11,1.35l0,0c.34.29,1.14-.2,1.14-.2l1.45-.79h0s.52-.38.54-1.6c0,0,.54-7,.54-7,0-.85-.94-.3-.95-.29"/></svg>