<svg id="Layer_1" data-name="Layer 1" xmlns="http://www.w3.org/2000/svg" viewBox="0 0 100 100"><defs><style>.cls-1{fill:#1e5f90;}.cls-2{fill:#fff;}</style></defs><rect class="cls-1" x="25.93" y="38.47" width="48.65" height="23.06" rx="3"/><path class="cls-2" d="M39.33,48.64a3.12,3.12,0,0,1-1,2.51,4.42,4.42,0,0,1-2.93.87h-.93v3.63H32.29V45.46h3.26a4.31,4.31,0,0,1,2.82.8A2.91,2.91,0,0,1,39.33,48.64Zm-4.88,1.61h.72a2.39,2.39,0,0,0,1.49-.39,1.38,1.38,0,0,0,.49-1.15,1.44,1.44,0,0,0-.41-1.12,2,2,0,0,0-1.3-.36h-1Z"/><path class="cls-2" d="M42,55.65V45.46h2.16V55.65Z"/><path class="cls-2" d="M56.45,55.65H53.71l-4.44-7.71h-.06c.09,1.36.13,2.33.13,2.91v4.8H47.41V45.46h2.73l4.42,7.63h0c-.07-1.32-.1-2.26-.1-2.81V45.46h1.94Z"/><path class="cls-2" d="M63.6,49.93h4v5.28a12.08,12.08,0,0,1-1.85.45,11.43,11.43,0,0,1-1.77.13,4.46,4.46,0,0,1-3.52-1.36,5.58,5.58,0,0,1-1.22-3.89,5.14,5.14,0,0,1,1.41-3.85,5.37,5.37,0,0,1,3.92-1.38,7.54,7.54,0,0,1,3,.63l-.72,1.73a5.12,5.12,0,0,0-2.32-.56,2.85,2.85,0,0,0-2.24.94,3.62,3.62,0,0,0-.85,2.53,4.11,4.11,0,0,0,.68,2.54,2.37,2.37,0,0,0,2,.87,7.16,7.16,0,0,0,1.37-.14V51.72H63.6Z"/></svg>