<svg id="Layer_1" data-name="Layer 1" xmlns="http://www.w3.org/2000/svg" viewBox="0 0 100 100"><defs><style>.cls-1{fill:#1e5f90;}.cls-2{fill:#fff;}</style></defs><rect class="cls-1" x="24.82" y="38.47" width="50.88" height="23.06" rx="3"/><path class="cls-2" d="M38.43,48.64a3.1,3.1,0,0,1-1,2.51,4.39,4.39,0,0,1-2.92.87h-.93v3.63H31.39V45.46h3.26a4.31,4.31,0,0,1,2.82.8A2.91,2.91,0,0,1,38.43,48.64Zm-4.88,1.61h.71a2.37,2.37,0,0,0,1.49-.39,1.39,1.39,0,0,0,.5-1.15,1.44,1.44,0,0,0-.41-1.12,2,2,0,0,0-1.31-.36h-1Z"/><path class="cls-2" d="M50.32,50.54a5.56,5.56,0,0,1-1.25,3.89,4.65,4.65,0,0,1-3.6,1.36,4.65,4.65,0,0,1-3.6-1.36,5.54,5.54,0,0,1-1.25-3.9,5.51,5.51,0,0,1,1.25-3.89,4.7,4.7,0,0,1,3.61-1.34,4.65,4.65,0,0,1,3.6,1.35A5.54,5.54,0,0,1,50.32,50.54Zm-7.44,0a4.25,4.25,0,0,0,.65,2.57,2.26,2.26,0,0,0,1.94.87q2.58,0,2.58-3.44c0-2.3-.85-3.44-2.57-3.44a2.28,2.28,0,0,0-1.94.86A4.23,4.23,0,0,0,42.88,50.54Z"/><path class="cls-2" d="M60.19,48.64a3.13,3.13,0,0,1-1,2.51,4.42,4.42,0,0,1-2.93.87h-.92v3.63H53.15V45.46H56.4a4.27,4.27,0,0,1,2.82.8A2.88,2.88,0,0,1,60.19,48.64Zm-4.88,1.61H56a2.39,2.39,0,0,0,1.49-.39A1.38,1.38,0,0,0,58,48.71a1.4,1.4,0,0,0-.41-1.12,2,2,0,0,0-1.3-.36h-1Z"/><path class="cls-2" d="M68.84,47.74a2.37,2.37,0,0,1-.58,1.62,3,3,0,0,1-1.62.92v0a3.39,3.39,0,0,1,1.87.75,2.12,2.12,0,0,1,.63,1.61A2.71,2.71,0,0,1,68.07,55a4.87,4.87,0,0,1-3,.82,7.31,7.31,0,0,1-2.94-.55V53.4a6.26,6.26,0,0,0,1.3.49,5.26,5.26,0,0,0,1.41.19,2.74,2.74,0,0,0,1.57-.36,1.33,1.33,0,0,0,.51-1.17,1,1,0,0,0-.58-1,4.35,4.35,0,0,0-1.87-.3h-.78V49.58h.79a3.6,3.6,0,0,0,1.73-.31,1.1,1.1,0,0,0,.55-1.06c0-.77-.48-1.16-1.45-1.16a3.4,3.4,0,0,0-1,.17,5,5,0,0,0-1.15.58l-1-1.49a5.6,5.6,0,0,1,3.32-1,4.27,4.27,0,0,1,2.5.64A2.05,2.05,0,0,1,68.84,47.74Z"/></svg>