<svg id="Layer_1" data-name="Layer 1" xmlns="http://www.w3.org/2000/svg" xmlns:xlink="http://www.w3.org/1999/xlink" viewBox="0 0 100 100"><defs><style>.cls-1{fill:#e38000;}.cls-1,.cls-2{fill-rule:evenodd;}.cls-2{fill:#e17f03;}</style><symbol id="A" data-name="A" viewBox="0 0 64 40.89"><path class="cls-1" d="M19,31.31a9.54,9.54,0,0,0-9.49-9.59,9.59,9.59,0,0,0,0,19.17A9.54,9.54,0,0,0,19,31.31Z"/><path class="cls-2" d="M19,9.59a9.49,9.49,0,1,0-19,0,9.49,9.49,0,1,0,19,0ZM41.49,31.31A9.5,9.5,0,1,0,32,40.89a9.54,9.54,0,0,0,9.5-9.58Zm0-21.73A9.5,9.5,0,1,0,32,19.17a9.54,9.54,0,0,0,9.48-9.59ZM64,31.31a9.49,9.49,0,1,0-9.49,9.58A9.53,9.53,0,0,0,64,31.31Z"/><path class="cls-1" d="M64,9.59a9.49,9.49,0,1,0-19,0,9.49,9.49,0,1,0,19,0Z"/></symbol></defs><use width="64" height="40.89" transform="matrix(1.56, 0, 0, -1.56, 0.16, 81.95)" xlink:href="#A"/></svg>