<?xml version="1.0" encoding="UTF-8"?><svg id="Layer_1" xmlns="http://www.w3.org/2000/svg" viewBox="0 0 100 100"><defs><style>.cls-1{fill:#fff;}.cls-2{fill:#1e5f90;}</style></defs><rect class="cls-2" x="4.53" y="38.47" width="91.21" height="23.06" rx="3" ry="3"/><g><path class="cls-1" d="M19.06,48.64c0,1.1-.34,1.94-1.03,2.52s-1.66,.87-2.92,.87h-.93v3.62h-2.16v-10.19h3.25c1.24,0,2.18,.27,2.82,.8s.97,1.33,.97,2.38Zm-4.88,1.62h.71c.66,0,1.16-.13,1.49-.39,.33-.26,.5-.65,.5-1.15s-.14-.88-.41-1.12c-.28-.24-.71-.36-1.3-.36h-.98v3.03Z"/><path class="cls-1" d="M23.85,51.74v3.91h-2.16v-10.19h2.97c1.38,0,2.41,.25,3.07,.76,.66,.5,1,1.27,1,2.3,0,.6-.17,1.13-.5,1.6-.33,.47-.8,.83-1.4,1.1,1.53,2.29,2.53,3.77,3,4.44h-2.4l-2.43-3.91h-1.15Zm0-1.76h.7c.68,0,1.19-.11,1.51-.34,.33-.23,.49-.59,.49-1.07s-.17-.83-.5-1.03c-.33-.2-.85-.31-1.54-.31h-.66v2.75Z"/><path class="cls-1" d="M41.08,50.54c0,1.69-.42,2.98-1.25,3.89-.84,.91-2.04,1.36-3.6,1.36s-2.76-.45-3.6-1.36c-.84-.91-1.25-2.21-1.25-3.9s.42-2.99,1.26-3.89,2.04-1.34,3.61-1.34,2.76,.45,3.59,1.35c.83,.9,1.24,2.2,1.24,3.89Zm-7.44,0c0,1.14,.22,2,.65,2.57,.43,.58,1.08,.86,1.94,.86,1.72,0,2.59-1.15,2.59-3.44s-.86-3.44-2.57-3.44c-.86,0-1.51,.29-1.95,.87-.44,.58-.66,1.44-.66,2.58Z"/><path class="cls-1" d="M48.24,47.11c-.81,0-1.44,.31-1.89,.92s-.67,1.46-.67,2.56c0,2.27,.85,3.41,2.56,3.41,.72,0,1.58-.18,2.6-.54v1.81c-.84,.35-1.77,.52-2.8,.52-1.48,0-2.62-.45-3.4-1.35s-1.18-2.19-1.18-3.87c0-1.06,.19-1.99,.58-2.78,.39-.8,.94-1.41,1.66-1.83,.72-.42,1.57-.64,2.54-.64s1.98,.24,2.98,.72l-.7,1.76c-.38-.18-.76-.34-1.15-.47s-.76-.2-1.14-.2Z"/><path class="cls-1" d="M59.74,52.82c0,.92-.33,1.65-.99,2.17-.66,.53-1.58,.79-2.76,.79-1.09,0-2.05-.2-2.89-.61v-2.01c.69,.31,1.27,.52,1.75,.65,.48,.12,.91,.19,1.31,.19,.47,0,.84-.09,1.09-.27,.25-.18,.38-.45,.38-.81,0-.2-.06-.38-.17-.53s-.28-.31-.49-.45c-.22-.14-.66-.37-1.32-.69-.62-.29-1.09-.57-1.4-.84s-.56-.58-.75-.94c-.19-.36-.28-.78-.28-1.25,0-.9,.3-1.61,.92-2.13,.61-.52,1.46-.77,2.53-.77,.53,0,1.04,.06,1.52,.19,.48,.13,.98,.3,1.51,.53l-.7,1.68c-.54-.22-.99-.38-1.35-.47s-.71-.13-1.05-.13c-.41,0-.72,.1-.94,.29s-.33,.44-.33,.75c0,.19,.04,.36,.13,.5,.09,.14,.23,.28,.42,.41,.19,.13,.65,.37,1.37,.71,.95,.46,1.61,.91,1.96,1.37,.35,.46,.53,1.02,.53,1.68Z"/><path class="cls-1" d="M66.23,55.65h-2.16v-8.39h-2.77v-1.8h7.7v1.8h-2.77v8.39Z"/><path class="cls-1" d="M77.52,55.65l-.74-2.43h-3.72l-.74,2.43h-2.33l3.6-10.23h2.64l3.61,10.23h-2.33Zm-1.25-4.24c-.68-2.2-1.07-3.44-1.15-3.73-.09-.29-.15-.52-.18-.68-.15,.6-.59,2.07-1.32,4.41h2.66Z"/><path class="cls-1" d="M85.78,55.65h-2.16v-8.39h-2.77v-1.8h7.7v1.8h-2.77v8.39Z"/></g></svg>