<svg id="Layer_1" data-name="Layer 1" xmlns="http://www.w3.org/2000/svg" viewBox="0 0 100 100"><defs><style>.cls-1{fill:#e6532b;}</style></defs><path id="path4486" class="cls-1" d="M50,.17a50,50,0,1,0,50,50A50,50,0,0,0,50,.17Zm0,93.58c-7.85,0-14.23-5.25-14.23-11.72H64.23C64.23,88.5,57.86,93.75,50,93.75Zm23.5-15.6h-47V69.63h47Zm-.17-12.91H26.63c-.15-.18-.31-.36-.46-.55-4.81-5.83-5.94-8.88-7-12,0-.11,5.84,1.19,10,2.12,0,0,2.14.5,5.26,1.07a19.52,19.52,0,0,1-4.78-12.55c0-10,7.69-18.78,4.92-25.86,2.7.22,5.58,5.7,5.79,14.26,2.87-4,4.07-11.2,4.07-15.64,0-4.6,3-9.94,6.06-10.13-2.7,4.46.7,8.27,3.72,17.74,1.14,3.56,1,9.54,1.87,13.33.29-7.88,1.65-19.38,6.64-23.35C60.46,18.7,63,25,64.72,28c2.8,4.85,4.49,8.53,4.49,15.48a19.3,19.3,0,0,1-4.63,12.48c3.31-.62,5.59-1.17,5.59-1.17l10.7-2.1a30.32,30.32,0,0,1-7.54,12.58Z"/></svg>