<?xml version="1.0" encoding="UTF-8"?><svg id="Layer_1" xmlns="http://www.w3.org/2000/svg" viewBox="0 0 100 100"><defs><style>.cls-1{fill:#fff;}.cls-2{fill:#1e5f90;}</style></defs><rect class="cls-2" x="11.4" y="38.47" width="77.48" height="23.06" rx="3" ry="3"/><g><path class="cls-1" d="M20.58,51.74v3.91h-2.16v-10.19h2.97c1.38,0,2.41,.25,3.07,.76,.66,.5,1,1.27,1,2.3,0,.6-.17,1.13-.5,1.6-.33,.47-.8,.83-1.4,1.1,1.53,2.29,2.53,3.77,3,4.44h-2.4l-2.43-3.91h-1.15Zm0-1.76h.7c.68,0,1.19-.11,1.51-.34,.33-.23,.49-.59,.49-1.07s-.17-.83-.5-1.03c-.33-.2-.85-.31-1.54-.31h-.66v2.75Z"/><path class="cls-1" d="M34.43,55.65h-5.87v-10.19h5.87v1.77h-3.71v2.24h3.45v1.77h-3.45v2.63h3.71v1.78Z"/><path class="cls-1" d="M43.29,52.82c0,.92-.33,1.65-.99,2.17-.66,.53-1.58,.79-2.76,.79-1.09,0-2.05-.2-2.89-.61v-2.01c.69,.31,1.27,.52,1.75,.65,.48,.12,.91,.19,1.31,.19,.47,0,.84-.09,1.09-.27,.25-.18,.38-.45,.38-.81,0-.2-.06-.38-.17-.53s-.28-.31-.49-.45c-.22-.14-.66-.37-1.32-.69-.62-.29-1.09-.57-1.4-.84s-.56-.58-.75-.94c-.19-.36-.28-.78-.28-1.25,0-.9,.3-1.61,.92-2.13,.61-.52,1.46-.77,2.53-.77,.53,0,1.04,.06,1.52,.19,.48,.13,.98,.3,1.51,.53l-.7,1.68c-.54-.22-.99-.38-1.35-.47s-.71-.13-1.05-.13c-.41,0-.72,.1-.94,.29s-.33,.44-.33,.75c0,.19,.04,.36,.13,.5,.09,.14,.23,.28,.42,.41,.19,.13,.65,.37,1.37,.71,.95,.46,1.61,.91,1.96,1.37,.35,.46,.53,1.02,.53,1.68Z"/><path class="cls-1" d="M50.16,55.65l-2.45-8h-.06c.09,1.63,.13,2.71,.13,3.26v4.74h-1.93v-10.19h2.94l2.41,7.79h.04l2.56-7.79h2.94v10.19h-2.01v-4.82c0-.23,0-.49,0-.79,0-.3,.04-1.09,.09-2.37h-.06l-2.63,7.98h-1.98Z"/><path class="cls-1" d="M69.27,50.54c0,1.69-.42,2.98-1.25,3.89-.84,.91-2.04,1.36-3.6,1.36s-2.76-.45-3.6-1.36c-.84-.91-1.25-2.21-1.25-3.9s.42-2.99,1.26-3.89,2.04-1.34,3.61-1.34,2.76,.45,3.59,1.35c.83,.9,1.25,2.2,1.25,3.89Zm-7.44,0c0,1.14,.22,2,.65,2.57,.43,.58,1.08,.86,1.94,.86,1.72,0,2.59-1.15,2.59-3.44s-.86-3.44-2.57-3.44c-.86,0-1.51,.29-1.94,.87-.44,.58-.66,1.44-.66,2.58Z"/><path class="cls-1" d="M81.14,55.65h-2.75l-4.43-7.71h-.06c.09,1.36,.13,2.33,.13,2.91v4.8h-1.93v-10.19h2.73l4.43,7.63h.05c-.07-1.32-.1-2.26-.1-2.81v-4.82h1.95v10.19Z"/></g></svg>