<svg id="Layer_1" data-name="Layer 1" xmlns="http://www.w3.org/2000/svg" viewBox="0 0 100 100"><defs><style>.cls-1{fill:#00a1e0;}.cls-2{fill:#fff;}</style></defs><path class="cls-1" d="M41.86,22.58a17.5,17.5,0,0,1,12.68-5.44A17.69,17.69,0,0,1,70,26.28a21.36,21.36,0,0,1,8.72-1.85A21.75,21.75,0,1,1,74.44,67.5,15.78,15.78,0,0,1,53.79,74a18,18,0,0,1-33.43-.82,16.09,16.09,0,0,1-3.43.36A16.9,16.9,0,0,1,8.59,42.06,19.42,19.42,0,0,1,41.86,22.58"/><path class="cls-2" d="M14.73,51.24c-.07.17,0,.2,0,.23a5.84,5.84,0,0,0,.57.35,6.08,6.08,0,0,0,3,.69c2.05,0,3.32-1.09,3.32-2.84v0c0-1.62-1.43-2.21-2.78-2.64l-.18-.05c-1-.33-1.89-.62-1.89-1.29v0c0-.58.51-1,1.31-1a5.92,5.92,0,0,1,2.6.67s.2.13.27-.07.39-1,.42-1.12a.19.19,0,0,0-.1-.23,5.79,5.79,0,0,0-2.94-.79h-.2c-1.88,0-3.19,1.14-3.19,2.76v0c0,1.71,1.45,2.27,2.8,2.65l.22.07c1,.3,1.84.56,1.84,1.26v0c0,.64-.56,1.11-1.45,1.11a4.79,4.79,0,0,1-2.64-.76L15.4,50a.16.16,0,0,0-.27.09l-.4,1.12Zm30,0c-.07.17,0,.2,0,.23a5.84,5.84,0,0,0,.57.35,6.08,6.08,0,0,0,3,.69c2,0,3.32-1.09,3.32-2.84v0c0-1.62-1.43-2.21-2.78-2.64l-.18-.05c-1-.33-1.89-.62-1.89-1.29v0c0-.58.51-1,1.31-1a5.92,5.92,0,0,1,2.6.67s.2.13.27-.07.39-1,.42-1.12a.19.19,0,0,0-.1-.23,5.81,5.81,0,0,0-2.94-.79h-.2c-1.88,0-3.19,1.14-3.19,2.76v0c0,1.71,1.45,2.27,2.8,2.65l.22.07c1,.3,1.84.56,1.84,1.26v0c0,.64-.56,1.11-1.45,1.11a4.77,4.77,0,0,1-2.64-.76c-.15-.08-.23-.14-.34-.21a.17.17,0,0,0-.27.09l-.4,1.12Zm20.5-3.44a4.25,4.25,0,0,1-.55,2.33,2.12,2.12,0,0,1-3.33,0,4.25,4.25,0,0,1-.54-2.33,4.24,4.24,0,0,1,.54-2.32,2.13,2.13,0,0,1,3.33,0,4.23,4.23,0,0,1,.55,2.32M67,46a4.11,4.11,0,0,0-.78-1.48,3.67,3.67,0,0,0-1.32-1A4.21,4.21,0,0,0,63,43.11a4.26,4.26,0,0,0-1.84.37,3.72,3.72,0,0,0-1.31,1A4.2,4.2,0,0,0,59.11,46a6.44,6.44,0,0,0-.25,1.84,6.35,6.35,0,0,0,.25,1.84,4.16,4.16,0,0,0,.78,1.49,3.58,3.58,0,0,0,1.31,1,4.41,4.41,0,0,0,1.84.36,4.36,4.36,0,0,0,1.83-.36,3.54,3.54,0,0,0,1.32-1A4.16,4.16,0,0,0,67,49.64a6.35,6.35,0,0,0,.25-1.84A6.44,6.44,0,0,0,67,46M81,50.68a.16.16,0,0,0-.22-.1,4,4,0,0,1-.79.22,5.61,5.61,0,0,1-.94.07,2.63,2.63,0,0,1-2-.73,3.26,3.26,0,0,1-.74-2.34A3.7,3.7,0,0,1,77,45.54a2.24,2.24,0,0,1,1.9-.83,6,6,0,0,1,1.81.25s.13.06.2-.11l.42-1.17a.17.17,0,0,0-.11-.21,7.29,7.29,0,0,0-1.14-.28,8.1,8.1,0,0,0-1.28-.09,4.58,4.58,0,0,0-1.91.37,3.9,3.9,0,0,0-1.38,1A4.32,4.32,0,0,0,74.71,46a6.13,6.13,0,0,0-.27,1.85,4.93,4.93,0,0,0,1.14,3.41A4.32,4.32,0,0,0,79,52.48,6.87,6.87,0,0,0,81.38,52a.16.16,0,0,0,.07-.2L81,50.68Zm3-3.83a3.35,3.35,0,0,1,.46-1.36,1.85,1.85,0,0,1,1.66-.85,1.78,1.78,0,0,1,1.62.85,2.79,2.79,0,0,1,.39,1.36Zm5.76-1.21a3.82,3.82,0,0,0-.74-1.36,3.38,3.38,0,0,0-1.1-.83,4.09,4.09,0,0,0-1.66-.34,4.57,4.57,0,0,0-1.92.37,3.76,3.76,0,0,0-1.33,1,4.22,4.22,0,0,0-.79,1.5A7,7,0,0,0,82,47.85a6.36,6.36,0,0,0,.26,1.85,3.86,3.86,0,0,0,.84,1.48,3.76,3.76,0,0,0,1.46,1,5.54,5.54,0,0,0,2.1.34,6,6,0,0,0,2.92-.58c.07,0,.13-.09,0-.27l-.38-1.07a.16.16,0,0,0-.21-.09,5.63,5.63,0,0,1-2.38.42A2.36,2.36,0,0,1,84,48.28h5.79a.17.17,0,0,0,.17-.15,6.15,6.15,0,0,0-.17-2.5M37.61,46.85a3.35,3.35,0,0,1,.46-1.36,1.85,1.85,0,0,1,1.66-.85,1.81,1.81,0,0,1,1.63.85,2.9,2.9,0,0,1,.38,1.36Zm5.76-1.21a3.82,3.82,0,0,0-.74-1.36,3.38,3.38,0,0,0-1.1-.83,4.09,4.09,0,0,0-1.66-.34,4.6,4.6,0,0,0-1.92.37,3.76,3.76,0,0,0-1.33,1,4.22,4.22,0,0,0-.79,1.5,7,7,0,0,0-.25,1.85,6.36,6.36,0,0,0,.26,1.85,3.86,3.86,0,0,0,.84,1.48,3.76,3.76,0,0,0,1.46,1,5.56,5.56,0,0,0,2.11.34,6,6,0,0,0,2.91-.58c.07,0,.13-.09.05-.27l-.38-1.07a.16.16,0,0,0-.21-.09,5.63,5.63,0,0,1-2.38.42,2.36,2.36,0,0,1-2.66-2.61h5.79a.17.17,0,0,0,.17-.15,6.15,6.15,0,0,0-.17-2.5m-18.29,5a1.16,1.16,0,0,1-.34-.35,1.41,1.41,0,0,1-.17-.75,1.27,1.27,0,0,1,.52-1.12A2.54,2.54,0,0,1,26.77,48a12,12,0,0,1,1.57.13v2.64h0a11.41,11.41,0,0,1-1.56.21,2.58,2.58,0,0,1-1.7-.34m2.3-4.07c-.23,0-.54,0-.9,0a5.55,5.55,0,0,0-1.43.18,3.73,3.73,0,0,0-1.21.56,2.77,2.77,0,0,0-.84,1,2.73,2.73,0,0,0-.31,1.34A3,3,0,0,0,23,50.91a2.34,2.34,0,0,0,.75.9,3.19,3.19,0,0,0,1.18.52,7.25,7.25,0,0,0,1.54.15,11.5,11.5,0,0,0,1.76-.14c.57-.1,1.26-.24,1.46-.29l.4-.1a.19.19,0,0,0,.14-.19v-5.3a3.26,3.26,0,0,0-.92-2.56,4,4,0,0,0-2.66-.8,9.92,9.92,0,0,0-1.55.14,5.6,5.6,0,0,0-1.79.66.17.17,0,0,0-.05.23l.41,1.1a.15.15,0,0,0,.19.09l.09,0a5.87,5.87,0,0,1,2.53-.59,2.3,2.3,0,0,1,1.43.37c.32.24.48.61.48,1.38v.25c-.5-.07-1-.11-1-.11m46.75-3a.16.16,0,0,0-.08-.21,5.48,5.48,0,0,0-1-.17,3,3,0,0,0-1.49.24,2.68,2.68,0,0,0-1,.73v-.71a.16.16,0,0,0-.17-.17H69a.16.16,0,0,0-.17.17v8.65a.18.18,0,0,0,.18.17h1.52a.18.18,0,0,0,.18-.17V47.8a5,5,0,0,1,.19-1.52,2.17,2.17,0,0,1,.5-.86,1.92,1.92,0,0,1,.72-.43,2.92,2.92,0,0,1,.78-.11,3.29,3.29,0,0,1,.64.08.19.19,0,0,0,.21-.15c.1-.27.38-1.06.43-1.22"/><path class="cls-2" d="M59.84,39.58c-.19,0-.35-.09-.57-.13a4.62,4.62,0,0,0-.79-.06,3.31,3.31,0,0,0-2.46.88,4.84,4.84,0,0,0-1.16,2.63l-.07.39H53.47a.19.19,0,0,0-.19.17l-.22,1.2c0,.12,0,.19.19.19h1.28l-1.3,7.25a8.53,8.53,0,0,1-.35,1.43,2.92,2.92,0,0,1-.4.83,1.12,1.12,0,0,1-.53.4,2.07,2.07,0,0,1-.68.1,2.5,2.5,0,0,1-.47,0,1.89,1.89,0,0,1-.31-.1.16.16,0,0,0-.21.09L49.85,56a.17.17,0,0,0,.09.23l.53.16a3.79,3.79,0,0,0,.85.08,4.37,4.37,0,0,0,1.42-.22,2.61,2.61,0,0,0,1.07-.75,3.85,3.85,0,0,0,.76-1.3,11.21,11.21,0,0,0,.51-1.94l1.3-7.39h1.91a.2.2,0,0,0,.19-.17l.22-1.21c0-.11,0-.18-.19-.18H56.66A7.91,7.91,0,0,1,57,42a2,2,0,0,1,.41-.62,1.25,1.25,0,0,1,.49-.3,2,2,0,0,1,.62-.09A2.19,2.19,0,0,1,59,41l.3.07c.19.06.22,0,.25-.09L60,39.78a.16.16,0,0,0-.11-.2M33.94,52.12a.16.16,0,0,1-.16.17H32.24a.16.16,0,0,1-.16-.17V39.75a.16.16,0,0,1,.16-.18h1.54a.16.16,0,0,1,.16.18Z"/></svg>