<svg id="Layer_1" data-name="Layer 1" xmlns="http://www.w3.org/2000/svg" viewBox="0 0 100 100"><defs><style>.cls-1{fill:#1e5f90;}.cls-2{fill:#fff;}</style></defs><rect class="cls-1" y="38.47" width="99.88" height="23.06" rx="3"/><path class="cls-2" d="M13,52.82A2.63,2.63,0,0,1,12,55a4.35,4.35,0,0,1-2.77.8,6.59,6.59,0,0,1-2.88-.61v-2a13.28,13.28,0,0,0,1.74.65A5.4,5.4,0,0,0,9.38,54a1.87,1.87,0,0,0,1.09-.27.94.94,0,0,0,.38-.81.9.9,0,0,0-.17-.53,1.66,1.66,0,0,0-.49-.45,13,13,0,0,0-1.32-.69,6.17,6.17,0,0,1-1.4-.84,3.38,3.38,0,0,1-.75-.94,2.78,2.78,0,0,1-.27-1.26,2.65,2.65,0,0,1,.91-2.13,3.85,3.85,0,0,1,2.54-.77,5.73,5.73,0,0,1,1.51.19,9.43,9.43,0,0,1,1.51.53l-.7,1.68a11.1,11.1,0,0,0-1.34-.47,4.31,4.31,0,0,0-1.05-.13,1.42,1.42,0,0,0-.95.29,1,1,0,0,0-.32.74.91.91,0,0,0,.13.5,1.5,1.5,0,0,0,.42.41,14.24,14.24,0,0,0,1.37.72,5.36,5.36,0,0,1,2,1.37A2.66,2.66,0,0,1,13,52.82Z"/><path class="cls-2" d="M24.57,55.65H21.83l-4.44-7.71h-.06c.09,1.36.13,2.33.13,2.91v4.8H15.53V45.46h2.73l4.42,7.63h.05c-.07-1.32-.1-2.26-.1-2.81V45.46h1.94Z"/><path class="cls-2" d="M32.17,55.65l-2.46-8h-.06c.09,1.63.13,2.72.13,3.26v4.74H27.85V45.46h2.94l2.42,7.79h0l2.56-7.79h2.94V55.65h-2V50.83c0-.23,0-.5,0-.79s0-1.09.1-2.37h-.06l-2.63,8Z"/><path class="cls-2" d="M49.07,48.64a3.1,3.1,0,0,1-1,2.51,4.41,4.41,0,0,1-2.92.87h-.93v3.63H42V45.46h3.25a4.27,4.27,0,0,1,2.82.8A2.88,2.88,0,0,1,49.07,48.64Zm-4.88,1.61h.71a2.39,2.39,0,0,0,1.49-.39,1.39,1.39,0,0,0,.5-1.15,1.41,1.41,0,0,0-.42-1.12,1.94,1.94,0,0,0-1.3-.36h-1Z"/><path class="cls-2" d="M60.06,55.65H57.9V47.26H55.13v-1.8h7.7v1.8H60.06Z"/><path class="cls-2" d="M67.27,51.74v3.91H65.11V45.46h3a5.1,5.1,0,0,1,3.07.75,3,3,0,0,1,.51,3.9,3.29,3.29,0,0,1-1.41,1.1q2.31,3.43,3,4.44h-2.4l-2.43-3.91Zm0-1.76H68a2.63,2.63,0,0,0,1.51-.34A1.21,1.21,0,0,0,70,48.57a1.13,1.13,0,0,0-.5-1,3.08,3.08,0,0,0-1.54-.3h-.66Z"/><path class="cls-2" d="M81.49,55.65l-.74-2.43H77l-.73,2.43H74l3.59-10.23h2.65l3.61,10.23Zm-1.26-4.24-1.15-3.73A5.93,5.93,0,0,1,78.9,47q-.24.89-1.32,4.41Z"/><path class="cls-2" d="M92.85,48.64a3.12,3.12,0,0,1-1,2.51A4.42,4.42,0,0,1,88.9,52H88v3.63H85.81V45.46h3.26a4.27,4.27,0,0,1,2.82.8A2.91,2.91,0,0,1,92.85,48.64ZM88,50.25h.72a2.39,2.39,0,0,0,1.49-.39,1.38,1.38,0,0,0,.49-1.15,1.44,1.44,0,0,0-.41-1.12,2,2,0,0,0-1.3-.36H88Z"/></svg>