<svg id="Layer_1" data-name="Layer 1" xmlns="http://www.w3.org/2000/svg" viewBox="0 0 100 100"><defs><style>.cls-1{fill:#aededd;}.cls-2{fill:#fff;}.cls-3{fill:#231f20;}.cls-4{fill:#ce2229;}</style></defs><g id="Layer_2" data-name="Layer 2"><g id="Layer_2-2" data-name="Layer 2-2"><path class="cls-1" d="M89.93,22.7C93.3,16.77,93.5,3,93.5,3L78.18,10.61a48.42,48.42,0,0,0-56.82.13L5.73,3.07s.23,14.29,3.8,20a48.45,48.45,0,1,0,80.4-.36Z"/><path d="M49.75,99.87A49.94,49.94,0,0,1,7.73,23C4.45,16.62,4.22,3.66,4.22,3.09L4.17.6,21.21,9a49.83,49.83,0,0,1,57.1-.12L95.07.6,95,3.09c0,.54-.23,13-3.33,19.53A49.95,49.95,0,0,1,49.75,99.87ZM7.32,5.56c.23,4.26,1,12.78,3.44,16.7l.54.82-.54.83A46.93,46.93,0,0,0,23.83,89,46.94,46.94,0,0,0,88.68,23.55l-.54-.8.46-.82c2.28-4.06,3.05-12.24,3.26-16.4L78,12.36l-.74-.54a46.78,46.78,0,0,0-55,.15l-.74.54Z"/><circle class="cls-2" cx="68.61" cy="36.07" r="16.76"/><circle class="cls-3" cx="68.35" cy="36.2" r="3.44"/><path class="cls-3" d="M68.35,18.75A17.45,17.45,0,1,0,85.8,36.2,17.45,17.45,0,0,0,68.35,18.75Zm0,33.38A15.9,15.9,0,0,1,53.52,42H57V41h-3.9a15.26,15.26,0,0,1-.69-4.13h4.34v-1H52.41a16.35,16.35,0,0,1,1-5.28l4.36,1.41.34-1L53.9,29.55a16.35,16.35,0,0,1,2.77-4.1l2.49,2.61.72-.72L57.34,24.7a15.41,15.41,0,0,1,3.11-2.33l2.61,2.72.72-.72-2.41-2.49a15.63,15.63,0,0,1,13.86,0l-2.47,2.54.72.72,2.65-2.75a16.17,16.17,0,0,1,3.13,2.34l-2.62,2.61.72.72,2.56-2.64a15.86,15.86,0,0,1,2.78,4.13L78.31,31l.31,1,4.46-1.46a15.87,15.87,0,0,1,1,5.33H79.64v1h4.47A15.94,15.94,0,0,1,83.42,41H79.36v1H83A15.79,15.79,0,0,1,68.35,52.13Z"/><polygon class="cls-4" points="66.91 33.2 68.56 20.08 69.76 33.12 66.91 33.2"/><circle class="cls-2" cx="30.99" cy="36.07" r="16.76"/><circle class="cls-3" cx="30.73" cy="36.2" r="3.44"/><path class="cls-3" d="M30.73,18.75A17.45,17.45,0,1,0,48.18,36.2h0A17.46,17.46,0,0,0,30.73,18.75Zm0,33.38A15.9,15.9,0,0,1,15.9,42h3.51V41h-3.9a14.89,14.89,0,0,1-.69-4.13h4.33v-1H14.84a16.08,16.08,0,0,1,1-5.28l4.36,1.41.34-1-4.24-1.36a15.52,15.52,0,0,1,2.75-4.1l2.44,2.64.71-.72-2.51-2.62a15.34,15.34,0,0,1,3.1-2.33l2.62,2.72.72-.72-2.41-2.49a15.63,15.63,0,0,1,13.86,0l-2.44,2.51.72.72,2.64-2.74a16.12,16.12,0,0,1,3.13,2.33l-2.57,2.62.72.72,2.57-2.67a15.58,15.58,0,0,1,2.77,4.13L40.76,31l.31,1,4.47-1.46a15.62,15.62,0,0,1,1,5.33H42.1v1h4.46A15.94,15.94,0,0,1,45.87,41h-4v1h3.64A15.94,15.94,0,0,1,30.73,52.13Z"/><polygon class="cls-4" points="29.29 33.2 30.96 20.08 32.17 33.12 29.29 33.2"/><rect class="cls-3" x="12.33" y="60.5" width="75.5" height="2.28"/><rect class="cls-2" x="17.72" y="61.55" width="13.34" height="9.96"/><path class="cls-3" d="M32.06,72.51H16.69v-12H32.06Zm-13.34-2H30V62.55H18.72Z"/><rect class="cls-2" x="68.76" y="61.55" width="13.34" height="6.83"/><path class="cls-3" d="M83.11,69.41H67.73V60.55H83.11v8.86Zm-13.35-2H81.08v-4.8H69.76Z"/><rect class="cls-2" x="51.62" y="61.55" width="13.34" height="20.74"/><path class="cls-3" d="M66,83.32H50.59V60.55H66Zm-13.34-2H63.94V62.58H52.62Z"/><rect class="cls-2" x="34.66" y="61.55" width="13.34" height="17.43"/><path class="cls-3" d="M49,80H33.63V60.5H49Zm-13.32-2H47V62.53H35.68v15.4Z"/></g></g></svg>