<svg id="Layer_1" data-name="Layer 1" xmlns="http://www.w3.org/2000/svg" xmlns:xlink="http://www.w3.org/1999/xlink" viewBox="0 0 100 100"><defs><style>.cls-1{fill:url(#linear-gradient);}.cls-2{fill:url(#linear-gradient-2);}.cls-3{fill:url(#linear-gradient-3);}.cls-4{fill:url(#linear-gradient-4);}.cls-5{fill:url(#linear-gradient-5);}.cls-6{fill:url(#linear-gradient-6);}</style><linearGradient id="linear-gradient" x1="50" y1="9.14" x2="50" y2="89.94" gradientUnits="userSpaceOnUse"><stop offset="0" stop-color="#f8b033"/><stop offset="1" stop-color="#be1722"/></linearGradient><linearGradient id="linear-gradient-2" x1="13.37" y1="9.14" x2="13.37" y2="89.94" xlink:href="#linear-gradient"/><linearGradient id="linear-gradient-3" x1="37.66" y1="9.14" x2="37.66" y2="89.94" xlink:href="#linear-gradient"/><linearGradient id="linear-gradient-4" x1="43.28" y1="9.14" x2="43.28" y2="89.94" xlink:href="#linear-gradient"/><linearGradient id="linear-gradient-5" x1="22.16" y1="9.14" x2="22.16" y2="89.94" xlink:href="#linear-gradient"/><linearGradient id="linear-gradient-6" x1="8.6" y1="9.14" x2="8.6" y2="89.94" xlink:href="#linear-gradient"/></defs><path class="cls-1" d="M99.79,54.54a41.49,41.49,0,0,0-1.25-7.43,2.57,2.57,0,0,0-.05-.4,49,49,0,0,0-3.63-9.88,32.59,32.59,0,0,0-3.25-5.53,1.38,1.38,0,0,0-.32-.58A50,50,0,0,0,55.24,9.2,50,50,0,0,0,12.07,26.32,36.48,36.48,0,0,0,8,31.87a.5.5,0,0,0,.53.2h0a.5.5,0,0,1-.53-.2,13.65,13.65,0,0,0-1.21,1.91,39.78,39.78,0,0,0-3.22,6.71,1.34,1.34,0,0,0-.13.23A47.79,47.79,0,0,0,.63,50.88a38.85,38.85,0,0,0-.59,7,47.7,47.7,0,0,0,.56,9c.05.31.26.39.48.48l3.14,1.34c1,.41,1,.42,1.28-.61.62-2.21,1.84-4.16,2.57-6.32a11.12,11.12,0,0,0,.83-3.9c0-.33.07-.67.08-1a36.52,36.52,0,0,0-.43-9.16,20.63,20.63,0,0,1-.66-6.91,3.23,3.23,0,0,1,4.23-2.08,27.41,27.41,0,0,0,2.8.86c.55.13.64.48.46,1a8.88,8.88,0,0,1-2.5,1.75,1.79,1.79,0,0,0-.83,2.79,5.86,5.86,0,0,0,1.25,1.64,4,4,0,0,1,1.29,2.77,17.86,17.86,0,0,1-.21,3.27,2.48,2.48,0,0,0,.46,1.88,3.72,3.72,0,0,1,.82,2.56c-.05.73-.1,1.47-.14,2.21a1.36,1.36,0,0,1-.29.87c-.07.09-.17.18-.28.11a.32.32,0,0,1-.1-.22c-.06-.42-.08-.85-.16-1.27a4.9,4.9,0,0,0-1.3-3.16,11.78,11.78,0,0,1,1,4.58c.06,2,.48,4-.26,6a10.74,10.74,0,0,1-2.24,4.2,1.17,1.17,0,0,0-.4,1.06.77.77,0,0,0,.49.78,13.86,13.86,0,0,1,5.75,5.22,2,2,0,0,0,.76.84c.07-.21.13-.37.19-.54.44-1.38.76-2.81,1.34-4.16a12.29,12.29,0,0,0,1-2.14,16.45,16.45,0,0,0,1.61-5.8c.08-1.49.14-3,.13-4.48a17.34,17.34,0,0,0-.28-4.13c-.08-.48-.15-1-.24-1.45a28,28,0,0,1-.73-6,3.18,3.18,0,0,1,4.44-3,13.19,13.19,0,0,0,2.28.74c.37.07.81.08.92.54s-.25.7-.53,1a11.4,11.4,0,0,1-2.2,1.4,1.71,1.71,0,0,0-.78,2.49,5.21,5.21,0,0,0,1.2,1.69,4.54,4.54,0,0,1,1.4,2.38,6.92,6.92,0,0,1,0,2.27c-.1.64-.12,1.29-.18,1.93a2,2,0,0,0,.42,1.44,3.2,3.2,0,0,1,.82,1.94,21.73,21.73,0,0,1-.12,3,2.47,2.47,0,0,1-.13.52c-.06.17-.16.36-.36.32s-.16-.25-.17-.39a15.14,15.14,0,0,0-.41-2.33,2.64,2.64,0,0,0-.88-1.59,9.09,9.09,0,0,1,.76,3.26c.07,1.86.53,3.71.25,5.6-.05.19-.1.39-.16.58a10.7,10.7,0,0,1-2.22,4.74,2.2,2.2,0,0,0-.57,2c.06.38.18.75.2,1.12s.29.58.68.64a20.45,20.45,0,0,0,3.75.11c.51,0,1-.11,1.52-.17a2.64,2.64,0,0,0-.9-.27c-.15,0-.42,0-.42-.2s.26-.27.46-.28c.69,0,1.38,0,2.07,0,2.14-.08,4-.64,5-2.8A40.52,40.52,0,0,0,39.57,73a38.07,38.07,0,0,1,2.15-5.31,44.43,44.43,0,0,0,2.47-5.39,13.55,13.55,0,0,0,1.33-5.55c.16-1.33.19-2.67.23-4a39.77,39.77,0,0,0-1-12.25,37.17,37.17,0,0,1-1-8.47c0-.22.09-.44.13-.66a4.38,4.38,0,0,1,1.06-2.33A6.62,6.62,0,0,1,51.52,28a7.06,7.06,0,0,0,2,.7,17.4,17.4,0,0,1,2,.42c.84.24,1,.86.41,1.52-.19.22-.39.42-.59.63h0a32.44,32.44,0,0,1-3.73,2.1,2.44,2.44,0,0,0-1.12,3.66,8,8,0,0,0,2,2.56,6.53,6.53,0,0,1,2.39,5.69c0,.6-.11,1.2-.17,1.8a10.55,10.55,0,0,0-.24,2.18,2.83,2.83,0,0,0,.73,2.4,4.77,4.77,0,0,1,1.34,3.22c0,1.43-.13,2.86-.23,4.28a1.6,1.6,0,0,1-.44,1,.56.56,0,0,1-.45.26c-.25,0-.15-.29-.18-.44-.06-.38-.09-.76-.14-1.13a11.43,11.43,0,0,0-1.3-4.47,3,3,0,0,0-1.2-1.25c.21.47.48.91.71,1.35A7.61,7.61,0,0,1,54.44,58a56,56,0,0,0,.49,5.94,2,2,0,0,1,.33-.09l.23,0-.23,0a2,2,0,0,0-.33.09A12.54,12.54,0,0,1,54.8,67,26.57,26.57,0,0,1,53,72.23l-.27.46a8.75,8.75,0,0,1-2.14,2.89,1.78,1.78,0,0,0-.72,1.8c.11,1.05.37,2.07.55,3.1.08.45.19.67.72.6a.94.94,0,0,1,1.15.58,1.57,1.57,0,0,0,1,1.07,12.63,12.63,0,0,1,1.37.81c2.75,1.87,5.52,3.71,8.23,5.63a10.23,10.23,0,0,0,6.34,1.91,68.7,68.7,0,0,0,6.88-.64c2.12-.26,4.25-.51,6.39-.63a36.3,36.3,0,0,1,5.32.14c.5,0,1.11.45,1.58-.23.61-.89,1.3-1.72,1.93-2.59a45.91,45.91,0,0,0,3.62-6.21,43.69,43.69,0,0,0,3.23-8.55,42.75,42.75,0,0,0,1.59-8.47A45.05,45.05,0,0,0,99.79,54.54Zm-43.95-23a.61.61,0,0,1-.3,0A.61.61,0,0,0,55.84,31.52Z"/><path class="cls-2" d="M13.36,55.71l0,0,0,0Z"/><path class="cls-3" d="M37.66,80.82h0Z"/><path class="cls-4" d="M47.54,75a1.88,1.88,0,0,0,.62-1.43,5.45,5.45,0,0,0,0-2.13,5.16,5.16,0,0,0-1.86-3.51c-.18-.14-.35-.33-.65-.17a5.28,5.28,0,0,0-2.89,3.08c-.27.89-.44,1.81-.65,2.72-.1.22-.2.44-.29.67a16.85,16.85,0,0,1-4.14,6.57,1.63,1.63,0,0,0,.79-.06,26.06,26.06,0,0,1,7.73-.45c.88.11,1.74.28,2.69.44-.53-1.62-1-3.17-1.55-4.71A.86.86,0,0,1,47.54,75Z"/><path class="cls-5" d="M23.86,78.13a4.18,4.18,0,0,0-.64-4.64c-.19-.17-.37-.3-.65-.13a3.2,3.2,0,0,0-1.64,2,16.35,16.35,0,0,1-1.17,3.69c-.12.27-.08.4.16.54a20.83,20.83,0,0,0,4.71,2.09c-.31-1-.57-1.93-.85-2.82A.78.78,0,0,1,23.86,78.13Z"/><path class="cls-6" d="M9.45,65.48a.5.5,0,0,0-.7-.07,3.39,3.39,0,0,0-1.64,2.26c-.1.55-.26,1.09-.41,1.63-.06.23-.13.41.17.54,1.07.47,2.13,1,3.24,1.47,0-.43-.28-.78,0-1.2A4.14,4.14,0,0,0,9.45,65.48Z"/></svg>