<svg id="Layer_1" data-name="Layer 1" xmlns="http://www.w3.org/2000/svg" viewBox="0 0 100 100"><defs><style>.cls-1{fill:#1e5f90;}.cls-2{fill:#fff;}</style></defs><rect class="cls-1" x="1.66" y="38.47" width="97.1" height="23.06" rx="3"/><path class="cls-2" d="M16.37,52.82a2.64,2.64,0,0,1-1,2.17,4.3,4.3,0,0,1-2.76.8,6.64,6.64,0,0,1-2.89-.61v-2a13.34,13.34,0,0,0,1.75.65,5.4,5.4,0,0,0,1.31.18,1.89,1.89,0,0,0,1.09-.27.94.94,0,0,0,.38-.81.9.9,0,0,0-.17-.53,1.8,1.8,0,0,0-.49-.45q-.33-.21-1.32-.69a6,6,0,0,1-1.4-.84,3.21,3.21,0,0,1-.75-.94,2.66,2.66,0,0,1-.28-1.26,2.62,2.62,0,0,1,.92-2.12,3.77,3.77,0,0,1,2.53-.78,5.81,5.81,0,0,1,1.52.19,11,11,0,0,1,1.51.53l-.7,1.68a10.59,10.59,0,0,0-1.35-.47,4.19,4.19,0,0,0-1-.13,1.39,1.39,0,0,0-.94.29,1,1,0,0,0-.19,1.24,1.27,1.27,0,0,0,.42.41,14.24,14.24,0,0,0,1.37.72,5.45,5.45,0,0,1,2,1.37A2.66,2.66,0,0,1,16.37,52.82Z"/><path class="cls-2" d="M22.1,49.65l2.13-4.19h2.32l-3.38,6.22v4H21v-3.9l-3.39-6.29H20Z"/><path class="cls-2" d="M37.59,55.65H34.85l-4.44-7.71h-.06c.09,1.36.13,2.33.13,2.91v4.8H28.55V45.46h2.73l4.42,7.63h0c-.07-1.32-.1-2.26-.1-2.81V45.46h1.94Z"/><path class="cls-2" d="M47.91,48.64a3.1,3.1,0,0,1-1,2.51A4.39,4.39,0,0,1,44,52H43v3.63H40.87V45.46h3.26a4.31,4.31,0,0,1,2.82.8A2.91,2.91,0,0,1,47.91,48.64ZM43,50.25h.71a2.4,2.4,0,0,0,1.5-.39,1.38,1.38,0,0,0,.49-1.15,1.44,1.44,0,0,0-.41-1.12,2,2,0,0,0-1.3-.36H43Z"/><path class="cls-2" d="M52.71,51.74v3.91H50.55V45.46h3a5.1,5.1,0,0,1,3.07.75,3,3,0,0,1,.51,3.9,3.29,3.29,0,0,1-1.41,1.1q2.31,3.43,3,4.44h-2.4l-2.43-3.91Zm0-1.76h.7a2.63,2.63,0,0,0,1.51-.34,1.21,1.21,0,0,0,.49-1.07,1.13,1.13,0,0,0-.5-1,3.08,3.08,0,0,0-1.54-.3h-.66Z"/><path class="cls-2" d="M69.94,50.54a5.56,5.56,0,0,1-1.25,3.89,5.44,5.44,0,0,1-7.2,0,5.54,5.54,0,0,1-1.25-3.9,5.51,5.51,0,0,1,1.25-3.89A4.7,4.7,0,0,1,65.1,45.3a4.65,4.65,0,0,1,3.6,1.35A5.54,5.54,0,0,1,69.94,50.54Zm-7.44,0a4.25,4.25,0,0,0,.65,2.57,2.26,2.26,0,0,0,1.94.87q2.58,0,2.58-3.44c0-2.3-.85-3.44-2.57-3.44a2.28,2.28,0,0,0-1.94.86A4.23,4.23,0,0,0,62.5,50.54Z"/><path class="cls-2" d="M81,55.65H78.54l-2.37-3.86L73.8,55.65H71.48l3.38-5.26L71.7,45.46h2.38l2.2,3.66,2.15-3.66h2.33l-3.2,5Z"/><path class="cls-2" d="M86.17,49.65l2.13-4.19h2.33l-3.38,6.22v4H85.1v-3.9l-3.38-6.29h2.34Z"/></svg>