<svg id="Layer_1" data-name="Layer 1" xmlns="http://www.w3.org/2000/svg" viewBox="0 0 100 100"><defs><style>.cls-1{fill:#1e5f90;}.cls-2{fill:#fff;}</style></defs><rect class="cls-1" x="11.66" y="38.47" width="77.04" height="23.06" rx="3"/><path class="cls-2" d="M25.54,52.82a2.63,2.63,0,0,1-1,2.17,4.3,4.3,0,0,1-2.76.8,6.64,6.64,0,0,1-2.89-.61v-2a13.34,13.34,0,0,0,1.75.65A5.33,5.33,0,0,0,22,54,1.85,1.85,0,0,0,23,53.73a.91.91,0,0,0,.38-.81.9.9,0,0,0-.16-.53,1.85,1.85,0,0,0-.5-.45,13,13,0,0,0-1.32-.69,6.17,6.17,0,0,1-1.4-.84,3.17,3.17,0,0,1-.74-.94A2.66,2.66,0,0,1,19,48.21a2.61,2.61,0,0,1,.91-2.12,3.82,3.82,0,0,1,2.54-.78A5.73,5.73,0,0,1,24,45.5a10.12,10.12,0,0,1,1.51.53l-.69,1.68a11.78,11.78,0,0,0-1.35-.47,4.31,4.31,0,0,0-1.05-.13,1.39,1.39,0,0,0-.94.29.92.92,0,0,0-.33.74.91.91,0,0,0,.13.5,1.5,1.5,0,0,0,.42.41c.2.13.65.37,1.37.72a5.27,5.27,0,0,1,2,1.37A2.6,2.6,0,0,1,25.54,52.82Z"/><path class="cls-2" d="M31.28,49.65l2.12-4.19h2.33l-3.38,6.22v4H30.2v-3.9l-3.38-6.29h2.34Z"/><path class="cls-2" d="M43.74,52.82a2.63,2.63,0,0,1-1,2.17,4.3,4.3,0,0,1-2.76.8,6.64,6.64,0,0,1-2.89-.61v-2a13.34,13.34,0,0,0,1.75.65,5.33,5.33,0,0,0,1.3.18,1.85,1.85,0,0,0,1.09-.27.91.91,0,0,0,.38-.81.9.9,0,0,0-.16-.53,1.8,1.8,0,0,0-.49-.45,14.86,14.86,0,0,0-1.33-.69,6.17,6.17,0,0,1-1.4-.84,3.17,3.17,0,0,1-.74-.94,2.66,2.66,0,0,1-.28-1.26,2.61,2.61,0,0,1,.91-2.12,3.82,3.82,0,0,1,2.54-.78,5.86,5.86,0,0,1,1.52.19,10.42,10.42,0,0,1,1.5.53L43,47.71a11.78,11.78,0,0,0-1.35-.47,4.31,4.31,0,0,0-1-.13,1.39,1.39,0,0,0-.94.29.92.92,0,0,0-.33.74.91.91,0,0,0,.13.5,1.5,1.5,0,0,0,.42.41c.2.13.65.37,1.37.72a5.27,5.27,0,0,1,2,1.37A2.6,2.6,0,0,1,43.74,52.82Z"/><path class="cls-2" d="M52.32,52.82a2.63,2.63,0,0,1-1,2.17,4.33,4.33,0,0,1-2.77.8,6.59,6.59,0,0,1-2.88-.61v-2a13.83,13.83,0,0,0,1.74.65,5.47,5.47,0,0,0,1.31.18,1.87,1.87,0,0,0,1.09-.27.94.94,0,0,0,.38-.81.84.84,0,0,0-.17-.53,1.66,1.66,0,0,0-.49-.45,13,13,0,0,0-1.32-.69,6.17,6.17,0,0,1-1.4-.84,3.38,3.38,0,0,1-.75-.94,2.78,2.78,0,0,1-.27-1.26,2.61,2.61,0,0,1,.91-2.12,3.8,3.8,0,0,1,2.54-.78,5.73,5.73,0,0,1,1.51.19,10.53,10.53,0,0,1,1.51.53l-.7,1.68a11.1,11.1,0,0,0-1.34-.47,4.31,4.31,0,0,0-1-.13,1.37,1.37,0,0,0-.94.29.92.92,0,0,0-.33.74.91.91,0,0,0,.13.5,1.5,1.5,0,0,0,.42.41c.2.13.65.37,1.37.72a5.36,5.36,0,0,1,2,1.37A2.66,2.66,0,0,1,52.32,52.82Z"/><path class="cls-2" d="M58.81,55.65H56.65V47.26H53.89v-1.8h7.69v1.8H58.81Z"/><path class="cls-2" d="M70.1,55.65l-.74-2.43H65.65l-.74,2.43H62.58l3.6-10.23h2.64l3.61,10.23Zm-1.25-4.24c-.68-2.2-1.07-3.44-1.15-3.73s-.15-.51-.19-.68q-.23.89-1.32,4.41Z"/><path class="cls-2" d="M78.36,55.65H76.2V47.26H73.43v-1.8h7.7v1.8H78.36Z"/></svg>