<svg id="Layer_1" data-name="Layer 1" xmlns="http://www.w3.org/2000/svg" viewBox="0 0 100 100"><defs><style>.cls-1{fill:#1e5f90;}.cls-2{fill:#fff;}</style></defs><rect class="cls-1" x="28.96" y="38.47" width="42.49" height="23.06" rx="3"/><path class="cls-2" d="M41.18,55.65H39V47.26H36.26v-1.8H44v1.8H41.18Z"/><path class="cls-2" d="M50.56,47.11a2.22,2.22,0,0,0-1.89.92A4.29,4.29,0,0,0,48,50.58c0,2.27.86,3.41,2.56,3.41a8,8,0,0,0,2.6-.54v1.82a7.35,7.35,0,0,1-2.8.52A4.26,4.26,0,0,1,47,54.44a5.69,5.69,0,0,1-1.18-3.87,6.29,6.29,0,0,1,.58-2.79A4.22,4.22,0,0,1,48,46a4.89,4.89,0,0,1,2.54-.64,6.87,6.87,0,0,1,3,.72l-.7,1.76a10.36,10.36,0,0,0-1.15-.48A3.56,3.56,0,0,0,50.56,47.11Z"/><path class="cls-2" d="M63.09,48.64a3.13,3.13,0,0,1-1,2.51,4.42,4.42,0,0,1-2.93.87h-.92v3.63H56.05V45.46H59.3a4.27,4.27,0,0,1,2.82.8A2.88,2.88,0,0,1,63.09,48.64Zm-4.88,1.61h.71a2.39,2.39,0,0,0,1.49-.39,1.38,1.38,0,0,0,.49-1.15,1.4,1.4,0,0,0-.41-1.12,2,2,0,0,0-1.3-.36h-1Z"/></svg>