<svg id="Layer_1" data-name="Layer 1" xmlns="http://www.w3.org/2000/svg" viewBox="0 0 100 100"><defs><style>.cls-1{fill:#c73a63;}.cls-2{fill:#fff;}</style></defs><path class="cls-1" d="M46.86,42.48c-4.16,7-8.14,13.76-12.21,20.48-1,1.73-1.56,3.13-.73,5.33a10,10,0,0,1-7,13.55c-5.76,1.51-11.38-2.28-12.52-8.45-1-5.46,3.22-10.81,9.24-11.66.51-.08,1-.08,1.87-.15l9.16-15.35c-5.76-5.73-9.19-12.43-8.43-20.72a23.56,23.56,0,0,1,7.06-15.09A23.94,23.94,0,0,1,63.13,7.29c9.13,5.86,13.31,17.28,9.75,27.06l-8.36-2.27c1.12-5.43.29-10.32-3.38-14.5a14.51,14.51,0,0,0-9.07-4.74A14.74,14.74,0,0,0,36,23.28c-2.34,7.89,1.2,14.34,10.89,19.2Z"/><path class="cls-2" d="M58.74,34.21,67.6,49.82c14.9-4.61,26.14,3.64,30.18,12.48a24.09,24.09,0,0,1-8,29.89c-9.81,6.75-22.23,5.6-30.93-3.08l6.83-5.71c8.59,5.56,16.1,5.3,21.68-1.29a15,15,0,0,0-.24-19.5c-5.65-6.35-13.22-6.55-22.36-.45C60.93,55.43,57.08,48.75,53.4,42c-1.24-2.28-2.61-3.61-5.4-4.09a9.6,9.6,0,0,1-7.85-9.3,10.13,10.13,0,0,1,18-6.86A9.55,9.55,0,0,1,60,31.16c-.33,1-.75,1.9-1.21,3.05Z"/><path class="cls-2" d="M65.75,76.47h-18C46.08,83.54,42.37,89.25,36,92.88a23.91,23.91,0,0,1-16,2.86C9.41,94.05.82,84.58.06,73.93a24.15,24.15,0,0,1,18.5-25.21c.76,2.78,1.53,5.57,2.29,8.34C10.71,62.24,7.19,68.76,10,76.91c2.5,7.18,9.6,11.11,17.3,9.59C35.22,85,39.19,78.4,38.7,67.9c7.46,0,14.94-.07,22.4,0,2.91,0,5.16-.26,7.36-2.83,3.61-4.22,10.27-3.84,14.16.15a10.17,10.17,0,1,1-14.7,14.07,32.85,32.85,0,0,1-2.17-2.86Z"/></svg>