<svg id="Layer_1" data-name="Layer 1" xmlns="http://www.w3.org/2000/svg" viewBox="0 0 100 100"><defs><style>.cls-1{fill:#2a667f;}</style></defs><g id="layer1"><path id="path4164" class="cls-1" d="M80.76,14.48a2.66,2.66,0,1,1,0-3.77,2.66,2.66,0,0,1,0,3.77m-.58,74.3a4.66,4.66,0,1,1,0-6.59,4.67,4.67,0,0,1,0,6.59m-15.54-9a4.65,4.65,0,1,1,6.58,0,4.65,4.65,0,0,1-6.58,0m-2.39,9a4.65,4.65,0,1,1,0-6.58,4.67,4.67,0,0,1,0,6.58m-15.54-9a4.65,4.65,0,1,1,6.58,0,4.65,4.65,0,0,1-6.58,0m-2.39,9a4.65,4.65,0,1,1,0-6.58,4.65,4.65,0,0,1,0,6.58m-15.54-9a4.65,4.65,0,1,1,6.58,0,4.65,4.65,0,0,1-6.58,0m-2.38,9a4.65,4.65,0,1,1,0-6.58,4.65,4.65,0,0,1,0,6.58M19.23,10.71a2.67,2.67,0,1,1,0,3.77,2.67,2.67,0,0,1,0-3.77M25,16.49a2.67,2.67,0,1,1,0,3.78,2.67,2.67,0,0,1,0-3.78m5.78,5.79a2.66,2.66,0,1,1,0,3.77,2.66,2.66,0,0,1,0-3.77m0-11.57a2.66,2.66,0,1,1,0,3.77,2.66,2.66,0,0,1,0-3.77m5.77,17.35a2.67,2.67,0,1,1,0,3.77,2.67,2.67,0,0,1,0-3.77m0-11.57a2.67,2.67,0,1,1,0,3.77,2.67,2.67,0,0,1,0-3.77m5.78-5.78a2.67,2.67,0,1,1,0,3.77,2.67,2.67,0,0,1,0-3.77m5.78,17.35a2.66,2.66,0,1,1,0,3.77,2.66,2.66,0,0,1,0-3.77m0-11.57a2.66,2.66,0,1,1,0,3.77,2.66,2.66,0,0,1,0-3.77m5.77-5.78a2.67,2.67,0,1,1,0,3.77,2.67,2.67,0,0,1,0-3.77m1.78,53.55a4.65,4.65,0,1,1,0,6.58,4.67,4.67,0,0,1,0-6.58m2-26.64a2.67,2.67,0,1,1,0-3.77,2.67,2.67,0,0,1,0,3.77m0-11.57a2.67,2.67,0,1,1,0-3.77,2.67,2.67,0,0,1,0,3.77M48.12,39.63a2.66,2.66,0,1,1,0,3.77,2.66,2.66,0,0,1,0-3.77M46.71,55.3a4.65,4.65,0,1,1,0,6.58,4.65,4.65,0,0,1,0-6.58m-2.39,9a4.65,4.65,0,1,1-6.58,0,4.65,4.65,0,0,1,6.58,0m-2-42a2.67,2.67,0,1,1,0,3.77,2.67,2.67,0,0,1,0-3.77m0,11.57a2.67,2.67,0,1,1,0,3.77,2.67,2.67,0,0,1,0-3.77m17.33-5.79a2.67,2.67,0,1,1,0,3.77,2.67,2.67,0,0,1,0-3.77m0-11.57a2.67,2.67,0,1,1,0,3.77,2.68,2.68,0,0,1,0-3.77m5.78,5.79a2.66,2.66,0,1,1,0,3.77,2.66,2.66,0,0,1,0-3.77m0-11.57a2.66,2.66,0,1,1,0,3.77,2.66,2.66,0,0,1,0-3.77m5.78,5.78a2.66,2.66,0,1,1,0,3.77,2.66,2.66,0,0,1,0-3.77M100,7.73A7.62,7.62,0,0,0,92.38.11H7.62A7.62,7.62,0,0,0,0,7.73V36.82H11.36L0,63.4V92.5a7.62,7.62,0,0,0,7.62,7.61H92.38A7.62,7.62,0,0,0,100,92.5V63.4H88.64L100,36.82Z"/></g></svg>