<svg id="Layer_1" data-name="Layer 1" xmlns="http://www.w3.org/2000/svg" viewBox="0 0 190.94 190.94"><defs><style>.cls-1{fill:#fff;}.cls-2{fill:#54aa50;}.cls-3{fill:#116fb8;}</style></defs><path class="cls-1" d="M190.78,88.71a95.49,95.49,0,0,0-3.52-19.84l-.79,1.92a82,82,0,0,1-22.83,32c-9.18,7.77-17.08,10.58-17.15,10.6a5.92,5.92,0,0,0-3.19,2.57l-5.64,9.38c-1.15-6.15-1.95-12.91-2.67-19C133.07,90,132,82.7,127,80a7.4,7.4,0,0,0-6.88-.07c-6.41,3.19-13.84,12.83-14.4,59.45-.13,10.75.11,22.44.72,34.78a4.62,4.62,0,0,1-.72,3.05,3,3,0,0,1-2.32,1.23c-2,.15-3.46-.52-4.36-4.31-3-12.46-6.51-36.05-6.51-77.71,0-63.49,9.26-92.28,10.32-95.35l.24-.71Q99.35.05,95.56.05A95.55,95.55,0,0,0,71.85,3C56.17,41.5,54.5,81.16,53.39,107.43v.22c0,1.09-.06,1.42-.06,1.53,0,.28-.13,1.53-.67,12.38-.07.9-.4.94-.58,1a1.11,1.11,0,0,1-1-.69c-.88-1.81-1.78-3.93-2.67-6.29a133.06,133.06,0,0,1-4.27-13.78,5.94,5.94,0,0,0-9.82-3c-7.48,7-14,9.83-19.4,8.46C8,105.5,3.55,97.06,2,93.51L.27,89.72c-.11,1.92-.18,3.85-.18,5.8a95.82,95.82,0,0,0,1.65,17.72A25.23,25.23,0,0,0,12,118.76c7.32,1.87,15.08.07,23.1-5.34,3.44,11,9,23.76,16.93,26.32a7.8,7.8,0,0,0,7-1c5.11-3.56,5.48-12.1,6.27-30.83l.07-1.56c1-23.88,2.4-56.59,14.14-89.72,1-2.87,2.73-4.19,5.23-4a2.7,2.7,0,0,1,2,.9A2.26,2.26,0,0,1,87,15.4c-4.2,21.84-6.33,49.1-6.33,81,0,66.21,9.69,91.68,10.86,94.49,1.34.06,2.7.09,4.06.09a95.84,95.84,0,0,0,23.57-2.93V188c-.08-1-1.84-25.06-1.56-48.46.21-17.33,1.4-30.56,3.51-39.29.16-.59.28-.64.77-.65h0c.29,0,.37.27.39.43.35,2.61.67,5.31,1,7.7,1.43,12.07,3,25.75,7,34.84a5.94,5.94,0,0,0,10.53.68l11.68-19.44C158.54,121.19,177.08,111.8,190.78,88.71Z"/><path class="cls-2" d="M102.55.87C101.5,4,92.23,32.73,92.23,96.22c0,41.66,3.54,65.26,6.51,77.71.9,3.79,2.35,4.46,4.37,4.32a3,3,0,0,0,2.32-1.23,4.7,4.7,0,0,0,.72-3.05c-.61-12.34-.85-24-.72-34.79.56-46.62,8-56.25,14.4-59.44a7.37,7.37,0,0,1,6.88.07c5,2.71,6.08,10,8,26.31.72,6.09,1.52,12.86,2.67,19l5.63-9.38a5.93,5.93,0,0,1,3.2-2.56c.07,0,8-2.83,17.15-10.6a82,82,0,0,0,22.82-32L187,68.7A95.52,95.52,0,0,0,102.8.17Z"/><path class="cls-3" d="M1.69,93.34c1.59,3.55,6,12,13,13.75,5.38,1.36,11.91-1.48,19.4-8.46a5.93,5.93,0,0,1,9.82,3,132.15,132.15,0,0,0,4.26,13.79c.89,2.36,1.79,4.47,2.68,6.28a1.1,1.1,0,0,0,1,.7c.18,0,.52-.07.58-1,.55-10.85.64-12.1.67-12.37s0-.45.07-1.53v-.23C54.22,81,55.9,41.32,71.58,2.84A95.5,95.5,0,0,0,0,89.54Z"/><path class="cls-3" d="M80.36,96.22c0-31.9,2.13-59.15,6.33-81a2.24,2.24,0,0,0-.31-1.87,2.68,2.68,0,0,0-2-.9c-2.49-.16-4.21,1.16-5.22,4C67.45,49.61,66.06,82.32,65.05,106.2L65,107.76c-.8,18.72-1.16,27.27-6.28,30.82a7.72,7.72,0,0,1-7,1c-7.89-2.55-13.49-15.32-16.94-26.32-8,5.42-15.77,7.22-23.1,5.34a25.17,25.17,0,0,1-10.22-5.51,95.49,95.49,0,0,0,89.75,77.65C90.06,187.9,80.36,162.44,80.36,96.22Z"/><path class="cls-2" d="M152.16,123.59,140.47,143a5.94,5.94,0,0,1-10.52-.68c-4-9.1-5.6-22.78-7-34.84-.29-2.39-.6-5.09-1-7.71,0-.16-.1-.42-.39-.42h0c-.49,0-.61.06-.76.64-2.12,8.73-3.3,22-3.51,39.3-.28,23.4,1.48,47.44,1.55,48.46v.08a95.5,95.5,0,0,0,71.89-92.53c0-2.29-.08-4.55-.24-6.8C176.8,111.63,158.27,121,152.16,123.59Z"/></svg>