<svg id="Layer_1" data-name="Layer 1" xmlns="http://www.w3.org/2000/svg" viewBox="0 0 100 100"><defs><style>.cls-1{fill:#b7ca9d;}.cls-2{fill:#4b612c;}.cls-3{fill:#759c3e;}</style></defs><path class="cls-1" d="M94.17,69,50,62.46,5.83,69,50,85.36,94.17,69"/><path class="cls-2" d="M14.7,68.22l7.45,2.37.68-.74V17.54l-.68-.88L14.7,19.51V68.22"/><path class="cls-3" d="M48.58,65.92,22.15,70.53V16.6l26.43,6V65.92"/><path class="cls-2" d="M36.79,75l-10.3-3.19V5.35L36.79.13l.88,1V73.91L36.79,75"/><path class="cls-3" d="M72.09,66.73,36.79,75V.13l35.3,13.76V66.73"/><path class="cls-2" d="M50,84.62,5.83,69v9.08L50,100.13V84.62"/><path class="cls-3" d="M94.17,78.05,50,100.13V84.62L94.17,69v9.08"/><path class="cls-1" d="M81.78,53.93H71.07L40.51,56,50,57.72l31.78-3.79"/><path class="cls-2" d="M40.51,76.08,50,78.93l.27-.27V57.31L50,57l-9.49-1v20"/><path class="cls-3" d="M81.78,53.93,50,57V78.93l31.78-9.56V53.93"/></svg>