<svg id="Layer_1" data-name="Layer 1" xmlns="http://www.w3.org/2000/svg" viewBox="0 0 100 100"><defs><style>.cls-1{fill:#34a9d8;}.cls-2{fill:#024561;}</style></defs><g id="layer1"><g id="g826"><path id="path830" class="cls-1" d="M39.21,95C34.13,92.1,30,89.58,30,89.45c0-.29,18.41-11,18.65-10.87s.2,21.57,0,21.69S44.29,98,39.21,95Zm11.95,5.22c-.07-.06-.12-5-.12-10.86,0-9.86,0-10.74.31-10.74s17.38,9.79,18.31,10.48c.33.24.34.3.09.55s-16.39,9.61-17.88,10.39C51.54,100.23,51.22,100.32,51.16,100.25ZM28.56,87c-.3-.58-.27-20.83,0-21.24s1.22.26,9.45,5c6.35,3.67,9.2,5.42,9.16,5.62S35.34,83.65,29.46,87c-.69.39-.7.39-.9,0Zm33.25-5c-5-2.93-9.18-5.46-9.21-5.62s2.76-1.91,9.16-5.6c8.17-4.72,9.24-5.29,9.45-5s.24,2.66.24,10.63S71.39,86.78,71.21,87,70,86.77,61.81,82Zm-45.26-.15c-5-2.91-9.07-5.38-9.07-5.49S25.59,65.62,25.93,65.62c.09,0,.17,4.71.17,10.77,0,8.5-.05,10.76-.24,10.75S21.54,84.75,16.55,81.85ZM73.71,76.4c0-9.07.05-10.8.26-10.75s4.36,2.4,9.36,5.26c5.85,3.35,9.07,5.29,9,5.46S74.78,86.9,74.05,87.11c-.32.09-.34-.51-.34-10.71ZM5.88,63.25V52.38l.9.47c2.86,1.48,17.71,10.28,17.71,10.48S6.56,74.1,6.11,74.11C5.93,74.12,5.88,71.82,5.88,63.25ZM39,68.84C34.05,66,30,63.47,30,63.34c0-.29,18.4-11,18.64-10.84s.16,4.94.16,10.86c0,10.12,0,10.76-.33,10.75S44,71.74,39,68.84Zm12-5.48c0-5.93.07-10.81.16-10.86.31-.19,18.64,10.48,18.64,10.84S51.9,74.1,51.37,74.11c-.31,0-.33-.63-.33-10.75Zm33.45,5.5c-5.36-3.07-9.17-5.36-9.17-5.52s13.87-8.37,18-10.6c.36-.2.47-.19.61,0s.26,20.55.07,21c-.07.16-.17.3-.24.3s-4.24-2.37-9.28-5.26Zm-67.65-13c-4.93-2.85-9.08-5.3-9.23-5.44s-.2-.31.18-.55c1.59-1,18-10.34,18.11-10.34S26.18,60.82,26,61s-4.19-2.24-9.11-5.09Zm11.64,4.91c-.15-.39-.14-20.45,0-21,.08-.31.21-.41.42-.32s4.37,2.46,9.33,5.34c6,3.47,9,5.31,9,5.49s-18,10.8-18.39,10.8a.44.44,0,0,1-.35-.3Zm33.23-5c-6.19-3.59-9.06-5.35-9.06-5.56s2.89-2,9.16-5.61c5-2.91,9.22-5.3,9.28-5.3s.18.19.24.43c.15.55.15,20.61,0,21a.43.43,0,0,1-.33.3c-.12,0-4.3-2.36-9.29-5.26Zm12-5.51c0-7.73.06-10.77.21-10.77.47,0,18.5,10.5,18.46,10.74s-18.13,10.8-18.49,10.8c-.11,0-.18-4.32-.18-10.77ZM5.88,37.17c0-10.25,0-10.84.33-10.72.54.2,17.88,10.27,18.18,10.56s.21.32.09.43C24.14,37.76,6.54,47.89,6.21,48s-.33-.55-.33-10.78Zm33.35,5.58c-5-2.9-9.07-5.38-9.07-5.51,0-.32,18-10.79,18.36-10.66s.25,2,.21,10.72c0,6.88-.12,10.63-.24,10.66s-4.27-2.32-9.26-5.21Zm12,5.06c-.27-.27-.31-20.68,0-21.1a.35.35,0,0,1,.36-.18c.1,0,4.24,2.4,9.18,5.26,5.62,3.25,9,5.3,9,5.46s-4,2.56-8.93,5.39L51.68,47.9a.37.37,0,0,1-.42-.09Zm33.23-5c-5-2.89-9.19-5.37-9.22-5.52s3.19-2.12,8.86-5.36c4.89-2.81,9.06-5.18,9.27-5.28s.42-.1.54.09.25,20.56.07,21c-.07.17-.17.3-.24.29s-4.24-2.37-9.28-5.26Zm-67.65-13C11.91,27,7.76,24.5,7.61,24.35s-.2-.31.18-.55c1.48-.93,17.69-10.22,18-10.29s.34.43.34,10.6C26.1,30,26,34.84,26,34.89s-4.19-2.24-9.11-5.09Zm11.84,5.08c-.07-.07-.13-4.92-.13-10.77,0-8.81.05-10.65.26-10.65s16,9.06,18.05,10.34c.38.24.41.32.18.54S29,35,28.84,35a.47.47,0,0,1-.16-.12ZM62,29.8c-4.92-2.85-9.07-5.31-9.22-5.45s-.2-.31.18-.55c1.69-1.06,17.64-10.21,17.94-10.28s.37.06.37,10.59c0,5.87-.07,10.73-.16,10.78S66.91,32.66,62,29.8Zm11.72-5.59c0-10.58,0-10.79.37-10.69.83.21,18.34,10.44,18.3,10.68S74.21,35,73.86,35C73.78,35,73.71,30.15,73.71,24.21ZM39.15,16.68c-5-2.91-9.19-5.34-9.25-5.39s0-.22.18-.37C30.43,10.57,48,.4,48.43.28s.34.4.34,10.8c0,8.63-.05,10.89-.24,10.89S44.18,19.59,39.15,16.68Zm12,5.17C51,21.62,51,.46,51.24.33s18.7,10.5,18.7,10.8S52.48,21.53,51.6,21.87a.48.48,0,0,1-.43,0Z"/><path id="path828" class="cls-2" d="M39.27,94.8c-5-2.87-9-5.28-9-5.35s18-10.61,18.21-10.61c.07,0,.12,4.77.12,10.59S48.52,100,48.43,100,44.23,97.66,39.27,94.8Zm12.08,5.08c-.18-.18-.15-20.81,0-20.92S69.46,89.19,69.46,89.45,51.78,100,51.52,100A.56.56,0,0,1,51.35,99.88ZM28.74,76.41c0-5.83.05-10.6.12-10.6S33,68.16,38,71c7.15,4.13,9,5.28,8.82,5.46S29.51,86.72,29,86.9c-.26.1-.29-1.08-.29-10.49ZM62,81.85c-4.83-2.81-8.9-5.22-9-5.35s1.6-1.29,8.83-5.46c5-2.88,9.11-5.23,9.17-5.23s.1,4.76.1,10.58S71,87,70.93,87s-4.1-2.3-8.93-5.11ZM39.32,68.73c-4.93-2.86-9-5.27-9-5.36s17.51-10.44,18-10.57c.21,0,.25,1.88.25,10.53,0,5.83-.06,10.6-.14,10.6s-4.18-2.35-9.12-5.2Zm12,5.07c-.19-.19-.14-20.81,0-20.93S69.42,63,69.51,63.31c0,.13-14.27,8.55-17.92,10.55a.23.23,0,0,1-.24-.06ZM28.74,50.29c0-9.78,0-10.59.31-10.48s4.31,2.42,9.18,5.24c7.14,4.13,8.82,5.17,8.62,5.36S29,60.89,28.82,60.89,28.74,56.12,28.74,50.29Zm33.2,5.42c-4.86-2.84-8.93-5.24-9-5.35S55.61,48.5,61.6,45c4.89-2.82,9-5.18,9.18-5.24s.29,1.06.29,10.49c0,5.83-.06,10.59-.14,10.58s-4.12-2.33-9-5.16ZM39.19,16.44c-4.91-2.83-8.9-5.23-8.87-5.34S48,.63,48.35.62c.18,0,.23,2.21.23,10.48s0,10.49-.23,10.49S44.1,19.27,39.19,16.44Zm12-5.32c0-8.28.05-10.5.23-10.5.34,0,18,10.25,18,10.48S52.3,21.35,51.6,21.54C51.23,21.63,51.23,21.5,51.23,11.12Z"/></g></g></svg>