<svg id="Layer_1" data-name="Layer 1" xmlns="http://www.w3.org/2000/svg" viewBox="0 0 100 100"><defs><style>.cls-1{fill:#fff;}</style></defs><path class="cls-1" d="M68.28,55.4a13.06,13.06,0,0,0-9.79,4.46l-6.13-4.33a16.47,16.47,0,0,0,0-11.33l6.13-4.3a13,13,0,0,0,22.8-8.6,13,13,0,1,0-26.09-.08,14,14,0,0,0,.53,3.71l-6.13,4.31a16.85,16.85,0,0,0-10.43-6.06V25.8a13,13,0,1,0-5.58-.05v7.46a16.82,16.82,0,0,0,.11,33.16v7.88a13,13,0,1,0,5.57,0V66.37a16.75,16.75,0,0,0,10.25-6l6.16,4.38a12.72,12.72,0,0,0-.53,3.67,13,13,0,1,0,13.08-13Zm0-30.5A6.33,6.33,0,1,1,62,31.25a6.33,6.33,0,0,1,6.31-6.35ZM30.24,13a6.32,6.32,0,1,1,6.32,6.32A6.33,6.33,0,0,1,30.24,13ZM42.88,87a6.32,6.32,0,1,1-6.32-6.32A6.33,6.33,0,0,1,42.88,87Zm-6.32-28.4a8.82,8.82,0,1,1,8.81-8.82,8.81,8.81,0,0,1-8.81,8.82ZM68.28,74.75a6.32,6.32,0,1,1,6.32-6.31,6.33,6.33,0,0,1-6.32,6.31Z"/></svg>