<svg id="Layer_1" data-name="Layer 1" xmlns="http://www.w3.org/2000/svg" viewBox="0 0 100 100"><defs><style>.cls-1{fill:#16325b;}</style></defs><path class="cls-1" d="M35,51.43a4.61,4.61,0,0,0,5-4.62c0-2.31-1.66-4.53-5.17-4.53-2.59-.09-12.11-.09-12.11-.09V57.81h3V44.69H35c1.67,0,2.5.55,2.5,2.12,0,1.3-.83,2-2.41,2H27.36l9.24,8.88h3.61l-6.66-6.47A6.13,6.13,0,0,0,35,51.43Z"/><rect class="cls-1" x="43.07" y="42.19" width="2.87" height="15.62"/><polygon class="cls-1" points="82.26 44.59 82.26 42.19 76.16 42.19 73.3 42.19 68.21 42.19 66.55 44.59 73.3 44.59 73.3 57.81 76.16 57.81 76.16 44.59 82.26 44.59"/><path class="cls-1" d="M60.91,48.66h-7.3c-1.48,0-2.31-.65-2.31-1.94a2,2,0,0,1,2.31-2.13h10l1.29-2.4H53.52a4.6,4.6,0,0,0-4.72,4.62,4.53,4.53,0,0,0,4.81,4.35h7.3c1.66,0,2.59.73,2.59,2.12,0,1.2-1,2-2.59,2H50.84l-1.48,2.5H61.28A4.5,4.5,0,0,0,66,53.1C66,50.79,64.05,48.66,60.91,48.66Z"/><path class="cls-1" d="M9.25,43.21C8.6,44.22,0,57.81,0,57.81H3.05l2.87-4.62H12l1.57-2.5H7.49l3.33-5.36,7.76,12.39h3.05s-8.5-13.4-9.24-14.61A1.82,1.82,0,0,0,9.25,43.21Z"/><path class="cls-1" d="M97,57.81h3s-8.5-13.4-9.24-14.6a1.76,1.76,0,0,0-3.14-.1L78.38,57.72h3.05l2.86-4.62h6.2l1.57-2.5H86l3.32-5.36Z"/></svg>