<svg id="Layer_1" data-name="Layer 1" xmlns="http://www.w3.org/2000/svg" viewBox="0 0 100 100"><defs><style>.cls-1{fill:#06c;}</style></defs><path class="cls-1" d="M50.06.13A50,50,0,1,1,0,50,50,50,0,0,1,50.06.13Zm0,7.68,0-.17c-2.41.26-4.84.37-7.23.79A40.86,40.86,0,0,0,20,20.4,41.54,41.54,0,0,0,7.85,52.94,40.14,40.14,0,0,0,10.12,64.1c1.85,5.21,4.39,10,8.62,13.74a26.59,26.59,0,0,0,23.73,6.43c7.55-1.48,13.28-5.76,17.61-12a1.1,1.1,0,0,0,.09-1.45c-.42-.53-.91-.37-1.44-.15a21.91,21.91,0,0,1-13.39,1.26,22.29,22.29,0,0,1,8-43.83,21.68,21.68,0,0,1,16.45,11.7c2.4,4.44,3.06,9.33,3.29,14.28A33,33,0,0,1,72.4,62,37.93,37.93,0,0,1,55.35,87.37c-1.81,1.18-3.83,2.06-5.75,3.06-.5.26-.87.57-.75,1.18s.58.79,1.13.84h.42a45.8,45.8,0,0,0,9.47-1.19A41.4,41.4,0,0,0,80.19,79.74,42,42,0,0,0,92.34,51.87a39.54,39.54,0,0,0-1-10.95A42.36,42.36,0,0,0,50,7.81Zm0,27.68A14.62,14.62,0,1,0,64.67,50.12,14.66,14.66,0,0,0,50.06,35.49Z"/></svg>