<svg id="Layer_1" data-name="Layer 1" xmlns="http://www.w3.org/2000/svg" viewBox="0 0 100 100"><defs><style>.cls-1{fill:#1e5f90;}.cls-2{fill:#fff;}</style></defs><rect class="cls-1" x="28.88" y="38.47" width="42.19" height="23.06" rx="3"/><path class="cls-2" d="M40.87,47.11A2.22,2.22,0,0,0,39,48a4.22,4.22,0,0,0-.67,2.55c0,2.27.85,3.41,2.56,3.41a8,8,0,0,0,2.6-.54v1.82a7.39,7.39,0,0,1-2.8.52,4.26,4.26,0,0,1-3.4-1.35,5.69,5.69,0,0,1-1.18-3.87,6.29,6.29,0,0,1,.58-2.79A4.16,4.16,0,0,1,38.33,46a4.87,4.87,0,0,1,2.54-.64,6.83,6.83,0,0,1,3,.72l-.69,1.76A11.23,11.23,0,0,0,42,47.31,3.6,3.6,0,0,0,40.87,47.11Z"/><path class="cls-2" d="M46.35,55.65V45.46h2.16V55.65Z"/><path class="cls-2" d="M56.11,55.65l-2.46-8h-.06c.09,1.63.13,2.72.13,3.26v4.74H51.79V45.46h2.94l2.42,7.79h0l2.56-7.79h2.94V55.65h-2V50.83c0-.23,0-.5,0-.79s0-1.09.1-2.37h-.06l-2.63,8Z"/></svg>