<svg id="Layer_1" data-name="Layer 1" xmlns="http://www.w3.org/2000/svg" xmlns:xlink="http://www.w3.org/1999/xlink" viewBox="0 0 100 100"><defs><style>.cls-1{fill:#80c056;}.cls-1,.cls-2{fill-rule:evenodd;}.cls-2{fill:#04789a;}.cls-3{fill:none;}.cls-4{fill:#010101;}.cls-5{fill:url(#linear-gradient);}.cls-6{fill:url(#linear-gradient-2);}.cls-7{fill:url(#linear-gradient-3);}.cls-8{fill:url(#linear-gradient-4);}.cls-9{fill:url(#linear-gradient-5);}.cls-10{fill:url(#linear-gradient-6);}.cls-11{fill:url(#linear-gradient-7);}</style><linearGradient id="linear-gradient" x1="-3036.22" y1="-1493.58" x2="-2936.88" y2="-1391" gradientTransform="matrix(0, -1.21, -1.18, 0, -1652.43, -3519.66)" gradientUnits="userSpaceOnUse"><stop offset="0" stop-color="#010101" stop-opacity="0"/><stop offset="1" stop-color="#010101" stop-opacity="0"/></linearGradient><linearGradient id="linear-gradient-2" x1="-3700.08" y1="96.48" x2="-3600.74" y2="199.07" gradientTransform="matrix(-0.95, -0.76, -0.74, 0.92, -3270.97, -2833.42)" xlink:href="#linear-gradient"/><linearGradient id="linear-gradient-3" x1="-1401.54" y1="-1943.19" x2="-1302.2" y2="-1840.61" gradientTransform="matrix(0.95, -0.76, -0.74, -0.92, -102.39, -2690.98)" xlink:href="#linear-gradient"/><linearGradient id="linear-gradient-4" x1="-2923.31" y1="1643.3" x2="-2823.97" y2="1745.88" gradientTransform="matrix(-1.18, 0.27, 0.26, 1.15, -3736.01, -1135.24)" xlink:href="#linear-gradient"/><linearGradient id="linear-gradient-5" x1="-32.95" y1="-912.45" x2="66.39" y2="-809.87" gradientTransform="matrix(1.18, 0.27, 0.26, -1.15, 208.37, -957.52)" xlink:href="#linear-gradient"/><linearGradient id="linear-gradient-6" x1="31.16" y1="826.51" x2="130.5" y2="929.09" gradientTransform="matrix(0.53, 1.09, 1.06, -0.51, -944.42, 364.74)" xlink:href="#linear-gradient"/><linearGradient id="linear-gradient-7" x1="-1251.87" y1="1967.47" x2="-1152.53" y2="2070.06" gradientTransform="matrix(-0.53, 1.09, 1.06, 0.51, -2706.9, 285.7)" xlink:href="#linear-gradient"/></defs><path class="cls-1" d="M39.93,48.51l3-2.91V41.75c0-1,.19-1.18,1.2-1.18h4c.79,0,1,.27,1.08,1.06,0,1.13,0,2.28,0,3.4a1.29,1.29,0,0,0,.42,1.06c.68.66,1.37,1.35,2,2a.94.94,0,0,0,.74.37h3.45c.93-.93,1.84-1.81,2.72-2.7a.94.94,0,0,0,.22-.73V41.58c0-.79.25-1,1-1H64c.76,0,1,.27,1,1,0,1.43,0,2.85,0,4.27,0,.73-.29,1-1,1H60.49a1.25,1.25,0,0,0-1,.4q-1,1-2,2a1.28,1.28,0,0,0-.42,1c0,1.16,0,2.33,0,3.48,0,.76-.3,1-1,1H51.89c-.78,0-1-.24-1-1,0-1.15,0-2.33,0-3.48a1.16,1.16,0,0,0-.42-1c-.73-.69-1.44-1.42-2.13-2.13a1,1,0,0,0-.81-.35H47c-1,0-2.11-.34-2.92.13a15.56,15.56,0,0,0-2.65,2.5,1,1,0,0,0-.22.78v3.41c0,.83-.27,1.07-1.1,1.1H36c-.78,0-1-.25-1-1V49.45c0-.74.27-1,1-1,1.3,0,2.65,0,3.92,0Z"/><path class="cls-2" d="M35,35.94c0-.71,0-1.39,0-2.1a.89.89,0,0,1,1-1c1.42,0,2.84,0,4.27,0a.89.89,0,0,1,1,1c0,1.4,0,2.79,0,4.19a.92.92,0,0,1-1,1.05c-1.4,0-2.8,0-4.19,0-.67,0-1-.36-1-1S35,36.65,35,35.94Zm0,23.63V57.48a.92.92,0,0,1,1-1c1.39,0,2.79,0,4.19,0,.71,0,1,.35,1,1.06,0,1.39,0,2.79,0,4.19a.91.91,0,0,1-1,1q-2.13,0-4.26,0a.86.86,0,0,1-1-1C35,61,35,60.3,35,59.57Zm7.94-23.85c0-.68,0-1.35,0-2s.32-1.06,1-1.06c1.4,0,2.79,0,4.19,0,.69,0,1,.32,1,1q0,2.13,0,4.26a.92.92,0,0,1-1,1c-1.4,0-2.79,0-4.19,0-.71,0-1-.35-1-1.08s0-1.4,0-2.11Zm7.92,0c0-.71,0-1.4,0-2.11a.89.89,0,0,1,1-1q2.13,0,4.26,0a.93.93,0,0,1,1,1q0,2.13,0,4.26a.92.92,0,0,1-.83,1h-.15c-1.45,0-2.89,0-4.31,0a.92.92,0,0,1-1-.83V37.9c0-.71,0-1.44,0-2.2ZM45.93,54.79c-.68,0-1.34,0-2,0a.9.9,0,0,1-1-1c0-1.42,0-2.84,0-4.27a.88.88,0,0,1,1-1q2.13,0,4.26,0a.89.89,0,0,1,1,1c0,1.45,0,2.89,0,4.31a.92.92,0,0,1-1,1c-.71.05-1.44,0-2.16,0ZM46,62.73H43.9c-.71,0-1-.32-1-1,0-1.39,0-2.79,0-4.19A.92.92,0,0,1,44,56.48c1.4,0,2.79,0,4.19,0a1,1,0,0,1,1,1c0,1.39,0,2.79,0,4.19a.94.94,0,0,1-1.05,1c-.69,0-1.43,0-2.11,0Zm7.89,0h-2c-.72,0-1-.32-1-1.06,0-1.39,0-2.79,0-4.19a.92.92,0,0,1,1-1c1.4,0,2.79,0,4.19,0a.94.94,0,0,1,1,1.06c0,1.39,0,2.79,0,4.19a.9.9,0,0,1-1,1c-.72,0-1.43,0-2.16,0Zm-3.06-19V41.63c0-.71.31-1.06,1-1.08q2.1,0,4.2,0a.9.9,0,0,1,1,1c0,1.43,0,2.85,0,4.27a.9.9,0,0,1-1,1q-2.1,0-4.2,0c-.71,0-1-.34-1-1.08s0-1.34,0-2Zm11,18.77c-.71,0-1.4,0-2.11,0s-1-.32-1-1q0-2.13,0-4.26a.88.88,0,0,1,1-1q2.13,0,4.26,0a.88.88,0,0,1,1,1c0,1.47,0,2.92,0,4.39a.88.88,0,0,1-1,.93Zm0-14c.71,0,1.39,0,2.08,0s1,.35,1,1q0,2.13,0,4.26a.92.92,0,0,1-1,1c-1.4,0-2.79,0-4.19,0a.92.92,0,0,1-1-1q0-2.13,0-4.26c0-.66.34-1,1-1s1.42,0,2.11,0Zm0-15.88c.71,0,1.39,0,2.08,0s1,.32,1,1q0,2.13,0,4.26a.92.92,0,0,1-1,1c-1.4,0-2.79,0-4.19,0a.92.92,0,0,1-1-1q0-2.13,0-4.26c0-.69.34-1,1-1s1.42,0,2.11,0ZM38.14,40.57c.69,0,1.35,0,2,0s1,.35,1,1q0,2.13,0,4.26a.92.92,0,0,1-1,1c-1.4,0-2.79,0-4.19,0-.69,0-1-.35-1-1,0-1.4,0-2.8,0-4.19,0-.71.34-1,1.07-1s1.35,0,2.06,0Z"/><path class="cls-3" d="M50,32.76h0A14.93,14.93,0,0,0,35.08,47.68v0A14.93,14.93,0,0,0,50,62.63h0a14.95,14.95,0,0,0,0-29.87Z"/><polygon class="cls-3" points="68.75 8.77 68.7 8.89 68.7 8.89 68.75 8.77"/><path class="cls-4" d="M70.68,42l.52-.13A22,22,0,0,0,60.37,28.32l-.22.47L58.46,28l.22-.47A22,22,0,0,0,50,25.72h0a22.15,22.15,0,0,0-8.68,1.79l.22.47-1.69.81-.22-.47A22.12,22.12,0,0,0,28.86,41.9l.51.12L29,43.86l-.51-.12a20.79,20.79,0,0,0-.37,3.94v0a21.83,21.83,0,0,0,4.24,13l.42-.32,1.17,1.47-.41.32a21.85,21.85,0,0,0,15.63,7.52v-.51H51v.51a21.89,21.89,0,0,0,14.58-6.42c.37-.37.71-.76,1-1.13l-.42-.31,1.18-1.47.42.31a22,22,0,0,0,4.21-13,21.18,21.18,0,0,0-.37-4l-.51.12ZM60.59,58.24A14.68,14.68,0,0,1,50,62.6h0A14.94,14.94,0,0,1,35.1,47.68v0A14.94,14.94,0,0,1,50,32.73h0A15,15,0,0,1,60.59,58.24Z"/><path class="cls-5" d="M46.89,94.58A3.09,3.09,0,0,0,50,97.69h0a3.11,3.11,0,1,0,0-6.22h0A3.12,3.12,0,0,0,46.89,94.58Z"/><path class="cls-4" d="M49.1,90.74v-.35A4.29,4.29,0,0,0,50,98.87H50a4.3,4.3,0,0,0,3-7.33A4.22,4.22,0,0,0,51,90.42v.32Zm4.63,3.84a3.7,3.7,0,0,1-3.68,3.7h0a3.69,3.69,0,1,1,0-7.37h0a3.67,3.67,0,0,1,3.7,3.65v0Z"/><path class="cls-4" d="M50,90.88a3.69,3.69,0,0,0,0,7.38h0a3.69,3.69,0,0,0,0-7.38Zm0,.59a3.11,3.11,0,1,1,0,6.22h0a3.11,3.11,0,1,1,0-6.22Z"/><path class="cls-4" d="M50,69.66l-.9,0V90.39a5.51,5.51,0,0,1,.9-.1h0a4,4,0,0,1,1,.13V69.64C50.66,69.66,50.35,69.66,50,69.66Zm0,.39"/><path class="cls-4" d="M49.1,69.1v.51c.29,0,.61,0,.9,0h0c.32,0,.64,0,1,0V69.1Z"/><path class="cls-4" d="M50,90.29h0a5.51,5.51,0,0,0-.9.1v.35H51v-.32A4.12,4.12,0,0,0,50,90.29Z"/><path class="cls-6" d="M84.75,79.37a3.07,3.07,0,0,0,4.31-.47s0-.05,0-.05l0,0A3.12,3.12,0,0,0,84.26,75l0,0A3.12,3.12,0,0,0,84.75,79.37Z"/><path class="cls-4" d="M83.11,75.25l-.27-.2A4.31,4.31,0,0,0,84,80.3a4.21,4.21,0,0,0,2.67.93A4.26,4.26,0,0,0,90,79.63l0,0a4.27,4.27,0,0,0-6-6l.27.2ZM89,74.05a3.7,3.7,0,0,1,.59,5.19h0a3.7,3.7,0,0,1-5.79-4.6h0A3.69,3.69,0,0,1,89,74.05Z"/><path class="cls-4" d="M83.79,74.64h0a3.7,3.7,0,0,0,5.79,4.6h0a3.7,3.7,0,0,0-5.79-4.6Zm.47.36a3.12,3.12,0,0,1,4.88,3.88l0,0a3.1,3.1,0,1,1-4.87-3.85Z"/><path class="cls-4" d="M82.84,75a4.69,4.69,0,0,1,.49-.76h0l0,0h0a4.65,4.65,0,0,1,.67-.66l-16.25-13c-.37.51-.76,1-1.18,1.47ZM67.52,61.62,83,73.93Z"/><path class="cls-4" d="M66.18,61.77l.41.32c.42-.49.81-1,1.18-1.47l-.42-.32Z"/><path class="cls-4" d="M83.35,74.24h0a4.86,4.86,0,0,0-.51.79l.27.19,1.17-1.47L84,73.56A3.33,3.33,0,0,0,83.35,74.24Z"/><path class="cls-7" d="M15.74,75a3.07,3.07,0,0,0-2.05-1.13,2.06,2.06,0,0,0-.35,0,3.1,3.1,0,0,0-3.08,2.77,3,3,0,0,0,.66,2.28A3.21,3.21,0,0,0,13,80a3.08,3.08,0,0,0,2.28-.66,3.21,3.21,0,0,0,1.15-2.09,2.82,2.82,0,0,0-.69-2.3Z"/><path class="cls-4" d="M15.77,73.83l.27-.2a4.32,4.32,0,0,0-5.39,0,4.27,4.27,0,0,0-1.57,2.86A4.32,4.32,0,0,0,10,79.63a4.23,4.23,0,0,0,2.86,1.57,2.69,2.69,0,0,0,.49,0,4.25,4.25,0,0,0,3.83-6.13l-.27.2Zm-.12,6a3.71,3.71,0,0,1-5.2-.59h0a3.71,3.71,0,0,1,5.69-4.76c0,.05.07.08.1.13h0A3.73,3.73,0,0,1,15.65,79.81Z"/><path class="cls-4" d="M16.24,74.61a3.69,3.69,0,0,0-5.89,4.46c0,.05.08.07.1.12h0a3.69,3.69,0,0,0,5.79-4.58Zm.19,2.67a3.21,3.21,0,0,1-1.15,2.09A3.08,3.08,0,0,1,13,80a3.21,3.21,0,0,1-2.08-1.15,3,3,0,0,1-.66-2.28,3.17,3.17,0,0,1,1.15-2.09,3,3,0,0,1,1.93-.68,2.06,2.06,0,0,1,.35,0A3.07,3.07,0,0,1,15.74,75l0,0a2.88,2.88,0,0,1,.66,2.28Z"/><path class="cls-4" d="M16,73.61a4.23,4.23,0,0,1,.64.63h0a6.48,6.48,0,0,1,.51.84l16.25-13c-.42-.46-.81-1-1.18-1.47Zm1.08.36,15.44-12.3Z"/><path class="cls-4" d="M32.7,60.33l-.41.31c.36.52.76,1,1.17,1.47l.42-.31Z"/><path class="cls-4" d="M16.68,74.24a4.23,4.23,0,0,0-.64-.63l-.27.19L17,75.27l.27-.19A5.49,5.49,0,0,0,16.68,74.24Z"/><path class="cls-8" d="M97.39,34.62A3.19,3.19,0,0,0,95,34.2a3,3,0,0,0-1.93,1.38,3.09,3.09,0,0,0-.42,2.32l0,.05a3.16,3.16,0,0,0,3.73,2.33,3,3,0,0,0,1.94-1.37,3.08,3.08,0,0,0-1-4.29Z"/><path class="cls-4" d="M99.89,36.31A4.4,4.4,0,0,0,98,33.64a4.17,4.17,0,0,0-3.23-.54,4.27,4.27,0,0,0-3.31,4.17l.32-.08L92.18,39l-.32.07a4.06,4.06,0,0,0,1.59,1.79,4.34,4.34,0,0,0,2.25.64,6.38,6.38,0,0,0,1-.1,4.42,4.42,0,0,0,2.68-1.91A4.13,4.13,0,0,0,99.89,36.31Zm-3.33,4.53a3.69,3.69,0,0,1-4.43-2.77h0a3.7,3.7,0,1,1,7.18-1.78c0,.05,0,.07,0,.12h0a3.69,3.69,0,0,1-2.72,4.43Z"/><path class="cls-4" d="M99.33,36.43A3.7,3.7,0,0,0,92.1,38c0,.05,0,.07,0,.12h0a3.7,3.7,0,0,0,7.2-1.67Zm-1,2.48a3,3,0,0,1-1.94,1.37A3.14,3.14,0,0,1,92.69,38l0-.05A3.12,3.12,0,0,1,95,34.2a3.08,3.08,0,0,1,2.35.42,3,3,0,0,1,1.37,1.94A3,3,0,0,1,98.35,38.91Z"/><path class="cls-4" d="M91.56,38.2a4.66,4.66,0,0,1-.1-1L71.2,41.87c.17.62.29,1.23.42,1.84L91.88,39.1a4,4,0,0,1-.32-.9ZM71.81,42.71l19.24-4.39Z"/><path class="cls-4" d="M70.68,42l.42,1.83.52-.12c-.13-.64-.27-1.22-.42-1.84Z"/><path class="cls-4" d="M91.78,37.17l-.32.07a6.51,6.51,0,0,0,.1,1h0a5.71,5.71,0,0,0,.3.88l.32-.07Z"/><path class="cls-9" d="M5,34.23a3.25,3.25,0,0,0-.69-.08,3.12,3.12,0,1,0,3,3.83l0,0A3.15,3.15,0,0,0,5,34.23Z"/><path class="cls-4" d="M8.25,37.22l.32.07a4.28,4.28,0,1,0-5.25,4.12,4.47,4.47,0,0,0,1,.1,4.28,4.28,0,0,0,3.84-2.43l-.29,0ZM3.47,40.84a3.73,3.73,0,0,1-2.8-4.43h0A3.71,3.71,0,0,1,7.9,38.05h0a3.7,3.7,0,0,1-4.38,2.82S3.49,40.84,3.47,40.84Z"/><path class="cls-4" d="M7.9,38.05A3.71,3.71,0,0,0,.67,36.41h0a3.72,3.72,0,0,0,7.21,1.81s0-.12,0-.17Zm-.56-.15,0,.05a3.12,3.12,0,0,1-6.08-1.42,3.1,3.1,0,0,1,3-2.4A3.14,3.14,0,0,1,5,34.2,3.15,3.15,0,0,1,7.34,37.9Z"/><path class="cls-4" d="M8.57,37.29a5.76,5.76,0,0,1-.1.91h0a4.1,4.1,0,0,1-.35.9l20.27,4.64a18.23,18.23,0,0,1,.42-1.84Zm19.62,5.44L9,38.34Z"/><path class="cls-4" d="M29.32,42l-.51-.12c-.18.61-.3,1.22-.42,1.84l.51.12Z"/><path class="cls-4" d="M8.47,38.2a5.76,5.76,0,0,0,.1-.91l-.32-.07-.42,1.84.29,0A4.1,4.1,0,0,0,8.47,38.2Z"/><path class="cls-10" d="M32.46,4.09a2.93,2.93,0,0,0-1.79-1.57,3,3,0,0,0-1-.17,3.12,3.12,0,0,0-1.35.29,3.07,3.07,0,0,0-1.47,4.09s0,0,0,0a2.88,2.88,0,0,0,1.78,1.57A3.07,3.07,0,0,0,31,8.2h0a3,3,0,0,0,1.44-4S32.46,4.11,32.46,4.09Z"/><path class="cls-4" d="M32.16,8.5l.15.29a4.29,4.29,0,1,0-6-.71,4.36,4.36,0,0,0,2,1.4,4.08,4.08,0,0,0,1.42.24,6.25,6.25,0,0,0,1-.1l-.15-.29ZM26.33,7a3.72,3.72,0,0,1,1.72-4.95h0A3.7,3.7,0,1,1,31.4,8.67l-.14.07h0a3.68,3.68,0,0,1-4.93-1.66S26.33,7.05,26.33,7Z"/><path class="cls-4" d="M31.28,8.77A3.71,3.71,0,0,0,28.17,2L28,2.1h0a3.71,3.71,0,0,0,3.26,6.67ZM31,8.23a3.11,3.11,0,0,1-4.16-1.42,3.05,3.05,0,0,1,1.42-4.12,0,0,0,0,0,0,0,3.13,3.13,0,0,1,1.35-.3,3,3,0,0,1,1,.17,3.18,3.18,0,0,1,1.79,1.57A3,3,0,0,1,31.08,8.2S31,8.23,31,8.23Z"/><path class="cls-4" d="M32.31,8.79c-.24.17-.51.34-.76.49h0a3.65,3.65,0,0,1-.91.32l9,18.72c.54-.29,1.1-.56,1.69-.83Zm8,18.75L31.75,9.75Z"/><path class="cls-4" d="M41.55,28l-.22-.47a14,14,0,0,0-1.69.84l.22.46Z"/><path class="cls-4" d="M31.53,9.28a2.91,2.91,0,0,0,.76-.49l-.15-.29-1.69.81.14.29a3.27,3.27,0,0,0,.94-.32Z"/><path class="cls-11" d="M69,8.25a3,3,0,0,0,2.38.13,3.13,3.13,0,0,0,1.78-1.57,3.1,3.1,0,0,0-1.44-4.14,3.15,3.15,0,0,0-4.17,1.47,3,3,0,0,0-.14,2.37A3.19,3.19,0,0,0,69,8.25Z"/><path class="cls-4" d="M68.7,8.89l0-.12A3.71,3.71,0,0,1,72,2.1h0a3.71,3.71,0,1,1-3.11,6.74l-.15-.07h0l0,.12.83.42-.14.29a4.27,4.27,0,0,0,2.84-8,4.23,4.23,0,0,0-3.29-.17A4.41,4.41,0,0,0,66.49,3.6a4.16,4.16,0,0,0-.17,3.28,4.29,4.29,0,0,0,1.35,1.91l.15-.29Z"/><path class="cls-4" d="M68.75,8.77h0a3.71,3.71,0,0,0,3.31-6.64.09.09,0,0,0-.08,0h0a3.71,3.71,0,0,0-3.23,6.67ZM67.43,6.46a2.92,2.92,0,0,1,.14-2.37,3.15,3.15,0,0,1,4.17-1.47,3.1,3.1,0,0,1,1.44,4.14h0A2.91,2.91,0,0,1,71.4,8.33,3.07,3.07,0,0,1,69,8.2h0A3,3,0,0,1,67.43,6.46Z"/><path class="cls-4" d="M69.39,9.6a6.15,6.15,0,0,1-.89-.29l.18-.42h0l-.18.42a6,6,0,0,1-.83-.52l-9,18.7a15.48,15.48,0,0,1,1.69.81Zm-1.13.12L59.71,27.51Z"/><path class="cls-4" d="M60.12,28.79l.22-.47c-.54-.29-1.1-.56-1.69-.81l-.22.47Z"/><path class="cls-4" d="M68.7,8.89l-.88-.42-.15.3a3,3,0,0,0,.83.51Z"/><path class="cls-4" d="M68.7,8.89l-.17.42a2.85,2.85,0,0,0,.88.29l.15-.29Z"/></svg>