<svg id="Layer_1" data-name="Layer 1" xmlns="http://www.w3.org/2000/svg" viewBox="0 0 100 100"><defs><style>.cls-1{fill:#ea2328;fill-rule:evenodd;}</style></defs><g id="couchbase_logo" data-name="couchbase logo"><path id="Logo-Icon" class="cls-1" d="M83.53,58.77A6.08,6.08,0,0,1,78.41,65c-5.88,1-18.15,1.66-28.45,1.66S27.38,66.06,21.49,65a6.05,6.05,0,0,1-5.11-6.26V39.24A6.48,6.48,0,0,1,21.49,33a65,65,0,0,1,8.92-.59,2.22,2.22,0,0,1,2.17,2.27V48.41c6.05,0,11.29-.36,17.39-.36s11.29.36,17.37.36V34.76a2.22,2.22,0,0,1,2-2.37h.12a66.59,66.59,0,0,1,8.92.58,6.51,6.51,0,0,1,5.11,6.27ZM50,0A50,50,0,1,0,99.63,50,49.84,49.84,0,0,0,50,0Z"/></g></svg>