<svg id="Layer_1" data-name="Layer 1" xmlns="http://www.w3.org/2000/svg" viewBox="0 0 100 100"><defs><style>.cls-1{fill:#1e5f90;}.cls-2{fill:#fff;}</style></defs><rect class="cls-1" x="10.96" y="38.47" width="78.49" height="23.06" rx="3"/><path class="cls-2" d="M23.25,47.11a2.22,2.22,0,0,0-1.89.92,4.3,4.3,0,0,0-.66,2.55c0,2.27.85,3.41,2.55,3.41a8,8,0,0,0,2.6-.54v1.82a7.35,7.35,0,0,1-2.8.52,4.26,4.26,0,0,1-3.4-1.35,5.69,5.69,0,0,1-1.18-3.87,6.29,6.29,0,0,1,.58-2.79A4.22,4.22,0,0,1,20.71,46a4.89,4.89,0,0,1,2.54-.64,6.87,6.87,0,0,1,3,.72l-.7,1.76a10.36,10.36,0,0,0-1.15-.48A3.56,3.56,0,0,0,23.25,47.11Z"/><path class="cls-2" d="M37,45.46v6.59a3.83,3.83,0,0,1-.5,2,3.38,3.38,0,0,1-1.46,1.31,5.27,5.27,0,0,1-2.26.45,4.36,4.36,0,0,1-3.06-1A3.59,3.59,0,0,1,28.67,52V45.46h2.15V51.7a2.67,2.67,0,0,0,.47,1.73,2,2,0,0,0,1.57.55,1.93,1.93,0,0,0,1.54-.56,2.62,2.62,0,0,0,.48-1.74V45.46Z"/><path class="cls-2" d="M46.26,52.82a2.61,2.61,0,0,1-1,2.17,4.3,4.3,0,0,1-2.76.8,6.64,6.64,0,0,1-2.89-.61v-2a13.34,13.34,0,0,0,1.75.65,5.4,5.4,0,0,0,1.31.18,1.87,1.87,0,0,0,1.09-.27.94.94,0,0,0,.38-.81.9.9,0,0,0-.17-.53,1.66,1.66,0,0,0-.49-.45q-.33-.21-1.32-.69a6.17,6.17,0,0,1-1.4-.84,3.38,3.38,0,0,1-.75-.94,2.78,2.78,0,0,1-.28-1.26,2.66,2.66,0,0,1,.92-2.13,3.84,3.84,0,0,1,2.53-.77,5.81,5.81,0,0,1,1.52.19,9.79,9.79,0,0,1,1.51.53l-.7,1.68a10.59,10.59,0,0,0-1.35-.47,4.19,4.19,0,0,0-1-.13,1.39,1.39,0,0,0-.94.29A1,1,0,0,0,42,48.64a1.5,1.5,0,0,0,.42.41,14.24,14.24,0,0,0,1.37.72,5.45,5.45,0,0,1,2,1.37A2.66,2.66,0,0,1,46.26,52.82Z"/><path class="cls-2" d="M52.75,55.65H50.59V47.26H47.82v-1.8h7.7v1.8H52.75Z"/><path class="cls-2" d="M67.05,50.54a5.56,5.56,0,0,1-1.25,3.89,5.44,5.44,0,0,1-7.2,0,5.59,5.59,0,0,1-1.25-3.9,5.47,5.47,0,0,1,1.26-3.89,4.68,4.68,0,0,1,3.6-1.34,4.65,4.65,0,0,1,3.6,1.35A5.54,5.54,0,0,1,67.05,50.54Zm-7.44,0a4.25,4.25,0,0,0,.65,2.57A2.26,2.26,0,0,0,62.2,54c1.72,0,2.59-1.15,2.59-3.44s-.86-3.44-2.58-3.44a2.3,2.3,0,0,0-1.94.86A4.23,4.23,0,0,0,59.61,50.54Z"/><path class="cls-2" d="M74.19,55.65l-2.45-8h-.06c.08,1.63.13,2.72.13,3.26v4.74H69.88V45.46h2.94l2.41,7.79h0l2.56-7.79h2.94V55.65h-2V50.83c0-.23,0-.5,0-.79s0-1.09.09-2.37H78.8l-2.63,8Z"/></svg>