<svg id="Layer_1" data-name="Layer 1" xmlns="http://www.w3.org/2000/svg" viewBox="0 0 100 100"><defs><style>.cls-1{fill:#fec514;}.cls-1,.cls-2,.cls-3{fill-rule:evenodd;}.cls-2{fill:#343741;}.cls-3{fill:#00bfb3;}</style></defs><g id="elastic-search-logo-color-64px"><g id="group"><path id="Fill-1" class="cls-1" d="M94.19,18h0A50,50,0,0,0,11,27.78H76.19A19.86,19.86,0,0,0,89,23.16,42.39,42.39,0,0,0,94.19,18"/><path id="Fill-4" class="cls-2" d="M5.81,50A49.85,49.85,0,0,0,7.52,63H68.77a13,13,0,1,0,0-25.92H7.52A49.85,49.85,0,0,0,5.81,50"/><path id="Fill-6" class="cls-3" d="M94.19,82h0A50,50,0,0,1,11,72.22H76.19A19.86,19.86,0,0,1,89,76.84,42.39,42.39,0,0,1,94.19,82"/></g></g></svg>