<svg id="Layer_1" data-name="Layer 1" xmlns="http://www.w3.org/2000/svg" viewBox="0 0 100 100"><defs><style>.cls-1{fill:#1e5f90;}.cls-2{fill:#fff;}</style></defs><rect class="cls-1" x="9.32" y="38.47" width="81.77" height="23.06" rx="3"/><path class="cls-2" d="M21.74,55.65H15.87V45.46h5.87v1.77H18v2.24h3.45v1.77H18v2.62h3.71Z"/><path class="cls-2" d="M28.51,55.65H26.35V47.26H23.58v-1.8h7.69v1.8H28.51Z"/><path class="cls-2" d="M41.91,55.65H39.75v-4.4h-4v4.4H33.56V45.46h2.16v4h4v-4h2.16Z"/><path class="cls-2" d="M49.13,55.65H47V47.26H44.2v-1.8h7.69v1.8H49.13Z"/><path class="cls-2" d="M63.43,50.54a5.52,5.52,0,0,1-1.26,3.89,4.62,4.62,0,0,1-3.59,1.36A4.64,4.64,0,0,1,55,54.43a5.54,5.54,0,0,1-1.26-3.9A5.47,5.47,0,0,1,55,46.64a4.69,4.69,0,0,1,3.61-1.34,4.63,4.63,0,0,1,3.59,1.35A5.54,5.54,0,0,1,63.43,50.54Zm-7.44,0a4.25,4.25,0,0,0,.65,2.57,2.26,2.26,0,0,0,1.94.87q2.58,0,2.58-3.44c0-2.3-.85-3.44-2.57-3.44a2.28,2.28,0,0,0-1.94.86A4.23,4.23,0,0,0,56,50.54Z"/><path class="cls-2" d="M75.51,50.54a5.52,5.52,0,0,1-1.26,3.89,5.43,5.43,0,0,1-7.19,0,5.54,5.54,0,0,1-1.26-3.9,5.47,5.47,0,0,1,1.26-3.89,5.49,5.49,0,0,1,7.2,0A5.54,5.54,0,0,1,75.51,50.54Zm-7.44,0a4.18,4.18,0,0,0,.65,2.57,2.24,2.24,0,0,0,1.93.87q2.59,0,2.59-3.44c0-2.3-.86-3.44-2.57-3.44a2.31,2.31,0,0,0-2,.86A4.3,4.3,0,0,0,68.07,50.54Z"/><path class="cls-2" d="M78.33,55.65V45.46h2.16v8.4h4.14v1.79Z"/></svg>