<svg id="Layer_1" data-name="Layer 1" xmlns="http://www.w3.org/2000/svg" viewBox="0 0 100 100"><path d="M0,37.59V57.71H4.19V49.62h9.48V46H4.19V41.35H15.57V37.59Zm17.49,0h4.19V57.71H17.49Zm20.87,9.67A5.25,5.25,0,0,1,41,51.87c0,3.36-2.17,5.84-6.9,5.84H23.64V37.59H33.8c4.42,0,6.61,2.45,6.61,5.33,0,1.8-.78,3.66-2,4.31m-5.07-1.72c1.89,0,2.82-.76,2.82-2.26S35.15,41,33.26,41H27.84v4.54Zm.14,8.56c2.11,0,3.24-.79,3.24-2.48S35.6,49,33.49,49H27.84v5ZM72.06,37.59c4.48,0,7.07,2.32,7.07,6.26a5.7,5.7,0,0,1-3,5.38l3,8.48H74.94l-2.71-7.54H66.07v7.58H61.88V37.59Zm-6,9h5.41c2.47,0,3.37-1,3.37-2.64,0-1.89-1-2.59-3.8-2.59h-5ZM100,47.65c0,5.91-3.45,10.43-9.8,10.43s-9.8-4.52-9.8-10.43,3.41-10.42,9.8-10.42,9.8,4.51,9.8,10.42m-4.31,0c0-3.71-1.73-6.67-5.5-6.67s-5.49,3-5.49,6.67,1.73,6.67,5.49,6.67,5.5-3,5.5-6.67M54.84,52.27h-8l-1.63,5.44H41l6.41-20.12h6.91l6.42,20.12H56.47Zm-7-3.66h5.82l-2.11-7H50Z"/></svg>