<svg id="Layer_1" data-name="Layer 1" xmlns="http://www.w3.org/2000/svg" viewBox="0 0 100 100"><defs><style>.cls-1{fill:#ef4023;}</style></defs><path class="cls-1" d="M24,90.39V44.48H20.71V90.39a4.73,4.73,0,1,0,3.28,0ZM22.35,96.9a2.1,2.1,0,1,1,2.09-2.09A2.1,2.1,0,0,1,22.35,96.9Z"/><path class="cls-1" d="M37.84,90.39V23H34.56V90.39a4.72,4.72,0,1,0,3.28,0ZM36.2,96.9a2.1,2.1,0,1,1,2.09-2.09A2.1,2.1,0,0,1,36.2,96.9Z"/><path class="cls-1" d="M51.69,90.39V-.47H48.41V90.39a4.73,4.73,0,1,0,3.28,0ZM50.05,96.9a2.1,2.1,0,1,1,2.09-2.09A2.1,2.1,0,0,1,50.05,96.9Z"/><path class="cls-1" d="M65.54,90.39V36.86H62.26V90.39a4.73,4.73,0,1,0,3.28,0ZM63.9,96.9A2.1,2.1,0,1,1,66,94.81,2.1,2.1,0,0,1,63.9,96.9Z"/><path class="cls-1" d="M79.38,90.39V60.76H76.1V90.4a4.73,4.73,0,1,0,3.28,0ZM77.75,96.9a2.1,2.1,0,1,1,2.09-2.09A2.1,2.1,0,0,1,77.75,96.9Z"/></svg>