<svg id="Layer_1" data-name="Layer 1" xmlns="http://www.w3.org/2000/svg" viewBox="0 0 100 100"><defs><style>.cls-1{fill:#669df6;}.cls-2{fill:#4285f4;}</style></defs><g id="art"><rect class="cls-1" x="63.62" y="46.4" width="20.9" height="6.9"/><rect class="cls-1" x="79.73" y="20.6" width="6.9" height="58.55"/><rect class="cls-2" x="71.47" y="76.6" width="23.4" height="23.4" rx="1.4"/><rect class="cls-2" x="71.47" width="23.4" height="23.4" rx="1.4"/><rect class="cls-1" x="24.88" y="46.4" width="21.4" height="6.9"/><rect class="cls-2" x="5.13" y="38.15" width="23.4" height="23.4" rx="1.4"/><path class="cls-2" d="M55,60.85a11,11,0,1,1,11-11h0a11,11,0,0,1-10.9,11ZM55,43a6.9,6.9,0,1,0,6.64,7.14.71.71,0,0,1,0-.14A6.86,6.86,0,0,0,55,43Z"/></g></svg>