<svg id="Layer_1" data-name="Layer 1" xmlns="http://www.w3.org/2000/svg" viewBox="0 0 100 100"><defs><style>.cls-1{fill:#aecbfa;}.cls-2{fill:#669df6;}.cls-3{fill:#4285f4;}</style></defs><path class="cls-1" d="M0,10V45H100V10ZM50,30H20V25H50Zm22.5,5A7.5,7.5,0,1,1,80,27.5,7.5,7.5,0,0,1,72.5,35Z"/><path class="cls-1" d="M0,55V90H100V55ZM50,75H20V70H50Zm22.5,5A7.5,7.5,0,1,1,80,72.5,7.5,7.5,0,0,1,72.5,80Z"/><rect class="cls-2" x="90" y="10" width="10" height="35"/><polygon class="cls-3" points="100 10 90 10 90 45 100 10"/><rect class="cls-2" y="10" width="10" height="35"/><rect class="cls-2" x="90" y="55" width="10" height="35"/><polygon class="cls-3" points="100 55 90 55 90 90 100 55"/><rect class="cls-2" y="55" width="10" height="35"/></svg>