<svg id="Layer_1" data-name="Layer 1" xmlns="http://www.w3.org/2000/svg" xmlns:xlink="http://www.w3.org/1999/xlink" viewBox="0 0 100 100"><defs><style>.cls-1{fill:none;}.cls-2{clip-path:url(#clip-path);}.cls-3{fill:url(#radial-gradient);}.cls-4{fill:url(#linear-gradient);}.cls-5{fill:url(#linear-gradient-2);}.cls-6{fill:url(#radial-gradient-2);}.cls-7{fill:url(#radial-gradient-3);}.cls-8{fill:url(#radial-gradient-4);}.cls-9{fill:url(#linear-gradient-3);}</style><clipPath id="clip-path"><circle class="cls-1" cx="50.16" cy="50" r="50"/></clipPath><radialGradient id="radial-gradient" cx="46.06" cy="-43.78" r="35.6" gradientTransform="matrix(1, 0, 0, -1, 0, -18)" gradientUnits="userSpaceOnUse"><stop offset="0" stop-color="#1deaea"/><stop offset="0.2" stop-color="#1de7e8"/><stop offset="0.37" stop-color="#1cdce2"/><stop offset="0.53" stop-color="#1bcbd8"/><stop offset="0.68" stop-color="#19b2ca"/><stop offset="0.82" stop-color="#1792b7"/><stop offset="0.96" stop-color="#146ca1"/><stop offset="1" stop-color="#13609a"/></radialGradient><linearGradient id="linear-gradient" x1="0.46" y1="-42.48" x2="76.69" y2="-42.48" gradientTransform="matrix(1, 0, 0, -1, 0, -18)" gradientUnits="userSpaceOnUse"><stop offset="0" stop-color="#808082"/><stop offset="0.14" stop-color="#a1aeaf"/><stop offset="0.3" stop-color="#c2dada"/><stop offset="0.42" stop-color="#d6f5f5"/><stop offset="0.49" stop-color="#dff"/><stop offset="0.59" stop-color="#dafbfb"/><stop offset="0.68" stop-color="#d2efef"/><stop offset="0.78" stop-color="#c3dbdb"/><stop offset="0.88" stop-color="#afbebf"/><stop offset="0.97" stop-color="#969a9c"/><stop offset="1" stop-color="#8e8f91"/></linearGradient><linearGradient id="linear-gradient-2" x1="0.37" y1="-94.08" x2="98.08" y2="-41.93" xlink:href="#linear-gradient"/><radialGradient id="radial-gradient-2" cx="10.79" cy="-74.18" r="9.64" xlink:href="#radial-gradient"/><radialGradient id="radial-gradient-3" cx="50.85" cy="-82.18" r="42.49" xlink:href="#radial-gradient"/><radialGradient id="radial-gradient-4" cx="58.97" cy="-92.77" r="32.43" xlink:href="#radial-gradient"/><linearGradient id="linear-gradient-3" x1="3.67" y1="-89.93" x2="97.79" y2="-89.93" gradientTransform="matrix(1, 0, 0, -1, 0, -18)" gradientUnits="userSpaceOnUse"><stop offset="0" stop-color="#808082"/><stop offset="0.14" stop-color="#a1aeaf"/><stop offset="0.3" stop-color="#c2dada"/><stop offset="0.42" stop-color="#d6f5f5"/><stop offset="0.49" stop-color="#dff"/><stop offset="0.59" stop-color="#dafbfb"/><stop offset="0.68" stop-color="#d2efef"/><stop offset="0.78" stop-color="#c3dbdb"/><stop offset="0.88" stop-color="#afbebf"/><stop offset="0.97" stop-color="#969a9c"/><stop offset="1" stop-color="#8e8f91"/></linearGradient></defs><g class="cls-2"><path class="cls-3" d="M76.69,9.8c-5.24-2.94-11.62-5.55-17.8-5.42C46.74,4.61,37.38,14.83,30.81,22.6c-5.55,6.6-14.52,15-19.47,17.81S2.48,46.09.49,47.18H8.63c2.24-1.06,9.25-2.42,17.41-11.39S48.93,12,57.69,12.33c9.46.39,10.19,3.86,19,11.58s14.94,2.6,14.94,2.6A69.43,69.43,0,0,0,76.69,9.8Z"/><path class="cls-4" d="M30.81,22.63c6.57-7.8,15.93-18,28.08-18.22,6.18-.13,12.56,2.47,17.8,5.42A36.78,36.78,0,0,0,61.26,2.37C42.39-1.15,32,10.74,28.39,14.08c-3.44,3.18-14,13.74-17.62,16.39s-7,4.88-8.76,9.05A19.73,19.73,0,0,0,.47,47.24c2-1.1,5.89-4,10.84-6.78S25.26,29.22,30.81,22.63Z"/><path class="cls-5" d="M66.76,37.7c6.52-5,18.64-14.39,26.83-6.52,4.32,4.17,5.37,13.16,5.34,21.11a62.14,62.14,0,0,0-.16-11.57c-.83-7.8-7.56-20.54-17-20.65s-15,4.64-24.56,11.42C47.37,38.5,29.8,53.88,19.58,63,9.88,71.72,1.75,51,.47,47.21v11.5S3.78,68.56,12,73a11,11,0,0,0,4.38,1.33c2.95-.54,6.44-2.06,10.53-5.05C42.23,58.16,60.24,42.75,66.76,37.7Z"/><path class="cls-6" d="M19.6,63l1.49-1.33c-8.92-2-12.46-14.49-12.46-14.49H.49C1.77,51,9.91,71.72,19.6,63Z"/><path class="cls-7" d="M93.59,31.18c-8.19-7.87-20.31,1.48-26.83,6.52S42.2,58.16,27,69.32c-4.09,3-7.58,4.51-10.53,5.05,7,.58,14.37-5.44,20.6-10,7.56-5.55,21.79-16.53,34.85-26,11.68-8.48,13.71-6.86,16.29-4.72,3,2.5,3.63,9.46,3.24,15.43,0,.31,0,.6,0,.91A41.33,41.33,0,0,1,65.59,88.24c-1.23.5-2.5.94-3.81,1.33-1.09.71-2.58,1.57-4.87,2.82a52.9,52.9,0,0,1-10.85,4.09c.29-.08-6.72.89-6.75.91h0a47.93,47.93,0,0,0,10.85,1.23,48.68,48.68,0,0,0,42.49-25,15.25,15.25,0,0,0,1.25-2.08,16.88,16.88,0,0,0,1.33-2.82c.13-.34.23-.68.36-1v0h0a60.92,60.92,0,0,0,3-12.51c.08-.68.15-1.39.23-2,0-.26.05-.55.08-.81C99,44.34,97.91,35.35,93.59,31.18Z"/><path class="cls-8" d="M57.66,92c11.45-6.29,21.35-15.59,28.76-25A125.44,125.44,0,0,1,98.85,53.13a8.16,8.16,0,0,0-1-1C89.34,51.36,80.29,64,75.39,70.57c-5.89,7.9-21.25,19.81-35,23.12-8,1.9-15.64-.18-21.27-2.84h0C32,100.5,46.22,98.31,57.66,92Z"/><path class="cls-9" d="M90.38,49.43a11.67,11.67,0,0,0-5.66,1.87c-8.26,5.14-15.85,16.24-23.25,22.45-6,5.06-19.58,17.46-31.86,10.69A26.55,26.55,0,0,1,19.21,74.3a12.62,12.62,0,0,1-2.81.1A11,11,0,0,1,12,73.07C3.75,68.59.44,58.71.44,58.71c.84,4.06,5.79,22.57,18.64,32.14,5.61,2.66,13.24,4.77,21.25,2.84,13.81-3.31,29.14-15.22,35-23.12,3.37-4.51,8.71-11.94,14.5-15.85,2.61-1.77,5.32-2.82,8-2.56A10.77,10.77,0,0,0,90.38,49.43Z"/></g></svg>