<svg id="Layer_1" data-name="Layer 1" xmlns="http://www.w3.org/2000/svg" viewBox="0 0 100 100"><defs><style>.cls-1{fill:#ea4335;}.cls-2{fill:#4285f4;}.cls-3{fill:#34a853;}.cls-4{fill:#fbbc05;}</style></defs><path class="cls-1" d="M63.57,31.82h3.05l8.84-8.53.3-3.66C59.3,5.3,34.61,6.83,20.59,23a39.06,39.06,0,0,0-8.54,15.55,5.28,5.28,0,0,1,3-.3l17.38-2.75s.91-1.52,1.22-1.22a21.82,21.82,0,0,1,29.87-2.44Z"/><path class="cls-2" d="M87.65,38.53a38.62,38.62,0,0,0-11.89-18.9L63.57,31.82A21.22,21.22,0,0,1,71.5,48.89V51a11,11,0,0,1,0,22H49.85l-2.13,2.13V88.22l2.13,2.13H71.5a28.23,28.23,0,0,0,28.34-28A27.74,27.74,0,0,0,87.65,38.53Z"/><path class="cls-3" d="M27.9,90.05H49.55V72.67H27.9a12.24,12.24,0,0,1-4.57-.91l-3,.91-8.84,8.54-.61,3.05A29.59,29.59,0,0,0,27.9,90.05Z"/><path class="cls-4" d="M27.9,33.65A28.24,28.24,0,0,0-.14,62a28.81,28.81,0,0,0,11,22.26l12.5-12.5a11,11,0,0,1-5.18-14.33,10.83,10.83,0,0,1,14.33-5.49A12,12,0,0,1,38,57.43l12.5-12.5A27.47,27.47,0,0,0,27.9,33.65Z"/></svg>