<svg id="Layer_1" data-name="Layer 1" xmlns="http://www.w3.org/2000/svg" viewBox="0 0 100 100"><defs><style>.cls-1{fill:#a6afbd;}.cls-2{fill:#ff3633;}</style></defs><path class="cls-1" d="M13.34,44.31a7.9,7.9,0,0,0-5.06-1.75,8.34,8.34,0,0,0-.09,16.67,7.34,7.34,0,0,0,5.14-1.63c-.17,2.83-1.84,4.2-5.12,4.2a5.55,5.55,0,0,1-4.43-2.32L3.38,59,.29,61.41l.45.51a9.56,9.56,0,0,0,7.41,3.41c6,0,9-3,9-9V42.9H13.34ZM8.64,55.68a4.72,4.72,0,1,1,.08-9.44A4.74,4.74,0,0,1,13.33,51,4.69,4.69,0,0,1,8.64,55.68Z"/><path class="cls-1" d="M28,46.72V42.56H27.3c-1.7,0-3,.1-4.1,1.21V42.9H19.36V59.05H23.2V50c0-2.26,1.06-3.56,2.94-3.56a5.75,5.75,0,0,1,1,.11Z"/><path class="cls-1" d="M34.4,42.56a14.25,14.25,0,0,0-5.62,1.2l-.64.27,1.72,3.3.57-.27a8.58,8.58,0,0,1,3.83-1c1.74,0,3.82.4,3.82,2.35v.26a7.75,7.75,0,0,0-3.95-1.06c-4.87,0-7.1,3-7.1,5.75,0,3.51,2.94,6,7.13,6a6.91,6.91,0,0,0,4.1-1.18V59h3.68V48.25C41.91,44.79,39,42.56,34.4,42.56Zm.19,13.3C32.33,55.86,31,55,31,53.53s1.3-2.34,3.56-2.34,3.56.86,3.56,2.34S36.85,55.86,34.59,55.86Z"/><polygon class="cls-1" points="54 42.9 49.61 53.35 45.27 42.9 40.96 42.9 47.43 58.18 44.39 65.32 48.46 65.32 58.14 42.9 54 42.9"/><path class="cls-2" d="M61.54,36.33v17.8c0,1.75.87,2.35,1.72,2.35h.81V59H63c-2.47,0-4.11-1.4-4.11-4.65v-18Z"/><path class="cls-2" d="M73,43.1a8.18,8.18,0,0,1,8.4,8.12A8,8,0,0,1,73,59.33a8,8,0,0,1-8.39-8.11A8.16,8.16,0,0,1,73,43.1Zm-5.55,8.12a5.54,5.54,0,1,0,11.07,0,5.54,5.54,0,1,0-11.07,0Z"/><path class="cls-2" d="M97.23,43.46H99.9V56.83c0,5.72-2.73,8.7-8.75,8.7a9.34,9.34,0,0,1-7.24-3.34l2.14-1.69a6.48,6.48,0,0,0,5.15,2.68c4.17,0,6-2.08,6-5.54v-1.1h0c-1.47,1.75-3,2.61-6,2.61a8,8,0,0,1,.09-16.07,7.18,7.18,0,0,1,5.9,2.8h.06ZM91.75,45.6a5.6,5.6,0,1,0,5.48,5.62A5.61,5.61,0,0,0,91.75,45.6Z"/><path class="cls-1" d="M69.42,50.77a.59.59,0,0,1,.53.32h.49l.78-1.87a.35.35,0,0,1,.21-.2.3.3,0,0,1,.36.23l.82,3.62L73.45,48h0a.28.28,0,0,1,.22-.24.32.32,0,0,1,.38.23l.9,3.66.46-1.36a.27.27,0,0,1,.12-.16.31.31,0,0,1,.42.07l.39.55c0,.14,0,.27,0,.41a4.28,4.28,0,0,1,0,.52c-.06,0-.1-.06-.15-.1h0L75.78,51l-.59,1.81a.31.31,0,0,1-.39.19.28.28,0,0,1-.2-.21h0l-.81-3.26-.85,5a.32.32,0,0,1-.34.25.31.31,0,0,1-.26-.25l-.91-4.19-.49,1.18a.31.31,0,0,1-.29.19H70a.61.61,0,0,1-1.14-.31A.65.65,0,0,1,69.42,50.77Z"/></svg>