<svg id="Layer_1" data-name="Layer 1" xmlns="http://www.w3.org/2000/svg" viewBox="0 0 100 100"><defs><style>.cls-1,.cls-2,.cls-3{fill:none;stroke-miterlimit:10;}.cls-1,.cls-2{stroke:#284a6a;}.cls-1{stroke-width:0.41px;}.cls-2{stroke-width:0.2px;}.cls-3{stroke:#24405d;stroke-width:0.16px;}.cls-4{fill:#256ea5;}.cls-5{fill:#3378bc;}.cls-6{fill:#169bd6;}.cls-7{fill:#00a8da;}</style></defs><path class="cls-1" d="M50,37.09,39.57,25.35"/><path class="cls-2" d="M17.19,28.06l8.13,11.87"/><path class="cls-1" d="M50,37.11,60.23,25.23m2.15,25,12.2-10.27M62.38,50.2l12.2,10.73M60.35,74.48,50,63M39.57,74.48,50,63M25.33,60.48,37.08,50.2M25.33,39.92,37.08,50.19M50,37.09,25.33,39.92M50,37.09l24.62,2.83"/><path class="cls-1" d="M62.38,50.2l-2.15-25m2.15,25-2,24.28"/><path class="cls-1" d="M74.58,60.93,50,63M25.33,60.47,50,63"/><path class="cls-1" d="M39.57,74.48,37.07,50.2m2.5-24.85L37.07,50.2"/><path class="cls-2" d="M14,43.08l11.29-3.16m2.37-23,11.88,8.47m2.7-13.78L39.57,25.35m2.71-13.78L60.23,25.23"/><path class="cls-2" d="M57.52,11.57l2.71,13.66M72.1,16.88,60.22,25.24m22.49,2.82L60.23,25.23M74.58,39.92,82.71,28M74.58,39.92,86.1,43.08"/><path class="cls-2" d="M74.58,39.92l11.3,17.17M57.52,11.57l-18,13.78"/><path class="cls-2" d="M74.58,39.92l-2.5-23m2.5,44.05,11.3-3.84"/><path class="cls-2" d="M74.58,60.93,86.1,43.08M74.58,60.93l8.13,10.95M74.58,60.93l-2.5,22.14M60.35,74.48,72.1,83.07"/><path class="cls-2" d="M60.35,74.48l22.36-2.59M60.35,74.48l-2.7,13.88m2.7-13.88L42.28,88.36M39.57,74.48l2.71,13.91"/><path class="cls-2" d="M39.57,74.48,57.65,88.36M39.58,74.48,27.71,83.07m11.87-8.59L17.19,72m8.14-11.52L17.19,72"/><path class="cls-2" d="M25.33,60.48,27.7,83.07M25.33,60.48,13.93,57m11.4-17.06L13.93,57"/><path class="cls-2" d="M25.33,60.48,14,43.08M27.7,16.88l-2.37,23"/><path class="cls-2" d="M17.19,28.06l22.36-2.71"/><path class="cls-3" d="M27.7,16.88,19,12.81m8.69,4.07L27,7.39m15.25,4.18L27,7.39"/><path class="cls-3" d="M42.28,11.57l-6.55-8m6.55,8L45,2M27.7,16.88l8-13.33m21.8,8L45,2"/><path class="cls-3" d="M57.52,11.57,54.69,1.63M42.26,11.57,54.69,1.63m2.83,9.94,6.56-8m8,13.33-8-13.33"/><path class="cls-3" d="M72.1,16.88l.79-9.49M57.52,11.57,72.88,7.39m-.78,9.49L81,12.36m-8.9,4.52,15.47,2.37"/><path class="cls-3" d="M82.71,28.06l4.86-8.81m-4.86,8.81L81,12.36m1.69,15.7,10.17-.79m-10.17.79L96.62,36"/><path class="cls-3" d="M86.1,43.08l6.78-15.81M86.1,43.08,96.6,36M86.1,43.08l11.75,2.37m-12,11.64,12-11.64"/><path class="cls-3" d="M85.87,57.09l12.32-2.26M86.1,43.08,98.19,54.83M85.87,57.09l10.51,7M82.71,71.88l13.67-7.79"/><path class="cls-3" d="M82.71,71.88l10.06,1M85.89,57.09,92.77,72.9m-10-1,4.74,8.91m-4.74-8.91L80.92,87.47"/><path class="cls-3" d="M80.9,87.47l-8.8-4.4m0,0,.67,9.84m-.67-9.84,15.35-2.26M72.1,83.07l-8,13.55"/><path class="cls-3" d="M57.65,88.36l6.41,8.24m-6.41-8.24,15.14,4.52M57.65,88.36l-3,10.16m3-10.16L45,98.52"/><path class="cls-3" d="M42.28,88.36,45,98.52M42.28,88.36,54.69,98.52M42.28,88.36,35.84,96.6M27.7,83.07l8.14,13.55"/><path class="cls-3" d="M42.28,88.36,26.92,93.1m.78-10-.79,10.05m.79-10.05-8.8,4.85M17.19,72l1.69,15.92"/><path class="cls-3" d="M27.7,83.07,12.23,80.92m5-8.92-5,8.9m5-8.9L7,73m10.17-1-14-7.8M13.93,57,3.2,64.2M13.93,57,1.73,54.83"/><path class="cls-3" d="M13.93,57,7.05,73m7-29.93L1.73,54.83"/><path class="cls-3" d="M13.93,57,1.73,45.45M14,43.08l-10.51-7"/><path class="cls-3" d="M14,43.08,1.72,45.45M14,43.08,7,27.27"/><path class="cls-3" d="M17.19,28.06,7,27.27m10.17.79-13.66,8m13.66-8L12.34,19.7m4.85,8.36L19,12.81"/><path class="cls-3" d="M27.7,16.88,12.34,19.7"/><path class="cls-4" d="M31,56.07l.09-11.88L43,44.28l-.08,11.87ZM43.89,43,44,31.11l11.88.09-.08,11.87Zm0,26.05L44,57.16l11.88.08-.08,11.88ZM56.85,56l.09-11.88,11.88.09L68.74,56Z"/><path class="cls-5" d="M56.17,29.37l.06-8.25,8.28.06-.06,8.24Zm-20.7,0,.06-8.24,8.28.06-.06,8.24ZM21.14,44.05l.05-8.24,8.29,0-.06,8.25Zm0,20.72.08-8.25,8.28.09-.09,8.24Zm49.37-.16.06-8.25,8.28.06-.06,8.25Zm.17-20.5.08-8.25L79,36l-.09,8.24Z"/><path class="cls-6" d="M14.42,30.75l0-5.42,5.41,0,0,5.42ZM25,19.72l0-5.43,5.41,0,0,5.42Zm14.57-5.46,0-5.42,5.41,0,0,5.42ZM11.24,45.77l0-5.43,5.37,0,0,5.42ZM80,25.4l5.42,0,0,5.41-5.42,0ZM69.4,14.18l5.42,0,0,5.41-5.42,0ZM54.79,8.86l5.42,0,0,5.42-5.43,0ZM83.13,40.4l5.42,0,0,5.41-5.42,0Z"/><path class="cls-5" d="M35.35,78.83l.06-8.25,8.28.06-.06,8.25Zm20.71,0,0-8.25,8.29.06-.06,8.25Z"/><path class="cls-6" d="M79.94,74.66l0-5.43,5.41,0,0,5.42ZM69.48,85.8l0-5.42,5.42,0,0,5.42ZM54.91,91.15l0-5.43,5.41,0,0,5.42ZM83.13,59.64l0-5.42,5.42,0,0,5.42ZM14.44,69.23l5.42,0,0,5.41-5.43,0ZM25,80.34l5.42,0,0,5.41-5.43,0Zm14.49,5.32,5.42,0L45,91l-5.42,0ZM11.28,54.23l5.42,0,0,5.41-5.42,0Z"/><path id="a" class="cls-7" d="M91.32,28.72l0-2.94,3,0,0,2.94Z"/><path id="a-2" data-name="a" class="cls-7" d="M95.18,37.59l0-2.93,3,0,0,2.93Z"/><path id="a-3" data-name="a" class="cls-7" d="M86.09,20.87l0-2.94,3,0,0,2.94Z"/><path id="a-4" data-name="a" class="cls-7" d="M17.5,14.16l0-2.94,3,0,0,2.94Z"/><path id="a-5" data-name="a" class="cls-7" d="M.32,46.92.34,44l3,0,0,2.94Z"/><path id="a-6" data-name="a" class="cls-7" d="M79.49,14.16l0-2.94,3,0,0,2.94Z"/><path id="a-7" data-name="a" class="cls-7" d="M2,37.59l0-2.94,3,0,0,2.94Z"/><path id="a-8" data-name="a" class="cls-7" d="M34.33,5.06l0-2.94,3,0,0,2.94Z"/><path id="a-9" data-name="a" class="cls-7" d="M5.67,28.72l0-2.94,3,0,0,2.94Z"/><path id="a-10" data-name="a" class="cls-7" d="M11,20.76l0-2.94,3,0,0,2.94Z"/><path class="cls-7" d="M25.51,5.91l2.94,0,0,3-2.94,0ZM43.66.13l2.94,0,0,3-2.94,0Z"/><path id="a-11" data-name="a" class="cls-7" d="M71.52,8.93l0-2.94,3,0,0,2.94Z"/><path id="a-12" data-name="a" class="cls-7" d="M96.66,46.81l0-2.94,3,0,0,2.94Z"/><path class="cls-7" d="M53.21,3l0-2.94,3,0,0,2.94Z"/><path id="a-13" data-name="a" class="cls-7" d="M62.54,5l0-2.94,3,0,0,2.94Z"/><path id="a-14" data-name="a" class="cls-7" d="M79.49,89l0-2.93,3,0,0,2.93Z"/><path id="a-15" data-name="a" class="cls-7" d="M96.66,56.25l0-2.94,3,0,0,2.94Z"/><path id="a-16" data-name="a" class="cls-7" d="M17.5,89l0-2.93,3,0,0,2.93Z"/><path id="a-17" data-name="a" class="cls-7" d="M95.18,65.7l0-2.93,3,0,0,2.93Z"/><path id="a-18" data-name="a" class="cls-7" d="M62.54,98.22l0-2.94,3,0,0,2.94Z"/><path id="a-19" data-name="a" class="cls-7" d="M91.32,74.56l0-2.94,3,0,0,2.94Z"/><path id="a-20" data-name="a" class="cls-7" d="M86.08,82.52l0-2.94,3,0,0,2.94Z"/><path class="cls-7" d="M71.4,91.54l2.94,0,0,3-2.93,0Zm-18,5.54,2.94,0,0,3-2.94,0Z"/><path id="a-21" data-name="a" class="cls-7" d="M25.57,94.58l0-2.94,3,0,0,2.94Z"/><path id="a-22" data-name="a" class="cls-7" d="M5.55,74.44l0-2.93,3,0,0,2.93Z"/><path id="a-23" data-name="a" class="cls-7" d="M2,65.69l0-2.94,3,0,0,2.94Z"/><path id="a-24" data-name="a" class="cls-7" d="M10.9,82.52l0-2.94,3,0,0,2.94Z"/><path id="a-25" data-name="a" class="cls-7" d="M.32,56.24l0-2.93,3,0,0,2.94Z"/><path id="a-26" data-name="a" class="cls-7" d="M43.77,100l0-2.94,3,0,0,2.94Z"/><path id="a-27" data-name="a" class="cls-7" d="M34.22,98.1l0-2.93,3,0,0,2.93Z"/></svg>