<svg id="Layer_1" data-name="Layer 1" xmlns="http://www.w3.org/2000/svg" viewBox="0 0 100 100"><defs><style>.cls-1{fill:#961d59;}.cls-1,.cls-2{fill-rule:evenodd;}.cls-2,.cls-3{fill:#d62783;}</style></defs><g id="Layer_2" data-name="Layer 2"><g id="Logo"><path class="cls-1" d="M48.4,60.36a10.29,10.29,0,1,1,.1,0h-.1"/><path class="cls-2" d="M68.55,54.73A4.77,4.77,0,1,1,73.33,50h0a4.75,4.75,0,0,1-4.75,4.77h0"/><path class="cls-2" d="M86,59.24h0a4.59,4.59,0,1,1,.1-.38.56.56,0,0,1-.1.38"/><path class="cls-2" d="M82.65,46.93a4.78,4.78,0,1,1,3.49-5.8v.06a4.9,4.9,0,0,1,0,1.87A4.61,4.61,0,0,1,82.56,47"/><path class="cls-2" d="M99.65,58.72a4.08,4.08,0,1,1,.14-.44,1.27,1.27,0,0,0-.09.42"/><path class="cls-2" d="M95.75,46.72a4.76,4.76,0,1,1,3.92-5.48,5.14,5.14,0,0,1,0,1.24,4.73,4.73,0,0,1-3.92,4.24"/><path class="cls-2" d="M92.43,75.25h0a4.86,4.86,0,1,1,.59-2,4.26,4.26,0,0,1-.59,2"/><path class="cls-2" d="M90.7,31.37a4.79,4.79,0,1,1,1.83-6.52,4.44,4.44,0,0,1,.59,2.76,4.77,4.77,0,0,1-2.4,3.72"/><path class="cls-3" d="M48.59,98.08A48,48,0,1,1,47,2.08c.52,0,1,0,1.55,0A47.5,47.5,0,0,1,77.73,12l-5.86,7.65a38.33,38.33,0,1,0,0,60.92l5.85,7.66A47.62,47.62,0,0,1,48.59,98.08Z"/></g></g></svg>