<svg id="Layer_1" data-name="Layer 1" xmlns="http://www.w3.org/2000/svg" viewBox="0 0 100 100"><defs><style>.cls-1{fill:#1e5f90;}.cls-2{fill:#fff;}</style></defs><rect class="cls-1" x="24.98" y="38.47" width="50.39" height="23.06" rx="3"/><path class="cls-2" d="M40.17,55.65H38v-4.4H34v4.4H31.81V45.46H34v4h4v-4h2.16Z"/><path class="cls-2" d="M47.38,55.65H45.22V47.26H42.45v-1.8h7.7v1.8H47.38Z"/><path class="cls-2" d="M56.37,55.65H54.2V47.26H51.44v-1.8h7.69v1.8H56.37Z"/><path class="cls-2" d="M68.46,48.64a3.13,3.13,0,0,1-1,2.51A4.42,4.42,0,0,1,64.5,52h-.92v3.63H61.42V45.46h3.25a4.27,4.27,0,0,1,2.82.8A2.91,2.91,0,0,1,68.46,48.64Zm-4.88,1.61h.71a2.39,2.39,0,0,0,1.49-.39,1.38,1.38,0,0,0,.49-1.15,1.4,1.4,0,0,0-.41-1.12,2,2,0,0,0-1.3-.36h-1Z"/></svg>