<svg id="Layer_1" data-name="Layer 1" xmlns="http://www.w3.org/2000/svg" viewBox="0 0 100 100"><defs><style>.cls-1,.cls-3{fill:#127cc1;}.cls-2,.cls-3{isolation:isolate;}.cls-3{font-size:4.74px;font-family:ArialMT, Arial;}</style></defs><path id="path6" class="cls-1" d="M99.57,35.71c-4.72-22.94-49.12-24.4-77.75-6.91v1.94C50.42,16,91,16.08,94.68,37.23c1.26,7-2.69,14.28-9.69,18.48V61.2C93.42,58.05,102.05,48,99.57,35.71M47.51,75.88c-19.77,1.83-40.35-1-43.23-16.54C2.85,51.71,6.33,43.6,10.93,38.57V35.88C2.65,43.17-1.87,52.4.73,63.31c3.32,14,21,21.89,48,19.26,10.68-1,24.66-4.49,34.34-9.83v-7.6C74.22,70.4,59.65,74.77,47.51,75.88Z"/><path id="path8" class="cls-1" d="M81.45,32.4H76.28V55.57c0,2.71,1.29,5.08,5.17,5.46"/><path id="path10" class="cls-1" d="M19.76,40.85h-5.2V56c0,2.71,1.29,5.08,5.18,5.45"/><rect id="rect12" class="cls-1" x="14.56" y="33.08" width="5.17" height="4.94"/><path id="path14" class="cls-1" d="M50.79,61.23a5.56,5.56,0,0,1-6-5.83V35.31h5.12v5.54h3.88V45H49.94v10a1.61,1.61,0,0,0,1.8,1.83h2.08V61.2h-3"/><path id="path16" class="cls-1" d="M64.42,44.77a4,4,0,0,0-3.68,2.14,5.5,5.5,0,0,0-.52,2.23h7.94c-.11-2.23-1.11-4.37-3.74-4.37m-4.2,7.88a4.3,4.3,0,0,0,4.57,4.58,5.75,5.75,0,0,0,4.72-1.95l3.17,3.06a10.19,10.19,0,0,1-7.94,3.23c-4.92,0-9.63-2.69-9.63-10.54,0-6.72,4.11-10.52,9.51-10.52s8.63,4.43,8.63,10.26v1.86l-13,0"/><path id="path18" class="cls-1" d="M33.71,45c1.51,0,2.11.74,2.11,1.94V61.23H41V46.94c0-2.91-1.54-6.11-6.05-6.11H24.31V61.2h5.11V45"/><g class="cls-2"><text class="cls-3" transform="translate(84.39 35.78) scale(1.02 1)">®</text></g></svg>