<svg id="Layer_1" data-name="Layer 1" xmlns="http://www.w3.org/2000/svg" xmlns:xlink="http://www.w3.org/1999/xlink" viewBox="0 0 100 100"><defs><style>.cls-1{fill:none;}.cls-2{fill:#326de6;}.cls-3{fill:#fff;}.cls-4{clip-path:url(#clip-path);}.cls-5{fill:url(#linear-gradient);}.cls-6{clip-path:url(#clip-path-2);}.cls-7{fill:url(#linear-gradient-2);}</style><clipPath id="clip-path"><path class="cls-1" d="M48,120.68,8.82,143.3a4.73,4.73,0,0,0-2.37,4.1v45.28a4.7,4.7,0,0,0,2.37,4.09L48,219.41a4.71,4.71,0,0,0,4.73,0l39.19-22.64a4.73,4.73,0,0,0,2.37-4.09V147.4a4.74,4.74,0,0,0-2.38-4.1L52.75,120.68a4.77,4.77,0,0,0-4.74,0"/></clipPath><linearGradient id="linear-gradient" x1="-60.91" y1="399.07" x2="-59.8" y2="399.07" gradientTransform="matrix(-50.75, 103.54, 103.54, 50.75, -44330.81, -13834.9)" gradientUnits="userSpaceOnUse"><stop offset="0.3" stop-color="#3e863d"/><stop offset="0.5" stop-color="#55934f"/><stop offset="0.8" stop-color="#5aad45"/></linearGradient><clipPath id="clip-path-2"><path class="cls-1" d="M7.43,195.55a4.54,4.54,0,0,0,1.39,1.22l33.62,19.42,5.6,3.22a4.7,4.7,0,0,0,2.73.62,4.23,4.23,0,0,0,.93-.17L93,144.17a4.91,4.91,0,0,0-1.1-.87L66.27,128.48l-13.56-7.81a5,5,0,0,0-1.23-.49Z"/></clipPath><linearGradient id="linear-gradient-2" x1="-58.83" y1="402.66" x2="-58.11" y2="402.66" gradientTransform="matrix(142.41, -105.22, -105.22, -142.41, 50746.28, 51360.09)" gradientUnits="userSpaceOnUse"><stop offset="0.57" stop-color="#3e863d"/><stop offset="0.72" stop-color="#619857"/><stop offset="1" stop-color="#76ac64"/></linearGradient></defs><path id="path10349" class="cls-2" d="M91.25,23.17a7.36,7.36,0,0,0-3.66-4.23L52.71,2.24a6.32,6.32,0,0,0-2.85-.57A12,12,0,0,0,47,1.9L12.12,18.71a6.12,6.12,0,0,0-3.43,4.23L.11,60.56a7.25,7.25,0,0,0,1.26,5.49L25.5,95.9a8.34,8.34,0,0,0,5.26,2.4H69.18a5.71,5.71,0,0,0,5.26-2.4L98.57,66.05a7.83,7.83,0,0,0,1.37-5.49L91.25,23.17Z"/><path id="path10351" class="cls-3" d="M85.45,58.39h0c-.11,0-.22,0-.22-.11s-.23-.12-.46-.12a5.8,5.8,0,0,0-1.37-.11,1.4,1.4,0,0,1-.69-.12H82.6a23,23,0,0,1-3.89-.68,1.37,1.37,0,0,1-.8-.8h0L77,56.22a30,30,0,0,0-.45-10.07,31.27,31.27,0,0,0-4-9.37l.69-.69h0V36a1.58,1.58,0,0,1,.34-1,20.6,20.6,0,0,1,3.2-2.29h0l.69-.34c.46-.23.8-.46,1.26-.69.11-.11.23-.11.34-.23s0-.11,0-.23h0a2.23,2.23,0,0,0,.46-3.2,2.17,2.17,0,0,0-1.6-.8,2.73,2.73,0,0,0-1.6.57h0l-.12.12c-.11.11-.23.23-.34.23a7.18,7.18,0,0,0-.92,1c-.11.22-.34.34-.45.45h0a15,15,0,0,1-2.86,2.52,1.71,1.71,0,0,1-.69.23.68.68,0,0,1-.46-.12h-.11l-.91.58c-.92-.92-2-1.83-2.86-2.75a29.37,29.37,0,0,0-14.87-6l-.11-.91h0v.11a1.55,1.55,0,0,1-.58-.91,22.72,22.72,0,0,1,.23-3.89v-.11c0-.23.12-.46.12-.69.11-.46.11-.91.23-1.37v-.69h0a2.26,2.26,0,0,0-2-2.4,2.31,2.31,0,0,0-1.94.8,2.26,2.26,0,0,0-.69,1.6h0v.57a6,6,0,0,0,.23,1.38,1.46,1.46,0,0,1,.11.68v.12a21.31,21.31,0,0,1,.23,3.88,1.56,1.56,0,0,1-.57.92v.23h0l-.11.91c-1.26.12-2.52.35-3.89.57a27.35,27.35,0,0,0-14.07,8l-.68-.46h-.12c-.11,0-.23.12-.45.12a1.71,1.71,0,0,1-.69-.23,21.3,21.3,0,0,1-2.86-2.63h0a1.54,1.54,0,0,0-.46-.46c-.34-.34-.57-.69-.91-1-.12-.11-.23-.11-.34-.23l-.12-.11h0a2.69,2.69,0,0,0-1.6-.57,1.71,1.71,0,0,0-1.6.8,2.45,2.45,0,0,0,.46,3.2h0a.11.11,0,0,1,.11.11s.23.23.34.23a13,13,0,0,0,1.26.69l.69.34h0A16.14,16.14,0,0,1,25.19,35a1.13,1.13,0,0,1,.34,1v-.12h0l.69.69c-.12.23-.23.34-.34.57a27.12,27.12,0,0,0-4,18.75L21,56.1h0a.12.12,0,0,1-.12.12,1.76,1.76,0,0,1-.8.8,21,21,0,0,1-3.88.68h0a1.4,1.4,0,0,0-.69.12c-.46,0-.92.11-1.37.11-.12,0-.23.12-.46.12s-.11,0-.23.11h0a2.23,2.23,0,0,0-1.83,2.63h0a2.12,2.12,0,0,0,2.29,1.6,1.06,1.06,0,0,0,.57-.11h0c.11,0,.11,0,.11-.12s.35,0,.46,0c.46-.11.92-.34,1.26-.45a1.57,1.57,0,0,1,.69-.23h.11a20.34,20.34,0,0,1,3.77-1H21a1.29,1.29,0,0,1,.91.34.12.12,0,0,1,.12.12h0l1-.12a27.55,27.55,0,0,0,9.37,13.38,18.26,18.26,0,0,0,3.09,2.06l-.57.8h0a.11.11,0,0,0,.11.11,1.38,1.38,0,0,1,.12,1.15,18.43,18.43,0,0,1-1.83,3.31v.12a2.09,2.09,0,0,1-.46.57c-.23.23-.46.69-.8,1.14-.11.12-.11.23-.23.35a.11.11,0,0,1-.11.11h0A2.35,2.35,0,0,0,32.62,87a2.2,2.2,0,0,0,.8.23,2.57,2.57,0,0,0,2.18-1.37h0s0-.12.11-.12.11-.23.23-.34c.11-.46.34-.8.46-1.26l.23-.69h0a19.32,19.32,0,0,1,1.48-3.54A1.82,1.82,0,0,1,39,79.2c.11,0,.11,0,.11-.11h0l.46-.92A26.88,26.88,0,0,0,49.55,80a22.93,22.93,0,0,0,6.17-.8,32.57,32.57,0,0,0,3.66-1l.46.8h0c.11,0,.11,0,.11.12a1.75,1.75,0,0,1,.92.68,20.18,20.18,0,0,1,1.49,3.55v.11l.22.69A4.17,4.17,0,0,0,63,85.38c.12.11.12.23.23.34s0,.12.11.12h0a2.57,2.57,0,0,0,2.18,1.37,2.77,2.77,0,0,0,.91-.23,1.91,1.91,0,0,0,1-1.26A2.87,2.87,0,0,0,67.39,84h0a.12.12,0,0,0-.12-.12c0-.11-.11-.23-.23-.34a4.08,4.08,0,0,0-.8-1.15,2.2,2.2,0,0,0-.45-.57V81.6A13.15,13.15,0,0,1,64,78.29a1.34,1.34,0,0,1,.11-1.15.11.11,0,0,1,.11-.11h0l-.34-.91A28.31,28.31,0,0,0,76.19,60.56l.92.12h0c.11,0,.11-.12.11-.12a1.29,1.29,0,0,1,.92-.34h.11a19,19,0,0,1,3.66,1H82a1.71,1.71,0,0,0,.69.23,5.85,5.85,0,0,0,1.26.57c.11,0,.23.11.46.11s.11,0,.22.12h0a1.09,1.09,0,0,0,.58.11,2.47,2.47,0,0,0,2.28-1.6,2.69,2.69,0,0,0-2.06-2.4Zm-33-3.54-3.09,1.48-3.09-1.48-.8-3.32,2.17-2.75H51l2.18,2.75Zm18.64-7.44a21.94,21.94,0,0,1,.45,7.21L60.64,51.53h0a1.87,1.87,0,0,1-1.37-2.29,1.9,1.9,0,0,1,.45-.8l8.58-7.77A23.33,23.33,0,0,1,71.05,47.41Zm-6.18-11-9.38,6.64A2,2,0,0,1,53,42.61a1,1,0,0,1-.35-.8L52,30.26a21.51,21.51,0,0,1,12.92,6.17ZM44.17,30.6l2.29-.45-.57,11.43h0a1.91,1.91,0,0,1-2,1.83,2.54,2.54,0,0,1-.91-.23l-9.49-6.75A22.81,22.81,0,0,1,44.17,30.6Zm-14,10.07,8.46,7.54h0a1.84,1.84,0,0,1,.23,2.63,1.26,1.26,0,0,1-.91.57L26.91,54.62A24,24,0,0,1,30.22,40.67ZM28.28,60,39.6,58.05a1.87,1.87,0,0,1,1.94,1.48,1.34,1.34,0,0,1-.11,1.15h0L37.08,71.2A22.48,22.48,0,0,1,28.28,60Zm26,14.18a23.48,23.48,0,0,1-4.92.57,25.55,25.55,0,0,1-7.21-1.14l5.61-10.18A1.78,1.78,0,0,1,50,63a5.19,5.19,0,0,1,.92.81h0l5.49,9.94A19.32,19.32,0,0,0,54.24,74.17Zm13.95-10a21.81,21.81,0,0,1-6.86,6.86L56.87,60.33a1.85,1.85,0,0,1,1-2.17,3.42,3.42,0,0,1,1-.23l11.44,2A17.28,17.28,0,0,1,68.19,64.22Z"/><g class="cls-4"><path class="cls-5" d="M133.91,139.46,23.47,85.33-33.15,200.84,77.28,255Z"/></g><g class="cls-6"><path class="cls-7" d="M-40.32,155.47,37.66,261l103.13-76.2L62.8,79.28Z"/></g></svg>