<svg id="Layer_1" data-name="Layer 1" xmlns="http://www.w3.org/2000/svg" viewBox="0 0 100 100"><defs><style>.cls-1{fill:#1e5f90;}.cls-2{fill:#fff;}</style></defs><rect class="cls-1" x="24.22" y="38.47" width="51.82" height="23.06" rx="3"/><path class="cls-2" d="M31.27,55.65V45.46h2.16v8.4h4.13v1.79Z"/><path class="cls-2" d="M48.5,50.46a5,5,0,0,1-1.43,3.85,5.84,5.84,0,0,1-4.14,1.34H40.05V45.46h3.2a5.41,5.41,0,0,1,3.87,1.31A4.86,4.86,0,0,1,48.5,50.46Zm-2.24,0q0-3.28-2.9-3.28H42.21v6.63h.93C45.22,53.86,46.26,52.75,46.26,50.51Z"/><path class="cls-2" d="M57.57,55.65l-.74-2.43H53.12l-.74,2.43H50.05l3.59-10.23h2.65L59.9,55.65Zm-1.26-4.24-1.15-3.73c-.08-.29-.15-.51-.18-.68q-.24.89-1.32,4.41Z"/><path class="cls-2" d="M68.94,48.64a3.13,3.13,0,0,1-1,2.51A4.42,4.42,0,0,1,65,52h-.92v3.63H61.89V45.46h3.26a4.27,4.27,0,0,1,2.82.8A2.91,2.91,0,0,1,68.94,48.64Zm-4.88,1.61h.71a2.39,2.39,0,0,0,1.49-.39,1.38,1.38,0,0,0,.49-1.15,1.4,1.4,0,0,0-.41-1.12,2,2,0,0,0-1.3-.36h-1Z"/></svg>