<svg id="Layer_1" data-name="Layer 1" xmlns="http://www.w3.org/2000/svg" viewBox="0 0 100 100"><path d="M73.76,46.88a8,8,0,0,1,2.08,0,7.13,7.13,0,0,0,.1-3.92c-.5-2.38-1.17-3.82-2.56-3.6s-1.45,2-.95,4.33A8.11,8.11,0,0,0,73.76,46.88Z"/><path d="M61.83,48.77c1,.43,1.6.72,1.84.47s.11-.46-.13-.85A5.88,5.88,0,0,0,61,46.32a7,7,0,0,0-6.82.82c-.67.49-1.3,1.16-1.21,1.57,0,.14.13.24.36.27.55.06,2.47-.91,4.68-1A8.07,8.07,0,0,1,61.83,48.77Z"/><path d="M59.82,49.91a4.66,4.66,0,0,0-2.47,1,1.59,1.59,0,0,0-.63,1,.32.32,0,0,0,.1.24.32.32,0,0,0,.21.08A3.9,3.9,0,0,0,58,52a8.3,8.3,0,0,1,4.18-.44c.65.08,1,.12,1.1-.11a.37.37,0,0,0,0-.41A3.78,3.78,0,0,0,59.82,49.91Z"/><path d="M69.73,54.1a1.61,1.61,0,0,0,2.17-.38,1.6,1.6,0,0,0-1-1.94,1.57,1.57,0,0,0-2.16.38C68.39,52.8,68.85,53.67,69.73,54.1Z"/><path d="M75.39,49.16c-.72,0-1.31.77-1.32,1.75s.54,1.78,1.26,1.8,1.31-.78,1.32-1.76S76.1,49.17,75.39,49.16Z"/><path d="M27.37,66.83c-.17-.22-.47-.15-.75-.09a2.69,2.69,0,0,1-.66.1,1.47,1.47,0,0,1-1.23-.62,2.29,2.29,0,0,1,.06-2.1l.16-.38c.58-1.29,1.54-3.44.46-5.49a4.84,4.84,0,0,0-3.72-2.71A4.78,4.78,0,0,0,17.59,57,5.92,5.92,0,0,0,16.06,62c.12.31.29.4.42.41s.67-.16.91-.83a1.94,1.94,0,0,0,.08-.21,6.38,6.38,0,0,1,.65-1.55,2.81,2.81,0,0,1,1.79-1.23,2.87,2.87,0,0,1,2.19.4,2.8,2.8,0,0,1,1.06,3.38,7.92,7.92,0,0,0-.55,3c.18,2.13,1.49,3,2.66,3.08a2.28,2.28,0,0,0,2.15-1.07A.45.45,0,0,0,27.37,66.83Z"/><path d="M93.43,62.94c-.05-.16-.33-1.19-.72-2.44a20.3,20.3,0,0,0-.79-2.13,7.74,7.74,0,0,0,1.38-5.63,7,7,0,0,0-2.07-4c-1.23-1.3-3.75-2.63-7.3-3.62l-1.86-.52c0-.07-.1-4.38-.18-6.23a21.24,21.24,0,0,0-.82-5.48,14.64,14.64,0,0,0-3.8-6.78C81.91,21.3,84.8,16,84.79,11.47c0-8.73-10.73-11.37-23.94-5.9l-2.8,1.19s-5.06-5-5.13-5C37.85-11.41-9.23,40.93,5.82,53.64l3.29,2.79A16.13,16.13,0,0,0,8.2,63.9a14.67,14.67,0,0,0,5.08,9.44,15.39,15.39,0,0,0,10,4C29.11,90.86,42.49,99.14,58.19,99.6c16.83.5,31-7.4,36.89-21.59a29.63,29.63,0,0,0,2-9.44C97.11,64.59,94.86,62.94,93.43,62.94ZM24.54,73.56a8.08,8.08,0,0,1-1.56.11C17.9,73.54,12.4,69,11.86,63.53c-.6-6,2.46-10.62,7.89-11.72A9.48,9.48,0,0,1,22,51.65c3,.17,7.52,2.5,8.55,9.13C31.48,66.65,30,72.62,24.54,73.56ZM18.86,48.22a13,13,0,0,0-8.18,5.22,22.05,22.05,0,0,1-3.47-3.35c-2.91-5.52,3.17-16.26,7.42-22.32,10.5-15,26.94-26.32,34.56-24.27,1.23.35,5.33,5.11,5.33,5.11a107,107,0,0,0-14.66,10.1C30.35,26,23.17,36.68,18.86,48.22Zm53.38,23.1a.29.29,0,0,0,.17-.3.27.27,0,0,0-.3-.25,35.6,35.6,0,0,1-15.5-1.58c.82-2.66,3-1.7,6.3-1.43A46.33,46.33,0,0,0,78.1,66.12a34.84,34.84,0,0,0,11.36-5.65,23.06,23.06,0,0,1,1.59,5.41,2.61,2.61,0,0,1,1.67.3c.71.44,1.24,1.36.88,3.73a20.67,20.67,0,0,1-5.78,11.33,23.86,23.86,0,0,1-6.94,5.19,29.59,29.59,0,0,1-4.53,1.91c-11.93,3.9-24.14-.38-28.08-9.58a15.23,15.23,0,0,1-.79-2.18c-1.67-6.06-.25-13.33,4.2-17.91h0a1.59,1.59,0,0,0,.56-1.07,1.87,1.87,0,0,0-.43-1c-1.56-2.26-7-6.11-5.87-13.56.78-5.35,5.46-9.12,9.82-8.89l1.1.06c1.9.11,3.55.36,5.1.42A10.16,10.16,0,0,0,69.68,32a6,6,0,0,1,3-1.67,3.77,3.77,0,0,1,1.13-.11,3.72,3.72,0,0,1,1.9.61c2.23,1.48,2.54,5.06,2.66,7.69.06,1.49.24,5.12.31,6.16.14,2.37.76,2.71,2,3.13.71.23,1.37.4,2.34.68,2.95.82,4.69,1.66,5.79,2.74a3.66,3.66,0,0,1,1.06,2.07c.34,2.53-2,5.66-8.09,8.51a41.29,41.29,0,0,1-20.44,3.27l-2-.23c-4.49-.6-7,5.2-4.36,9.18,1.74,2.56,6.47,4.22,11.2,4.22,10.85,0,19.19-4.63,22.29-8.63a2.34,2.34,0,0,0,.25-.35c.15-.23,0-.36-.16-.23-2.54,1.74-13.79,8.62-25.84,6.55A15.87,15.87,0,0,1,60,74.87c-1.07-.41-3.29-1.44-3.56-3.72C66.12,74.16,72.24,71.32,72.24,71.32ZM56.85,69.5ZM38.25,27.71A44.56,44.56,0,0,1,50.7,17.54a.16.16,0,0,1,.22.22,11.86,11.86,0,0,0-1.16,2.82.17.17,0,0,0,.26.18A24.16,24.16,0,0,1,60.94,16.9a.18.18,0,0,1,.12.31,9.09,9.09,0,0,0-1.72,1.73.16.16,0,0,0,.13.26,21.46,21.46,0,0,1,9.13,2.39c.17.1.05.43-.14.39a37.09,37.09,0,0,0-16.54,0A38,38,0,0,0,38.48,28,.17.17,0,0,1,38.25,27.71Z"/></svg>