<svg id="Layer_1" data-name="Layer 1" xmlns="http://www.w3.org/2000/svg" xmlns:xlink="http://www.w3.org/1999/xlink" viewBox="0 0 100 100"><defs><style>.cls-1{fill:none;}.cls-2{fill:url(#linear-gradient);}.cls-3{fill:#c83737;}.cls-4,.cls-5{isolation:isolate;}.cls-4{opacity:0.1;}.cls-5{fill:#fff;opacity:0.3;}.cls-6{clip-path:url(#clip-path);}.cls-7{fill:url(#linear-gradient-2);}.cls-8{clip-path:url(#clip-path-2);}.cls-9{fill:url(#linear-gradient-3);}</style><linearGradient id="linear-gradient" x1="-4877.27" y1="-477.22" x2="-4877.31" y2="-477.15" gradientTransform="matrix(1567.75, 0, 0, -1504.18, 7646409.66, -717728.28)" gradientUnits="userSpaceOnUse"><stop offset="0" stop-color="#268d83"/><stop offset="1" stop-color="#2ea19e"/></linearGradient><clipPath id="clip-path"><path class="cls-1" d="M-72,120.68l-39.2,22.62a4.73,4.73,0,0,0-2.37,4.1v45.28a4.7,4.7,0,0,0,2.37,4.09L-72,219.41a4.71,4.71,0,0,0,4.73,0l39.19-22.64a4.73,4.73,0,0,0,2.37-4.09V147.4a4.74,4.74,0,0,0-2.38-4.1l-39.18-22.62a4.75,4.75,0,0,0-2.37-.63,4.75,4.75,0,0,0-2.37.63"/></clipPath><linearGradient id="linear-gradient-2" x1="-180.91" y1="399.07" x2="-179.8" y2="399.07" gradientTransform="matrix(-50.75, 103.54, 103.54, 50.75, -50541.19, -1410.58)" gradientUnits="userSpaceOnUse"><stop offset="0.3" stop-color="#3e863d"/><stop offset="0.5" stop-color="#55934f"/><stop offset="0.8" stop-color="#5aad45"/></linearGradient><clipPath id="clip-path-2"><path class="cls-1" d="M-112.57,195.55a4.54,4.54,0,0,0,1.39,1.22l33.62,19.42,5.6,3.22a4.7,4.7,0,0,0,2.73.62,4.23,4.23,0,0,0,.93-.17L-27,144.17a4.91,4.91,0,0,0-1.1-.87l-25.67-14.82-13.56-7.81a5,5,0,0,0-1.23-.49Z"/></clipPath><linearGradient id="linear-gradient-3" x1="-178.83" y1="402.66" x2="-178.11" y2="402.66" gradientTransform="matrix(142.41, -105.22, -105.22, -142.41, 67715.16, 38733.43)" gradientUnits="userSpaceOnUse"><stop offset="0.57" stop-color="#3e863d"/><stop offset="0.72" stop-color="#619857"/><stop offset="1" stop-color="#76ac64"/></linearGradient></defs><path class="cls-2" d="M4.81,2.26C-3,51.79,1.06,98.18,1.06,98.18H25.52C23.19,85.81,14.86,29.3,21.8,29.11c3.72.58,20.71,47.94,20.71,47.94A72.14,72.14,0,0,1,50,76.6a71.82,71.82,0,0,1,7.49.45s17-47.36,20.71-47.94c7,.19-1.39,56.7-3.71,69.07H98.92S103,51.79,95.21,2.26H72.59C68.29,2.32,51.91,31,50,31S31.75,2.32,27.42,2.26Z"/><path class="cls-3" d="M45.19,92.4a5.78,5.78,0,1,1-5.78-5.78A5.77,5.77,0,0,1,45.19,92.4Z"/><path class="cls-3" d="M66.39,92.4a5.79,5.79,0,1,1-5.78-5.78A5.78,5.78,0,0,1,66.39,92.4Z"/><path class="cls-4" d="M94.05,3.87a434.44,434.44,0,0,1,4.29,63.84c-.06,17.45-1.06,28.79-1.06,28.79H76.7l-2.2,1.65H98.92S103,51.75,95.21,2.22L94.05,3.87ZM29.3,3.29C35.73,10.43,46.81,29.4,48.36,29.4,44.29,24.16,34.27,7.56,29.3,3.29ZM20.12,27.46c-6.94.19,1.39,56.7,3.72,69.07H2.51L1.06,98.18H25.52c-2.33-12.31-10.6-68.3-3.85-69.07-.61-.94-1.16-1.59-1.55-1.65Zm56.45,0C72.85,28,55.86,75.4,55.86,75.4a72.14,72.14,0,0,0-7.5-.45c-2.23,0-4.14.13-5.43.26l-.42,1.87a72.14,72.14,0,0,1,7.5-.45,71.07,71.07,0,0,1,7.49.45S74.37,30,78.18,29.11c-.42-1-.94-1.62-1.61-1.65Z"/><path class="cls-5" d="M4.81,2.26C-3,51.79,1.06,98.18,1.06,98.18l1.45-1.61C1.77,85.61-.2,46,6.45,3.9H29.07a3.44,3.44,0,0,1,1.88,1c-1.49-1.65-2.72-2.68-3.53-2.68Zm67.75,0C68.26,2.32,51.88,31,50,31c.77,1,1.38,1.65,1.64,1.65C53.5,32.69,69.88,4,74.21,3.9h20l1-1.64ZM23.35,30.75c5.5,8.24,19.16,46.3,19.16,46.3l.39-1.84C39.54,66,26.68,31.3,23.45,30.79c0,0-.06,0-.1,0Zm56.51,0c3.68,9.41-3.29,56.29-5.39,67.4l2.23-1.74C79.54,79.86,86.36,31,79.86,30.75Z"/><g class="cls-6"><path class="cls-7" d="M13.91,139.46-96.53,85.33l-56.62,115.51L-42.72,255Z"/></g><g class="cls-8"><path class="cls-9" d="M-160.32,155.47l78,105.55,103.13-76.2-78-105.54Z"/></g></svg>