<svg id="Layer_1" data-name="Layer 1" xmlns="http://www.w3.org/2000/svg" viewBox="0 0 100 100"><defs><style>.cls-1{fill:#f49500;}.cls-2{fill:#fcc000;}.cls-3{fill:#03a239;}.cls-4{fill:#1192cf;}</style></defs><path class="cls-1" d="M27.91,50.27a11.28,11.28,0,0,0-11.55-11,11.28,11.28,0,0,0-11.54,11,11.28,11.28,0,0,0,11.54,11,11.3,11.3,0,0,0,11.55-11"/><path class="cls-2" d="M17.56,38.36a4.3,4.3,0,1,1-4.3-4.3,4.29,4.29,0,0,1,4.3,4.3"/><path class="cls-2" d="M29.49,42a4.3,4.3,0,1,1-4.29-4.3A4.29,4.29,0,0,1,29.49,42"/><path class="cls-2" d="M33.59,53.34a4.3,4.3,0,1,1-4.3-4.3,4.29,4.29,0,0,1,4.3,4.3"/><path class="cls-2" d="M24.5,61.64a4.3,4.3,0,1,1-4.3-4.3,4.3,4.3,0,0,1,4.3,4.3"/><path class="cls-2" d="M12.06,58.66a4.3,4.3,0,1,1-4.29-4.3,4.3,4.3,0,0,1,4.29,4.3"/><path class="cls-2" d="M8.6,46.94a4.3,4.3,0,1,1-4.3-4.3,4.3,4.3,0,0,1,4.3,4.3"/><polygon class="cls-3" points="17.23 47.76 16.91 46.66 16.25 47.92 13.86 39.69 15.06 40.39 14.76 39.34 13.1 38.43 12.16 40.09 12.48 41.14 13.11 39.91 15.51 48.14 14.28 47.42 14.6 48.52 16.28 49.42 17.23 47.76"/><polygon class="cls-3" points="19.3 49.77 20.03 49.09 18.7 48.99 24.3 43.81 24.3 45.11 25 44.46 24.96 42.64 23.16 42.48 22.46 43.14 23.76 43.23 18.16 48.42 18.18 47.08 17.43 47.77 17.48 49.59 19.3 49.77"/><polygon class="cls-3" points="10.03 58.66 10.78 57.91 9.41 57.87 15.03 52.34 15.05 53.67 15.76 52.97 15.71 51.13 13.86 51.04 13.16 51.74 14.48 51.77 8.87 57.32 8.85 55.96 8.1 56.69 8.18 58.54 10.03 58.66"/><polygon class="cls-3" points="14.46 48.46 13.4 48.13 14.08 49.36 6.03 46.89 7.25 46.26 6.23 45.94 4.57 46.84 5.45 48.52 6.47 48.84 5.82 47.64 13.85 50.11 12.6 50.74 13.66 51.08 15.33 50.16 14.46 48.46"/><polygon class="cls-3" points="21 59.57 20.66 58.59 20.03 59.79 17.58 52.42 18.78 52.97 18.46 52.04 16.78 51.31 15.9 52.89 16.21 53.82 16.83 52.67 19.3 60.04 18.06 59.46 18.4 60.44 20.08 61.17 21 59.57"/><polygon class="cls-3" points="26.95 51.86 25.95 51.56 26.56 52.77 19.1 50.61 20.23 49.94 19.3 49.67 17.73 50.63 18.55 52.26 19.48 52.54 18.88 51.36 26.34 53.51 25.18 54.19 26.18 54.49 27.73 53.51 26.95 51.86"/><polygon class="cls-4" points="17.95 56.01 20.31 44.23 25.71 44.23 28.14 51.31 33.43 44.23 38.84 44.23 36.44 56.01 33.11 56.01 34.74 47.67 28.56 56.01 25.95 56.01 23 47.69 21.36 56.01 17.95 56.01"/><path class="cls-4" d="M49.69,48.23c-.47-.47-2.1-.67-4-.67-3,0-4.43.48-5.31,1.37s-1.32,4.21-1.32,4.58a2.5,2.5,0,0,0,.52,2c.65.65,2.21.7,4.63.7s3.75-.42,4.65-1,1.43-3.78,1.53-4.76a2.51,2.51,0,0,0-.7-2.13m-2.37,3.71c-.25.88-.35,1.25-.64,1.47a7.64,7.64,0,0,1-2.17.36c-.33,0-2,0-2.3-.36s.17-2.82.65-3.09a5.48,5.48,0,0,1,2.2-.33,4.6,4.6,0,0,1,2.16.28c.24.27.35.79.1,1.67"/><path class="cls-4" d="M61.17,44.23l-.91,4.68c-.44-1-1.25-1.35-3-1.35-3,0-3.49.48-4.37,1.37s-1.32,4.21-1.32,4.58a2.5,2.5,0,0,0,.52,2c.65.65,1.17.7,3.52.7s3.08-.77,3.48-1.29L58.87,56h3l2.3-11.78ZM59,53.42a7.34,7.34,0,0,1-2.19.37c-.35,0-2,0-2.3-.37s.17-2.81.65-3.08a5.21,5.21,0,0,1,2.2-.33,4.81,4.81,0,0,1,2.19.28,1.11,1.11,0,0,1,.23.85l-.2,1c-.2.77-.3,1.1-.58,1.3"/><path class="cls-4" d="M75.05,48.06c-.36-.32-1.3-.5-3.06-.5-2.22,0-3.14.45-3.84,1.4l.92-4.72h-2.9L63.84,56h3l.23-1.2c.35.81.88,1.35,3.33,1.35s3.07-.12,3.84-.9,1.45-3.9,1.53-4.9a2.53,2.53,0,0,0-.67-2.3m-2.31,3.88c-.25.88-.35,1.25-.65,1.47a7.64,7.64,0,0,1-2.17.36c-.33,0-2,0-2.3-.36s.17-2.82.65-3.09a5.48,5.48,0,0,1,2.2-.33,4.68,4.68,0,0,1,2.17.28c.25.27.35.79.1,1.67"/><path class="cls-4" d="M85.7,47.66h-.12s-.78,4.58-1.49,5.3a3.12,3.12,0,0,1-2.14.76,3.25,3.25,0,0,1-1.73-.51c-.45-.47.53-4.78.72-5.55H78.05s-1.16,5.28-1.16,6.1A2.06,2.06,0,0,0,78.75,56a6.68,6.68,0,0,0,1.54.15A5.52,5.52,0,0,0,81.62,56a5,5,0,0,0,2.77-1.73L84.05,56H86.8l1.63-8.34H85.7Z"/><path class="cls-4" d="M97.27,50.26H100s0-.65,0-.92a1.38,1.38,0,0,0-.52-1.21c-.56-.57-3.63-.55-4.15-.55s-3.3,0-4.08.6A3,3,0,0,0,90,50.77c0,1.39.92,1.92,2.74,1.92H96c.45,0,1,.13,1,.55s-.31,1-1.45,1H93.43c-.51,0-1.45-.08-1.45-.66v-.27H89.3a3.88,3.88,0,0,0-.13.87,1.8,1.8,0,0,0,.51,1.36c.45.45,2.34.65,4.27.65s4-.08,4.72-.8a4.45,4.45,0,0,0,1-2.75,1.57,1.57,0,0,0-.47-1.26c-.21-.22-.88-.62-3.83-.62-2.63,0-2.72-.25-2.72-.5s0-.7,2.12-.7,2.47.09,2.47.72"/></svg>