<svg id="Layer_1" data-name="Layer 1" xmlns="http://www.w3.org/2000/svg" xmlns:xlink="http://www.w3.org/1999/xlink" viewBox="0 0 100 100"><defs><style>.cls-1{fill:url(#linear-gradient);}.cls-2{fill:url(#linear-gradient-2);}.cls-3{fill:url(#linear-gradient-3);}</style><linearGradient id="linear-gradient" x1="-5573.25" y1="-164.89" x2="-5604.88" y2="-164.67" gradientTransform="matrix(-0.98, -0.32, -0.29, 0.88, -5474.93, -1587.37)" gradientUnits="userSpaceOnUse"><stop offset="0.23" stop-color="#999875"/><stop offset="0.56" stop-color="#9b9977"/><stop offset="0.68" stop-color="#a09f7e"/><stop offset="0.77" stop-color="#a9a889"/><stop offset="0.84" stop-color="#b7b69a"/><stop offset="0.9" stop-color="#c9c7b0"/><stop offset="0.95" stop-color="#deddcb"/><stop offset="0.99" stop-color="#f8f6eb"/><stop offset="1" stop-color="#fbf9ef"/></linearGradient><linearGradient id="linear-gradient-2" x1="-5569.06" y1="-219.35" x2="-5614.56" y2="-140.54" gradientTransform="matrix(-0.98, -0.32, -0.29, 0.88, -5474.93, -1587.37)" gradientUnits="userSpaceOnUse"><stop offset="0" stop-color="#48a547"/><stop offset="1" stop-color="#3f9143"/></linearGradient><linearGradient id="linear-gradient-3" x1="-5563.71" y1="-163.03" x2="-5595.94" y2="-184.69" gradientTransform="matrix(-0.98, -0.32, -0.29, 0.88, -5474.93, -1587.37)" gradientUnits="userSpaceOnUse"><stop offset="0" stop-color="#41a247"/><stop offset="0.35" stop-color="#4ba74b"/><stop offset="0.96" stop-color="#67b554"/><stop offset="1" stop-color="#69b655"/></linearGradient></defs><path class="cls-1" d="M52.7,100,50,99.12s.37-13.62-4.59-14.55c-3.2-3.71.51-159.82,12.22-.51,0,0-4,2-4.8,5.45S52.7,100,52.7,100Z"/><path class="cls-2" d="M54.14,86.92S77.5,71.57,72,39.72C66.74,16.52,54.3,8.94,53,6A38.39,38.39,0,0,1,50,.35l1,64.52C51,64.79,49,84.52,54.14,86.92Z"/><path class="cls-3" d="M48.61,87.8S26.72,72.88,28,46.56,44.77,7.29,47.73,4.94c2-2.11,2-2.83,2.19-4.94,1.39,2.91,1.17,43.73,1.31,48.53C51.74,67.06,50.13,84.3,48.61,87.8Z"/></svg>