<svg id="Layer_1" data-name="Layer 1" xmlns="http://www.w3.org/2000/svg" viewBox="0 0 100 100"><defs><style>.cls-1{fill:#606;}</style></defs><g id="logos"><path class="cls-1" d="M.11,56.69H-.18V94.93a5,5,0,0,0,5,5H44.22A44.05,44.05,0,0,0,.11,56.69Z"/><path class="cls-1" d="M.11,25.15H-.18V41.41A59.42,59.42,0,0,1,59.06,100H75.91C75.62,58.66,41.76,25.15.11,25.15Z"/><path class="cls-1" d="M99.82,95V60.43A107.72,107.72,0,0,0,36.73,0H4.84a5,5,0,0,0-5,5V9.92c50,.15,90.63,40.41,90.93,90.09h4A5.05,5.05,0,0,0,99.82,95Z"/><path class="cls-1" d="M86.66,14A142.19,142.19,0,0,1,99.82,29.63V5a5,5,0,0,0-5-5H69.46A125.38,125.38,0,0,1,86.66,14Z"/></g></svg>