<svg id="Layer_1" data-name="Layer 1" xmlns="http://www.w3.org/2000/svg" viewBox="0 0 100 100"><defs><style>.cls-1,.cls-4{fill:#00758f;}.cls-2,.cls-3{fill:#f29111;}.cls-3,.cls-4{fill-rule:evenodd;}</style></defs><path class="cls-1" d="M24,78H20.18q-.2-9.8-1.12-18.43h0L13.15,78H10.21L4.37,59.56h0Q3.68,67.86,3.52,78H0Q.35,65.66,1.71,54.87H6.49l5.57,17h0l5.6-17h4.58Q23.77,67.5,24,78"/><path class="cls-1" d="M40.78,60.93q-2.36,12.83-6.22,18.64c-2,3-4.2,4.48-6.59,4.48a6.49,6.49,0,0,1-2.35-.58V81.41a10.69,10.69,0,0,0,1.6.1,3.89,3.89,0,0,0,2.7-.92,3.38,3.38,0,0,0,1.23-2.54,16.84,16.84,0,0,0-1-3.93L26,60.93h3.79l3,9.86a13.52,13.52,0,0,1,.85,4.7,64.78,64.78,0,0,0,3.48-14.56h3.66"/><path class="cls-2" d="M57.68,71.58a6.15,6.15,0,0,1-2.15,4.83,8.47,8.47,0,0,1-5.77,1.88,11.54,11.54,0,0,1-6.56-2.16l1-2a11.29,11.29,0,0,0,5,1.37,5.17,5.17,0,0,0,3.27-.93A3.14,3.14,0,0,0,53.66,72c0-1.38-.95-2.55-2.71-3.53s-4.84-2.75-4.84-2.75a5.54,5.54,0,0,1-2.63-4.92,5.77,5.77,0,0,1,2-4.54,7.41,7.41,0,0,1,5.07-1.73,10.49,10.49,0,0,1,5.84,1.72l-.89,2a11.25,11.25,0,0,0-4.44-1,4,4,0,0,0-2.73.86,2.86,2.86,0,0,0-1,2.19c0,1.37,1,2.56,2.77,3.56,1.64.89,4.95,2.78,4.95,2.78a5.47,5.47,0,0,1,2.7,4.89"/><path class="cls-3" d="M64.58,73.36c-.94-1.5-1.4-3.92-1.4-7.26q0-8.73,5.29-8.73a4.45,4.45,0,0,1,4.07,2.09c.93,1.51,1.4,3.9,1.4,7.19q0,8.8-5.3,8.8a4.42,4.42,0,0,1-4.06-2.09m13.73,5.18-4.24-2.09a7.93,7.93,0,0,0,1.06-1q2.7-3.18,2.7-9.42,0-11.47-9-11.47A8.51,8.51,0,0,0,62,57.44q-2.7,3.18-2.7,9.38t2.39,8.94c1.46,1.71,3.65,2.57,6.59,2.57a10.6,10.6,0,0,0,3-.41l5.52,3.22,1.5-2.6"/><path class="cls-2" d="M92.14,78h-11V54.87h3.69V75.14h7.27V78"/><path class="cls-2" d="M94.77,78h.61V75.63h.8v-.48H93.94v.48h.83V78Zm4.65,0H100V75.15h-.87l-.71,1.93-.76-1.93h-.84V78h.55V75.83h0L98.2,78h.42l.8-2.15V78"/><path class="cls-4" d="M96.77,47.13a12.82,12.82,0,0,0-5.4.78c-.42.17-1.09.17-1.15.7.23.22.25.59.45.89a6.43,6.43,0,0,0,1.45,1.71c.58.44,1.17.89,1.78,1.28,1.09.67,2.31,1.06,3.37,1.73.61.39,1.22.9,1.84,1.32.3.22.5.58.89.72v-.08c-.2-.25-.25-.62-.45-.9l-.83-.81a13.61,13.61,0,0,0-2.9-2.82c-.89-.61-2.84-1.45-3.2-2.48l-.06-.06a10.61,10.61,0,0,0,1.93-.45c.94-.25,1.8-.19,2.78-.44.45-.11.89-.25,1.34-.39v-.25c-.5-.51-.87-1.18-1.39-1.65a38,38,0,0,0-4.6-3.44c-.87-.56-2-.92-2.9-1.39-.33-.17-.89-.25-1.08-.53a11.08,11.08,0,0,1-1.15-2.15c-.8-1.54-1.59-3.24-2.28-4.86a30.58,30.58,0,0,0-1.42-3.19A28.09,28.09,0,0,0,73,19.93a13.4,13.4,0,0,0-3.56-1.15l-2.09-.11a11.51,11.51,0,0,1-1.29-1c-1.58-1-5.68-3.18-6.85-.3C58.47,19.2,60.34,21,61,21.91A14,14,0,0,1,62.4,24c.19.48.25,1,.44,1.48a35.92,35.92,0,0,0,1.45,3.75,14.34,14.34,0,0,0,1,1.73c.23.31.61.44.7.95A7.86,7.86,0,0,0,65.38,34a12.27,12.27,0,0,0,.81,9.39c.44.69,1.5,2.23,2.92,1.64,1.25-.5,1-2.09,1.34-3.49.08-.33,0-.55.19-.78v.06c.39.78.78,1.53,1.14,2.32a16.12,16.12,0,0,0,3.63,3.74c.66.5,1.19,1.37,2,1.67v-.08h-.06a3.43,3.43,0,0,0-.64-.56,14.09,14.09,0,0,1-1.45-1.67,36.27,36.27,0,0,1-3.12-5.09c-.44-.87-.83-1.81-1.19-2.68-.17-.33-.17-.84-.45-1a10.51,10.51,0,0,0-1.34,1.89,16.08,16.08,0,0,0-.78,4.22c-.11,0,0,0-.11.06-.89-.23-1.19-1.15-1.53-1.93a12,12,0,0,1-.25-7.46c.19-.58,1-2.43.7-3-.17-.54-.73-.84-1-1.26a10.53,10.53,0,0,1-1-1.79c-.67-1.56-1-3.29-1.72-4.86a14.65,14.65,0,0,0-1.4-2.15A13.45,13.45,0,0,1,60.53,19c-.14-.3-.33-.81-.11-1.14a.44.44,0,0,1,.39-.36c.36-.31,1.39.08,1.75.25a13.71,13.71,0,0,1,2.76,1.39c.39.28.81.81,1.31.95h.59c.89.2,1.89.06,2.73.31a17.51,17.51,0,0,1,4,1.93,24.87,24.87,0,0,1,8.69,9.55c.33.64.47,1.23.78,1.9.58,1.37,1.31,2.76,1.89,4.1a17.83,17.83,0,0,0,2,3.75c.42.58,2.09.89,2.84,1.2a18.33,18.33,0,0,1,1.92.78c1,.58,1.89,1.25,2.79,1.9.44.33,1.84,1,1.92,1.59"/><path class="cls-4" d="M68.36,22.86a4.07,4.07,0,0,0-1.14.14v.05h0a8.39,8.39,0,0,0,.89,1.15c.23.45.42.89.64,1.34l.06-.06a1.56,1.56,0,0,0,.58-1.39c-.16-.2-.19-.39-.33-.59s-.53-.42-.75-.64"/></svg>