<svg id="Layer_1" data-name="Layer 1" xmlns="http://www.w3.org/2000/svg" viewBox="0 0 100 100"><defs><style>.cls-1{fill:#fff;}</style></defs><path class="cls-1" d="M9.46,95.16a11.45,11.45,0,0,1,12-5.41,143.69,143.69,0,0,0,32.84-.2,43.86,43.86,0,0,1,10.8-.08c5.58.64,11.19.9,16.79,1.38a37.32,37.32,0,0,1,5.15.72,3.65,3.65,0,0,1,3,2.86,3.57,3.57,0,0,1-2,4,10.51,10.51,0,0,1-4.86,1.39c-6-.13-12-.73-18-.84a135.35,135.35,0,0,0-15.6.45,116.32,116.32,0,0,1-21.6.13c-4-.35-8-.13-12-.2a7,7,0,0,1-6.44-2.6ZM89.9,23.9l.6,13.66a68.36,68.36,0,0,1-.28,8.82,65.4,65.4,0,0,0,0,18.43,23.65,23.65,0,0,1-.24,8,6.86,6.86,0,0,1-7.55,6.35,72.93,72.93,0,0,1-13.07-1.91,13.38,13.38,0,0,1-7.49-5.82A84.71,84.71,0,0,1,57,63.54a63.86,63.86,0,0,0-9.3-13.07,65.48,65.48,0,0,1-5.79-8.16,15.41,15.41,0,0,0-1.27-2,2.72,2.72,0,0,0-4.8.9,9.84,9.84,0,0,0-.5,3.18L35,62.82a8.78,8.78,0,0,1-.69,3.11,8.53,8.53,0,0,0-.18,7.7,3.1,3.1,0,0,1-1.36,4.16,3.3,3.3,0,0,1-.87.29,18.36,18.36,0,0,1-14.09-.4,6.35,6.35,0,0,1-4-6c-.06-4.45-.23-8.85-.48-13.28a8.63,8.63,0,0,1,2.82-7.33,11.75,11.75,0,0,0,2.24-2.82,5.3,5.3,0,0,0-.21-6.39,25.12,25.12,0,0,1-4.88-18.56c.31-4.39.21-8.82.3-13.23,0-1.07-.07-2.15,0-3.22a4,4,0,0,1,5.12-4.49A27.66,27.66,0,0,0,28.58.55a5.93,5.93,0,0,1,8.14,3.63c.51,1.09.9,2.23,1.35,3.35a6.72,6.72,0,0,0,4.06,4.2,9.63,9.63,0,0,1,4.78,4.12L59.53,34A31.81,31.81,0,0,0,64,39.2c1.8,1.63,3.29,1.12,3.59-1.36a58.44,58.44,0,0,0,.53-11.6,130.86,130.86,0,0,1,.2-18,6,6,0,0,1,7.58-6.91l4.45.26a8.57,8.57,0,0,1,8.94,7.12,23,23,0,0,1,.8,5.15c.12,3.35,0,6.72,0,10.05Z"/></svg>