<svg id="Layer_1" data-name="Layer 1" xmlns="http://www.w3.org/2000/svg" xmlns:xlink="http://www.w3.org/1999/xlink" viewBox="0 0 100 100"><defs><style>.cls-1{fill:none;}.cls-2{fill:#009639;}.cls-3{fill:#fff;}.cls-4{clip-path:url(#clip-path);}.cls-5{fill:url(#linear-gradient);}.cls-6{clip-path:url(#clip-path-2);}.cls-7{fill:url(#linear-gradient-2);}</style><clipPath id="clip-path"><path class="cls-1" d="M168,.68,128.82,23.3a4.73,4.73,0,0,0-2.37,4.1V72.68a4.7,4.7,0,0,0,2.37,4.09L168,99.41a4.71,4.71,0,0,0,4.73,0l39.19-22.64a4.73,4.73,0,0,0,2.37-4.09V27.4a4.74,4.74,0,0,0-2.38-4.1L172.75.68a4.77,4.77,0,0,0-4.74,0"/></clipPath><linearGradient id="linear-gradient" x1="59.09" y1="279.07" x2="60.2" y2="279.07" gradientTransform="matrix(-50.75, 103.54, 103.54, 50.75, -25696.12, -20288.84)" gradientUnits="userSpaceOnUse"><stop offset="0.3" stop-color="#3e863d"/><stop offset="0.5" stop-color="#55934f"/><stop offset="0.8" stop-color="#5aad45"/></linearGradient><clipPath id="clip-path-2"><path class="cls-1" d="M127.43,75.55a4.54,4.54,0,0,0,1.39,1.22l33.62,19.42,5.6,3.22a4.7,4.7,0,0,0,2.73.62,4.23,4.23,0,0,0,.93-.17L213,24.17a4.91,4.91,0,0,0-1.1-.87L186.27,8.48,172.71.67a5,5,0,0,0-1.23-.49Z"/></clipPath><linearGradient id="linear-gradient-2" x1="61.17" y1="282.66" x2="61.89" y2="282.66" gradientTransform="matrix(142.41, -105.22, -105.22, -142.41, 21150.74, 46777.86)" gradientUnits="userSpaceOnUse"><stop offset="0.57" stop-color="#3e863d"/><stop offset="0.72" stop-color="#619857"/><stop offset="1" stop-color="#76ac64"/></linearGradient></defs><path class="cls-2" d="M6.7,75a5,5,0,0,0,1.9,1.88L47.42,99.3h0a5.12,5.12,0,0,0,5.16,0L91.41,76.88A5.08,5.08,0,0,0,94,72.42V27.59h0a5.07,5.07,0,0,0-2.58-4.47L52.58.7h0a5.12,5.12,0,0,0-5.16,0h0L8.6,23.12A5.07,5.07,0,0,0,6,27.59H6V72.42A5,5,0,0,0,6.7,75"/><path class="cls-3" d="M37.57,67.07a5,5,0,0,1-10,0h0V32.79c0-2.65,2.35-4.85,5.67-4.85a8.85,8.85,0,0,1,6.8,3l1.51,1.8,20.86,25V32.93h0a5,5,0,0,1,10,0h0V67.2c0,2.66-2.35,4.86-5.67,4.86a8.88,8.88,0,0,1-6.81-3L37.57,42.25V67.07Z"/><g class="cls-4"><path class="cls-5" d="M253.91,19.46,143.47-34.67,86.85,80.84,197.28,135Z"/></g><g class="cls-6"><path class="cls-7" d="M79.68,35.47l78,105.55,103.13-76.2-78-105.54Z"/></g></svg>