<svg id="Layer_1" data-name="Layer 1" xmlns="http://www.w3.org/2000/svg" viewBox="0 0 100 100"><defs><style>.cls-1{fill:#999;}.cls-2{fill:#009639;}.cls-3{fill:#fff;}</style></defs><g id="Art"><path class="cls-1" d="M89.3,90.7h.64V89.28h.5a1.44,1.44,0,0,1,.71.12.91.91,0,0,1,.34.83v.4a.06.06,0,0,1,0,0s0,0,0,0h.59l0,0a.37.37,0,0,1,0-.18,2.62,2.62,0,0,1,0-.27v-.27a1,1,0,0,0-.2-.56.93.93,0,0,0-.63-.36,1.49,1.49,0,0,0,.53-.17.79.79,0,0,0,.35-.71.9.9,0,0,0-.56-.92,2.76,2.76,0,0,0-1-.13H89.3Zm1.81-1.94a1.74,1.74,0,0,1-.6.08h-.57V87.52h.54a1.58,1.58,0,0,1,.77.14.58.58,0,0,1,.24.53.58.58,0,0,1-.38.57M93,86.58a3.23,3.23,0,0,0-2.35-1,3.3,3.3,0,0,0,0,6.59h0a3.31,3.31,0,0,0,3.31-3.3,3.34,3.34,0,0,0-1-2.34m-.34.33a2.74,2.74,0,0,1,.83,2,2.83,2.83,0,0,1-4.84,2,2.77,2.77,0,0,1-.83-2,2.85,2.85,0,0,1,2.83-2.85,2.71,2.71,0,0,1,2,.84"/><path class="cls-2" d="M6.7,75a5,5,0,0,0,1.9,1.88L47.42,99.29h0a5.12,5.12,0,0,0,5.16,0L91.41,76.87A5.08,5.08,0,0,0,94,72.41V27.58h0a5.07,5.07,0,0,0-2.58-4.47L52.58.69h0a5.12,5.12,0,0,0-5.16,0h0L8.6,23.11A5.07,5.07,0,0,0,6,27.58H6V72.41A5,5,0,0,0,6.7,75"/><path class="cls-3" d="M42.49,64.63A6.91,6.91,0,0,0,47.8,67a4.06,4.06,0,0,0,4.41-3.68.37.37,0,0,0,0-.11V36.38a3.79,3.79,0,0,0-3.78-3.79h-.11a3.9,3.9,0,0,0-3.89,3.89V55.57a.1.1,0,0,1-.1.1.09.09,0,0,1-.08,0L27,35a6.94,6.94,0,0,0-5.31-2.38,4.08,4.08,0,0,0-4.42,3.68.41.41,0,0,1,0,.11V63.22A3.8,3.8,0,0,0,21,67h.12A3.91,3.91,0,0,0,25,63.12V44a.11.11,0,0,1,.1-.1.12.12,0,0,1,.08,0Z"/><path class="cls-3" d="M82.21,47.51h-8a.09.09,0,0,1-.09-.09h0v-8a3.36,3.36,0,0,0-6.72,0v7.64a.43.43,0,0,1-.43.43H59a3.36,3.36,0,0,0,0,6.72h8.32a.09.09,0,0,1,.09.09h0v8a3.36,3.36,0,0,0,6.72,0V54.67a.44.44,0,0,1,.43-.44h7.64a3.36,3.36,0,1,0,0-6.72h0"/></g></svg>