<svg id="Layer_1" data-name="Layer 1" xmlns="http://www.w3.org/2000/svg" xmlns:xlink="http://www.w3.org/1999/xlink" viewBox="0 0 100 100"><defs><style>.cls-1{fill-rule:evenodd;fill:url(#linear-gradient);}</style><linearGradient id="linear-gradient" x1="-91.9" y1="431.71" x2="-91.66" y2="431.71" gradientTransform="matrix(407.52, 0, 0, -404.35, 37451.44, 174611.59)" gradientUnits="userSpaceOnUse"><stop offset="0" stop-color="#29c3f3"/><stop offset="1" stop-color="#06a9e8"/></linearGradient></defs><g id="Page-1"><g id="Sketch-Flat-Logo-Copy-8"><g id="Clip-2"><path id="path-2" class="cls-1" d="M80.9,53.18a7.43,7.43,0,0,1-1.62,2.36,7.76,7.76,0,0,1-10.91,0,7.43,7.43,0,0,1-1.62-2.36H56.27L70.46,67.24A7.82,7.82,0,0,1,76.64,67l14-13.82Zm.21-5.56h10L76.82,33.45a7.75,7.75,0,0,1-6,.06L56.54,47.62h10a7.55,7.55,0,0,1,1.83-2.89,7.77,7.77,0,0,1,10.91,0A7.55,7.55,0,0,1,81.11,47.62Zm-62.35,0A7.57,7.57,0,0,1,20.48,45a7.76,7.76,0,0,1,10.91,0,7.57,7.57,0,0,1,1.72,2.59h9.62l-14-13.9a7.76,7.76,0,0,1-5.63-.11L9,47.62Zm0,5.56H9.47L23.36,67a7.76,7.76,0,0,1,5.63.11L43,53.18H33.14a7.64,7.64,0,0,1-1.75,2.66,7.77,7.77,0,0,1-10.91,0A7.48,7.48,0,0,1,18.74,53.18ZM29.27,19.61l18.18-18a3.68,3.68,0,0,1,5.16,0l18,17.87A7.76,7.76,0,0,1,79.18,21a7.61,7.61,0,0,1,1.61,8.48L99,47.58a3.79,3.79,0,0,1-.07,5.18l-18.18,18a7.57,7.57,0,0,1-1.48,8.74A7.76,7.76,0,0,1,70.46,81L52.61,98.69a3.68,3.68,0,0,1-5.16,0L29.54,80.93a7.75,7.75,0,0,1-9-1.41,7.59,7.59,0,0,1-1.42-8.87l-18.11-18a3.63,3.63,0,0,1,0-5.11L19,29.76a7.62,7.62,0,0,1,1.55-8.62A7.76,7.76,0,0,1,29.27,19.61Zm3.89,4a7.59,7.59,0,0,1-.25,6.4L49.63,46.6,66.72,29.66a7.64,7.64,0,0,1-.06-6.28L50,6.89ZM66.64,76.91a7.7,7.7,0,0,1,0-5.59l-17-16.86L33,70.91a7.59,7.59,0,0,1,.23,5.86L50,93.38Zm4.61-48a3.53,3.53,0,0,0,5,0,3.46,3.46,0,0,0,0-4.92,3.53,3.53,0,0,0-5,0A3.46,3.46,0,0,0,71.25,28.91ZM23.56,76.58a3.53,3.53,0,0,0,5,0,3.46,3.46,0,0,0,0-4.92,3.51,3.51,0,0,0-5,0A3.46,3.46,0,0,0,23.56,76.58Zm47.79,0a3.53,3.53,0,0,0,5,0,3.46,3.46,0,0,0,0-4.92,3.51,3.51,0,0,0-5,0A3.46,3.46,0,0,0,71.35,76.58ZM23.56,29a3.53,3.53,0,0,0,5,0,3.46,3.46,0,0,0,0-4.92,3.51,3.51,0,0,0-5,0A3.46,3.46,0,0,0,23.56,29Zm-.1,23.88a3.51,3.51,0,0,0,4.95,0,3.46,3.46,0,0,0,0-4.92,3.53,3.53,0,0,0-4.95,0A3.46,3.46,0,0,0,23.46,52.89Zm47.89-.3a3.51,3.51,0,0,0,5,0,3.45,3.45,0,0,0,0-4.91,3.51,3.51,0,0,0-5,0A3.45,3.45,0,0,0,71.35,52.59Z"/></g></g></g></svg>