<svg id="Layer_1" data-name="Layer 1" xmlns="http://www.w3.org/2000/svg" viewBox="0 0 100 100"><defs><style>.cls-1{fill:#1e5f90;}.cls-2{fill:#fff;}</style></defs><rect class="cls-1" x="29.6" y="38.47" width="41.31" height="23.06" rx="3"/><path class="cls-2" d="M45.09,55.65H42.34l-4.43-7.71h-.06c.09,1.36.13,2.33.13,2.91v4.8H36.05V45.46h2.72l4.43,7.63h0c-.07-1.32-.1-2.26-.1-2.81V45.46h1.94Z"/><path class="cls-2" d="M52.3,55.65H50.14V47.26H47.37v-1.8h7.7v1.8H52.3Z"/><path class="cls-2" d="M64.39,48.64a3.1,3.1,0,0,1-1,2.51,4.39,4.39,0,0,1-2.92.87h-.93v3.63H57.35V45.46h3.26a4.31,4.31,0,0,1,2.82.8A2.91,2.91,0,0,1,64.39,48.64Zm-4.88,1.61h.71a2.35,2.35,0,0,0,1.49-.39,1.39,1.39,0,0,0,.5-1.15,1.44,1.44,0,0,0-.41-1.12,2,2,0,0,0-1.3-.36h-1Z"/></svg>