<svg id="Layer_1" data-name="Layer 1" xmlns="http://www.w3.org/2000/svg" xmlns:xlink="http://www.w3.org/1999/xlink" viewBox="0 0 100 100"><defs><style>.cls-1{fill:#fff;}.cls-2{clip-path:url(#clip-path);}.cls-3{clip-path:url(#clip-path-2);}.cls-4{clip-path:url(#clip-path-3);}.cls-5{clip-path:url(#clip-path-4);}.cls-6{clip-path:url(#clip-path-5);}.cls-7{clip-path:url(#clip-path-6);}.cls-8{clip-path:url(#clip-path-7);}.cls-9{clip-path:url(#clip-path-8);}.cls-10{clip-path:url(#clip-path-9);}.cls-11{clip-path:url(#clip-path-10);}.cls-12{clip-path:url(#clip-path-11);}.cls-13{clip-path:url(#clip-path-12);}.cls-14{clip-path:url(#clip-path-13);}.cls-15{clip-path:url(#clip-path-14);}.cls-16{clip-path:url(#clip-path-15);}.cls-17{clip-path:url(#clip-path-16);}.cls-18{clip-path:url(#clip-path-17);}.cls-19{clip-path:url(#clip-path-18);}.cls-20{clip-path:url(#clip-path-19);}.cls-21{clip-path:url(#clip-path-20);}</style><clipPath id="clip-path"><rect class="cls-1" x="2.35" y="42.66" width="1.47" height="1.47" transform="translate(-29.79 14.9) rotate(-45.02)"/></clipPath><clipPath id="clip-path-2"><rect class="cls-1" x="6.4" y="43.14" width="1.47" height="1.47" transform="translate(-28.93 17.88) rotate(-44.98)"/></clipPath><clipPath id="clip-path-3"><rect class="cls-1" x="4.97" y="45.97" width="1.47" height="1.47" transform="translate(-31.34 17.7) rotate(-44.98)"/></clipPath><clipPath id="clip-path-4"><rect class="cls-1" x="10.62" y="52.11" width="1.47" height="1.47" transform="translate(-34.04 23.51) rotate(-45)"/></clipPath><clipPath id="clip-path-5"><rect class="cls-1" x="4.78" y="48.73" width="1.47" height="1.47" transform="translate(-33.36 18.39) rotate(-45)"/></clipPath><clipPath id="clip-path-6"><rect class="cls-1" x="7.32" y="47.06" width="1.47" height="1.47" transform="translate(-31.44 19.69) rotate(-45)"/></clipPath><clipPath id="clip-path-7"><rect class="cls-1" x="10.18" y="44.33" width="1.47" height="1.47" transform="translate(-28.68 20.94) rotate(-45.02)"/></clipPath><clipPath id="clip-path-8"><rect class="cls-1" x="12.64" y="53.39" width="2.72" height="2.72" transform="translate(-34.61 25.94) rotate(-45.01)"/></clipPath><clipPath id="clip-path-9"><rect class="cls-1" x="7.84" y="49.92" width="1.98" height="1.98" transform="translate(-33.4 21.14) rotate(-44.98)"/></clipPath><clipPath id="clip-path-10"><rect class="cls-1" x="15.25" y="43.51" width="2.08" height="2.08" transform="translate(-26.73 24.57) rotate(-45)"/></clipPath><clipPath id="clip-path-11"><rect class="cls-1" x="13.18" y="45.91" width="2.08" height="2.08" transform="translate(-29.04 23.82) rotate(-45.02)"/></clipPath><clipPath id="clip-path-12"><polygon class="cls-1" points="18.74 45.57 20.22 47.03 21.69 45.57 20.22 44.08 18.74 45.57"/></clipPath><clipPath id="clip-path-13"><rect class="cls-1" x="3.75" y="41.05" width="1.23" height="1.23" transform="translate(-28.18 15.29) rotate(-45)"/></clipPath><clipPath id="clip-path-14"><path class="cls-1" d="M11.17,50.27a.29.29,0,1,1,.58,0,.28.28,0,0,1-.3.28.28.28,0,0,1-.28-.28m0-1.1a.29.29,0,0,1,.28-.29.3.3,0,1,1,0,.59.29.29,0,0,1-.28-.3m-1.39.65,1.92,1.91,1.92-1.91L11.7,47.9Z"/></clipPath><clipPath id="clip-path-15"><path class="cls-1" d="M14.6,51.3a.3.3,0,1,1,.59,0,.28.28,0,0,1-.3.28.3.3,0,0,1-.29-.28m0-1.1a.28.28,0,0,1,.29-.28.3.3,0,0,1,.3.28.3.3,0,1,1-.59,0m-1.36.73,1.91,1.92,1.92-1.92L15.15,49Z"/></clipPath><clipPath id="clip-path-16"><path class="cls-1" d="M17.47,48.88a.3.3,0,0,1,.28-.3.3.3,0,0,1,.3.3.29.29,0,0,1-.3.29.28.28,0,0,1-.28-.29m0-1.08a.28.28,0,0,1,.28-.28.29.29,0,0,1,.3.28.29.29,0,0,1-.3.3.31.31,0,0,1-.28-.3m-1.95.05,1.92,1.92,1.91-1.92-1.91-1.93Z"/></clipPath><clipPath id="clip-path-17"><path class="cls-1" d="M16.47,54.5a.29.29,0,1,1,.58,0,.29.29,0,0,1-.58,0m0-1.1a.28.28,0,0,1,.28-.28.29.29,0,0,1,.3.28.29.29,0,0,1-.3.3.28.28,0,0,1-.28-.3M15,54.3l1.92,1.92,1.92-1.92-1.92-1.92Z"/></clipPath><clipPath id="clip-path-18"><path class="cls-1" d="M19.17,51.52a.29.29,0,1,1,.58,0,.28.28,0,0,1-.3.28.27.27,0,0,1-.28-.28m-2,.4,1.92,1.91L21,51.92,19.77,50.7l-.6,0-.1-.77Z"/></clipPath><clipPath id="clip-path-19"><path class="cls-1" d="M19.17,50.43a.28.28,0,0,1,.28-.28.29.29,0,0,1,.3.28.29.29,0,0,1-.3.3.3.3,0,0,1-.28-.3m-1.07-.61,1.49,1.48,1.48-1.48-1.48-1.49Z"/></clipPath><clipPath id="clip-path-20"><rect class="cls-1" x="19.1" y="54" width="2.72" height="2.72" transform="translate(-33.15 30.69) rotate(-45.01)"/></clipPath></defs><path class="cls-1" d="M43.46,50.32h-.57V47.57h.53c.94,0,2.1.06,2.1,1.3s-1.08,1.45-2.06,1.45m-6.05-4H35.84a8.29,8.29,0,0,0-4.65-2.8h6.22v2.8Zm0,3.1h-.07a7.53,7.53,0,0,0-1.27-2.8h1.34Zm0,6.22H36.32a7.52,7.52,0,0,0,1.09-2.75Zm0,3.1H32.12a8,8,0,0,0,4-2.8h1.3ZM31.87,56l-.8.8-.8-.8h0l-.3-.3h0l-.78-.79.65-.63a3.69,3.69,0,0,1-.95.13,2.78,2.78,0,0,1-2.6-1.51h5.2l-.2.35L33,54.88l-.94.94ZM25.52,58.2,23.32,56l0,0h0l.3-.3h0l1.87-1.87,2.2,2.2Zm-2.37-3.78a.29.29,0,0,1,.29-.29.31.31,0,0,1,.3.29.29.29,0,0,1-.3.28.28.28,0,0,1-.29-.28m.59-1.09a.3.3,0,0,1-.59,0,.28.28,0,0,1,.29-.28.3.3,0,0,1,.3.28M22,52.87h0l-.3-.3h0l-1.12-1.1,1.72-1.7h0l.26-.27.27.27,1.7,1.7h0l-1.1,1.1-.3.3-.57.56Zm3-.59a.3.3,0,0,1,.3.29.28.28,0,0,1-.3.28.27.27,0,0,1-.28-.28.28.28,0,0,1,.28-.29m0-1.06a.29.29,0,0,1,.3.28.28.28,0,0,1-.3.28.27.27,0,0,1-.28-.28.26.26,0,0,1,.28-.28m.87-2.2a.27.27,0,0,1,.25.43l-.07.08h0s0,0,0,0h0s0,0,0,0h-.26s0,0,0,0h0s0,0,0,0h0s-.05-.05-.07-.08a.3.3,0,0,1-.05-.15.36.36,0,0,1,.34-.28m0-1.09a.31.31,0,0,1,.3.29.29.29,0,0,1-.3.28.29.29,0,1,1,0-.57m4.33,1.82.3-.3H26.59a2.82,2.82,0,0,1,2.3-1.07,2.88,2.88,0,0,1,2,.74l1.45-1.45,1.8,1.78h0l.3.3h0l.1.1h0l-2.2,2.2-.5-.5a3.69,3.69,0,0,1-.2,1H26.14a3.09,3.09,0,0,1-.2-1.15,3.27,3.27,0,0,1,.43-1.65h3.85Zm25.29,1.43a3.06,3.06,0,0,1,3.1-3A5.14,5.14,0,0,1,62,49.72l-.17-6A11.73,11.73,0,0,0,58,43.1a8.11,8.11,0,0,0-7.19,4.25c-.68-2.77-3.08-4.1-6.17-4.1H0v.3H26.59a8.44,8.44,0,0,0-4.65,2.8H0v.3H21.7a7.36,7.36,0,0,0-1.26,2.8H0v.3H20.35a8,8,0,0,0-.15,1.57,9.75,9.75,0,0,0,.09,1.23H0v.3H20.35a7.6,7.6,0,0,0,1.1,2.8H0V56H21.65a7.87,7.87,0,0,0,4,2.8H0v.3H27.1l-.83-.83,2.2-2.2,2.2,2.2-.83.83H42.89V54.28h2.9a5.06,5.06,0,0,0,4.07-1.73,7.84,7.84,0,0,0,7.87,6.7,12.56,12.56,0,0,0,4.05-.62l.16-5.85a4.49,4.49,0,0,1-3.26,1.45,3.09,3.09,0,0,1-3.17-3"/><rect class="cls-1" x="2.35" y="42.66" width="1.47" height="1.47" transform="translate(-29.79 14.9) rotate(-45.02)"/><g class="cls-2"><polygon class="cls-1" points="3.07 41.31 5.15 43.4 3.07 45.47 1 43.4 3.07 41.31"/></g><rect class="cls-1" x="6.4" y="43.14" width="1.47" height="1.47" transform="translate(-28.93 17.88) rotate(-44.98)"/><g class="cls-3"><polygon class="cls-1" points="7.13 41.8 9.2 43.87 7.13 45.93 5.07 43.87 7.13 41.8"/></g><rect class="cls-1" x="4.97" y="45.97" width="1.47" height="1.47" transform="translate(-31.34 17.7) rotate(-44.98)"/><g class="cls-4"><polygon class="cls-1" points="5.7 44.62 7.77 46.7 5.7 48.77 3.63 46.7 5.7 44.62"/></g><rect class="cls-1" x="10.62" y="52.11" width="1.47" height="1.47" transform="translate(-34.04 23.51) rotate(-45)"/><g class="cls-5"><polygon class="cls-1" points="11.35 50.78 13.42 52.85 11.35 54.92 9.29 52.85 11.35 50.78"/></g><rect class="cls-1" x="4.78" y="48.73" width="1.47" height="1.47" transform="translate(-33.36 18.39) rotate(-45)"/><g class="cls-6"><polygon class="cls-1" points="5.52 47.4 7.58 49.47 5.52 51.53 3.45 49.47 5.52 47.4"/></g><rect class="cls-1" x="7.32" y="47.06" width="1.47" height="1.47" transform="translate(-31.44 19.69) rotate(-45)"/><g class="cls-7"><polygon class="cls-1" points="8.05 45.72 10.12 47.8 8.05 49.87 5.98 47.8 8.05 45.72"/></g><rect class="cls-1" x="10.18" y="44.33" width="1.47" height="1.47" transform="translate(-28.68 20.94) rotate(-45.02)"/><g class="cls-8"><polygon class="cls-1" points="10.92 43 12.98 45.07 10.92 47.13 8.85 45.07 10.92 43"/></g><rect class="cls-1" x="12.64" y="53.39" width="2.72" height="2.72" transform="translate(-34.61 25.94) rotate(-45.01)"/><g class="cls-9"><polygon class="cls-1" points="14 50.9 17.84 54.73 14 58.57 10.17 54.73 14 50.9"/></g><rect class="cls-1" x="7.84" y="49.92" width="1.98" height="1.98" transform="translate(-33.4 21.14) rotate(-44.98)"/><g class="cls-10"><polygon class="cls-1" points="8.84 48.1 11.63 50.9 8.84 53.7 6.03 50.9 8.84 48.1"/></g><rect class="cls-1" x="15.25" y="43.51" width="2.08" height="2.08" transform="translate(-26.73 24.57) rotate(-45)"/><g class="cls-11"><polygon class="cls-1" points="16.29 41.6 19.25 44.55 16.29 47.5 13.34 44.55 16.29 41.6"/></g><rect class="cls-1" x="13.18" y="45.91" width="2.08" height="2.08" transform="translate(-29.04 23.82) rotate(-45.02)"/><g class="cls-12"><polygon class="cls-1" points="14.24 44 17.19 46.95 14.24 49.9 11.29 46.95 14.24 44"/></g><polygon class="cls-1" points="18.74 45.57 20.22 47.03 21.69 45.57 20.22 44.08 18.74 45.57"/><g class="cls-13"><polygon class="cls-1" points="20.22 42.6 23.17 45.57 20.22 48.52 17.27 45.57 20.22 42.6"/></g><rect class="cls-1" x="3.75" y="41.05" width="1.23" height="1.23" transform="translate(-28.18 15.29) rotate(-45)"/><g class="cls-14"><polygon class="cls-1" points="4.37 39.93 6.1 41.66 4.37 43.4 2.63 41.66 4.37 39.93"/></g><path class="cls-1" d="M4,48.63a.3.3,0,1,1,0,.59.28.28,0,0,1-.28-.3A.27.27,0,0,1,4,48.63m0,1.1a.3.3,0,0,1,.3.3.29.29,0,0,1-.3.29A.28.28,0,0,1,3.67,50a.27.27,0,0,1,.28-.3"/><path class="cls-1" d="M7.12,50.37a.3.3,0,0,1,.3.28.3.3,0,0,1-.3.3.29.29,0,0,1-.29-.3.28.28,0,0,1,.29-.28m0,1.08a.3.3,0,0,1,.3.3.3.3,0,0,1-.59,0,.28.28,0,0,1,.29-.3"/><path class="cls-1" d="M12.52,46.12a.29.29,0,0,1,.3.28.29.29,0,0,1-.3.3.28.28,0,0,1-.28-.3.29.29,0,0,1,.28-.28m0,1.1a.29.29,0,0,1,.3.3.28.28,0,0,1-.3.28.27.27,0,0,1-.28-.28.28.28,0,0,1,.28-.3"/><path class="cls-1" d="M18.69,44.68a.3.3,0,1,1,0,.59.3.3,0,0,1,0-.59m0,1.09a.3.3,0,0,1,.3.3.29.29,0,0,1-.3.28.28.28,0,0,1-.29-.28.29.29,0,0,1,.29-.3"/><path class="cls-1" d="M15.17,46.88a.3.3,0,1,1,0,.59.3.3,0,0,1,0-.59m0,1.09a.29.29,0,0,1,.3.3.28.28,0,0,1-.3.28.27.27,0,0,1-.28-.28.28.28,0,0,1,.28-.3"/><path class="cls-1" d="M9.45,48.88a.3.3,0,1,1,0,.59.3.3,0,0,1,0-.59m0,1.09a.29.29,0,0,1,.3.3.28.28,0,0,1-.3.28.27.27,0,0,1-.28-.28.28.28,0,0,1,.28-.3"/><path class="cls-1" d="M11.17,50.27a.29.29,0,1,1,.58,0,.28.28,0,0,1-.3.28.28.28,0,0,1-.28-.28m0-1.1a.29.29,0,0,1,.28-.29.3.3,0,1,1,0,.59.29.29,0,0,1-.28-.3m-1.39.65,1.92,1.91,1.92-1.91L11.7,47.9Z"/><g class="cls-15"><polygon class="cls-1" points="11.7 45.98 15.54 49.82 11.7 53.65 7.87 49.82 11.7 45.98"/></g><path class="cls-1" d="M14.6,51.3a.3.3,0,1,1,.59,0,.28.28,0,0,1-.3.28.3.3,0,0,1-.29-.28m0-1.1a.28.28,0,0,1,.29-.28.3.3,0,0,1,.3.28.3.3,0,1,1-.59,0m-1.36.73,1.91,1.92,1.92-1.92L15.15,49Z"/><g class="cls-16"><polygon class="cls-1" points="15.15 47.1 18.99 50.95 15.15 54.78 11.32 50.95 15.15 47.1"/></g><path class="cls-1" d="M17.47,48.88a.3.3,0,0,1,.28-.3.3.3,0,0,1,.3.3.29.29,0,0,1-.3.29.28.28,0,0,1-.28-.29m0-1.08a.28.28,0,0,1,.28-.28.29.29,0,0,1,.3.28.29.29,0,0,1-.3.3.31.31,0,0,1-.28-.3m-1.95.05,1.92,1.92,1.91-1.92-1.91-1.93Z"/><g class="cls-17"><polygon class="cls-1" points="17.44 44 21.29 47.85 17.44 51.68 13.6 47.85 17.44 44"/></g><path class="cls-1" d="M22.24,50.6a.3.3,0,0,1,.3.28.3.3,0,0,1-.3.3.29.29,0,0,1-.29-.3.28.28,0,0,1,.29-.28m0,1.08a.31.31,0,0,1,.3.3.3.3,0,1,1-.3-.3"/><path class="cls-1" d="M24.82,55.32a.29.29,0,0,1,.3.28.29.29,0,0,1-.3.3.28.28,0,0,1-.28-.3.26.26,0,0,1,.28-.28m0,1.08a.29.29,0,0,1,.3.3.28.28,0,0,1-.3.28.27.27,0,0,1-.28-.28.28.28,0,0,1,.28-.3"/><path class="cls-1" d="M30.67,53.73a.3.3,0,1,1,0,.59.29.29,0,0,1-.28-.3.28.28,0,0,1,.28-.29m0,1.09a.29.29,0,0,1,.3.3.28.28,0,0,1-.3.28.28.28,0,0,1-.28-.28.28.28,0,0,1,.28-.3"/><path class="cls-1" d="M9.42,44.47a.3.3,0,0,1,.3.28.3.3,0,0,1-.3.3.29.29,0,0,1-.29-.3.28.28,0,0,1,.29-.28m0,1.1a.3.3,0,0,1,.3.3.29.29,0,0,1-.3.28.28.28,0,0,1-.29-.28.29.29,0,0,1,.29-.3"/><path class="cls-1" d="M14.52,53.42a.29.29,0,0,1,.3.28.29.29,0,0,1-.3.3.28.28,0,0,1-.28-.3.29.29,0,0,1,.28-.28m0,1.1a.29.29,0,0,1,.3.3.28.28,0,0,1-.3.28.27.27,0,0,1-.28-.28.28.28,0,0,1,.28-.3"/><path class="cls-1" d="M16.47,54.5a.29.29,0,1,1,.58,0,.29.29,0,0,1-.58,0m0-1.1a.28.28,0,0,1,.28-.28.29.29,0,0,1,.3.28.29.29,0,0,1-.3.3.28.28,0,0,1-.28-.3M15,54.3l1.92,1.92,1.92-1.92-1.92-1.92Z"/><g class="cls-18"><polygon class="cls-1" points="16.92 50.47 20.75 54.3 16.92 58.13 13.09 54.3 16.92 50.47"/></g><path class="cls-1" d="M13,44.85a.15.15,0,0,1,.3,0c0,.1-.08.13-.15.13S13,45,13,44.85m0-.93a.15.15,0,1,1,.3,0c0,.1-.08.13-.15.13a.12.12,0,0,1-.15-.13"/><path class="cls-1" d="M14.72,43.62a.29.29,0,0,1,.3.28.29.29,0,0,1-.3.3.28.28,0,0,1-.28-.3.27.27,0,0,1,.28-.28m0,1.08a.29.29,0,0,1,.3.3.28.28,0,0,1-.3.28.27.27,0,0,1-.28-.28.28.28,0,0,1,.28-.3"/><path class="cls-1" d="M10,53.27a.17.17,0,0,1,.15-.17.18.18,0,0,1,.17.17.16.16,0,0,1-.17.15.14.14,0,0,1-.15-.15m0-1a.17.17,0,0,1,.15-.17.18.18,0,0,1,.17.17.16.16,0,0,1-.17.15.15.15,0,0,1-.15-.15"/><path class="cls-1" d="M11.8,54.28a.3.3,0,1,1,0,.59.29.29,0,0,1-.28-.3.28.28,0,0,1,.28-.29m0,1.09a.29.29,0,0,1,.3.3.28.28,0,0,1-.3.28.28.28,0,0,1-.28-.28.28.28,0,0,1,.28-.3"/><path class="cls-1" d="M5.88,43.9A.17.17,0,0,1,6,43.73a.17.17,0,0,1,.17.17.16.16,0,0,1-.17.15s-.15,0-.15-.15m0-1A.16.16,0,0,1,6,42.72a.16.16,0,0,1,.17.16A.16.16,0,0,1,6,43a.16.16,0,0,1-.15-.15"/><path class="cls-1" d="M3.12,41.87a.13.13,0,1,1,.26,0,.13.13,0,0,1-.26,0m0-.82a.13.13,0,0,1,.26,0,.13.13,0,0,1-.26,0"/><path class="cls-1" d="M7.17,47.05a.15.15,0,0,1,.15-.15.15.15,0,0,1,.15.15.14.14,0,0,1-.15.13.12.12,0,0,1-.15-.13m0-.92A.15.15,0,0,1,7.32,46a.15.15,0,0,1,.15.15.15.15,0,0,1-.3,0"/><path class="cls-1" d="M4.2,47a.15.15,0,0,1,.3,0c0,.1-.08.13-.15.13s-.15,0-.15-.13m0-.92a.15.15,0,0,1,.3,0c0,.1-.08.13-.15.13a.14.14,0,0,1-.15-.13"/><path class="cls-1" d="M1.9,43.92A.14.14,0,0,1,2,43.77a.14.14,0,0,1,.15.15c0,.1-.08.13-.15.13s-.13,0-.13-.13m0-.92A.15.15,0,0,1,2,42.85a.15.15,0,0,1,.15.15c0,.1-.08.13-.15.13A.14.14,0,0,1,1.9,43"/><path class="cls-1" d="M31.67,48.9a.29.29,0,0,1,.3.28.29.29,0,0,1-.3.3.28.28,0,0,1-.28-.3.28.28,0,0,1,.28-.28m0,1.1a.29.29,0,0,1,.3.3.29.29,0,0,1-.58,0,.28.28,0,0,1,.28-.3"/><path class="cls-1" d="M19.17,51.52a.29.29,0,1,1,.58,0,.28.28,0,0,1-.3.28.27.27,0,0,1-.28-.28m-2,.4,1.92,1.91L21,51.92,19.77,50.7l-.6,0-.1-.77Z"/><g class="cls-19"><polygon class="cls-1" points="19.07 48.08 22.9 51.92 19.07 55.75 15.24 51.92 19.07 48.08"/></g><path class="cls-1" d="M19.17,50.43a.28.28,0,0,1,.28-.28.29.29,0,0,1,.3.28.29.29,0,0,1-.3.3.3.3,0,0,1-.28-.3m-1.07-.61,1.49,1.48,1.48-1.48-1.48-1.49Z"/><g class="cls-20"><polygon class="cls-1" points="19.57 46.87 22.52 49.82 19.57 52.77 16.62 49.82 19.57 46.87"/></g><rect class="cls-1" x="19.1" y="54" width="2.72" height="2.72" transform="translate(-33.15 30.69) rotate(-45.01)"/><g class="cls-21"><polygon class="cls-1" points="20.45 51.52 24.29 55.37 20.45 59.2 16.62 55.37 20.45 51.52"/></g><path class="cls-1" d="M83.41,43.25V52.6c0,4.62-2.9,6.7-7.31,6.7s-7.32-2.1-7.32-6.7V43.25h5.75v8.8c0,1.23,0,2.33,1.57,2.33s1.56-1.08,1.56-2.33v-8.8Z"/><path class="cls-1" d="M92.42,53.33s-1-4.15-1-4.81h-.22L90.1,53.33Zm-3.81,5.72H82.53L88,43.25h6.36L100,59.05H93.92l-.52-2H89.06Z"/><path class="cls-1" d="M96,43.92h.1s.1,0,.12,0a.09.09,0,0,0,.06-.1.13.13,0,0,0,0-.1.28.28,0,0,0-.15,0H96Zm.48.43h-.16v0h0v-.1c0-.09,0-.14-.07-.15a.24.24,0,0,0-.13,0H96v.3h-.16v-.8h.28a1,1,0,0,1,.22,0,.22.22,0,0,1,.13.22.2.2,0,0,1-.08.17h-.05a.13.13,0,0,1,.06.07.18.18,0,0,1,.05.13v.17Zm-.35-1a.56.56,0,0,0-.41.16.6.6,0,0,0,0,.84.56.56,0,0,0,.41.16.58.58,0,0,0,.42-.16.6.6,0,0,0,0-.84.67.67,0,0,0-.42-.16m0,1.3a.65.65,0,0,1-.5-.22.74.74,0,0,1-.21-.52.64.64,0,0,1,.21-.5.75.75,0,0,1,.5-.21.62.62,0,0,1,.5.21.72.72,0,0,1,.22.5.7.7,0,0,1-.22.52.63.63,0,0,1-.5.22"/></svg>