<svg id="Layer_1" data-name="Layer 1" xmlns="http://www.w3.org/2000/svg" viewBox="0 0 100 100"><defs><style>.cls-1{fill:#ea6e4c;}</style></defs><path class="cls-1" d="M95.88,55.53c-1.22-.05-2.45,0-3.68,0-5,0-5,0-4.89-5.08A40.81,40.81,0,0,0,74.23,19l0-.05-.9-.8a40.92,40.92,0,0,0-62,9.59l-.07.11c-.21.36-.43.72-.63,1.08A40.7,40.7,0,0,0,5.48,52.11c.08,1.34,1,3.32-1.72,3.51-2.35.16-4.11,1.33-3.7,4s2.46,3,4.75,3c3.55-.07,7.11,0,10.66,0,2.28,0,3.92.92,4,3.33.07,2.18-1.32,3.39-3.47,3.42-2.67,0-4.41,1.23-4.2,3.92s2.41,3,4.68,2.94c6.37-.05,12.74-.06,19.12,0,2.35,0,4.09,1,3.95,3.73-.13,2.49-1.74,3.28-4,3.27-3.92,0-7.84,0-11.77,0-2.49,0-4.93.13-4.94,3.4s2.46,3.38,4.94,3.37c13.24,0,26.48,0,39.71,0,5.76,0,11.52,0,17.28,0,2.34,0,4.28-.43,4.35-3.22.08-3-2-3.6-4.44-3.54-1,0-2,0-2.94,0H60.09c-2.31,0-3.84-1-3.91-3.4s1.52-3.44,3.76-3.6c.73-.06,1.47,0,2.2,0,2.24,0,4.33-.25,4.51-3.08.2-3-1.8-3.71-4.28-3.72C60.11,69.32,58.8,68,58.8,66c0-2.27,1.49-3.5,3.88-3.43,1.47,0,2.95,0,4.42,0,9.56,0,19.12,0,28.68,0,2.41,0,4.14-.76,4.22-3.45S98.18,55.63,95.88,55.53Z"/></svg>