<?xml version="1.0" encoding="UTF-8"?><svg id="Layer_1" xmlns="http://www.w3.org/2000/svg" viewBox="0 0 100 100"><defs><style>.cls-1{fill:#f5a800;}.cls-2{fill:#425cc7;}</style></defs><path class="cls-1" d="M52.88,54.67c-4.26,4.26-4.26,11.18,0,15.44,4.26,4.26,11.18,4.26,15.44,0,4.26-4.26,4.26-11.18,0-15.44-4.26-4.26-11.18-4.26-15.44,0h0Zm11.56,11.56c-2.1,2.1-5.54,2.1-7.65,0s-2.1-5.54,0-7.65,5.54-2.1,7.65,0,2.1,5.54,0,7.65ZM68.14,1l-6.68,6.68c-1.31,1.31-1.31,3.44,0,4.76l26.12,26.12c1.31,1.31,3.44,1.31,4.76,0l6.68-6.68c1.31-1.31,1.31-3.44,0-4.76L72.9,1c-1.31-1.31-3.44-1.31-4.76,0ZM21.3,86.42c1.2-1.2,1.2-3.12,0-4.32l-3.41-3.41c-1.2-1.2-3.12-1.2-4.32,0l-7,7-1.93-1.93c-1.05-1.05-2.8-1.05-3.85,0s-1.05,2.8,0,3.85l11.59,11.59c1.05,1.05,2.8,1.05,3.85,0s1.05-2.8,0-3.85l-1.93-1.93,7-7Z"/><path class="cls-2" d="M56.67,20.17l-14.85,14.85c-1.31,1.31-1.31,3.5,0,4.82l9.16,9.16c6.48-4.67,15.58-4.09,21.42,1.75l7.41-7.41c1.31-1.31,1.31-3.5,0-4.82l-18.33-18.33c-1.34-1.34-3.5-1.34-4.82-.03h0Zm-9.54,32.71l-5.43-5.43c-1.25-1.25-3.36-1.25-4.61,0l-19.11,19.11c-1.25,1.25-1.25,3.36,0,4.61l10.83,10.83c1.25,1.25,3.36,1.25,4.61,0l12.29-12.29c-2.57-5.4-2.1-11.88,1.43-16.84h0Z"/></svg>