<?xml version="1.0" encoding="UTF-8"?><svg id="Layer_1" xmlns="http://www.w3.org/2000/svg" viewBox="0 0 100 100"><defs><style>.cls-1{fill:#ed1c24;}</style></defs><g id="layer1"><g id="g16337"><path id="path16197" class="cls-1" d="M42.02,52.08h6.36l-3.36-5.41-6.18,9.79h-2.82l7.52-11.78c.34-.48,.89-.77,1.48-.77,.58,0,1.12,.27,1.44,.75l7.56,11.8h-2.82l-1.34-2.19h-6.45l-1.4-2.19Zm29.23,2.19v-10.24h-2.39v11.23c0,.31,.12,.61,.34,.83,.23,.23,.54,.37,.87,.36h10.89l1.4-2.19h-11.12Zm-39.51-1.82c2.32,0,4.19-1.88,4.19-4.2,0-2.32-1.88-4.19-4.19-4.19h-10.44v12.43h2.37v-10.24h7.91c1.11,0,2.01,.9,2.01,2s-.9,2.01-2,2.01h-6.73l7.13,6.22h3.47l-4.8-4.01h1.09v-.02Zm-25.13,4.01c-3.43,0-6.21-2.78-6.21-6.21s2.78-6.21,6.21-6.21h7.22c3.43,0,6.21,2.78,6.21,6.21s-2.78,6.21-6.21,6.21H6.61Zm7.06-2.19c2.22,0,4.01-1.8,4.01-4.01s-1.8-4.01-4.01-4.01H6.78c-2.22,0-4.01,1.8-4.01,4.01s1.8,4.01,4.01,4.01h6.89Zm45.34,2.19c-3.43,0-6.21-2.78-6.21-6.21s2.78-6.21,6.21-6.21h8.57l-1.4,2.19h-7.01c-2.22,0-4.01,1.8-4.01,4.01s1.8,4.01,4.01,4.01h8.61l-1.4,2.19h-7.38v.02Zm29.21-2.19c-1.79,0-3.37-1.2-3.87-2.92h10.22l1.4-2.19h-11.61c.49-1.73,2.07-2.92,3.87-2.92h7.01l1.42-2.19h-8.57c-3.43,0-6.21,2.78-6.21,6.21s2.78,6.21,6.21,6.21h7.36l1.4-2.19-8.61-.02"/><path id="path16199" class="cls-1" d="M97.9,45.37c0-.6,.49-1.09,1.09-1.09s1.09,.49,1.09,1.09c0,.6-.49,1.09-1.09,1.09h0c-.6,0-1.09-.48-1.09-1.09,0,0,0,0,0,0Zm1.09,1.4c.77,0,1.4-.63,1.4-1.4s-.63-1.4-1.4-1.4-1.4,.63-1.4,1.4,.63,1.4,1.4,1.4Zm-.12-2.23c.14-.01,.27,0,.41,.04,.19,.06,.32,.24,.3,.45,0,.04,0,.08-.02,.12-.01,.11-.08,.21-.18,.26-.02,0-.02,.02-.06,.04l.36,.65h-.34l-.32-.59h-.21v.58h-.3v-1.56h.37Zm.1,.73c.1,0,.2,0,.26-.1,.03-.04,.04-.09,.04-.14,0-.08-.05-.15-.12-.18-.09-.02-.19-.03-.28-.02h-.07v.45h.18"/></g></g></svg>