<svg id="Layer_1" data-name="Layer 1" xmlns="http://www.w3.org/2000/svg" viewBox="0 0 100 100"><defs><style>.cls-1{fill:#336791;}.cls-2{fill:#fff;}</style></defs><g id="Layer_3"><path d="M74,72.74c.63-5.3.44-6.08,4.39-5.22l1,.09A22.91,22.91,0,0,0,88.75,66c5-2.33,8-6.22,3-5.2-11.29,2.33-12.07-1.5-12.07-1.5C91.65,41.65,96.63,19.2,92.33,13.7c-11.74-15-32-7.9-32.39-7.72l-.11,0a40,40,0,0,0-7.53-.78A18.52,18.52,0,0,0,40.37,8.79S4.14-6.14,5.82,27.56c.36,7.17,10.28,54.25,22.11,40,4.32-5.2,8.5-9.6,8.5-9.6a11,11,0,0,0,7.17,1.83l.2-.17a7.42,7.42,0,0,0,.08,2c-3.05,3.4-2.15,4-8.25,5.25s-2.54,3.53-.18,4.13c2.87.71,9.5,1.73,14-4.54l-.17.71c1.19,1,1.11,6.87,1.28,11.1s.45,8.18,1.31,10.5,1.88,8.32,9.89,6.6C68.43,94,73.55,91.94,74,72.74"/><path d="M59,99.94c-5.29,0-8.95-3-10.91-9-.08-.23-.14-.45-.21-.63-1-2.76-1.37-6.71-1.57-11.79,0-.75-.06-1.55-.08-2.37,0-.51,0-1.09-.05-1.7a18.2,18.2,0,0,1-11.78.7,9.91,9.91,0,0,1-5.17-2.95A8.56,8.56,0,0,1,20.79,74C8,69.75,1.8,31.05,1.63,27.77,1.1,17.16,4,9.56,10.16,5.18c9.65-6.81,24.18-2.92,29.65-1.07A23.44,23.44,0,0,1,52.37,1a45.88,45.88,0,0,1,7.15.65c5.91-1.93,24.67-5.18,36.12,9.44,6,7.68-.1,29.91-9.73,46.28a29.42,29.42,0,0,0,5-.66c5.49-1.14,7,2.09,7.35,3.11,1.7,5.15-5.52,9-7.78,10a26.94,26.94,0,0,1-11.29,2l-.86-.07-.06.51-.09.79c-.51,19.58-5.88,24.43-15.59,26.51A17.14,17.14,0,0,1,59,99.94ZM51.88,64c2.39,1.92,2.6,5.42,2.78,11.94,0,.79.05,1.56.07,2.27.09,2.14.29,7.14,1.06,9.21.1.28.21.6.32.95.87,2.66,1.23,3.77,4.75,3,5-1.06,8.55-1.83,9-18.7l0-.39.11-1c.36-3.12.65-5.59,2.89-7.19a6.3,6.3,0,0,1,4.36-1,5.87,5.87,0,0,1-1.6-2.88l-.35-1.72,1-1.46C88.12,39.38,91.34,19.33,89,16.29,79.69,4.36,63.46,9.23,61.67,9.82l-.31.17-1.57.29L59,10.11a36.64,36.64,0,0,0-6.75-.7,14.45,14.45,0,0,0-9.32,2.72L41,13.58l-2.23-.91C34.43,10.89,21.68,7.31,15,12.05c-3.68,2.61-5.35,7.75-5,15.3.13,2.61,1.9,12.42,4.83,21.85,4.07,13.13,7.66,16.65,8.61,16.85a4.77,4.77,0,0,0,1.24-1.14c4.36-5.25,8.51-9.62,8.69-9.81l2.43-2.55,2.93,2A6.86,6.86,0,0,0,42,55.65l7-5.95L48,60.06A4.23,4.23,0,0,0,48,61l.3,2L47,64.47l0,0L50.23,66ZM61.94,9.67l-.11.06Z"/><path class="cls-1" d="M91.79,60.84c-11.29,2.33-12.07-1.5-12.07-1.5C91.65,41.65,96.63,19.19,92.33,13.7,80.6-1.29,60.28,5.8,59.94,6l-.11,0a40.78,40.78,0,0,0-7.53-.79A18.64,18.64,0,0,0,40.37,8.78S4.14-6.14,5.82,27.56c.36,7.17,10.28,54.25,22.11,40,4.32-5.2,8.5-9.6,8.5-9.6a11,11,0,0,0,7.16,1.83l.21-.17a7.42,7.42,0,0,0,.08,2c-3.05,3.4-2.15,4-8.25,5.25s-2.54,3.53-.18,4.13c2.87.71,9.5,1.73,14-4.54l-.18.71c1.2,1,2,6.22,1.9,11s-.24,8,.7,10.61,1.88,8.32,9.89,6.6C68.43,94,71.9,90.28,72.38,84.08c.34-4.4,1.12-3.75,1.17-7.69l.62-1.87c.72-6,.11-7.9,4.24-7l1,.09A23.08,23.08,0,0,0,88.75,66c5-2.33,8-6.22,3-5.2Z"/><path class="cls-2" d="M59.53,97.33c-6.74,0-8.87-5.33-9.75-7.52-1.27-3.2-1.55-15.15-1.26-25.59a1.4,1.4,0,0,1,2.8.08c-.33,11.62.13,22.14,1.06,24.47,1.45,3.62,3.64,6.78,9.84,5.45,6-1.28,8.1-3.43,9.09-9.21.77-4.41,2.27-17,2.46-19.46a1.4,1.4,0,1,1,2.79.21c-.19,2.59-1.7,15.14-2.49,19.73-1.18,6.85-4.23,10-11.27,11.47A16,16,0,0,1,59.53,97.33Z"/><path class="cls-2" d="M23.34,71.51a5.53,5.53,0,0,1-1.75-.29C11.19,67.75,4.57,32,4.34,27.49c-.48-9.6,2-16.39,7.36-20.19,10.6-7.5,28.4-.37,29.15-.06a1.4,1.4,0,0,1-1.06,2.59C39.62,9.76,22.65,3,13.32,9.59,8.79,12.8,6.71,18.78,7.14,27.35c.14,2.71,1.85,12.38,4.78,22,3.4,11.11,7.24,18.12,10.56,19.22.51.17,2.05.69,4.29-2,4.31-5.18,8.26-9.32,8.3-9.36a1.4,1.4,0,0,1,2,1.94s-3.93,4.11-8.16,9.2C26.89,70.79,24.94,71.51,23.34,71.51Z"/><path class="cls-2" d="M79.64,60.6a1.39,1.39,0,0,1-.78-.23,1.41,1.41,0,0,1-.38-1.95c12-17.85,16.27-39.39,12.67-44C80.4.68,62.18,6.51,60.53,7.08l-.21.09a1.45,1.45,0,0,1-1.74-.75,1.38,1.38,0,0,1,.55-1.77l.36-.14h0l.2,0C63.14,3.33,82-1.78,93.35,12.7,98.5,19.27,92.16,43.13,80.81,60A1.41,1.41,0,0,1,79.64,60.6Z"/><path class="cls-2" d="M80.26,68.88a10.57,10.57,0,0,1-5.06-1,2.7,2.7,0,0,1-1.43-2.18c-.31-5.37,2.56-6.43,4.16-6.89-.21-.29-.47-.63-.75-1a19.57,19.57,0,0,1-3.07-5c-.14-.35-.61-1.18-1.14-2.14-2.91-5.22-9-16.09-5.06-21.69,1.8-2.57,5.36-3.6,10.57-3.08C76.8,21.19,69.34,6.75,52.2,6.47,47,6.37,42.67,8,39.45,11.24c-7.22,7.29-7,20.55-7,20.68a1.4,1.4,0,1,1-2.79.08c0-.59-.29-14.57,7.77-22.72,3.79-3.82,8.76-5.7,14.79-5.61,21.48.36,29.14,20.77,29.4,23.5A1.58,1.58,0,0,1,80.47,29H80c-3.52-.57-8.08-.73-9.75,1.66-2.92,4.17,2.77,14.37,5.2,18.73.63,1.12,1.08,1.93,1.29,2.43a16.34,16.34,0,0,0,2.67,4.27A7.41,7.41,0,0,1,81,58.82c.13.21,1.69,2.31,10.44.51,2.31-.48,3.69-.06,4.12,1.24.83,2.52-3.75,5.42-6.29,6.6A23.63,23.63,0,0,1,80.26,68.88Zm-3.7-3.41c1,1,7.8.88,11.52-.84a15.67,15.67,0,0,0,4-2.57H92c-5.75,1.19-9.82,1-12.11-.48l-.4-.3c-.23.09-.44.15-.58.19C77.62,61.84,76.39,62.18,76.56,65.47Z"/><path class="cls-2" d="M39.49,72.85A18.28,18.28,0,0,1,35,72.27c-.44-.11-4.34-1.15-4.28-3.65,0-2.28,3.3-3,4.52-3.2,4.31-.88,4.58-1.24,5.92-2.94.4-.5.89-1.13,1.56-1.88h0C45,58.1,47.1,59,48,59.35A5.65,5.65,0,0,1,51.08,63a4.74,4.74,0,0,1-.59,4.15A13,13,0,0,1,39.49,72.85Zm-5.64-4.1a5.93,5.93,0,0,0,1.86.81c3.74.93,8.94,1,12.5-4a2,2,0,0,0,.18-1.75,3,3,0,0,0-1.45-1.88c-.77-.31-1.18-.49-2.1.54h0c-.61.69-1.06,1.25-1.45,1.75-1.71,2.16-2.49,2.9-7.55,3.94A10,10,0,0,0,33.85,68.75Zm9.95-7.21h0Z"/><path class="cls-2" d="M43.6,62.88a1.41,1.41,0,0,1-1.39-1.19l-.06-.56a12.74,12.74,0,0,1-8.86-4,14.53,14.53,0,0,1-3.84-12.19,57.11,57.11,0,0,0,.29-11.52c0-.65-.07-1.14-.06-1.44,0-2.25,6.61-5.13,10.44-5.53,4.73-.49,7.87,1.63,8.81,6,2.5,11.57.2,16.69-1.49,20.43-.31.7-.6,1.35-.84,2l-.21.56c-.88,2.37-1.64,4.41-1.41,5.91a1.4,1.4,0,0,1-1.17,1.6ZM32.48,32.36c0,.23,0,.52.05.87a59.17,59.17,0,0,1-.31,12.07,11.81,11.81,0,0,0,3.09,9.87,9.94,9.94,0,0,0,7.15,3.16,36.41,36.41,0,0,1,1.31-3.95l.21-.56c.27-.72.58-1.42.91-2.15,1.61-3.58,3.61-8,1.3-18.7a4.22,4.22,0,0,0-3.27-3.66C39.06,28.43,33.65,31.32,32.48,32.36Zm-.16.17Z"/><path class="cls-2" d="M40.19,31.76c-.07.46.83,1.68,2,1.84a2.17,2.17,0,0,0,2.25-1.25c.06-.45-.84-1-2-1.12s-2.18.07-2.24.53Z"/><path class="cls-2" d="M42.46,34.09a1.66,1.66,0,0,1-.32,0,3.12,3.12,0,0,1-2-1.24,1.79,1.79,0,0,1-.42-1.13,1,1,0,0,1,.37-.58,3.42,3.42,0,0,1,2.4-.34c1.25.17,2.54.76,2.42,1.65A2.59,2.59,0,0,1,42.46,34.09Zm-1.8-2.24a2.24,2.24,0,0,0,1.6,1.29A1.79,1.79,0,0,0,44,32.28a3.12,3.12,0,0,0-1.61-.59A2.74,2.74,0,0,0,40.66,31.85Zm0,0Z"/><path class="cls-2" d="M76,30.83c.06.45-.84,1.68-2,1.84a2.17,2.17,0,0,1-2.24-1.25c-.07-.46.83-1,2-1.13s2.18.08,2.25.54Z"/><path class="cls-2" d="M73.7,32.92a2.39,2.39,0,0,1-2.22-1.47c-.09-.69,1-1.22,2.22-1.39s2.41,0,2.51.73h0A1.8,1.8,0,0,1,75.6,32,2.86,2.86,0,0,1,74,32.9Zm.76-2.44a4.51,4.51,0,0,0-.7.05c-1.23.17-1.84.66-1.81.86a2,2,0,0,0,2,1,2.42,2.42,0,0,0,1.34-.74,1.57,1.57,0,0,0,.48-.84h0C75.72,30.7,75.26,30.48,74.46,30.48Z"/><path class="cls-2" d="M77.67,57.2A1.4,1.4,0,0,1,76.51,55c2.73-4.08,2.23-8.26,1.75-12.3a34.33,34.33,0,0,1-.37-5.25,36.66,36.66,0,0,1,.5-4.64,24,24,0,0,0,.4-5.1,1.4,1.4,0,0,1,2.79-.15,25.63,25.63,0,0,1-.43,5.67,35.19,35.19,0,0,0-.46,4.31A33.21,33.21,0,0,0,81,42.39c.53,4.33,1.12,9.24-2.19,14.19A1.42,1.42,0,0,1,77.67,57.2Z"/></g></svg>