<svg id="Layer_1" data-name="Layer 1" xmlns="http://www.w3.org/2000/svg" viewBox="0 0 100 100"><defs><style>.cls-1{fill:#f60;}</style></defs><path class="cls-1" d="M93.19,39.48H61.76a2.86,2.86,0,0,1-2.85-2.86V3.87A4.4,4.4,0,0,0,54.52-.52H43.3a4.39,4.39,0,0,0-4.39,4.39V36.42a3.07,3.07,0,0,1-3.06,3.07l-10.3,0a3.07,3.07,0,0,1-3.08-3.07l.06-32.59a4.39,4.39,0,0,0-4.39-4.4H6.93A4.4,4.4,0,0,0,2.54,3.87V95.58a3.91,3.91,0,0,0,3.9,3.9H93.19a3.91,3.91,0,0,0,3.9-3.9V43.38A3.9,3.9,0,0,0,93.19,39.48ZM78.45,73.91A5.11,5.11,0,0,1,73.34,79H64.47a5.11,5.11,0,0,1-5.11-5.11V65.05a5.11,5.11,0,0,1,5.11-5.12h8.87a5.11,5.11,0,0,1,5.11,5.12v8.86Z"/></svg>