<svg id="Layer_1" data-name="Layer 1" xmlns="http://www.w3.org/2000/svg" viewBox="0 0 100 100"><defs><style>.cls-1{fill:#912626;}.cls-2{fill:#c6302b;}.cls-3{fill:#fff;}.cls-4{fill:#621b1c;}.cls-5{fill:#9a2928;}</style></defs><path class="cls-1" d="M96.07,71.33c-5.34,2.39-33,12.19-38.87,14.83s-9.17,2.62-13.8.7S9.34,74.69,4,72.52c-2.63-1.08-4-2-4-2.88v-8.7s38.3-7.19,44.48-9.08,8.32-2,13.58-.31S94.79,58.1,100,59.75v8.57c0,.83-1.21,1.78-3.93,3"/><path class="cls-2" d="M96.07,62.67c-5.34,2.4-33,12.2-38.87,14.83s-9.17,2.62-13.8.71S9.34,66.05,4,63.88s-5.4-3.69-.19-5.43S38.32,46.81,44.47,44.89s8.33-2,13.58-.3S90.79,55.66,96,57.31s5.43,3,.09,5.36"/><path class="cls-1" d="M96.07,57.24c-5.34,2.4-33,12.2-38.87,14.84s-9.17,2.61-13.8.7S9.34,60.63,4,58.45c-2.64-1.07-4-2-4-2.88v-8.7s38.3-7.16,44.47-9.07,8.33-2,13.58-.31S94.77,44,100,45.69v8.57c0,.81-1.19,1.75-3.91,3"/><path class="cls-2" d="M96.07,48.59C90.73,51,63.09,60.78,57.2,63.42S48,66,43.4,64.12,9.34,52,4,49.79s-5.4-3.69-.19-5.42S38.32,32.72,44.47,30.81s8.33-2,13.58-.31S90.79,41.58,96,43.22s5.43,3,.09,5.37"/><path class="cls-1" d="M96.07,42.63c-5.34,2.4-33,12.2-38.87,14.83s-9.17,2.62-13.8.71S9.34,46,4,43.84c-2.63-1.08-4-2-4-2.88V32.24s38.3-7.17,44.48-9.08,8.32-2,13.58-.3S94.79,29.4,100,31.05v8.57c0,.84-1.21,1.8-3.93,3"/><path class="cls-2" d="M96.07,34c-5.34,2.4-33,12.2-38.87,14.84s-9.17,2.61-13.8.7S9.34,37.36,4,35.18s-5.4-3.69-.19-5.42S38.32,18.09,44.47,16.18s8.33-2,13.58-.31S90.79,26.94,96,28.59s5.43,3,.09,5.38"/><path class="cls-3" d="M62.21,25.51l-8.6.77-1.93,4L48.56,25.8,38.63,25,46,22.72l-2.22-3.51,7,2.33,6.53-1.85-1.78,3.65,6.68,2.17m-11,19.34-16-5.73,23-3-6.94,8.77M28.94,27.71c6.79,0,12.3,1.85,12.3,4.11s-5.49,4.11-12.3,4.11-12.31-1.85-12.31-4.11,5.52-4.11,12.31-4.11"/><path class="cls-4" d="M72.38,26.59,86,31.23l-13.6,4.63V26.59"/><path class="cls-5" d="M57.33,31.73l15-5.12,0,9.25-1.47.49-13.6-4.62"/></svg>