<svg id="Layer_1" data-name="Layer 1" xmlns="http://www.w3.org/2000/svg" viewBox="0 0 100 100"><defs><style>.cls-1{fill:#204956;}</style></defs><path class="cls-1" d="M0,57.45v-1a.28.28,0,0,1,.32-.31H1.41v-11H.32A.28.28,0,0,1,0,44.81V43.75a.29.29,0,0,1,.32-.32c1.8-.08,3.3-.12,4.49-.12q5.49,0,5.49,3.92a4.22,4.22,0,0,1-.7,2.42,4.4,4.4,0,0,1-1.85,1.59l2.47,4.86h1.3a.28.28,0,0,1,.32.31v1c0,.21-.1.31-.32.31H8.74a.5.5,0,0,1-.47-.27L5.4,51.81H5a10.68,10.68,0,0,1-1.2-.06V56.1H5.11a.27.27,0,0,1,.31.31v1a.27.27,0,0,1-.31.31H.32A.28.28,0,0,1,0,57.45ZM3.78,45.06v5.09l.48,0a4.53,4.53,0,0,0,2.66-.68,2.3,2.3,0,0,0,1-2c0-1.61-1.11-2.41-3.33-2.41Zm14,13a4.42,4.42,0,0,1-3.68-1.47,6,6,0,0,1-1.17-3.88,6.26,6.26,0,0,1,1.24-4,4.29,4.29,0,0,1,3.59-1.58,4.24,4.24,0,0,1,2,.43A3.1,3.1,0,0,1,21,48.69,6.44,6.44,0,0,1,21.84,52a2.55,2.55,0,0,1-.08,1,.44.44,0,0,1-.32.09h-6.2A4.25,4.25,0,0,0,16,55.41a2.63,2.63,0,0,0,2.22.84,5.92,5.92,0,0,0,2.39-.55.26.26,0,0,1,.42.17l.4,1c.07.17,0,.31-.19.42A7.17,7.17,0,0,1,17.75,58ZM15.24,51.5h4.39q0-2.64-2.07-2.64a1.93,1.93,0,0,0-1.76.79,3.54,3.54,0,0,0-.56,1.85Zm11.44-2.45v5.32a3,3,0,0,0,.25,1.43,1,1,0,0,0,.95.45,3.16,3.16,0,0,0,1.35-.3c.16-.06.27,0,.34.17l.38,1a.74.74,0,0,1,0,.18q0,.12-.21.24a5.32,5.32,0,0,1-2.41.51,2.51,2.51,0,0,1-3-2.2,15.81,15.81,0,0,1-.09-1.69V49.05h-1.2a.29.29,0,0,1-.32-.32v-1.1a.28.28,0,0,1,.32-.31h1.2V44.47a.29.29,0,0,1,.32-.32h1.73a.29.29,0,0,1,.32.32v2.85h2.13a.28.28,0,0,1,.32.31v1.1a.29.29,0,0,1-.32.32Zm4-5.62V42.34A.28.28,0,0,1,31,42h3.19a.29.29,0,0,1,.32.32v6.5a3.73,3.73,0,0,1,3.27-1.75q3.27,0,3.27,3.58V56.1H42.3a.27.27,0,0,1,.31.31v1a.28.28,0,0,1-.31.32H37.67a.28.28,0,0,1-.31-.32v-1a.27.27,0,0,1,.31-.31h1V51.73a4.26,4.26,0,0,0-.34-1.94A1.45,1.45,0,0,0,37,49.18a2.53,2.53,0,0,0-1.76.63,1.9,1.9,0,0,0-.69,1.43V56.1H35.8a.27.27,0,0,1,.31.31v1a.28.28,0,0,1-.31.32H31a.28.28,0,0,1-.31-.32v-1A.27.27,0,0,1,31,56.1h1.14V43.75H31C30.79,43.75,30.69,43.65,30.69,43.43ZM47.26,56.1h1.33a.27.27,0,0,1,.31.31v1a.28.28,0,0,1-.31.32h-5a.28.28,0,0,1-.31-.32v-1a.27.27,0,0,1,.31-.31h1.33V49.05H43.75a.28.28,0,0,1-.31-.32v-1.1a.27.27,0,0,1,.31-.31h3.19a.28.28,0,0,1,.32.31V56.1Zm-3-11.74a1.51,1.51,0,0,1,.41-1.08,1.59,1.59,0,0,1,2.2,0,1.51,1.51,0,0,1,.41,1.08,1.46,1.46,0,0,1-.42,1.08,1.5,1.5,0,0,1-1.11.42,1.44,1.44,0,0,1-1.09-.42A1.53,1.53,0,0,1,44.3,44.36Zm5.34,4.39V47.63a.28.28,0,0,1,.32-.31h2.87c.18,0,.29.1.34.31l.19,1.23a3.8,3.8,0,0,1,3.37-1.77q3.27,0,3.27,3.58V56.1h1.23a.27.27,0,0,1,.31.31v1a.28.28,0,0,1-.31.32h-4.6a.29.29,0,0,1-.32-.32v-1a.28.28,0,0,1,.32-.31h1V51.73a4.13,4.13,0,0,0-.34-1.94,1.44,1.44,0,0,0-1.39-.61,2.51,2.51,0,0,0-1.75.63,1.88,1.88,0,0,0-.7,1.43V56.1h1.31a.28.28,0,0,1,.32.31v1a.29.29,0,0,1-.32.32H50a.29.29,0,0,1-.32-.32v-1A.28.28,0,0,1,50,56.1H51.1V49.05H50c-.21,0-.32-.1-.32-.3Zm16.57-6.41v8.42h1.08l3.27-3.21a.71.71,0,0,1,.55-.23h1.64a.28.28,0,0,1,.32.31v1.1a.29.29,0,0,1-.32.32H71.46l-2.32,2.26L72,56.1h1.25a.28.28,0,0,1,.32.31v1a.28.28,0,0,1-.32.31H70.56a.58.58,0,0,1-.49-.27l-3.16-5.11h-.7V56.1h1.12a.27.27,0,0,1,.31.31v1a.27.27,0,0,1-.31.31h-4.6a.28.28,0,0,1-.32-.31v-1a.28.28,0,0,1,.32-.31h1.12V43.73H62.71a.28.28,0,0,1-.32-.32V42.34a.28.28,0,0,1,.32-.32h3.18a.29.29,0,0,1,.32.32ZM75,43.43c1.8-.08,3.14-.12,4-.12s1.52,0,2,0a14.26,14.26,0,0,1,1.47.22,6.78,6.78,0,0,1,1.46.46,5.77,5.77,0,0,1,1.3.81,5.12,5.12,0,0,1,1.1,1.22,7.88,7.88,0,0,1,1,4.14c0,2.55-.7,4.44-2.11,5.69a8.42,8.42,0,0,1-5.76,1.87H75a.29.29,0,0,1-.32-.32v-1A.28.28,0,0,1,75,56.1h1.1v-11H75a.28.28,0,0,1-.32-.31V43.75a.29.29,0,0,1,.32-.32ZM83.42,54.6a6.27,6.27,0,0,0,1.28-4.16,6,6,0,0,0-1.19-4,4.71,4.71,0,0,0-3.73-1.37H78.43V56.12h1.39a4.45,4.45,0,0,0,3.6-1.52ZM89,57.45v-1a.28.28,0,0,1,.32-.31H90.4v-11H89.3a.28.28,0,0,1-.32-.31V43.75a.3.3,0,0,1,.32-.34c1.69-.07,3.29-.1,4.81-.1a6.69,6.69,0,0,1,3.64.87,2.81,2.81,0,0,1,1.36,2.5,3.14,3.14,0,0,1-.72,2.06A4.34,4.34,0,0,1,96.67,50a4.08,4.08,0,0,1,2.48,1.2,3.36,3.36,0,0,1,.85,2.32,3.6,3.6,0,0,1-1.33,2.91,6.05,6.05,0,0,1-3.52,1.25c-.61,0-1.58.07-2.92.07h-3a.29.29,0,0,1-.32-.32Zm3.8-6.33v5h.95a5.84,5.84,0,0,0,2.88-.59,2.19,2.19,0,0,0,1-2c0-1.59-1.12-2.38-3.34-2.38Zm0-6.1v4.34h.8c2.09,0,3.13-.72,3.13-2.17a1.86,1.86,0,0,0-.76-1.7A4.2,4.2,0,0,0,93.75,45Z"/></svg>