<svg id="Layer_1" data-name="Layer 1" xmlns="http://www.w3.org/2000/svg" viewBox="0 0 100 100"><defs><style>.cls-1{fill:#626467;}.cls-2{fill:#f99d35;}</style></defs><path class="cls-1" d="M53.59,93.62,49,93.2a98.86,98.86,0,0,0-8.69-44.5c-10-21.93-21.58-26.63-21.72-26.63l.84-2.17.35-2.24A193.55,193.55,0,0,1,63.68,30.83c21.44,9.6,31.68,17,32.17,17.31l-2.67,3.72c-.07-.07-10.37-7.5-31.32-16.82A168.42,168.42,0,0,0,38.52,26.7a150.07,150.07,0,0,1,17,11.7C75.17,54,83.3,79.05,83.65,80.1l-4.34,1.4c-.07-.28-8.13-24.74-26.63-39.52a150.5,150.5,0,0,0-18.5-12.55A83.23,83.23,0,0,1,44.62,46.81a102.35,102.35,0,0,1,9,46.81"/><path class="cls-2" d="M26.33,19.48a6.8,6.8,0,1,1-6.8-6.8,6.8,6.8,0,0,1,6.8,6.8"/><path class="cls-1" d="M57,6.8A6.8,6.8,0,1,1,50.16,0,6.8,6.8,0,0,1,57,6.8"/><path class="cls-1" d="M87.37,19.62a6.8,6.8,0,1,1-6.8-6.8,6.81,6.81,0,0,1,6.8,6.8"/><path class="cls-1" d="M100.05,50.11a6.8,6.8,0,1,1-6.8-6.8,6.8,6.8,0,0,1,6.8,6.8"/><path class="cls-1" d="M87.37,80.52a6.8,6.8,0,1,1-6.8-6.8,6.81,6.81,0,0,1,6.8,6.8"/><path class="cls-1" d="M57,93.2a6.8,6.8,0,1,1-6.79-6.79A6.8,6.8,0,0,1,57,93.2"/><path class="cls-1" d="M26.33,80.66a6.8,6.8,0,1,1-6.8-6.8,6.81,6.81,0,0,1,6.8,6.8"/><path class="cls-1" d="M13.65,50.11a6.8,6.8,0,1,1-6.8-6.8,6.8,6.8,0,0,1,6.8,6.8"/></svg>