<svg id="Layer_1" data-name="Layer 1" xmlns="http://www.w3.org/2000/svg" viewBox="0 0 100 100"><defs><style>.cls-1{fill:#1e5f90;}.cls-2{fill:#fff;}</style></defs><rect class="cls-1" x="5.97" y="38.47" width="88.56" height="23.06" rx="3"/><path class="cls-2" d="M19.37,52.82a2.63,2.63,0,0,1-1,2.17,4.3,4.3,0,0,1-2.76.8,6.64,6.64,0,0,1-2.89-.61v-2a13.34,13.34,0,0,0,1.75.65,5.33,5.33,0,0,0,1.3.18,1.9,1.9,0,0,0,1.1-.27.93.93,0,0,0,.37-.81.9.9,0,0,0-.16-.53,1.8,1.8,0,0,0-.49-.45,14.86,14.86,0,0,0-1.33-.69,6.17,6.17,0,0,1-1.4-.84,3.17,3.17,0,0,1-.74-.94,2.66,2.66,0,0,1-.28-1.26,2.63,2.63,0,0,1,.92-2.13,3.82,3.82,0,0,1,2.53-.77,5.81,5.81,0,0,1,1.52.19,9.79,9.79,0,0,1,1.51.53l-.7,1.68a11.78,11.78,0,0,0-1.35-.47,4.31,4.31,0,0,0-1.05-.13,1.39,1.39,0,0,0-.94.29.92.92,0,0,0-.33.74.91.91,0,0,0,.13.5,1.42,1.42,0,0,0,.43.41,15,15,0,0,0,1.36.72,5.27,5.27,0,0,1,2,1.37A2.6,2.6,0,0,1,19.37,52.82Z"/><path class="cls-2" d="M21.47,54.65a1.15,1.15,0,0,1,.31-.88,1.27,1.27,0,0,1,.92-.3,1.24,1.24,0,0,1,.89.3,1.36,1.36,0,0,1,0,1.75,1.23,1.23,0,0,1-.89.32,1.27,1.27,0,0,1-.91-.31A1.19,1.19,0,0,1,21.47,54.65Z"/><path class="cls-2" d="M31,55.65l-2.46-8h-.06c.09,1.63.13,2.72.13,3.26v4.74H26.72V45.46h2.94l2.41,7.79h0l2.55-7.79h2.95V55.65h-2V50.83c0-.23,0-.5,0-.79s0-1.09.1-2.37h-.07l-2.62,8Z"/><path class="cls-2" d="M40.43,54.65a1.15,1.15,0,0,1,.31-.88,1.29,1.29,0,0,1,.92-.3,1.24,1.24,0,0,1,.89.3,1.36,1.36,0,0,1,0,1.75,1.23,1.23,0,0,1-.89.32,1.28,1.28,0,0,1-.91-.31A1.19,1.19,0,0,1,40.43,54.65Z"/><path class="cls-2" d="M51.92,55.65l-.74-2.43H47.47l-.74,2.43H44.4L48,45.42h2.64l3.61,10.23Zm-1.25-4.24C50,49.21,49.6,48,49.51,47.68s-.15-.51-.18-.68q-.24.89-1.32,4.41Z"/><path class="cls-2" d="M55.78,54.65a1.15,1.15,0,0,1,.31-.88,1.52,1.52,0,0,1,1.81,0,1.36,1.36,0,0,1,0,1.75,1.24,1.24,0,0,1-.9.32,1.26,1.26,0,0,1-.9-.31A1.15,1.15,0,0,1,55.78,54.65Z"/><path class="cls-2" d="M63.19,51.74v3.91H61V45.46h3a5.1,5.1,0,0,1,3.07.75,3,3,0,0,1,.51,3.9,3.29,3.29,0,0,1-1.41,1.1q2.31,3.43,3,4.44h-2.4l-2.43-3.91Zm0-1.76h.7a2.63,2.63,0,0,0,1.51-.34,1.21,1.21,0,0,0,.49-1.07,1.13,1.13,0,0,0-.5-1,3.08,3.08,0,0,0-1.54-.3h-.66Z"/><path class="cls-2" d="M70.7,54.65a1.16,1.16,0,0,1,.32-.88,1.25,1.25,0,0,1,.91-.3,1.29,1.29,0,0,1,.9.3,1.18,1.18,0,0,1,.31.88,1.14,1.14,0,0,1-.32.87,1.21,1.21,0,0,1-.89.32,1.3,1.3,0,0,1-.91-.31A1.19,1.19,0,0,1,70.7,54.65Z"/><path class="cls-2" d="M79.89,55.65H77.72V47.26H75v-1.8h7.69v1.8H79.89Z"/><path class="cls-2" d="M84.47,54.65a1.15,1.15,0,0,1,.31-.88,1.29,1.29,0,0,1,.92-.3,1.24,1.24,0,0,1,.89.3,1.36,1.36,0,0,1,0,1.75,1.21,1.21,0,0,1-.89.32,1.28,1.28,0,0,1-.91-.31A1.19,1.19,0,0,1,84.47,54.65Z"/></svg>