<svg id="Layer_1" data-name="Layer 1" xmlns="http://www.w3.org/2000/svg" viewBox="0 0 100 100"><defs><style>.cls-1{fill:#1e5f90;}.cls-2{fill:#fff;}</style></defs><rect class="cls-1" x="23.6" y="38.47" width="53.31" height="23.06" rx="3"/><path class="cls-2" d="M36.85,52.82a2.63,2.63,0,0,1-1,2.17,4.35,4.35,0,0,1-2.77.8,6.56,6.56,0,0,1-2.88-.61v-2a13.28,13.28,0,0,0,1.74.65,5.4,5.4,0,0,0,1.31.18,1.87,1.87,0,0,0,1.09-.27.94.94,0,0,0,.38-.81.9.9,0,0,0-.17-.53,1.66,1.66,0,0,0-.49-.45q-.33-.21-1.32-.69a6.17,6.17,0,0,1-1.4-.84,3.38,3.38,0,0,1-.75-.94,2.78,2.78,0,0,1-.28-1.26,2.66,2.66,0,0,1,.92-2.13,3.84,3.84,0,0,1,2.53-.77,5.81,5.81,0,0,1,1.52.19A9.79,9.79,0,0,1,36.8,46l-.7,1.68a10.59,10.59,0,0,0-1.35-.47,4.17,4.17,0,0,0-1-.13,1.42,1.42,0,0,0-1,.29,1,1,0,0,0-.19,1.24,1.5,1.5,0,0,0,.42.41,14.24,14.24,0,0,0,1.37.72,5.36,5.36,0,0,1,2,1.37A2.66,2.66,0,0,1,36.85,52.82Z"/><path class="cls-2" d="M43.73,55.65l-2.46-8h-.06c.09,1.63.13,2.72.13,3.26v4.74H39.41V45.46h2.94l2.41,7.79h.05l2.55-7.79h3V55.65h-2V50.83c0-.23,0-.5,0-.79s0-1.09.1-2.37h-.07l-2.62,8Z"/><path class="cls-2" d="M57.52,55.65H55.36V47.26H52.59v-1.8h7.7v1.8H57.52Z"/><path class="cls-2" d="M69.61,48.64a3.1,3.1,0,0,1-1,2.51,4.41,4.41,0,0,1-2.92.87h-.93v3.63H62.57V45.46h3.25a4.27,4.27,0,0,1,2.82.8A2.88,2.88,0,0,1,69.61,48.64Zm-4.88,1.61h.71a2.39,2.39,0,0,0,1.49-.39,1.39,1.39,0,0,0,.5-1.15A1.41,1.41,0,0,0,67,47.59a1.94,1.94,0,0,0-1.3-.36h-1Z"/></svg>