<svg id="Layer_1" data-name="Layer 1" xmlns="http://www.w3.org/2000/svg" viewBox="0 0 100 100"><defs><style>.cls-1{fill:#1e5f90;}.cls-2{fill:#fff;}</style></defs><rect class="cls-1" x="21.82" y="38.47" width="56.63" height="23.06" rx="3"/><path class="cls-2" d="M35.06,52.82a2.63,2.63,0,0,1-1,2.17,4.35,4.35,0,0,1-2.77.8,6.59,6.59,0,0,1-2.88-.61v-2a13.28,13.28,0,0,0,1.74.65,5.47,5.47,0,0,0,1.31.18,1.87,1.87,0,0,0,1.09-.27.94.94,0,0,0,.38-.81.84.84,0,0,0-.17-.53,1.66,1.66,0,0,0-.49-.45A13,13,0,0,0,31,51.25a6.17,6.17,0,0,1-1.4-.84,3.38,3.38,0,0,1-.75-.94,2.78,2.78,0,0,1-.27-1.26,2.65,2.65,0,0,1,.91-2.13A3.85,3.85,0,0,1,32,45.31a5.73,5.73,0,0,1,1.51.19A9.43,9.43,0,0,1,35,46l-.7,1.68A11.1,11.1,0,0,0,33,47.24a4.31,4.31,0,0,0-1-.13,1.37,1.37,0,0,0-.94.29.92.92,0,0,0-.33.74.91.91,0,0,0,.13.5,1.5,1.5,0,0,0,.42.41,14.24,14.24,0,0,0,1.37.72,5.36,5.36,0,0,1,2,1.37A2.66,2.66,0,0,1,35.06,52.82Z"/><path class="cls-2" d="M46.66,55.65H43.92l-4.44-7.71h-.06c.09,1.36.13,2.33.13,2.91v4.8H37.62V45.46h2.73l4.42,7.63h0c-.07-1.32-.1-2.26-.1-2.81V45.46h1.94Z"/><path class="cls-2" d="M54.26,55.65l-2.46-8h-.06c.09,1.63.13,2.72.13,3.26v4.74H49.94V45.46h2.94l2.42,7.79h0l2.56-7.79h2.94V55.65h-2V50.83c0-.23,0-.5,0-.79s0-1.09.1-2.37h-.06l-2.63,8Z"/><path class="cls-2" d="M71.16,48.64a3.1,3.1,0,0,1-1,2.51,4.41,4.41,0,0,1-2.92.87h-.93v3.63H64.12V45.46h3.25a4.27,4.27,0,0,1,2.82.8A2.88,2.88,0,0,1,71.16,48.64Zm-4.88,1.61H67a2.39,2.39,0,0,0,1.49-.39,1.39,1.39,0,0,0,.5-1.15,1.41,1.41,0,0,0-.42-1.12,1.94,1.94,0,0,0-1.3-.36h-1Z"/></svg>