<svg id="Layer_1" data-name="Layer 1" xmlns="http://www.w3.org/2000/svg" viewBox="0 0 100 100"><defs><style>.cls-1{fill:#1e5f90;}.cls-2{fill:#fff;}</style></defs><rect class="cls-1" x="24.6" y="38.47" width="51.11" height="23.06" rx="3"/><path class="cls-2" d="M38.62,52.82a2.63,2.63,0,0,1-1,2.17,4.35,4.35,0,0,1-2.77.8A6.59,6.59,0,0,1,32,55.18v-2a13.28,13.28,0,0,0,1.74.65A5.47,5.47,0,0,0,35,54a1.87,1.87,0,0,0,1.09-.27.94.94,0,0,0,.38-.81.84.84,0,0,0-.17-.53,1.66,1.66,0,0,0-.49-.45,13,13,0,0,0-1.32-.69,6.17,6.17,0,0,1-1.4-.84,3.38,3.38,0,0,1-.75-.94,2.78,2.78,0,0,1-.27-1.26A2.61,2.61,0,0,1,33,46.09a3.8,3.8,0,0,1,2.54-.78,5.73,5.73,0,0,1,1.51.19,10.53,10.53,0,0,1,1.51.53l-.7,1.68a11.1,11.1,0,0,0-1.34-.47,4.31,4.31,0,0,0-1.05-.13,1.37,1.37,0,0,0-.94.29.92.92,0,0,0-.33.74.91.91,0,0,0,.13.5,1.5,1.5,0,0,0,.42.41,14.24,14.24,0,0,0,1.37.72,5.36,5.36,0,0,1,2,1.37A2.66,2.66,0,0,1,38.62,52.82Z"/><path class="cls-2" d="M47.2,52.82a2.61,2.61,0,0,1-1,2.17,4.3,4.3,0,0,1-2.76.8,6.64,6.64,0,0,1-2.89-.61v-2a13.34,13.34,0,0,0,1.75.65,5.4,5.4,0,0,0,1.31.18,1.87,1.87,0,0,0,1.09-.27.94.94,0,0,0,.38-.81.9.9,0,0,0-.17-.53,1.66,1.66,0,0,0-.49-.45q-.33-.21-1.32-.69a6.17,6.17,0,0,1-1.4-.84,3.38,3.38,0,0,1-.75-.94,2.78,2.78,0,0,1-.28-1.26,2.62,2.62,0,0,1,.92-2.12,3.79,3.79,0,0,1,2.53-.78,5.81,5.81,0,0,1,1.52.19,11,11,0,0,1,1.51.53l-.7,1.68a10.59,10.59,0,0,0-1.35-.47,4.19,4.19,0,0,0-1.05-.13,1.41,1.41,0,0,0-.94.29,1,1,0,0,0-.19,1.24,1.5,1.5,0,0,0,.42.41,14.24,14.24,0,0,0,1.37.72,5.36,5.36,0,0,1,2,1.37A2.66,2.66,0,0,1,47.2,52.82Z"/><path class="cls-2" d="M58.11,55.65H56v-4.4h-4v4.4H49.76V45.46h2.16v4h4v-4h2.15Z"/><path class="cls-2" d="M67.81,55.65H60.69v-1.5l2.55-2.59A21.68,21.68,0,0,0,64.73,50a3.65,3.65,0,0,0,.5-.83,2.18,2.18,0,0,0,.15-.8,1.16,1.16,0,0,0-.33-.91,1.33,1.33,0,0,0-.91-.3,2.65,2.65,0,0,0-1.15.27,5.61,5.61,0,0,0-1.16.78l-1.17-1.39a7.68,7.68,0,0,1,1.25-.91A5.14,5.14,0,0,1,63,45.45a5.78,5.78,0,0,1,1.31-.14,3.88,3.88,0,0,1,1.68.35,2.67,2.67,0,0,1,1.14,1,2.55,2.55,0,0,1,.41,1.43,3.6,3.6,0,0,1-.25,1.32,5.13,5.13,0,0,1-.77,1.27,20,20,0,0,1-1.83,1.85l-1.31,1.23v.1h4.44Z"/></svg>