<svg id="Layer_1" data-name="Layer 1" xmlns="http://www.w3.org/2000/svg" xmlns:xlink="http://www.w3.org/1999/xlink" viewBox="0 0 100 100"><defs><style>.cls-1{fill:url(#linear-gradient);}.cls-10,.cls-11,.cls-2,.cls-6,.cls-7,.cls-8,.cls-9{fill-rule:evenodd;}.cls-2{fill:url(#linear-gradient-2);}.cls-3{fill:#4dcaed;}.cls-4{fill:url(#linear-gradient-3);}.cls-11,.cls-5{fill:#b7bdd2;}.cls-6{fill:url(#linear-gradient-4);}.cls-7{fill:#d1d1e0;}.cls-8{fill:url(#linear-gradient-5);}.cls-9{fill:url(#linear-gradient-6);}.cls-10{fill:#94a2c1;}</style><linearGradient id="linear-gradient" x1="-931.93" y1="674.47" x2="-931.69" y2="674.47" gradientTransform="matrix(0, -162.97, -162.97, 0, 109936.03, -151802.67)" gradientUnits="userSpaceOnUse"><stop offset="0" stop-color="#4b69b6"/><stop offset="1" stop-color="#435ea5"/></linearGradient><linearGradient id="linear-gradient-2" x1="-931.93" y1="674.47" x2="-931.69" y2="674.47" gradientTransform="matrix(0, -162.97, -162.97, 0, 109936.03, -151802.66)" gradientUnits="userSpaceOnUse"><stop offset="0" stop-color="#5773bb"/><stop offset="1" stop-color="#3a5290"/></linearGradient><linearGradient id="linear-gradient-3" x1="-932.07" y1="674.68" x2="-931.83" y2="674.68" gradientTransform="matrix(0, -112.04, -112.04, 0, 75610.88, -104363.68)" gradientUnits="userSpaceOnUse"><stop offset="0" stop-color="#22b2e7"/><stop offset="1" stop-color="#177a9e"/></linearGradient><linearGradient id="linear-gradient-4" x1="-931.81" y1="674.54" x2="-931.57" y2="674.54" gradientTransform="matrix(0, -293.14, -293.14, 0, 197776.93, -273059.78)" xlink:href="#linear-gradient"/><linearGradient id="linear-gradient-5" x1="-931.88" y1="674.98" x2="-931.64" y2="674.98" gradientTransform="matrix(0, -220.43, -220.43, 0, 148858.27, -205338.7)" gradientUnits="userSpaceOnUse"><stop offset="0" stop-color="#a7b1cd"/><stop offset="0.46" stop-color="#c8cbdc"/><stop offset="1" stop-color="#d1d2e0"/></linearGradient><linearGradient id="linear-gradient-6" x1="-932.16" y1="674.28" x2="-931.92" y2="674.28" gradientTransform="matrix(78.77, -246.07, -246.07, -78.77, 239363.94, -176196.85)" gradientUnits="userSpaceOnUse"><stop offset="0" stop-color="#b7bdd2"/><stop offset="1" stop-color="#607bb6"/></linearGradient></defs><circle class="cls-1" cx="19.63" cy="52.39" r="19.47"/><path class="cls-2" d="M19.63,32.93A19.47,19.47,0,1,1,.16,52.39,19.48,19.48,0,0,1,19.63,32.93Zm0,1.21A18.25,18.25,0,1,1,1.38,52.39,18.26,18.26,0,0,1,19.63,34.14Z"/><circle class="cls-3" cx="19.63" cy="52.39" r="14.6"/><circle class="cls-4" cx="19.63" cy="52.39" r="13.38"/><circle class="cls-5" cx="19.63" cy="52.39" r="10.04"/><path class="cls-6" d="M42.93,16.78a9.94,9.94,0,0,1,1.45,1.08,28.4,28.4,0,0,1,9.14,16c1.26,5.77,1.87,8.57-1.17,10.67-4.09,2.85,4.38,15,6,18.51-2.18,2.8-5,2.74-6.53,3.52-.84.43-.49,2-.36,3.25s1.24,2,.63,2.89-2.59.89-3.49,1.46c.86,1,2.77,1.9,2.52,3.13-.19,1-2.34.78-3.16,2.94-.44,1.16-.22,3.31-1.13,4.39A6.6,6.6,0,0,1,42,87.24a8,8,0,0,1-3.25-.34,35.76,35.76,0,0,1-9.42-4.74c1.17.2,2.44.38,3.78.53,3.89.43,5.84.06,7.71-2.16.8-1,.6-2.84,1-3.86.72-1.9,2.61-1.75,2.78-2.59.22-1.08-1.46-1.91-2.22-2.75.79-.5,2.6-.55,3.07-1.29s-.43-1.48-.55-2.53-.42-2.48.31-2.86C46.52,64,49,64,51,61.56c-1.45-3.1-8.91-13.78-5.3-16.28,2.67-1.85,2.13-4.31,1-9.39a25,25,0,0,0-8-14.09,11.52,11.52,0,0,0-4-2.22A36.23,36.23,0,0,1,42.93,16.78Z"/><path class="cls-7" d="M51.15,16.07c.77,0,1.55.07,2.32.14a36.34,36.34,0,0,1-2,72.51,6.59,6.59,0,0,0,.74-.66c1.54-1.59,1.83-3.49,2.1-5.44.14-1,.88-1.06,1.52-1.42C58.6,79.61,57.44,76,57.44,76A4.11,4.11,0,0,0,59,73.45c.24-1.39-.7-2.58-.9-4.18l1.15-.34c3.09-1,7.32-3.47,5.72-6.8-1.78-3.69-4.25-7.17-5.86-11-.64-1.49-1.36-3-1.11-4.39,3-2.17,3.64-5.69,3.2-8.88C60.05,29.42,56.83,21.79,51.15,16.07Z"/><path class="cls-8" d="M59.53,21.43a35.11,35.11,0,0,1,13,8.36c6.88,7.11,11,17.45,9,27.09C79.63,66,71.71,73.61,66.46,76c-2.52,1.12-4.55,1-4.54.66s.33-1,1.91-2.85c5.63-6.79,8.94-16.7,4-24.45a17,17,0,0,0-3.62-4,11.38,11.38,0,0,0,1-6.87A45.11,45.11,0,0,0,59.53,21.43Z"/><path class="cls-9" d="M49.32,2.43a56.93,56.93,0,0,0-28.81,60,8.51,8.51,0,0,1-.88,0,10,10,0,0,1-10-10A66.61,66.61,0,0,1,25.76,8.8,49.73,49.73,0,0,1,49.32,2.43Z"/><path class="cls-10" d="M25.76,8.8a50,50,0,0,1,74.4,43.6c0,26.71-24.25,51.35-60.32,43.47l-.08-.07c21.58,2.29,37.48-6.5,46.11-19.34l0-.08a42.8,42.8,0,0,0,7.3-24h0A43,43,0,0,0,13.44,30,66.94,66.94,0,0,1,25.76,8.8Z"/><path class="cls-11" d="M50.19,2.42a50,50,0,0,1,50,50A44.59,44.59,0,0,1,89.27,81.56a48.76,48.76,0,0,0-65.78-70c.73-.95,1.49-1.88,2.27-2.79a49.32,49.32,0,0,1,9.69-4.16h0l.37-.11h0l.38-.11.38-.11h0L37,4.2h0l.37-.1.38-.1.36-.09.06,0,.32-.08h.05l.37-.09.37-.08h.06l.31-.07.07,0,.34-.07h0l.38-.08h0l.33-.06.09,0,.29,0h.08l.37-.07L42,3.09h.08L42.39,3l.1,0,.31,0h.06l.37-.06h.06l.31,0h.1l.28,0,.1,0,.37,0,.37,0h.1l.27,0h.12l.29,0h.08l.37,0h.08l.3,0h.49l.38,0,.37,0h2.52Z"/></svg>