<svg id="Layer_1" data-name="Layer 1" xmlns="http://www.w3.org/2000/svg" xmlns:xlink="http://www.w3.org/1999/xlink" viewBox="0 0 100 100"><defs><style>.cls-1{fill:#2d2e83;}.cls-2{fill:url(#linear-gradient);}.cls-3{fill:#1fc2d7;}</style><linearGradient id="linear-gradient" x1="-447.94" y1="668.18" x2="-447.28" y2="668.18" gradientTransform="matrix(114.2, 0, 0, -114.2, 51166.4, 76358.45)" gradientUnits="userSpaceOnUse"><stop offset="0" stop-color="#0d0d27"/><stop offset="0.02" stop-color="#10102f"/><stop offset="0.1" stop-color="#1a1b4d"/><stop offset="0.19" stop-color="#232365"/><stop offset="0.28" stop-color="#282976"/><stop offset="0.38" stop-color="#2c2d80"/><stop offset="0.5" stop-color="#2d2e83"/><stop offset="0.62" stop-color="#2c2d80"/><stop offset="0.72" stop-color="#282976"/><stop offset="0.81" stop-color="#232365"/><stop offset="0.9" stop-color="#1a1b4d"/><stop offset="0.98" stop-color="#10102f"/><stop offset="1" stop-color="#0d0d27"/></linearGradient></defs><path class="cls-1" d="M69.5,4.29V60.85L50.19,72A1.36,1.36,0,0,1,49,72L29.63,60.85V4.29L16,12.21a7.49,7.49,0,0,0-3.73,6.48V75.25A7.56,7.56,0,0,0,16,81.74L45.87,99a7.57,7.57,0,0,0,7.46,0L83.25,81.74A7.49,7.49,0,0,0,87,75.25V18.69a7.56,7.56,0,0,0-3.73-6.48Z"/><path class="cls-2" d="M69.5,4.29V60.85L50.19,72A1.36,1.36,0,0,1,49,72L29.63,60.85V4.29L16,12.21a7.49,7.49,0,0,0-3.73,6.48V75.25A7.56,7.56,0,0,0,16,81.74L45.87,99a7.57,7.57,0,0,0,7.46,0L83.25,81.74A7.49,7.49,0,0,0,87,75.25V18.69a7.56,7.56,0,0,0-3.73-6.48Z"/><path class="cls-3" d="M87,18.69a7.56,7.56,0,0,0-3.73-6.48L63.35.69a4.84,4.84,0,0,0-5,0A5,5,0,0,0,55.89,5v43.6a7.56,7.56,0,0,0,3.73,6.48L83.25,68.77A7.48,7.48,0,0,1,87,75.25Z"/><path class="cls-3" d="M12.22,18.69A7.56,7.56,0,0,1,16,12.21L35.92.69a4.82,4.82,0,0,1,5,0A5,5,0,0,1,43.38,5v43.6a7.56,7.56,0,0,1-3.73,6.48L16,68.77a7.51,7.51,0,0,0-3.74,6.48Z"/></svg>