<svg id="Layer_1" data-name="Layer 1" xmlns="http://www.w3.org/2000/svg" viewBox="0 0 100 100"><defs><style>.cls-1{fill:#aec84d;}.cls-2,.cls-4{fill:#fff;}.cls-3{fill:none;}.cls-4{isolation:isolate;opacity:0.1;}</style></defs><path class="cls-1" d="M0,44.69V57.91s-.1,7.52,6.93,7.36c1.1,0,5.14.14,6.14-3V64.7h4.86v-20H13.08V57.05s.15,4.43-4,4.22A3.89,3.89,0,0,1,5,57.41L5,44.69Z"/><polygon class="cls-2" points="25.84 65.22 27.84 65.22 34.37 49.07 40.89 65.17 42.89 65.17 50.99 35.36 46.08 34.12 41.18 52.55 35.37 38.02 33.32 38.02 27.7 52.41 22.65 34.12 17.79 35.36 25.84 65.22"/><path class="cls-2" d="M50.85,58.46s1.23,3.71,3.28,5a15,15,0,0,0,7.19,1.81c1.67,0,10.15-.2,10.24-8,.72-4-2.76-6.91-3.71-7.48a31.56,31.56,0,0,0-6.53-3.29c-2.47-.71-4.9-2.29-5.09-3.52s0-4.86,5.33-4.91c3.72.38,3.86,2,4.43,2.81l1,2L71.09,41a36.4,36.4,0,0,0-2-4.19c-.38-.33-1.91-2.71-7.91-2.67S51.66,36.69,51.42,41s.66,6.28,5,9C59.18,51.41,62,51.74,65,54a4.38,4.38,0,0,1,1.57,4.38c0,.81-1,3.1-5.19,2.91s-4.95-1.86-5.24-2.34-1.28-2.43-1.28-2.43Z"/><rect class="cls-2" x="94.95" y="34.64" width="5.05" height="30.2"/><path class="cls-2" d="M84.33,48.74v3.95h3.91v8a7.48,7.48,0,0,1-3.82.61c-2.61-.09-6.76.24-7.09-11.67s5.33-11.52,6-11.52,4,.05,5.71,4.76c0,0,4.1-1.9,4.1-1.9a9.25,9.25,0,0,0-9.57-6.82c-7.81.39-10.81,4.43-11.24,14.58S75.47,65.51,84,65.17s9.14-1,9.14-1V48.75Z"/><circle class="cls-1" cx="67.9" cy="39.59" r="1.67"/><circle class="cls-2" cx="67.9" cy="39.59" r="0.5"/><path class="cls-3" d="M5,55.91,5,44.69H0v13A17.14,17.14,0,0,1,5,55.91Z"/><path class="cls-3" d="M17.94,44.69H13.08V55.84a17.89,17.89,0,0,1,4.86,1.57Z"/><path class="cls-4" d="M0,57.91s-.1,7.52,6.93,7.36c1.1,0,5.14.14,6.14-3V64.7h4.86V57.41a17.89,17.89,0,0,0-4.86-1.57v1.21s.15,4.43-4,4.22A3.89,3.89,0,0,1,5,57.41v-1.5a17.14,17.14,0,0,0-5,1.77Z"/><path class="cls-3" d="M42.4,48l-1.22,4.59-2-5c-3.27-.42-6.3-.94-9-1.53L27.7,52.41l-2.08-7.52a32.32,32.32,0,0,1-5.88-2.31l6.1,22.64h2l6.53-16.15,6.52,16.1h2l4.56-16.78C45.72,48.27,44,48.12,42.4,48Z"/><path class="cls-4" d="M51,35.36l-4.91-1.24L42.4,48c1.63.16,3.32.31,5.05.43Z"/><path class="cls-4" d="M22.65,34.12l-4.86,1.24,1.95,7.22a32.32,32.32,0,0,0,5.88,2.31Z"/><path class="cls-4" d="M35.37,38h-2l-3.14,8c2.71.59,5.74,1.11,9,1.53Z"/><path class="cls-4" d="M61.18,34.16c-6,.05-9.52,2.53-9.76,6.82-.2,3.62.41,5.61,3.25,7.75,1.52,0,3.07.06,4.63.06,2.27,0,4.5,0,6.68-.13a22.71,22.71,0,0,0-4.66-2.16c-2.47-.71-4.9-2.29-5.09-3.52s0-4.86,5.33-4.91c3.72.38,3.86,2,4.43,2.81l1,2L71.09,41a36.4,36.4,0,0,0-2-4.19C68.71,36.5,67.18,34.12,61.18,34.16Z"/><path class="cls-4" d="M83.57,34.16c-7.7.38-10.73,4.32-11.22,14.14,1.7-.13,3.37-.29,5-.46.26-10.06,5.37-9.72,6-9.72s4,.05,5.72,4.76c0,0,4.09-1.9,4.09-1.9A9.25,9.25,0,0,0,83.57,34.16Z"/><path class="cls-4" d="M95,44.25a23.54,23.54,0,0,0,5-2.34V34.64H95Z"/></svg>