<svg id="Layer_1" data-name="Layer 1" xmlns="http://www.w3.org/2000/svg" viewBox="0 0 100 100"><defs><style>.cls-1{fill:#88171a;}</style></defs><g id="layer1"><path id="path10" class="cls-1" d="M99.91,48.52S102.23,0,48.9,0C1.74,0,.27,46.54.27,46.54S-6.67,100,50,100c54.34,0,49.92-51.48,49.92-51.48ZM34,31.57c10-6.13,22.79-2.38,27.58,6.82A9.14,9.14,0,0,1,62,44.65C60,51,55.34,54.51,48.9,56a10.41,10.41,0,0,0,3.89-6,8.77,8.77,0,0,0-1.51-7,8.89,8.89,0,0,0-16,6.43c.36,4.12,3.49,6.8,9.35,7.81-.88.47-1.55.81-2.21,1.18a21.4,21.4,0,0,0-6.85,6c-.59.81-1,.87-1.91.32A19.49,19.49,0,0,1,34,31.57ZM25.17,76.08c-1.9.48-3.73,1.19-5.67,1.82.95-6.38,8.43-12.26,14.75-11.59a16.3,16.3,0,0,0-3.08,8.63c-2.1.39-4.08.65-6,1.14ZM65.43,13.75c1.87.07,3.74,0,5.61.08a9.31,9.31,0,0,1,1.39.2A13.73,13.73,0,0,1,71,15.84c-.67.62-1.43,1.23-2.39.28-.23-.22-.78-.17-1.18-.18-1.86,0-3.73-.08-5.58,0a35.16,35.16,0,0,0-4.81.49c-.3,0-.75,1-.61,1.41a5.52,5.52,0,0,0,1.49,2.36c2.58,2,5.33,3.87,7.92,5.89a20.58,20.58,0,0,1,6.29,7.08,18.56,18.56,0,0,1,1.11,12A26.15,26.15,0,0,1,62.92,61.66c-2.24,1.64-5,2.58-7.59,3.76-2.26,1-4.58,1.94-6.85,3a10.2,10.2,0,0,0-5.7,10.89,10.58,10.58,0,0,0,8.58,8.49A10.3,10.3,0,0,0,63,80.15c1.4-5.83-1.76-11-7.69-12.61l-1.06-.27c1.58-.71,2.95-1.21,4.21-1.91,2.21-1.21,4.37-2.5,6.5-3.85a1,1,0,0,1,1.49.06A20.34,20.34,0,0,1,73.6,74.85a20.61,20.61,0,0,1-11,21.25A20.83,20.83,0,1,1,48.36,57.29a20.28,20.28,0,0,0,11.19-5.94,16.62,16.62,0,0,0,3.23-4.75,13,13,0,0,0,.9-4.82,11.41,11.41,0,0,0-1-4.14c-1-2.36-5-6.11-6-6.9l-9.34-7.31c-.33-.27-.7-.25-1.5-.19a19.5,19.5,0,0,1-4.44-.08c.85-.64,3.17-1.58,4.16-2.33-3-2-6.47-1.31-9.64-1.92.73-1.36,4.36-3.46,6.42-3.7a30.46,30.46,0,0,0-.56-3.42,2.37,2.37,0,0,0-1.1-1.18C39.63,10,38.47,9.44,37.21,8.8A7.22,7.22,0,0,1,41,7.63,13.79,13.79,0,0,1,44.77,8,6.11,6.11,0,0,0,50.6,6.65c-1.41-.57-2.82-1.09-4.18-1.7A40.68,40.68,0,0,1,42.49,2.9c3.54.49,7,1.82,10.59,1.33l.09-.49-8.41-2c5-.46,9.68-.53,14.1,1.62C60.1,4,61.4,4.51,62.6,5.2a7.52,7.52,0,0,1,1.45,1.52,5.29,5.29,0,0,0,1.14,1.21,11.29,11.29,0,0,0,5.7.93c0-.23,0-.44,0-.67,2,.63,4.24,2.93,4.23,4.6-3.23,0-6.45,0-9.68,0a3.51,3.51,0,0,0-1,.39c.33.19.65.54,1,.55Z"/><path id="path12" d="M61.26,9a.5.5,0,0,0-.16.68.52.52,0,0,0,.1.11.74.74,0,0,0,1,.28h0c.31-.15.62-.32,1-.52l-.79-.68c-.44-.36-.81-.13-1.16.14Z"/></g></svg>