<svg id="Layer_1" data-name="Layer 1" xmlns="http://www.w3.org/2000/svg" viewBox="0 0 100 100"><defs><style>.cls-1{fill:#fff;}</style></defs><path class="cls-1" d="M99.26,37.79,93.91,43.1a2.54,2.54,0,0,1-3.5.06,60,60,0,0,0-80.82,0,2.54,2.54,0,0,1-3.5-.06L.74,37.79A2.47,2.47,0,0,1,.8,34.2a72.64,72.64,0,0,1,98.4,0A2.47,2.47,0,0,1,99.26,37.79ZM81.76,55.55l-5.39,5.32a2.53,2.53,0,0,1-3.44.12,35.2,35.2,0,0,0-45.86,0,2.54,2.54,0,0,1-3.44-.12l-5.39-5.32a2.46,2.46,0,0,1,.09-3.61,48,48,0,0,1,63.34,0A2.47,2.47,0,0,1,81.76,55.55ZM60,75A10,10,0,1,1,50,65,10,10,0,0,1,60,75Z"/></svg>