<svg id="Layer_1" data-name="Layer 1" xmlns="http://www.w3.org/2000/svg" viewBox="0 0 100 100"><defs><style>.cls-1{fill:#1e5f90;}.cls-2{fill:#fff;}</style></defs><rect class="cls-1" x="0.12" y="29.88" width="99.96" height="40.23" rx="3"/><path class="cls-2" d="M42,46.74H39.52l-2.37-3.85-2.37,3.85H32.47l3.38-5.26-3.16-4.93h2.38l2.2,3.67,2.15-3.67h2.33l-3.2,5.05Z"/><path class="cls-2" d="M46.63,40.23a3.29,3.29,0,0,1,2.35.83,3,3,0,0,1,.88,2.27A3.28,3.28,0,0,1,48.8,46a4.44,4.44,0,0,1-3,.92,5.83,5.83,0,0,1-2.74-.55V44.47a6.12,6.12,0,0,0,1.28.48,5.83,5.83,0,0,0,1.39.18c1.31,0,2-.54,2-1.62S47,42,45.65,42a5,5,0,0,0-.82.08,5.2,5.2,0,0,0-.72.15l-.86-.46.38-5.19h5.53v1.83H45.52l-.19,2,.25-.05A4.45,4.45,0,0,1,46.63,40.23Z"/><path class="cls-2" d="M58.5,41.64a7.17,7.17,0,0,1-.88,4,3,3,0,0,1-2.69,1.28,3,3,0,0,1-2.66-1.32,7,7,0,0,1-.9-3.92,7.17,7.17,0,0,1,.87-4,3.39,3.39,0,0,1,5.35.06A7,7,0,0,1,58.5,41.64Zm-5,0a7.81,7.81,0,0,0,.33,2.69,1.13,1.13,0,0,0,2.17,0,7.53,7.53,0,0,0,.34-2.68A7.56,7.56,0,0,0,56,39a1.13,1.13,0,0,0-2.17,0A7.85,7.85,0,0,0,53.51,41.64Z"/><path class="cls-2" d="M67,40.9a6.84,6.84,0,0,1-1.27,4.5,4.81,4.81,0,0,1-3.84,1.48,6.81,6.81,0,0,1-1.38-.1V45.05a4.93,4.93,0,0,0,1.23.15,4.36,4.36,0,0,0,1.78-.32,2.21,2.21,0,0,0,1.06-1A4.42,4.42,0,0,0,65,42H65a2.35,2.35,0,0,1-.94.92,2.87,2.87,0,0,1-1.32.27,2.68,2.68,0,0,1-2.1-.86A3.41,3.41,0,0,1,59.82,40a3.56,3.56,0,0,1,.93-2.59,3.41,3.41,0,0,1,2.54-1,3.65,3.65,0,0,1,2,.53,3.36,3.36,0,0,1,1.3,1.54A5.68,5.68,0,0,1,67,40.9Zm-3.69-2.74a1.27,1.27,0,0,0-1,.46,2.05,2.05,0,0,0-.37,1.32,1.79,1.79,0,0,0,.34,1.17,1.24,1.24,0,0,0,1,.44,1.63,1.63,0,0,0,1.12-.43,1.33,1.33,0,0,0,.47-1,2.25,2.25,0,0,0-.44-1.4A1.34,1.34,0,0,0,63.33,38.16Z"/><path class="cls-2" d="M10.89,55.33A2.21,2.21,0,0,0,9,56.25a4.22,4.22,0,0,0-.67,2.55c0,2.28.85,3.41,2.56,3.41a8.31,8.31,0,0,0,2.6-.53v1.81a7.2,7.2,0,0,1-2.8.52,4.29,4.29,0,0,1-3.41-1.35,5.74,5.74,0,0,1-1.17-3.87A6.36,6.36,0,0,1,6.68,56a4.21,4.21,0,0,1,1.67-1.84,5,5,0,0,1,2.54-.64,6.83,6.83,0,0,1,3,.72L13.17,56c-.38-.18-.76-.34-1.15-.48A3.5,3.5,0,0,0,10.89,55.33Z"/><path class="cls-2" d="M21.74,63.87H15.87V53.68h5.87v1.77H18v2.24h3.45v1.77H18v2.63h3.71Z"/><path class="cls-2" d="M26.24,60v3.91H24.08V53.68h3a5,5,0,0,1,3.07.76,3,3,0,0,1,.51,3.89,3.24,3.24,0,0,1-1.4,1.1q2.3,3.43,3,4.44H29.83L27.39,60Zm0-1.76h.7a2.63,2.63,0,0,0,1.51-.34,1.19,1.19,0,0,0,.49-1.07,1.12,1.12,0,0,0-.5-1,3,3,0,0,0-1.54-.31h-.66Z"/><path class="cls-2" d="M37.65,63.87H35.49V55.48H32.72v-1.8h7.7v1.8H37.65Z"/><path class="cls-2" d="M42.2,63.87V53.68h2.16V63.87Z"/><path class="cls-2" d="M49.27,63.87H47.14V53.68H53v1.77H49.27v2.63h3.46v1.76H49.27Z"/><path class="cls-2" d="M55.19,63.87V53.68h2.16V63.87Z"/><path class="cls-2" d="M64.46,55.33a2.22,2.22,0,0,0-1.89.92,4.29,4.29,0,0,0-.67,2.55c0,2.28.86,3.41,2.56,3.41a8.21,8.21,0,0,0,2.6-.53v1.81a7.17,7.17,0,0,1-2.8.52,4.26,4.26,0,0,1-3.4-1.35,5.69,5.69,0,0,1-1.18-3.87A6.22,6.22,0,0,1,60.26,56a4.24,4.24,0,0,1,1.66-1.84,5,5,0,0,1,2.54-.64,6.87,6.87,0,0,1,3,.72L66.75,56c-.38-.18-.77-.34-1.15-.48A3.6,3.6,0,0,0,64.46,55.33Z"/><path class="cls-2" d="M75.69,63.87,75,61.45H71.23l-.74,2.42H68.16l3.6-10.23H74.4L78,63.87Zm-1.26-4.24c-.68-2.19-1.07-3.44-1.15-3.73s-.15-.51-.19-.68q-.23.9-1.32,4.41Z"/><path class="cls-2" d="M83.44,63.87H81.28V55.48H78.51v-1.8h7.7v1.8H83.44Z"/><path class="cls-2" d="M93.86,63.87H88V53.68h5.87v1.77H90.15v2.24H93.6v1.77H90.15v2.63h3.71Z"/></svg>