<svg id="Layer_1" data-name="Layer 1" xmlns="http://www.w3.org/2000/svg" viewBox="0 0 198.23 202"><defs><style>.cls-1{fill:#fff;}</style></defs><title>circonus-pictogram-one-color-for-dark-background</title><path class="cls-1" d="M106.76,4.65C105.7,7.72,96.43,36.51,96.43,100c0,41.67,3.54,65.26,6.51,77.72.91,3.79,2.35,4.45,4.37,4.31a3,3,0,0,0,2.32-1.23,4.68,4.68,0,0,0,.72-3c-.61-12.34-.85-24-.72-34.78.56-46.62,8-56.26,14.4-59.45a7.4,7.4,0,0,1,6.88.07c5,2.72,6.08,10,8,26.31.72,6.1,1.52,12.86,2.67,19l5.64-9.38a5.89,5.89,0,0,1,3.19-2.57c.07,0,8-2.83,17.15-10.6a82,82,0,0,0,22.82-32l.79-1.92A95.52,95.52,0,0,0,107,3.94Z"/><path class="cls-1" d="M5.89,97.11c1.59,3.55,6,12,13,13.75,5.38,1.37,11.91-1.48,19.4-8.46a5.94,5.94,0,0,1,9.82,3,134.73,134.73,0,0,0,4.27,13.78c.88,2.36,1.78,4.48,2.67,6.29a1.1,1.1,0,0,0,1,.69c.18,0,.52-.07.58-1,.55-10.86.64-12.1.67-12.38,0-.11,0-.45.07-1.53V111C58.43,84.75,60.1,45.1,75.78,6.62A95.5,95.5,0,0,0,4.2,93.31Z"/><path class="cls-1" d="M84.56,100c0-31.9,2.13-59.15,6.33-81a2.26,2.26,0,0,0-.31-1.88,2.68,2.68,0,0,0-2-.9c-2.49-.16-4.21,1.16-5.22,4C71.65,53.38,70.26,86.09,69.25,110l-.07,1.56c-.8,18.73-1.16,27.27-6.28,30.83a7.78,7.78,0,0,1-7,1C48,140.78,42.44,128,39,117c-8,5.42-15.77,7.22-23.1,5.35a25.2,25.2,0,0,1-10.22-5.52,95.49,95.49,0,0,0,89.75,77.65C94.26,191.68,84.56,166.21,84.56,100Z"/><path class="cls-1" d="M156.36,127.37l-11.69,19.44a5.93,5.93,0,0,1-10.52-.68c-4-9.09-5.59-22.77-7-34.84-.28-2.39-.6-5.09-.95-7.7,0-.16-.1-.43-.4-.43h0c-.5,0-.62.06-.77.65-2.12,8.73-3.3,22-3.51,39.29-.28,23.4,1.48,47.45,1.55,48.46v.09A95.52,95.52,0,0,0,195,99.11q0-3.42-.24-6.8C181,115.4,162.47,124.78,156.36,127.37Z"/></svg>