<svg xmlns="http://www.w3.org/2000/svg" viewBox="0 0 412.2 413.3"><title>Circonus Logo Flat 2017</title><path d="M0 203.3C8.4 58.9 114.8 12.8 174.1 2.5c-3.2 3.7-27.6 34.8-36.2 114.5-13.4 98.1-15.2 118.4-22.5 148.8 0 0-1.7 8.4-3.5 0 0 0-8.2-36.2-16.4-41.9 0 0-9.9-11.5-21.3 14.2 0 0-4.2 11.1-16.6 13.4 0 .1-47.4 8.7-57.6-48.2zM188.3 8.4c-24.9 33.1-31 71.8-36.4 111.3-3.1 25.2-13.1 143.8-30.3 164.6-6.9 11.1-13.6 2.2-13.6 2.2-7.5-7.5-18-45.8-18-45.8-1-5.6-3.3-.1-3.3-.1-9.7 21.8-29.2 23.5-29.2 23.5-42.5 3.4-55.9-30.8-55.9-30.8v-.2c8.7 67.9 56.3 171 196.9 180.2C149 253.8 191.4 23.4 188.3 8.4z" fill="#3780B7"/><path d="M209.7 0c29.3.4 136.8 10.2 187.4 126 .9 4.4 10 56.8-36.4 97.6 0 0-21.7 20.9-85 45.3 0 0-10.7 1.9-11.2 15.9 0 0-1.9 3.3-2.9-.9-4.6-23.2-5.4-47.3-7.5-76.4 0 0-3.2-35-18.9-14.3-.7 2.7-19.2 16.1-17.6 135.1 0 0-1 70.9-5.7 75.4-2.7.5-21.3-43.3-22.3-183.4 1.2-39.1.3-114.9 20.1-220.3zm194.4 144.4c4.1 25.8-18 74.5-44.8 96.8-19.9 18.1-82.4 42.6-82.4 42.6-.7 5.4-5.6 13.4-5.6 13.4-12.3 14.5-18.9-5.7-18.9-5.7-8.3-30-9.9-86.5-9.9-86.5-9.2 13.1-11.7 92.5-11.7 92.5-.4 99-8 115.2-8 115.2 20-.8 51.9-10 55.8-11.8C424.5 339.3 421 202.5 404.1 144.4z" fill="#92BD58"/></svg>